<svg xmlns="http://www.w3.org/2000/svg" viewBox="0 0 23.33 23.33"><title>arcade</title><path d="M19.89,5.77c-1.8-1.59-4.14-2-6.89-1.18h-.07a3.42,3.42,0,0,1-2.59,0c-2.77-.82-5.09-.41-6.88,1.18C0,8.82-.21,15.22.1,17.07A2.47,2.47,0,0,0,1.66,19a2.56,2.56,0,0,0,.9.17,2.43,2.43,0,0,0,1.55-.55l1.73-1.38A5.67,5.67,0,0,1,9.38,16h4.56a5.72,5.72,0,0,1,3.55,1.24l1.72,1.38a2.48,2.48,0,0,0,4-1.54C23.55,15.22,23.33,8.82,19.89,5.77Zm1.73,11a.86.86,0,0,1-.53.66.82.82,0,0,1-.82-.14l-1.72-1.38A7.36,7.36,0,0,0,14,14.34H9.38a7.29,7.29,0,0,0-4.57,1.6L3.08,17.32a.82.82,0,0,1-1.35-.52C1.43,15,1.83,9.43,4.56,7A4.56,4.56,0,0,1,7.72,5.84a7,7,0,0,1,2.08.32,5.06,5.06,0,0,0,3.71,0c2.2-.64,3.93-.37,5.28.83C21.52,9.43,21.91,15,21.62,16.8Z" fill="#999"/><path d="M9.1,9.36H7.86V8.12a.83.83,0,1,0-1.65,0V9.36H5A.83.83,0,0,0,5,11H6.21v1.24a.83.83,0,1,0,1.65,0V11H9.1a.83.83,0,0,0,0-1.66Z" fill="#999"/><circle cx="16.55" cy="8.33" r="1" fill="#999"/><circle cx="16.55" cy="11.43" r="1" fill="#999"/><circle cx="15" cy="9.87" r="1" fill="#999"/><circle cx="18.1" cy="9.87" r="1" fill="#999"/></svg>