<svg xmlns="http://www.w3.org/2000/svg" viewBox="0 0 28 28" fill="#fff">
    <path d="M26.25,3H21.18A1.68,1.68,0,0,0,20,3.55L18,5.69l-7.68.11L8,3.51A1.68,1.68,0,0,0,6.82,3H1.75A1.82,1.82,0,0,0,0,4.88V22.69a1.83,1.83,0,0,0,1.75,1.87h24.5A1.83,1.83,0,0,0,28,22.69V4.88A1.82,1.82,0,0,0,26.25,3Zm0,19.69H1.75V4.88H6.82l2.8,2.81,9.05-.14,2.49-2.67h5.07Z"/>
    <path d="M14,12.52a.83.83,0,0,0,.62-.27,1,1,0,0,0,.26-.66V9.79A.94.94,0,0,0,14.44,9a.82.82,0,0,0-.88,0,.94.94,0,0,0-.44.81v1.8a1,1,0,0,0,.26.66A.83.83,0,0,0,14,12.52Z" fill-rule="evenodd"/>
    <path d="M18.15,10.35A4,4,0,0,1,14,13.65a4,4,0,0,1-4.15-3.3A1.82,1.82,0,0,0,8.1,8.62H4.21a1.71,1.71,0,0,0-1.28.6,2,2,0,0,0-.48,1.4C2.73,16.4,7.79,21,14,21s11.27-4.6,11.55-10.41a2,2,0,0,0-.48-1.4,1.71,1.71,0,0,0-1.28-.6H19.9A1.81,1.81,0,0,0,18.15,10.35ZM5,13.69a8.34,8.34,0,0,1-.8-3.19H8.1a4.91,4.91,0,0,0,.48,1.76ZM6,15.3l3.73-1.49a5.88,5.88,0,0,0,.88.7L8.75,17.65A9.5,9.5,0,0,1,6,15.3ZM13.12,19a10.49,10.49,0,0,1-2.8-.62l1.87-3.16a6.18,6.18,0,0,0,.93.2Zm1.76,0V15.46a7.67,7.67,0,0,0,.93-.19l1.87,3.15A10.42,10.42,0,0,1,14.88,19Zm4.43-1.39-1.87-3.13a5.55,5.55,0,0,0,.89-.71L22,15.26a9.36,9.36,0,0,1-2.71,2.39Zm3.68-4-3.57-1.35a4.91,4.91,0,0,0,.48-1.76h3.89a8.16,8.16,0,0,1-.8,3.19Z"/>
</svg>