<svg xmlns="http://www.w3.org/2000/svg" viewBox="0 0 24 24"><title>baccarat</title><path d="M22.5,3.4H18.15a1.49,1.49,0,0,0-1,.44L15.38,5.52l-6.55.1-2-1.84a1.49,1.49,0,0,0-1-.4H1.5A1.5,1.5,0,0,0,0,4.88V19.12a1.5,1.5,0,0,0,1.5,1.5h21a1.5,1.5,0,0,0,1.5-1.5V4.89A1.5,1.5,0,0,0,22.5,3.4Zm0,15.75H1.5V4.89H5.83l2.4,2.23L16,7l2.14-2.14h4.35Z" fill="#999"/><path d="M12,11a.75.75,0,0,0,.75-.74V8.82a.75.75,0,0,0-1.5,0v1.45A.75.75,0,0,0,12,11Z" fill="#999"/><path d="M15.56,9.28c-.12,1.48-1.69,2.64-3.56,2.64S8.56,10.76,8.44,9.28a1.51,1.51,0,0,0-1.5-1.36H3.61a1.47,1.47,0,0,0-1.09.48A1.53,1.53,0,0,0,2.1,9.5c.24,4.65,4.58,8.3,9.9,8.3s9.66-3.65,9.9-8.3a1.53,1.53,0,0,0-.42-1.1,1.45,1.45,0,0,0-1.08-.48H17A1.52,1.52,0,0,0,15.56,9.28ZM4.3,11.92a6.14,6.14,0,0,1-.69-2.55H6.94a3.78,3.78,0,0,0,.41,1.4Zm.84,1.28L8.3,12a5.13,5.13,0,0,0,.76.56L7.43,15.12a8,8,0,0,1-2.29-1.89Zm6.11,3a9.31,9.31,0,0,1-2.4-.49l1.6-2.53a7.08,7.08,0,0,0,.8.16Zm1.5,0V13.36a5.39,5.39,0,0,0,.8-.16l1.6,2.53a9.32,9.32,0,0,1-2.4.5Zm3.8-1.08L15,12.62a4.19,4.19,0,0,0,.76-.57l3.16,1.19a7.81,7.81,0,0,1-2.32,1.88Zm3.15-3.2-3.05-1.14a3.88,3.88,0,0,0,.41-1.41H20.4a6.31,6.31,0,0,1-.7,2.55Z" fill="#999"/></svg>