<svg xmlns="http://www.w3.org/2000/svg" viewBox="0 0 24 24" fill="#fff">
    <path d="M13.39,8.42a1.59,1.59,0,0,0-1.48,1.06,1.59,1.59,0,0,0-1.77-1,1.64,1.64,0,0,0-1.29,1.64c0,1.59.85,2.51,3,4.72a.1.1,0,0,0,.07,0,.08.08,0,0,0,.07,0h0c2.12-2.21,3-3.13,3-4.72a1.63,1.63,0,0,0-1.59-1.66Z" fill-rule="evenodd"/>
    <path d="M17.28,0H6.72A3.3,3.3,0,0,0,3.5,3.37V19.88a3.29,3.29,0,0,0,3.22,3.37H17.28a3.29,3.29,0,0,0,3.22-3.37V3.37A3.3,3.3,0,0,0,17.28,0ZM18.8,19.88a1.56,1.56,0,0,1-1.52,1.6H6.72a1.56,1.56,0,0,1-1.52-1.6V3.37A1.55,1.55,0,0,1,6.72,1.78H17.28A1.55,1.55,0,0,1,18.8,3.37Z"/>
    <path d="M6.9,2.73a.87.87,0,0,0-.85.89V5.74a.85.85,0,1,0,1.7,0V3.62A.87.87,0,0,0,6.9,2.73Z" fill-rule="evenodd"/>
    <path d="M17.1,16.63a.87.87,0,0,0-.85.89v2.12a.85.85,0,1,0,1.7,0V17.52A.87.87,0,0,0,17.1,16.63Z" fill-rule="evenodd"/>
</svg>