<svg xmlns="http://www.w3.org/2000/svg" viewBox="0 0 23.29 23.29"><title>blackjack</title><path d="M13.14,8.43A1.62,1.62,0,0,0,11.6,9.48a1.66,1.66,0,0,0-3.21.6c0,1.6.89,2.52,3.13,4.73a.09.09,0,0,0,.07,0,.11.11,0,0,0,.08,0h0c2.21-2.21,3.13-3.13,3.13-4.73A1.65,1.65,0,0,0,13.14,8.43Z" fill="#999"/><path d="M17.17,0h-11A3.38,3.38,0,0,0,2.76,3.38V19.91a3.38,3.38,0,0,0,3.38,3.38h11a3.39,3.39,0,0,0,3.37-3.38V3.38A3.38,3.38,0,0,0,17.17,0Zm1.6,19.91a1.6,1.6,0,0,1-1.6,1.6h-11A1.61,1.61,0,0,1,5,21a1.59,1.59,0,0,1-.47-1.13V3.38A1.61,1.61,0,0,1,5,2.24a1.58,1.58,0,0,1,1.13-.46h11a1.6,1.6,0,0,1,1.6,1.6Z" fill="#999"/><path d="M6.32,2.73a.89.89,0,0,0-.89.89V5.74a.89.89,0,1,0,1.78,0V3.62A.89.89,0,0,0,6.32,2.73Z" fill="#999"/><path d="M17,16.63a.89.89,0,0,0-.89.89v2.12a.89.89,0,1,0,1.78,0V17.52A.89.89,0,0,0,17,16.63Z" fill="#999"/></svg>