<svg xmlns="http://www.w3.org/2000/svg" viewBox="0 0 23.54 23.54"><title>board</title><circle cx="7.38" cy="15.81" r="1.38" fill="#999"/><circle cx="3.88" cy="12.35" r="1.38" fill="#999"/><circle cx="10.89" cy="12.35" r="1.38" fill="#999"/><circle cx="3.88" cy="19.27" r="1.38" fill="#999"/><circle cx="10.89" cy="19.27" r="1.38" fill="#999"/><circle cx="16.16" cy="7.73" r="1.38" fill="#999"/><circle cx="12.66" cy="4.27" r="1.38" fill="#999"/><circle cx="19.67" cy="4.27" r="1.38" fill="#999"/><circle cx="19.67" cy="11.19" r="1.38" fill="#999"/><path d="M21.69.35H10.62A1.84,1.84,0,0,0,8.77,2.19V8.42H1.85A1.85,1.85,0,0,0,0,10.27V21.35a1.84,1.84,0,0,0,1.85,1.84H12.92a1.84,1.84,0,0,0,1.85-1.84V15.12h6.92a1.85,1.85,0,0,0,1.85-1.85V2.19A1.84,1.84,0,0,0,21.69.35Zm-8.78,21H1.84V10.27H12.91Zm8.78-8.08H14.77v-3a1.85,1.85,0,0,0-1.85-1.85h-2.3V2.19H21.69Z" fill="#999"/></svg>