<svg xmlns="http://www.w3.org/2000/svg" viewBox="0 0 24 24" fill="#fff">
    <circle cx="11.99" cy="19.74" r="1"/>
    <path d="M21,18.35l-4.2-2.76v-.74a2,2,0,0,0-.68-1.5,7.43,7.43,0,0,0,1.12-2,12.94,12.94,0,0,1,1.47.54.86.86,0,0,0,.27.05.65.65,0,0,0,.36-.1.83.83,0,0,0,.36-.57c0-.22.67-5.38-1.93-8.66A7,7,0,0,0,12,0,7.09,7.09,0,0,0,6.09,2.58C3.47,5.86,4.14,11,4.2,11.24a.83.83,0,0,0,.36.57.7.7,0,0,0,.63,0,14.87,14.87,0,0,1,1.47-.54,7.12,7.12,0,0,0,1.13,2l-.15.12a2,2,0,0,0-.51,1.37v.8L3,18.35a4.1,4.1,0,0,0-1.73,3.39V23.2A.77.77,0,0,0,2,24H22a.77.77,0,0,0,.73-.8V21.74A4.1,4.1,0,0,0,21,18.35ZM6.88,7.33a4.62,4.62,0,0,0-.57,2.45,7.21,7.21,0,0,0-.73.26A10.26,10.26,0,0,1,7.2,3.61,5.71,5.71,0,0,1,12,1.6a5.71,5.71,0,0,1,4.72,2c1.56,2,1.71,4.91,1.66,6.4l-.73-.25a8.14,8.14,0,0,0,.08-1.1,7.94,7.94,0,0,0-.14-1.46.82.82,0,0,0-.29-.49c-.26-.2-.61-.44-1-.7-.79-.59-2.89-2-3-2.61a.74.74,0,0,0-.73-.66h0a.75.75,0,0,0-.74.64c0,.16-.73,3.92-4.25,3.56A.73.73,0,0,0,6.88,7.33Zm1,1.22a5.07,5.07,0,0,0,4.84-3.33,19.23,19.23,0,0,0,2.7,2.08l.74.49h0a6.51,6.51,0,0,1,.06.88,5.32,5.32,0,0,1,0,.69v.11a5.1,5.1,0,0,1-.13.68h0A4.52,4.52,0,0,1,12,13.91a4.52,4.52,0,0,1-4.14-3.86A2.83,2.83,0,0,1,7.93,8.55ZM12.72,16a.74.74,0,1,1-1.47,0,.78.78,0,0,1,.17-.48c.17,0,.34,0,.52,0a5.7,5.7,0,0,0,.58-.06.89.89,0,0,1,.2.49ZM5.49,22.4H2.73v-.68a2.46,2.46,0,0,1,1-2l.81-.49.95,3.2Zm1.56,0L5.84,18.32l1.29-.86A1.84,1.84,0,0,0,8.41,18.9L9,22.4Zm1.92-5h-.1A.32.32,0,0,1,8.56,17V14.85a.32.32,0,0,1,.31-.33H9l.12.06a5.92,5.92,0,0,0,.89.49,2.58,2.58,0,0,0-.16.87,2.66,2.66,0,0,0,.2,1Zm4.6,5h-.91a.8.8,0,0,0,.06-.3.74.74,0,1,0-1.47,0,.8.8,0,0,0,.06.3h-.88l-.56-3.72,1-.39a2.21,2.21,0,0,0,2.2,0l1.07.42ZM13.94,17a2.56,2.56,0,0,0,.22-1A2.72,2.72,0,0,0,14,15a5.43,5.43,0,0,0,.81-.46l.15-.06h.11a.32.32,0,0,1,.3.33v2.21a.31.31,0,0,1-.3.33h-.11Zm3,5.44H15l.54-3.54a1.86,1.86,0,0,0,1.19-1.46l1.37.91Zm4.35,0H18.45l1-3.26.84.55a2.46,2.46,0,0,1,1,2Z"/>
</svg>