<svg xmlns="http://www.w3.org/2000/svg" viewBox="0 0 23.26 23.26"><title>dealer</title><circle cx="11.65" cy="19.11" r="1" fill="#999"/><path d="M21.16,17.76l-4.44-2.67v-.72A1.8,1.8,0,0,0,16,12.92a6.61,6.61,0,0,0,1.19-2,16.27,16.27,0,0,1,1.55.52.72.72,0,0,0,.29.06.77.77,0,0,0,.77-.65c0-.22.71-5.21-2-8.39A7.79,7.79,0,0,0,11.56,0,7.82,7.82,0,0,0,5.37,2.49c-2.76,3.18-2.07,8.17-2,8.39a.76.76,0,0,0,.37.55.78.78,0,0,0,.71.06S5,11.25,6,11a6.64,6.64,0,0,0,1.2,2L7,13.06a1.81,1.81,0,0,0-.56,1.32v.78L2.09,17.78A3.88,3.88,0,0,0,.27,21.06v1.42a.78.78,0,0,0,.77.78H22.22a.78.78,0,0,0,.77-.78V21A3.86,3.86,0,0,0,21.16,17.76ZM6.25,7.09a4.12,4.12,0,0,0-.59,2.38c-.31.08-.58.17-.82.25,0-1.47.1-4.32,1.75-6.2a6.28,6.28,0,0,1,5-2,6.32,6.32,0,0,1,5,1.95c1.66,1.9,1.81,4.76,1.76,6.2l-.77-.24a7.69,7.69,0,0,0,.07-1.07,7.36,7.36,0,0,0-.15-1.48.76.76,0,0,0-.31-.47c-.27-.19-.64-.43-1.06-.68-.84-.53-3-1.91-3.17-2.49a.76.76,0,0,0-.77-.63h0a.77.77,0,0,0-.78.62A4.14,4.14,0,0,1,6.94,6.71a.79.79,0,0,0-.69.38ZM7.37,8.28a5.37,5.37,0,0,0,5.1-3.22,20.41,20.41,0,0,0,2.86,2l.77.47h0a4.88,4.88,0,0,1,.07.85,3.89,3.89,0,0,1-.05.68.17.17,0,0,1,0,.1c0,.22-.07.44-.12.65h0a4.42,4.42,0,0,1-8.72-.1A2.52,2.52,0,0,1,7.37,8.28Zm5,7.16A.78.78,0,1,1,11.05,15c.19,0,.37,0,.55,0s.42,0,.63,0a.78.78,0,0,1,.18.47ZM4.78,21.7H1.86V21a2.3,2.3,0,0,1,1.08-2l.87-.53,1,3.16Zm1.64,0-1.24-4,1.36-.82A1.85,1.85,0,0,0,7.89,18.3l.56,3.41Zm2-4.89H8.35A.32.32,0,0,1,8,16.49V14.37a.32.32,0,0,1,.09-.23.33.33,0,0,1,.23-.09h.11l.13.06a7.55,7.55,0,0,0,.94.48,2,2,0,0,0-.18.83,2.3,2.3,0,0,0,.22,1Zm4.85,4.89h-1a.72.72,0,0,0,.06-.29.78.78,0,1,0-1.55,0,.93.93,0,0,0,.05.29H10l-.59-3.61,1.06-.41a2.45,2.45,0,0,0,2.31,0l1.13.41Zm.4-5.27a2.28,2.28,0,0,0,.23-1,2.16,2.16,0,0,0-.19-.87,5.71,5.71,0,0,0,.85-.44l.17-.06h.11a.32.32,0,0,1,.32.31v2.15a.33.33,0,0,1-.32.32h-.11Zm3.16,5.27h-2l.56-3.43a1.86,1.86,0,0,0,1.27-1.42l1.44.87Zm4.58,0h-3l1-3.17.89.54a2.32,2.32,0,0,1,1.08,2Z" fill="#999"/></svg>