<svg xmlns="http://www.w3.org/2000/svg" viewBox="0 0 23.28 23.28"><title>jackpot</title><path d="M17.45,10.06A7.51,7.51,0,0,1,17,6.28a5.8,5.8,0,0,1,3.47-4.56l.1-.09a.49.49,0,0,0,.18-.14.67.67,0,0,0,.09-.14l.1-.16V.85h0a.61.61,0,0,0,0-.19.61.61,0,0,0-.05-.18h0a.83.83,0,0,0-.08-.12A.65.65,0,0,0,20.66.2a.71.71,0,0,0-.14-.1A.56.56,0,0,0,20.35,0H20C14.11,0,10.6,3.7,9.79,6.29A6.72,6.72,0,1,0,7.94,19.47a6.88,6.88,0,0,0,1.28-.15,6.72,6.72,0,1,0,8.22-9.15Zm-.82-7.68A7.59,7.59,0,0,0,15.07,6a9.82,9.82,0,0,0,.28,3.7,6.74,6.74,0,0,0-1.26.13A6.8,6.8,0,0,0,11.61,7c.18-1.15,1.82-3.57,5-4.64ZM8,17.46a4.8,4.8,0,1,1,4.27-6.94,6.72,6.72,0,0,0-3.63,5.94,6.22,6.22,0,0,0,.08,1,3.22,3.22,0,0,1-.76,0Zm7.39,3.84a4.8,4.8,0,1,1,4.8-4.8,4.8,4.8,0,0,1-4.8,4.8Z" fill="#999"/><path d="M15.35,12.21a4.22,4.22,0,0,0-4.22,4.22,1,1,0,1,0,1.92,0,2.3,2.3,0,0,1,2.3-2.3,1,1,0,0,0,0-1.92Z" fill="#999"/><path d="M8.91,9.37a1,1,0,0,0-1-1,4.22,4.22,0,0,0-4.22,4.22,1,1,0,0,0,1.92,0A2.3,2.3,0,0,1,8,10.33,1,1,0,0,0,8.91,9.37Z" fill="#999"/></svg>