<svg xmlns="http://www.w3.org/2000/svg" viewBox="0 0 24 24"><title>lottery</title><path d="M21.64,22.29h-3.7l-1-2.43,4.82-4.81.5-.5V6l-.5-.51-5-5L16.26,0H7.74l-.5.5-5,5L1.71,6v8.52l.51.5L7,19.86l-1,2.43H2.36a.86.86,0,1,0,0,1.71H6.64a.86.86,0,0,0,.8-.54L8.6,20.57h6.81l1.16,2.89a.86.86,0,0,0,.79.54h4.28a.86.86,0,1,0,0-1.71Zm-6.26-6.42a6.51,6.51,0,0,0,2.13-2.08l2.18.94-3.43,3.42Zm-8.2-5.58A4.83,4.83,0,1,1,12,15.1,4.83,4.83,0,0,1,7.18,10.29ZM3.43,8l2.2.86a6.72,6.72,0,0,0-.16,1.42,6.45,6.45,0,0,0,.3,2l-2.34,1ZM12,3.75a6.45,6.45,0,0,0-1.95.3L9,1.71H14.3l-.86,2.2A6.36,6.36,0,0,0,12,3.75Zm8.57,9.48-2.36-1a6.16,6.16,0,0,0,.3-2,6.27,6.27,0,0,0-.16-1.43L20.55,8Zm-.42-6.92-2.36.94A6.54,6.54,0,0,0,15,4.5l1-2.37ZM7.56,2.61l.93,2.17A6.6,6.6,0,0,0,6.21,7.25L3.86,6.31ZM4.32,14.73l2.18-.94a6.51,6.51,0,0,0,2.13,2.08l-.86,2.26Zm5,4.13.92-2.3a6.52,6.52,0,0,0,3.61,0l.92,2.3Z" fill="#999"/></svg>