<svg xmlns="http://www.w3.org/2000/svg" viewBox="0 0 24 24"><title>poker</title><path d="M12,0A12,12,0,1,0,24,12,12,12,0,0,0,12,0Zm4.56,6.34a7.37,7.37,0,0,0-3.72-1.6V1.64a10.4,10.4,0,0,1,5.94,2.49Zm-5.32-1.6A7.26,7.26,0,0,0,7.5,6.31L5.28,4.09a10.45,10.45,0,0,1,6-2.46ZM12,6.34A5.67,5.67,0,1,1,6.34,12,5.68,5.68,0,0,1,12,6.34ZM7.5,17.68a7.28,7.28,0,0,0,3.76,1.54v3.14a10.32,10.32,0,0,1-6-2.46Zm5.36,1.53a7.36,7.36,0,0,0,3.72-1.6l2.21,2.21a10.21,10.21,0,0,1-5.93,2.49Zm4.84-2.7a7.26,7.26,0,0,0,1.53-3.72h3.15a10.33,10.33,0,0,1-2.48,5.93Zm1.53-5.32a7.21,7.21,0,0,0-1.55-3.67L19.9,5.3a10.31,10.31,0,0,1,2.46,5.93Zm-15.09-6L6.37,7.44a7.22,7.22,0,0,0-1.6,3.75H1.62a10.39,10.39,0,0,1,2.51-6ZM1.66,12.79H4.8a7.25,7.25,0,0,0,1.6,3.76L4.18,18.78a10.33,10.33,0,0,1-2.54-6Z" fill="#999"/><path d="M11.08,13.86a2.27,2.27,0,0,1-.18-.8H9.63a2,2,0,0,0,.8,1.84,2.91,2.91,0,0,0,1,.34v.53a.6.6,0,0,0,.6.6.6.6,0,0,0,.6-.6v-.55a2.49,2.49,0,0,0,.9-.32,1.85,1.85,0,0,0,.87-1.72,1.65,1.65,0,0,0-.63-1.38,4.44,4.44,0,0,0-1.14-.55V9.44a.59.59,0,0,1,.28.26,1.87,1.87,0,0,1,.14.61h1.23a1.83,1.83,0,0,0-.8-1.6,2.08,2.08,0,0,0-.84-.31V8a.6.6,0,1,0-1.2,0v.32a1.94,1.94,0,0,0-.33.07A1.86,1.86,0,0,0,10,9.46a2,2,0,0,0-.14.8,1.7,1.7,0,0,0,.36,1.13,2.42,2.42,0,0,0,1.25.73v2a.71.71,0,0,1-.35-.24ZM12.8,12.7a.81.81,0,0,1,.27.64.87.87,0,0,1-.29.74.61.61,0,0,1-.18.09v-1.6a1.37,1.37,0,0,1,.2.13Zm-1.51-1.94a.74.74,0,0,1-.3-.62.78.78,0,0,1,.2-.57.77.77,0,0,1,.21-.14v1.39Z" fill="#999"/></svg>