<svg xmlns="http://www.w3.org/2000/svg" viewBox="0 0 24 24" fill="#fff">
    <path d="M12,0C5.4,0,0,5.4,0,12s5.4,12,12,12s12-5.4,12-12c0-3.2-1.3-6.2-3.5-8.5S15.2,0,12,0z M16.6,6.4c-1.1-0.9-2.4-1.4-3.7-1.6V1.6c2.2,0.2,4.3,1.1,5.9,2.5L16.6,6.4z M11.2,4.8C9.9,4.9,8.6,5.5,7.5,6.3L5.3,4.1c1.7-1.4,3.8-2.3,6-2.5V4.8z M12,6.4c2.3,0,4.4,1.4,5.2,3.5s0.4,4.6-1.3,6.2c-1.6,1.6-4.1,2.1-6.2,1.2c-2.1-0.9-3.5-3-3.5-5.3C6.3,8.9,8.9,6.3,12,6.4L12,6.4z M7.5,17.7c1.1,0.9,2.4,1.4,3.8,1.5v3.2c-2.2-0.2-4.3-1-6-2.5L7.5,17.7z M12.8,19.2c1.4-0.2,2.7-0.7,3.7-1.6l2.2,2.2c-1.7,1.5-3.7,2.4-5.9,2.6V19.2z M17.7,16.5c0.8-1.1,1.4-2.4,1.5-3.7h3.2c-0.2,2.2-1,4.3-2.5,5.9L17.7,16.5z M19.2,11.2c-0.1-1.4-0.7-2.6-1.5-3.7l2.2-2.2c1.4,1.7,2.3,3.7,2.5,5.9H19.2z M4.1,5.2l2.2,2.2c-0.9,1.1-1.4,2.4-1.6,3.8H1.6C1.8,9,2.7,6.9,4.1,5.2L4.1,5.2z M1.6,12.8h3.2c0.2,1.4,0.7,2.7,1.6,3.8l-2.3,2.2C2.7,17.1,1.8,15,1.6,12.8L1.6,12.8z"/>
    <circle cx="15.4" cy="3.9" r="1.2"/>
    <path d="M8.7,13.2c0.3,0,0.6-0.2,0.9-0.4h1c0.1,0.2,0.3,0.4,0.6,0.6v1c-0.3,0.2-0.4,0.5-0.4,0.9c0,0.7,0.5,1.2,1.2,1.2s1.2-0.5,1.2-1.2c0-0.3-0.1-0.7-0.4-0.9v-1c0.2-0.1,0.4-0.3,0.6-0.6h1c0.2,0.3,0.5,0.4,0.9,0.4c0.7,0,1.2-0.5,1.2-1.2s-0.5-1.2-1.2-1.2c-0.3,0-0.7,0.1-0.9,0.4h-1c-0.1-0.2-0.3-0.4-0.6-0.6v-1c0.3-0.2,0.4-0.5,0.4-0.9c0-0.7-0.5-1.2-1.2-1.2S10.8,8,10.8,8.7c0,0.3,0.1,0.7,0.4,0.9v1c-0.2,0.1-0.4,0.3-0.6,0.6h-1c-0.2-0.3-0.5-0.4-0.9-0.4c-0.7,0-1.2,0.5-1.2,1.2S8,13.2,8.7,13.2L8.7,13.2z"/>
</svg>
