<svg xmlns="http://www.w3.org/2000/svg" viewBox="0 0 24 24"><title>roulette</title><path d="M12,0A12,12,0,1,0,24,12,12,12,0,0,0,12,0Zm4.56,6.34a7.37,7.37,0,0,0-3.72-1.6V1.64a10.37,10.37,0,0,1,5.94,2.49Zm-5.32-1.6A7.29,7.29,0,0,0,7.49,6.28L5.26,4.06a10.35,10.35,0,0,1,6-2.46Zm.8,1.6A5.67,5.67,0,1,1,6.34,12,5.67,5.67,0,0,1,12,6.34ZM7.49,17.68a7.29,7.29,0,0,0,3.75,1.54v3.14a10.35,10.35,0,0,1-6-2.46Zm5.35,1.53a7.2,7.2,0,0,0,3.72-1.6l2.22,2.21a10.21,10.21,0,0,1-5.94,2.49Zm4.85-2.7a7.26,7.26,0,0,0,1.53-3.72h3.14a10.32,10.32,0,0,1-2.45,5.93Zm1.53-5.32a7.3,7.3,0,0,0-1.53-3.67L19.91,5.3a10.23,10.23,0,0,1,2.45,5.93Zm-15.09-6L6.35,7.44a7.2,7.2,0,0,0-1.56,3.75H1.64a10.33,10.33,0,0,1,2.49-6ZM1.64,12.79H4.79a7.23,7.23,0,0,0,1.56,3.76L4.13,18.78a10.38,10.38,0,0,1-2.49-6Z" fill="#999"/><circle cx="15.41" cy="3.86" r="1.2" fill="#999"/><path d="M8.74,13.2a1.17,1.17,0,0,0,.89-.41h1a1.72,1.72,0,0,0,.58.59v1a1.2,1.2,0,1,0,2,.89,1.16,1.16,0,0,0-.4-.89v-1a1.64,1.64,0,0,0,.58-.59h1a1.15,1.15,0,0,0,.88.41,1.2,1.2,0,1,0-.88-2h-1a1.59,1.59,0,0,0-.58-.57v-1a1.14,1.14,0,0,0,.4-.88,1.2,1.2,0,1,0-2,.88v1a1.76,1.76,0,0,0-.58.57h-1a1.2,1.2,0,0,0-2.05,1.1,1.19,1.19,0,0,0,1.16.91Z" fill="#999"/></svg>