<svg xmlns="http://www.w3.org/2000/svg" viewBox="0 0 24 24"><title>scratch</title><path d="M22.47,4H1.53A1.53,1.53,0,0,0,0,5.54V18.46A1.53,1.53,0,0,0,1.53,20H22.47A1.53,1.53,0,0,0,24,18.46V5.54A1.53,1.53,0,0,0,22.47,4Zm0,14.45H1.53V5.54H22.47Z" fill="#999"/><path d="M4,15.43H20a.5.5,0,0,0,.35-.14.52.52,0,0,0,.14-.35V8.8A.48.48,0,0,0,20,8.31H4a.49.49,0,0,0-.49.49v6.14a.53.53,0,0,0,.15.35.48.48,0,0,0,.34.14Zm3.49-5.35c1.46-.26,1.6.65,1.67,1.6A2.19,2.19,0,0,1,10.93,10c1.22-.19,1.73.75,2.17,1.74.18-.36.36-.72.52-1.08s1.76-.8,2-.4l1,1.49a3.82,3.82,0,0,0,.21-.46c.2-.47,2.15-.66,2-.31a8.6,8.6,0,0,1-1.36,2.2c-.27.3-1.72.86-2,.39l-.8-1.23c-.2.37-.4.74-.62,1.11s-1.64.8-2,.46A7.14,7.14,0,0,1,11,12a5.77,5.77,0,0,1-.72,1.6,2.24,2.24,0,0,1-1.84.52,1.16,1.16,0,0,1-.86-.8c-.08.48-2,.8-2,.44-.12-1.48,0-3.32,1.93-3.68Z" fill="#999"/></svg>