<svg xmlns="http://www.w3.org/2000/svg" viewBox="0 0 23.21 23.21"><title>slot</title><path d="M23.21,5.57a2.33,2.33,0,0,0-4.66,0,2.32,2.32,0,0,0,1.53,2.17V13c0,.08-.15.2-.37.2h-.25v-3A1.65,1.65,0,0,0,17.81,8.5H1.66A1.66,1.66,0,0,0,0,10.12v8.06a1.65,1.65,0,0,0,1.66,1.65H17.85a1.65,1.65,0,0,0,1.66-1.65V14.75h.24a1.9,1.9,0,0,0,2-1.82V7.72A2.3,2.3,0,0,0,23.21,5.57ZM17.85,18.18H1.66V10.1H17.85Zm3-13.33a.71.71,0,0,1,.66.44.69.69,0,0,1-.15.78.72.72,0,0,1-.78.15.7.7,0,0,1,.27-1.35Z" fill="#999"/><path d="M6.11,11.27H3.68a.82.82,0,0,0-.82.82v4.1a.83.83,0,0,0,.82.83H6.11a.83.83,0,0,0,.83-.83v-4.1A.83.83,0,0,0,6.11,11.27ZM5.28,15.4H4.45V12.92h.83Z" fill="#999"/><path d="M11,11.3H8.54a.83.83,0,0,0-.83.83v4.14a.83.83,0,0,0,.83.82H11a.82.82,0,0,0,.82-.82V12.13A.83.83,0,0,0,11,11.3Zm-.83,4.1H9.31V12.91h.83Z" fill="#999"/><path d="M15.82,11.27H13.4a.83.83,0,0,0-.83.82v4.1a.83.83,0,0,0,.83.83h2.42a.83.83,0,0,0,.82-.83v-4.1A.82.82,0,0,0,15.82,11.27ZM15,15.4h-.83V12.92H15Z" fill="#999"/></svg>