<svg xmlns="http://www.w3.org/2000/svg" viewBox="0 0 25.16 25.16" fill="#fff">
    <path d="M17.12,13.64h4.57a.53.53,0,0,0,.51-.54V6.28a.53.53,0,0,0-.51-.54H17.12a.53.53,0,0,0-.51.54V13.1a.56.56,0,0,0,.15.39A.48.48,0,0,0,17.12,13.64ZM18.29,7.8a.84.84,0,0,1,.66,0,.89.89,0,0,1,.46.51.85.85,0,0,1,.84-.57.87.87,0,0,1,.84.89c0,.89-.48,1.33-1.63,2.51h0a.07.07,0,0,1-.09,0C18.22,10,17.75,9.48,17.75,8.63a.89.89,0,0,1,.54-.83Z"/>
    <path d="M10.29,13.64h4.58a.53.53,0,0,0,.51-.54V6.28a.53.53,0,0,0-.51-.54H10.29a.53.53,0,0,0-.51.54V13.1a.56.56,0,0,0,.15.39A.51.51,0,0,0,10.29,13.64Zm2.29-6.41,1.59,2.22-1.59,2.22L11,9.45Z"/>
    <path d="M3.47,13.64H8a.53.53,0,0,0,.52-.54V6.28A.53.53,0,0,0,8,5.74H3.47A.53.53,0,0,0,3,6.28V13.1a.61.61,0,0,0,.15.39A.51.51,0,0,0,3.47,13.64ZM5.71,7.52h0l0,0,0,0C7,8.69,7.42,9.18,7.42,10a.86.86,0,0,1-.55.82.85.85,0,0,1-.91-.2v.84h.33a.21.21,0,0,1,.2.22.21.21,0,0,1-.2.21H5.23a.21.21,0,0,1-.2-.21.21.21,0,0,1,.2-.22h.34V10.6a.8.8,0,0,1-.6.27A.86.86,0,0,1,4.13,10C4.09,9.18,4.56,8.69,5.71,7.52Z"/>
    <path d="M23.56.83H1.61a1.53,1.53,0,0,0-1.14.49A1.76,1.76,0,0,0,0,2.52V18.66a2.66,2.66,0,0,0,.69,1.87,2.34,2.34,0,0,0,1.73.79h9.15V22.6H8a.9.9,0,0,0,0,1.69h8.82A.8.8,0,0,0,17.7,24a.89.89,0,0,0,0-1,.79.79,0,0,0-.93-.33H13.18V21.32h9.54a2.36,2.36,0,0,0,1.74-.79,2.66,2.66,0,0,0,.69-1.87V2.52a1.7,1.7,0,0,0-.46-1.2A1.58,1.58,0,0,0,23.56.83Zm0,17.85a.9.9,0,0,1-.22.67.85.85,0,0,1-.62.29H2.42a.83.83,0,0,1-.61-.29.9.9,0,0,1-.22-.67V18.6h22Zm0-4.3v2.49H1.61v-.74h0V14.36h0V2.52h22Z"/>
</svg>