<svg xmlns="http://www.w3.org/2000/svg" viewBox="0 0 23.98 23.98"><title>vpoker</title><path d="M16.32,12.94h4.36a.48.48,0,0,0,.49-.48V6.32a.48.48,0,0,0-.49-.49H16.32a.49.49,0,0,0-.49.49v6.1a.5.5,0,0,0,.13.37A.51.51,0,0,0,16.32,12.94Zm1.11-5.25a.77.77,0,0,1,.63,0,.81.81,0,0,1,.44.45.83.83,0,0,1,1.6.29c0,.76-.46,1.2-1.56,2.26h-.08c-1.1-1.06-1.6-1.5-1.6-2.26a.8.8,0,0,1,.57-.74Z" fill="#999"/><path d="M9.81,12.94h4.36a.48.48,0,0,0,.49-.48V6.32A.49.49,0,0,0,14.51,6a.48.48,0,0,0-.34-.14H9.81a.49.49,0,0,0-.49.49v6.1a.5.5,0,0,0,.13.37A.48.48,0,0,0,9.81,12.94ZM12,7.17l1.53,2-1.53,2-1.52-2Z" fill="#999"/><path d="M3.27,12.94H7.64a.5.5,0,0,0,.49-.48V6.32a.48.48,0,0,0-.49-.49H3.27A.48.48,0,0,0,2.93,6a.53.53,0,0,0-.15.35v6.1a.55.55,0,0,0,.14.37.47.47,0,0,0,.35.15ZM5.42,7.42H5.5c1.09,1.07,1.55,1.5,1.55,2.27a.8.8,0,0,1-.53.73.86.86,0,0,1-.87-.17v.69H6a.21.21,0,0,1,.2.08.22.22,0,0,1,0,.22.19.19,0,0,1-.2.08H5a.19.19,0,0,1-.2-.08.22.22,0,0,1,0-.22.21.21,0,0,1,.2-.08h.31v-.7a.83.83,0,0,1-.58.24.8.8,0,0,1-.8-.8c0-.76.44-1.19,1.54-2.26Z" fill="#999"/><path d="M22.47,1.4H1.53A1.52,1.52,0,0,0,0,2.93V17.47a2.36,2.36,0,0,0,2.31,2.4H11V21H7.58a.79.79,0,0,0-.89.29.81.81,0,0,0,0,.94.79.79,0,0,0,.89.29H16A.8.8,0,0,0,16,21H12.55V19.87h9.12a2.37,2.37,0,0,0,1.66-.72A2.32,2.32,0,0,0,24,17.47V15.94a.17.17,0,0,0,0-.1V2.93A1.53,1.53,0,0,0,22.47,1.4Zm0,16.07a.8.8,0,0,1-.8.86H2.31a.77.77,0,0,1-.58-.26.79.79,0,0,1-.22-.6v-.1h21Zm0-3.87v2.24H1.53v-.66h0v-1.6h0V2.93H22.47Z" fill="#999"/></svg>