<svg xmlns="http://www.w3.org/2000/svg" viewBox="0 0 21.45 21.45"><path d="M3.6 13.72a1.19 1.19 0 1 1-2.37 0V8.37a1.19 1.19 0 1 1 2.37 0v5.35zm16.63 0a1.19 1.19 0 0 1-2.38 0V8.37a1.19 1.19 0 0 1 2.38 0v5.35zM9.54 20.26a1.19 1.19 0 1 1-2.38 0v-5.35a1.19 1.19 0 0 1 2.38 0zm4.75 0a1.19 1.19 0 1 1-2.38 0v-5.35a1.19 1.19 0 0 1 2.38 0z"/><path d="M4.79 7.18v8.92A1.18 1.18 0 0 0 6 17.28h9.5a1.18 1.18 0 0 0 1.18-1.19V7.18zm5.94-5.95C7.16 1.23 5 3.37 4.79 6h11.87c-.18-2.63-2.37-4.77-5.93-4.77zM8.35 4.56A.56.56 0 0 1 7.76 4a.59.59 0 1 1 1.18 0 .59.59 0 0 1-.59.56zm4.75 0a.56.56 0 0 1-.59-.56.59.59 0 1 1 1.18 0 .59.59 0 0 1-.59.56z"/><path d="M13.28 2.72a.85.85 0 0 1-.36-.12.6.6 0 0 1-.18-.83l1-1.49a.58.58 0 0 1 .84-.18.58.58 0 0 1 .18.83l-1 1.49a.46.46 0 0 1-.48.3zm-5.34-.24a.53.53 0 0 1-.48-.3L6.69.93A.58.58 0 0 1 6.87.1a.58.58 0 0 1 .83.18l.77 1.25a.58.58 0 0 1-.18.83.85.85 0 0 1-.36.12z"/></svg>