<svg xmlns="http://www.w3.org/2000/svg" viewBox="0 0 19 20"><rect x=".8" y="2.4" width="17.4" height="16.8" rx="3.2" ry="3.2" fill="none" stroke="#777" stroke-width="1.6"/><path fill="#fff" stroke="#777" stroke-width=".8" d="M1.19 6h16.62v1H1.19z"/><rect x="12.67" y="8.8" width="3.17" height="3.2" rx=".8" ry=".8" fill="#777"/><rect x="7.92" y="8.8" width="3.17" height="3.2" rx=".8" ry=".8" fill="#777"/><rect x="12.67" y="13.6" width="3.17" height="3.2" rx=".8" ry=".8" fill="#777"/><rect x="7.92" y="13.6" width="3.17" height="3.2" rx=".8" ry=".8" fill="#777"/><rect x="3.17" y="13.6" width="3.17" height="3.2" rx=".8" ry=".8" fill="#777"/><path d="M4.86.4a.5.5 0 0 1 .5.5v3a.5.5 0 0 1-.5.5.5.5 0 0 1-.5-.5v-3a.5.5 0 0 1 .5-.5zM14.36.4a.5.5 0 0 1 .5.5v3a.5.5 0 0 1-.5.5.5.5 0 0 1-.5-.5v-3a.5.5 0 0 1 .5-.5z" fill="#fff" stroke="#777" stroke-width=".8"/></svg>