<svg xmlns="http://www.w3.org/2000/svg" viewBox="0 0 23.97 24">
    <path d="M12,0A12,12,0,1,0,24,12,12,12,0,0,0,12,0Zm4.56,6.34a7.37,7.37,0,0,0-3.72-1.6V1.64a10.37,10.37,0,0,1,5.94,2.49Zm-5.32-1.6A7.23,7.23,0,0,0,7.48,6.31L5.25,4.09a10.48,10.48,0,0,1,6-2.46ZM12,6.34A5.67,5.67,0,1,1,6.32,12,5.68,5.68,0,0,1,12,6.34ZM7.48,17.68a7.25,7.25,0,0,0,3.75,1.54v3.14a10.35,10.35,0,0,1-6-2.46Zm5.35,1.53a7.28,7.28,0,0,0,3.72-1.6l2.22,2.21a10.27,10.27,0,0,1-5.94,2.49Zm4.84-2.7a7.27,7.27,0,0,0,1.54-3.72h3.14a10.32,10.32,0,0,1-2.47,5.93Zm1.54-5.32a7.22,7.22,0,0,0-1.56-3.67L19.88,5.3a10.23,10.23,0,0,1,2.45,5.93Zm-15.09-6L6.34,7.44a7.3,7.3,0,0,0-1.6,3.75H1.6a10.31,10.31,0,0,1,2.5-6ZM1.63,12.79H4.77a7.33,7.33,0,0,0,1.6,3.76L4.15,18.78a10.33,10.33,0,0,1-2.54-6Z"/>
</svg>