<svg xmlns="http://www.w3.org/2000/svg" viewBox="0 0 21.67 21.67"><title>Монтажная область 1</title><path d="M10.83,0A10.83,10.83,0,0,0,0,10.81H0A10.74,10.74,0,0,0,7.42,21.15,10.85,10.85,0,1,0,10.83,0Zm4.66,15.49a1.07,1.07,0,0,1-1.52,0h0l-3.11-3.11a0,0,0,0,0,0,0L7.7,15.49a1.07,1.07,0,0,1-1.52,0h0a1.07,1.07,0,0,1,0-1.52h0l3.11-3.11a0,0,0,0,0,0,0L6.18,7.7a1.07,1.07,0,0,1,0-1.52h0a1.07,1.07,0,0,1,1.52,0h0l3.11,3.11a0,0,0,0,0,0,0L14,6.18a1.08,1.08,0,0,1,1.53,0h0a1.07,1.07,0,0,1,0,1.52h0l-3.11,3.11a0,0,0,0,0,0,0L15.49,14A1.11,1.11,0,0,1,15.49,15.49Z" fill="#fff"/></svg>