<svg xmlns="http://www.w3.org/2000/svg" viewBox="0 0 21.13 21.12">
    <path d="M7.93,15.84H2.65A2.64,2.64,0,0,1,0,13.2V4.4a.84.84,0,0,1,.25-.62L3.78.26A.88.88,0,0,1,4.41,0h7a2.64,2.64,0,0,1,2.64,2.64V6.16a.88.88,0,1,1-1.76,0V2.64a.88.88,0,0,0-.88-.88H4.77l-3,3V13.2a.87.87,0,0,0,.88.88H7.93a.88.88,0,1,1,0,1.76Z"/>
    <path d="M18.5 21.12H9.7a2.64 2.64 0 0 1-2.64-2.64v-8.8a.84.84 0 0 1 .25-.62l3.52-3.52a.88.88 0 0 1 .63-.26h7a2.64 2.64 0 0 1 2.64 2.64v10.56a2.64 2.64 0 0 1-2.6 2.64zM8.8 10v8.44a.87.87 0 0 0 .88.88h8.8a.88.88 0 0 0 .88-.88V7.92a.88.88 0 0 0-.88-.92H11.8z"/>
    <path d="M11.45 10.56H7.93a.88.88 0 0 1-.63-1.5l3.52-3.52a.88.88 0 0 1 1-.2.89.89 0 0 1 .55.82v3.52a.88.88 0 0 1-.92.88zm-1.4-1.76h.52v-.52zM4.4 5.28H.9a.88.88 0 0 1-.63-1.5L3.78.26a.88.88 0 0 1 1-.2.89.89 0 0 1 .55.82V4.4a.88.88 0 0 1-.92.88zM3 3.52h.52V3z"/>
</svg>