<svg xmlns="http://www.w3.org/2000/svg" viewBox="0 0 28 28">
    <path d="M25.9,10.51a2.07,2.07,0,0,0-2.1,2s0,.07,0,.11l-2.9.46a6,6,0,0,0-2.35-4l1.67-2.8a3.34,3.34,0,0,0,.76.12,2.8,2.8,0,0,0,2.76-2.19,2.7,2.7,0,0,0-1.68-3,2.85,2.85,0,0,0-3.41,1A2.67,2.67,0,0,0,19,5.65L17.37,8.4a6.26,6.26,0,0,0-5.67.15L9.46,5.47A1.94,1.94,0,0,0,9.78,4.4a2.1,2.1,0,0,0-4.2,0,2.07,2.07,0,0,0,2.1,2,2.26,2.26,0,0,0,.68-.12l2.19,3a6,6,0,0,0-2.11,4l-3,.48a2.79,2.79,0,0,0-3.13-1.86,2.68,2.68,0,0,0,.24,5.34,2.77,2.77,0,0,0,3-2.12l3-.47a6.1,6.1,0,0,0,3.32,4.6l-2.3,3.47a2.11,2.11,0,0,0-2.2.95,2,2,0,0,0,.18,2.34,2.15,2.15,0,0,0,2.33.62,2,2,0,0,0,1.39-1.92,2,2,0,0,0-.49-1.29l2.42-3.67a6.16,6.16,0,0,0,4.85-.7l2.38,3.15A2.76,2.76,0,0,0,20.21,26a3,3,0,0,0,3.81.58A2.77,2.77,0,0,0,25.08,23a2.94,2.94,0,0,0-3.55-1.45l-2.46-3.24a5.94,5.94,0,0,0,1.86-3.79l3.44-.55a2.14,2.14,0,0,0,2.54.39,2,2,0,0,0,1-2.29,2.08,2.08,0,0,0-2-1.52ZM21,2.37a1.36,1.36,0,1,1,0,2.71,1.38,1.38,0,0,1-1.4-1.36A1.37,1.37,0,0,1,21,2.37ZM7,4.4a.68.68,0,0,1,.52-.65.7.7,0,0,1,.78.31.67.67,0,0,1-.1.82h0A.71.71,0,0,1,7.41,5,.68.68,0,0,1,7,4.4Zm2.1,21a.68.68,0,1,1,.7-.68.69.69,0,0,1-.7.68ZM23.8,24.08a1.41,1.41,0,1,1-1.41-1.36A1.39,1.39,0,0,1,23.8,24.08Zm-21-8.14a1.36,1.36,0,1,1,0-2.72,1.36,1.36,0,1,1,0,2.72Zm11.92,2.71A4.84,4.84,0,0,1,9.78,13.9a4.84,4.84,0,0,1,4.91-4.75,4.83,4.83,0,0,1,4.9,4.75A4.83,4.83,0,0,1,14.69,18.65ZM25.9,13.22a.68.68,0,1,1,0-1.36.68.68,0,1,1,0,1.36Z"/>
</svg>