<svg xmlns="http://www.w3.org/2000/svg" viewBox="0 0 16.32 16.32">
  <path d="M16.16 11.88v3.62a.64.64 0 010 .2.76.76 0 01-.74.62H.92a.76.76 0 01-.75-.69.66.66 0 010-.14v-3.62a.76.76 0 01.76-.77.76.76 0 01.53.23.76.76 0 01.22.54v2.9h13v-2.9a.77.77 0 01.76-.77.72.72 0 01.53.23.82.82 0 01.19.55zm-3.64-3.63l-3.71 3.8a.8.8 0 01-.48.25H8a.83.83 0 01-.49-.25l-3.7-3.8a.91.91 0 010-1.25.88.88 0 011.25 0l2.23 2.26V.9a.9.9 0 01.88-.9.89.89 0 01.88.9v8.36L11.28 7a.88.88 0 011.25 0 .93.93 0 01-.01 1.25z"/>
</svg>