<svg xmlns="http://www.w3.org/2000/svg" viewBox="0 0 16.6 16.6">
    <path d="M12.76,16.6H8.44A8.75,8.75,0,0,1,5.11,16a7,7,0,0,1-2.49-1.68,7.27,7.27,0,0,1-1.56-2.59A9.89,9.89,0,0,1,.52,8.38,9.9,9.9,0,0,1,1.08,5,7.59,7.59,0,0,1,2.67,2.35,7.14,7.14,0,0,1,5.17.62,8.49,8.49,0,0,1,8.48,0a9,9,0,0,1,3,.5A6.78,6.78,0,0,1,13.92,2a6.6,6.6,0,0,1,1.59,2.37,8.58,8.58,0,0,1,.57,3.23,8.29,8.29,0,0,1-.24,2.07,5,5,0,0,1-.71,1.6,3.23,3.23,0,0,1-1.15,1,3.27,3.27,0,0,1-1.56.36,2.59,2.59,0,0,1-1.66-.5,1.87,1.87,0,0,1-.7-1.34H10a2.76,2.76,0,0,1-.82,1.32,2.25,2.25,0,0,1-1.52.48,3,3,0,0,1-1.26-.27,2.84,2.84,0,0,1-1-.79,3.86,3.86,0,0,1-.68-1.31,6,6,0,0,1-.25-1.83,6.07,6.07,0,0,1,.25-1.84,3.91,3.91,0,0,1,.68-1.32,2.84,2.84,0,0,1,1-.79,3,3,0,0,1,1.26-.27A2,2,0,0,1,9,4.61,2.49,2.49,0,0,1,9.74,5.7h.1V4.34h2V9.92a1.2,1.2,0,0,0,.24.84.91.91,0,0,0,.7.26,1.33,1.33,0,0,0,1.2-.8,5.11,5.11,0,0,0,.44-2.38V7.18a6,6,0,0,0-.44-2.34,4.91,4.91,0,0,0-1.23-1.76A5.56,5.56,0,0,0,10.84,2a6.91,6.91,0,0,0-2.36-.39,6.61,6.61,0,0,0-2.57.48,5.88,5.88,0,0,0-2,1.32,5.67,5.67,0,0,0-1.26,2,7.17,7.17,0,0,0-.44,2.54V8.8a7,7,0,0,0,.44,2.52,5.62,5.62,0,0,0,1.25,2,5.54,5.54,0,0,0,1.95,1.27A6.91,6.91,0,0,0,8.44,15h4.32ZM8.28,10.92a1.53,1.53,0,0,0,1.11-.43,1.35,1.35,0,0,0,.45-1V7.12a1.18,1.18,0,0,0-.44-.93,1.66,1.66,0,0,0-1.12-.37A1.63,1.63,0,0,0,7,6.33a1.93,1.93,0,0,0-.45,1.33V9.08A1.92,1.92,0,0,0,7,10.42,1.66,1.66,0,0,0,8.28,10.92Z"/>
</svg>