<svg xmlns="http://www.w3.org/2000/svg" viewBox="0 0 37.6 37.6">
    <path d="M27.29,17.65H3.19a.62.62,0,0,0-.6.6V28a.62.62,0,0,0,.6.6h24.1a.62.62,0,0,0,.6-.6V18.25A.62.62,0,0,0,27.29,17.65Zm-16.7,9.74H3.8V18.86h6.83v8.53Zm1.25-8.53h6.8v8.53h-6.8Zm14.84,8.53H19.85V18.86h6.79v8.53Z" fill="#e0d11e"/>
    <path d="M37.6,14.82a2.67,2.67,0,0,0-5.34,0,2.66,2.66,0,0,0,2,2.59v4.85H30.44V13.93a.63.63,0,0,0-.61-.61H26.11v-2a.62.62,0,0,0-.6-.6H21.87a6.82,6.82,0,0,0-13.58,0H4.65a.62.62,0,0,0-.61.6v2H.61a.63.63,0,0,0-.61.61V32.44a.62.62,0,0,0,.61.61H29.87a.62.62,0,0,0,.61-.61v-9h4.45a.62.62,0,0,0,.6-.61V17.41A2.66,2.66,0,0,0,37.6,14.82ZM1.21,14.54H29.27v17.3H1.21ZM5.34,12H8.93a.63.63,0,0,0,.61-.61,5.58,5.58,0,0,1,11.16,0,.62.62,0,0,0,.6.61h3.6v1.37H5.34Zm29.59,4.32a1.46,1.46,0,1,1,1.45-1.45A1.45,1.45,0,0,1,34.93,16.27Z" fill="#e0d11e"/>
    <path d="M21.22,22.9l1.05.69-.44,1.09a.19.19,0,0,0,.08.24.26.26,0,0,0,.24,0l.93-.76.93.76a.15.15,0,0,0,.12,0,.18.18,0,0,0,.13,0c.08,0,.08-.16.08-.24l-.45-1.09,1.05-.69a.15.15,0,0,0,.08-.2c0-.08-.08-.16-.2-.16l-1.25-.08-.33-1.05c0-.16-.32-.16-.4,0l-.32,1.05-1.26.08a.27.27,0,0,0-.2.16S21.14,22.86,21.22,22.9Z" fill="#e0d11e"/>
    <path d="M17.18,22.66c0-.08-.08-.16-.2-.16l-1.25-.08-.33-1.05c0-.16-.32-.16-.4,0l-.24,1.09-1.26.08a.27.27,0,0,0-.2.16.15.15,0,0,0,.08.2l1,.69L14,24.68a.19.19,0,0,0,.08.24.26.26,0,0,0,.24,0l.93-.76.93.76a.2.2,0,0,0,.24,0c.08,0,.08-.16.08-.24l-.44-1.09,1.05-.69A.43.43,0,0,0,17.18,22.66Z" fill="#e0d11e"/>
    <path d="M6.39,23.59l-.45,1.09a.19.19,0,0,0,.08.24.28.28,0,0,0,.25,0l.93-.76.93.76a.2.2,0,0,0,.24,0c.08,0,.08-.16.08-.24L8,23.59l1.06-.69a.15.15,0,0,0,.08-.2c0-.08-.08-.16-.21-.16l-1.25-.08-.32-1.05c0-.16-.33-.16-.41,0l-.32,1.05-1.17.08a.27.27,0,0,0-.2.16c0,.08,0,.16.08.2Z" fill="#e0d11e"/>
</svg>