<svg xmlns="http://www.w3.org/2000/svg" viewBox="0 0 512 512">
    <path d="M352 0c-27.3 1.9-59.2 19.36-77.8 42.1-17 20.64-30.9 51.3-25.47 81.1 29.82.93 60.64-17 78.5-40.1 16.7-21.53 29.33-52 24.77-83.1zm107.85 171.78c-26.2-32.87-63-51.94-97.82-51.94-45.92 0-65.35 22-97.25 22-32.9 0-57.9-21.92-97.6-21.92-39 0-80.54 23.84-106.88 64.6-37 57.4-30.7 165.35 29.3 257.28 21.47 32.9 50.15 69.9 87.65 70.2 33.38.32 42.78-21.4 88-21.63s53.8 21.92 87.1 21.57c37.54-.3 67.78-41.28 89.25-74.18 15.4-23.58 21.12-35.46 33.06-62.08-86.82-33.08-100.74-156.53-14.82-203.92z"/>
</svg>