<svg xmlns="http://www.w3.org/2000/svg" viewBox="0 0 19 19">
    <path d="M14.46,5V3.18H1.65V15.82H14.46v-5.5l1.65-1.56v7.79h0s0,0,0,0a1,1,0,0,1-.49.79.83.83,0,0,1-.32.06l-14.43,0A.86.86,0,0,1,0,16.63V2.37A.93.93,0,0,1,.14,1.8a.82.82,0,0,1,.73-.26H15.26l.19,0a.84.84,0,0,1,.66.8V3.64Z" fill-rule="evenodd"/>
    <path d="M18.82,3.4a.66.66,0,0,0-.47-.21.62.62,0,0,0-.4.14L8.6,11.42,4.34,7.86l0,0A.5.5,0,0,0,4,7.75.6.6,0,0,0,3.51,8a.66.66,0,0,0,0,.85L8.2,14.15a.51.51,0,0,0,.41.18.61.61,0,0,0,.5-.23l9.68-9.85A.61.61,0,0,0,18.82,3.4Z" fill-rule="evenodd"/>
</svg>