<svg xmlns="http://www.w3.org/2000/svg" viewBox="0 0 23.5 23.5">
    <circle cx="6.14" cy="9.39" r="1"/>
    <path d="M20.14,11.75a.66.66,0,0,1-.62-.52.74.74,0,0,1,.47-.88,1.74,1.74,0,0,1,.52,0,1.92,1.92,0,0,0,.75-.1,1.69,1.69,0,0,0,.89-1,.62.62,0,0,0,0-.44.74.74,0,0,1,.26-1,.62.62,0,0,1,.88.28,2.11,2.11,0,0,1,.07,1.59,3.06,3.06,0,0,1-1.62,1.8,3,3,0,0,1-1.25.21h-.2Z" fill-rule="evenodd"/>
    <path d="M10.3,7.1a.81.81,0,0,1-.73-.45c-.09-.28.19-.52.63-.55a21.31,21.31,0,0,1,3.09,0c.43,0,.8.29.78.56s-.38.48-.82.44a18,18,0,0,0-2.74,0Z"/>
    <path d="M16.57,19.71H14.28a.51.51,0,0,1-.51-.51v-.9a10.43,10.43,0,0,1-4.65,0v.88a.51.51,0,0,1-.51.51H6.32a.51.51,0,0,1-.51-.51V17.35a1,1,0,0,0-.36-.75A7.6,7.6,0,0,1,3.31,14a.82.82,0,0,0-.73-.52h-.9A1.18,1.18,0,0,1,.5,12.25V10.3A1.18,1.18,0,0,1,1.68,9.12h.9a.82.82,0,0,0,.73-.52A7.29,7.29,0,0,1,4.45,6.89L3.21,4.54a.52.52,0,0,1,.46-.75H5.11a3.06,3.06,0,0,1,2.45.94A10,10,0,0,1,11.4,4c4.8,0,8.7,3.27,8.7,7.29a6.7,6.7,0,0,1-2.68,5.27,1,1,0,0,0-.34.74V19.2A.51.51,0,0,1,16.57,19.71Zm-1.78-1h1.27V17.28a2,2,0,0,1,.72-1.53,5.73,5.73,0,0,0,2.29-4.48C19.07,7.81,15.63,5,11.4,5a8.9,8.9,0,0,0-3.8.83.52.52,0,0,1-.66-.21,1.92,1.92,0,0,0-1.83-.81h-.6l.87,1.66a.94.94,0,0,1-.14,1.08A6.13,6.13,0,0,0,4.24,9a1.86,1.86,0,0,1-1.66,1.11h-.9a.16.16,0,0,0-.16.16v1.95a.16.16,0,0,0,.16.16h.9a1.84,1.84,0,0,1,1.66,1.11,6.34,6.34,0,0,0,1.85,2.27,2,2,0,0,1,.74,1.56v1.34H8.1v-.75a.73.73,0,0,1,.73-.72.62.62,0,0,1,.19,0,9.34,9.34,0,0,0,4.84,0,.69.69,0,0,1,.2,0,.73.73,0,0,1,.73.73Z"/>
    <path d="M16.57,20.21H14.28a1,1,0,0,1-1-1v-.29a11.18,11.18,0,0,1-3.65,0v.27a1,1,0,0,1-1,1H6.32a1,1,0,0,1-1-1V17.35A.46.46,0,0,0,5.14,17a7.92,7.92,0,0,1-2.28-2.83.34.34,0,0,0-.28-.23h-.9A1.68,1.68,0,0,1,0,12.25V10.3A1.68,1.68,0,0,1,1.68,8.62h.9a.34.34,0,0,0,.28-.23,7.34,7.34,0,0,1,1-1.56L2.77,4.77a1,1,0,0,1,.9-1.48H5.11a3.75,3.75,0,0,1,2.58.85,10.78,10.78,0,0,1,3.71-.66c5.07,0,9.2,3.49,9.2,7.79a7.22,7.22,0,0,1-2.86,5.66.45.45,0,0,0-.16.35V19.2a1,1,0,0,1-.29.71A1,1,0,0,1,16.57,20.21Zm-2.3-2.39V19.2h2.31V17.28a1.47,1.47,0,0,1,.53-1.13,6.25,6.25,0,0,0,2.49-4.88c0-3.74-3.68-6.79-8.2-6.79a9.57,9.57,0,0,0-3.65.71l-.33.14-.24-.28a2.61,2.61,0,0,0-2.07-.76H3.67L5,6.83a.28.28,0,0,0,0-.13L3.68,4.31H5.11A2.41,2.41,0,0,1,7.38,5.37a9.62,9.62,0,0,1,4-.87c4.51,0,8.17,3,8.17,6.77a6.24,6.24,0,0,1-2.48,4.87,1.47,1.47,0,0,0-.53,1.14v1.91H14.29V17.92A.3.3,0,0,0,14.27,17.82ZM1.68,9.62A.68.68,0,0,0,1,10.3v1.95a.68.68,0,0,0,.68.68h.9a1.33,1.33,0,0,1,1.19.8,6.89,6.89,0,0,0,2,2.47,1.48,1.48,0,0,1,.55,1.15V19.2h2.3V17.85a.29.29,0,0,0,0,.09v1.25H6.33V17.35a1.46,1.46,0,0,0-.55-1.16,6.94,6.94,0,0,1-2-2.46,1.35,1.35,0,0,0-1.21-.82h-.9A.67.67,0,0,1,1,12.25V10.3a.67.67,0,0,1,.66-.66h.9a1.36,1.36,0,0,0,1.21-.82A6.68,6.68,0,0,1,4.87,7.21L5,7.09l-.12.14A6.44,6.44,0,0,0,3.77,8.81a1.33,1.33,0,0,1-1.19.81Zm13.61,8.57h.27v-.91a2.46,2.46,0,0,1,.91-1.92,5.22,5.22,0,0,0,2.1-4.09c0-3.18-3.21-5.77-7.17-5.77a8.44,8.44,0,0,0-3.58.78,1,1,0,0,1-1.31-.41c-.13-.22-.38-.5-1.17-.55l.49.91a1.46,1.46,0,0,1-.22,1.65,5.58,5.58,0,0,0-.92,1.37,2.34,2.34,0,0,1-2.11,1.39H2v1.27h.56A2.33,2.33,0,0,1,4.69,13.3,5.88,5.88,0,0,0,6.4,15.4a2.48,2.48,0,0,1,.93,2v.84H7.6v-.25a1.24,1.24,0,0,1,1.54-1.18,8.82,8.82,0,0,0,4.59,0,1.25,1.25,0,0,1,1.56,1.18Zm-6.5-.46.44.1a9.84,9.84,0,0,0,4.42,0l.47-.11h-.06a9.86,9.86,0,0,1-5.17,0Z"/>
</svg>