<svg xmlns="http://www.w3.org/2000/svg" viewBox="0 0 30.45 30.45">
  <path d="M6.45 20.23h-3v-15h3zM0 19.73h9.9L5 24.68z" fill="#20a94a"/>
  <path d="M30.45 7.73c0-1.5-2.35-2.5-5.2-2.5s-5.2 1-5.2 2.5 2.4 2.5 5.2 2.5 5.2-1 5.2-2.5zm-9.6 0c0-.82 2-1.67 4.4-1.67s4.4.85 4.4 1.67-1.95 1.67-4.4 1.67-4.4-.86-4.4-1.67zm-.8 2.5c0 1.48 2.35 2.5 5.2 2.5s5.2-1 5.2-2.5v-2.5h-.8v2.5c0 .82-1.95 1.67-4.4 1.67s-4.4-.85-4.4-1.67v-2.5h-.8zm0 2.51v-2.51h.8v2.57a5.29 5.29 0 00-.8-.06zm4 2.43q.6.06 1.2.06c2.85 0 5.2-1 5.2-2.5v-2.5h-.8v2.5c0 .81-1.95 1.67-4.4 1.67a6.91 6.91 0 01-1.2-.07v.83zm.08 2.5c.36 0 .74.06 1.12.06 2.85 0 5.2-1 5.2-2.5v-2.5h-.8v2.5c0 .81-1.95 1.67-4.4 1.67a6.24 6.24 0 01-1.14-.07c0 .26.01.55.02.84zm-3.33-4.88a10.65 10.65 0 00-1.15-.06c-2.85 0-5.2 1-5.2 2.5s2.35 2.5 5.2 2.5 5.2-1 5.2-2.5c0-1.27-1.73-2.2-4-2.44m-5.59 2.44c0-.82 1.95-1.68 4.4-1.68s4.4.86 4.4 1.68-2 1.67-4.4 1.67-4.41-.9-4.41-1.67zm-.8 2.5c0 1.5 2.35 2.5 5.2 2.5s5.2-1 5.2-2.5v-2.5h-.8v2.5c0 .81-2 1.67-4.4 1.67s-4.4-.86-4.4-1.67v-2.5h-.8zm0 2.5c0 1.47 2.35 2.5 5.2 2.5s5.2-1 5.2-2.5v-2.5h-.8v2.5c0 .81-2 1.67-4.4 1.67s-4.4-.86-4.4-1.67v-2.5h-.8zm0 2.5c0 1.5 2.35 2.5 5.2 2.5s5.2-1 5.2-2.5v-2.5h-.8v2.5c0 .81-2 1.67-4.4 1.67s-4.4-.86-4.4-1.67v-2.5h-.8zm9.74-2.5c.34 0 .7.05 1.06.05 2.85 0 5.2-1 5.2-2.5v-2.55h-.8v2.5c0 .81-1.95 1.67-4.4 1.67a7.83 7.83 0 01-1.08-.07zm.07 2.45h1c2.85 0 5.2-1 5.2-2.5v-2.45h-.8v2.5c0 .81-1.95 1.67-4.4 1.67a5.57 5.57 0 01-1 0zm-3.74-9.88h-.47m0-.06v-2.51h.8v2.19a.32.32 0 01-.32.32"/>
</svg>