<svg xmlns="http://www.w3.org/2000/svg" viewBox="0 0 20 20">
    <path d="M19.22,0A.79.79,0,0,1,20,.68V19.23a.76.76,0,0,1-.69.76H2.72A.77.77,0,0,1,2,19.32V14.61a.77.77,0,0,1,.78-.76.76.76,0,0,1,.77.68v3.93H18.44V1.54H3.5V5.38a.78.78,0,0,1-.69.77H2.72A.76.76,0,0,1,2,5.47V.77A.77.77,0,0,1,2.63,0H19.22ZM9.34,5.49l.08.06.07.06,3.89,3.85a.76.76,0,0,1,.07,1l-.07.07L9.49,14.39a.78.78,0,0,1-1.1,0,.75.75,0,0,1-.06-1l.06-.08,2.53-2.5-10.14,0A.78.78,0,0,1,0,10a.76.76,0,0,1,.69-.76H.78l10.2,0L8.39,6.7a.77.77,0,0,1,0-1.09A.8.8,0,0,1,9.34,5.49Z"/>
</svg>