<svg xmlns="http://www.w3.org/2000/svg" viewBox="0 0 30.45 30.45">
    <path d="M30.45,7.73c0-1.5-2.35-2.5-5.2-2.5s-5.2,1-5.2,2.5,2.4,2.5,5.2,2.5S30.45,9.23,30.45,7.73Zm-9.6,0c0-.82,2-1.67,4.4-1.67s4.4.85,4.4,1.67S27.7,9.4,25.25,9.4,20.85,8.54,20.85,7.73Z"/>
    <path d="M20.05,10.23c0,1.48,2.35,2.5,5.2,2.5s5.2-1,5.2-2.5V7.73h-.8v2.5c0,.82-1.95,1.67-4.4,1.67s-4.4-.85-4.4-1.67V7.73h-.8Z"/>
    <path d="M20.05,12.74h0V10.23h.8V12.8A5.1,5.1,0,0,0,20.05,12.74Zm4,2.43q.6.06,1.2.06c2.85,0,5.2-1,5.2-2.5v-2.5h-.8v2.5c0,.81-1.95,1.67-4.4,1.67-.4,0-.8,0-1.2-.07v.07c0,.06,0,.35,0,.76Z"/>
    <path d="M24.13,17.67c.36,0,.74.06,1.12.06,2.85,0,5.2-1,5.2-2.5v-2.5h-.8v2.5c0,.81-1.95,1.67-4.4,1.67-.38,0-.76,0-1.14-.07C24.11,17.09,24.12,17.38,24.13,17.67ZM20.85,12.8v-.07h-.8A6.8,6.8,0,0,1,20.85,12.8Z"/>
    <path d="M24.85,15.23c0-1.48-2.35-2.5-5.2-2.5s-5.2,1-5.2,2.5,2.35,2.5,5.2,2.5S24.85,16.7,24.85,15.23Zm-9.6,0c0-.82,1.95-1.68,4.4-1.68s4.4.86,4.4,1.68-2,1.67-4.4,1.67S15.25,16,15.25,15.23Z"/>
    <path d="M14.45,17.73c0,1.5,2.35,2.5,5.2,2.5s5.2-1,5.2-2.5v-2.5h-.8v2.5c0,.81-2,1.67-4.4,1.67s-4.4-.86-4.4-1.67v-2.5h-.8Z"/>
    <path d="M14.45,20.23c0,1.47,2.35,2.5,5.2,2.5s5.2-1,5.2-2.5v-2.5h-.8v2.5c0,.81-2,1.67-4.4,1.67s-4.4-.86-4.4-1.67v-2.5h-.8Z"/>
    <path d="M14.45,22.73c0,1.5,2.35,2.5,5.2,2.5s5.2-1,5.2-2.5v-2.5h-.8v2.5c0,.81-2,1.67-4.4,1.67s-4.4-.86-4.4-1.67v-2.5h-.8Z"/>
    <path d="M24.19,20.23c.34,0,.7.05,1.06.05,2.85,0,5.2-1,5.2-2.5V15.23h-.8v2.5c0,.81-1.95,1.67-4.4,1.67a7.83,7.83,0,0,1-1.08-.07Z"/>
    <path d="M24.26,22.68h1c2.85,0,5.2-1,5.2-2.5V17.73h-.8v2.5c0,.81-1.95,1.67-4.4,1.67a6.44,6.44,0,0,1-1,0Z"/>
    <polygon points="3.45 10.22 6.45 10.22 6.45 25.23 3.45 25.23 3.45 10.22" fill="#39af61"/>
    <polygon points="9.9 10.72 0 10.72 4.95 5.78 9.9 10.72" fill="#39af61"/>
</svg>