<svg xmlns="http://www.w3.org/2000/svg" viewBox="0 0 330 990"><path d="M165 330C74 330 0 404 0 495s74 165 165 165 165-74 165-165-74-165-165-165zm0 300c-74.44 0-135-60.56-135-135s60.56-135 135-135 135 60.56 135 135-60.56 135-135 135z" fill="#20a94a"/><path d="M215.91 530.91H114.09a15 15 0 0 0 0 30h101.82a15 15 0 0 0 0-30zM115.14 477.14A20 20 0 1 0 101 483a20 20 0 0 0 14.14-5.86zM229 443a20 20 0 1 0 14.14 5.86A20 20 0 0 0 229 443z" fill="#20a94a"/><path d="M165 660C74 660 0 734 0 825s74 165 165 165 165-74 165-165-74-165-165-165zm0 300c-74.44 0-135-60.56-135-135s60.56-135 135-135 135 60.56 135 135-60.56 135-135 135z" fill="#f5a623"/><path d="M165 839.82a86.44 86.44 0 0 0-61.52 25.48 15 15 0 1 0 21.21 21.22 57 57 0 0 1 80.61 0 15 15 0 1 0 21.22-21.22A86.44 86.44 0 0 0 165 839.82zM115.14 807.14A20 20 0 1 0 101 813a20 20 0 0 0 14.14-5.86zM229 773a20 20 0 1 0 14.14 5.86A20 20 0 0 0 229 773z" fill="#f5a623"/><path d="M165 0C74 0 0 74 0 165s74 165 165 165 165-74 165-165S256 0 165 0zm0 300c-74.44 0-135-60.56-135-135S90.56 30 165 30s135 60.56 135 135-60.56 135-135 135z" fill="#d0021b"/><path d="M205.31 205.3a57.08 57.08 0 0 1-80.62 0 15 15 0 0 0-21.21 21.21 87.11 87.11 0 0 0 123 0 15 15 0 0 0-21.21-21.22zM115.14 147.14A20 20 0 1 0 101 153a20 20 0 0 0 14.14-5.86zM229 113a20 20 0 1 0 14.14 5.86A20 20 0 0 0 229 113z" fill="#d0021b"/></svg>