<svg xmlns="http://www.w3.org/2000/svg" viewBox="0 0 330 330" fill="#fff"><path d="M165 0C74 0 0 74 0 165s74 165 165 165 165-74 165-165S256 0 165 0zm0 300c-74.44 0-135-60.56-135-135S90.56 30 165 30s135 60.56 135 135-60.56 135-135 135z"/><path d="M165 179.82a86.44 86.44 0 0 0-61.52 25.48 15 15 0 0 0 21.21 21.22 57 57 0 0 1 80.61 0 15 15 0 1 0 21.22-21.22A86.44 86.44 0 0 0 165 179.82zM115.14 147.14A20 20 0 1 0 101 153a20.11 20.11 0 0 0 14.14-5.86zM229 113a20 20 0 1 0 14.14 5.86A20.13 20.13 0 0 0 229 113z"/></svg>