<svg xmlns="http://www.w3.org/2000/svg" width="45" height="61" viewBox="0 0 45 61">
    <path fill="#999" stroke="#FFF" stroke-width="2"
          d="M34.238 35.965a10.215 10.215 0 01-4.791 1.433 10.236 10.236 0 01-6.948 2.724 10.235 10.235 0 01-6.944-2.724 10.202 10.202 0 01-4.792-1.43 10.324 10.324 0 01-5.028-8.456 10.264 10.264 0 01-2.714-6.966c0-2.62.983-5.086 2.714-6.967.1-2.558 1.143-5 2.99-6.853a10.19 10.19 0 016.829-3.003A10.193 10.193 0 0122.5 1c2.612 0 5.07.987 6.945 2.723a10.193 10.193 0 016.83 3.003 10.259 10.259 0 012.988 6.902c2.043 2.232 3.033 5.23 2.626 8.278-.279 2.099-1.201 4.01-2.622 5.556a10.29 10.29 0 01-5.029 8.503zM22.5 28.5c4.36 0 7.91-3.563 7.91-7.942s-3.55-7.941-7.91-7.941-7.91 3.563-7.91 7.941c0 4.38 3.55 7.942 7.91 7.942zM11.287 48.318l-9.258 3.097 7.65-15.355.92.529a10.693 10.693 0 004.4 1.382l.313.028.242.203a10.71 10.71 0 005.771 2.461l1.43.154-8.381 16.795-3.087-9.294zm22.426 0l-3.087 9.294-8.382-16.795 1.43-.154a10.709 10.709 0 005.773-2.461l.241-.203.315-.028a10.696 10.696 0 004.398-1.382l.92-.528 7.65 15.354-9.258-3.097z"/>
</svg>