<svg xmlns="http://www.w3.org/2000/svg" viewBox="0 0 21 21"><path d="M11.25 17.48h-8.5A2.75 2.75 0 0 1 0 14.73v-8.5a2.75 2.75 0 0 1 2.75-2.75h8.5A2.75 2.75 0 0 1 14 6.23v8.5a2.75 2.75 0 0 1-2.75 2.75zM2.75 5A1.25 1.25 0 0 0 1.5 6.23v8.5A1.25 1.25 0 0 0 2.75 16h8.5a1.25 1.25 0 0 0 1.25-1.25V6.23A1.25 1.25 0 0 0 11.25 5z"/><path d="M19 16.1a2.1 2.1 0 0 1-.65-.1l-4-1.37A2 2 0 0 1 13 12.74V8.09a2 2 0 0 1 1.41-1.91l4-1.24a2 2 0 0 1 .59-.09 2 2 0 0 1 2 2v7.25a2 2 0 0 1-1.12 1.8 2 2 0 0 1-.88.2zm0-9.75a.4.4 0 0 0-.15 0l-4 1.24a.48.48 0 0 0-.35.47v4.65a.51.51 0 0 0 .34.47l4 1.37a.5.5 0 0 0 .38 0 .48.48 0 0 0 .25-.29.41.41 0 0 0 0-.16V6.85a.5.5 0 0 0-.47-.5z"/></svg>