<svg xmlns="http://www.w3.org/2000/svg" viewBox="0 0 18 18"><path d="M15.86 0H2.14A2.14 2.14 0 0 0 0 2.14v13.72A2.14 2.14 0 0 0 2.14 18h13.72A2.14 2.14 0 0 0 18 15.86V2.14A2.14 2.14 0 0 0 15.86 0zm-1.41 12.43h-1.69a1.29 1.29 0 0 1-.7-.25c-.57-.39-1.1-1.36-1.53-1.36h-.08c-.37.12-.48.49-.48.94 0 .16-.11.23-.41.23h-.83a3.24 3.24 0 0 1-2.82-1.12A22.91 22.91 0 0 1 3 6.36a.29.29 0 0 1 0-.26.48.48 0 0 1 .36-.1H5.1a.77.77 0 0 1 .28.12.49.49 0 0 1 .15.2s.29.57.65 1.21c.62 1 1 1.4 1.18 1.4h.12c.35-.19.25-1.75.25-1.75a1.83 1.83 0 0 0-.18-.82.84.84 0 0 0-.55-.3c-.1 0 .06-.23.26-.33a3.18 3.18 0 0 1 1.24-.16h.26a1.85 1.85 0 0 1 .71.11c.59.14.39.69.39 2 0 .42-.08 1 .23 1.22h.09c.19 0 .62-.25 1.29-1.4.38-.65.67-1.3.67-1.3a.6.6 0 0 1 .17-.17.25.25 0 0 1 .23-.03h1.85c.29 0 .55 0 .6.18s-.21.74-1 1.73c-1.2 1.61-1.34 1.49-.34 2.43a5.11 5.11 0 0 1 1.19 1.38c.45.66-.39.71-.39.71z"/></svg>