<svg xmlns="http://www.w3.org/2000/svg" viewBox="0 0 305 305">
    <path d="M140 25.77V142.5a2.5 2.5 0 0 0 2.5 2.5h160a2.5 2.5 0 0 0 2.5-2.5V2.5a2.51 2.51 0 0 0-.9-1.89 2.47 2.47 0 0 0-2-.58l-160 23.27a2.5 2.5 0 0 0-2.1 2.47zM122.5 280a2.51 2.51 0 0 0 2.5-2.5v-115a2.5 2.5 0 0 0-2.5-2.5H2.6a2.49 2.49 0 0 0-2.5 2.5V261a2.49 2.49 0 0 0 2.16 2.47l119.9 16.44zM2.6 145h119.9a2.5 2.5 0 0 0 2.5-2.5V28.68a2.5 2.5 0 0 0-2.84-2.48l-120 16.3A2.5 2.5 0 0 0 0 45l.1 97.5a2.5 2.5 0 0 0 2.5 2.5zm299.86 160a2.49 2.49 0 0 0 2.5-2.5v-140a2.49 2.49 0 0 0-2.5-2.5h-160a2.5 2.5 0 0 0-2.5 2.5V280a2.5 2.5 0 0 0 2.15 2.47l160 22.5z"/>
</svg>