<?xml version="1.0" encoding="utf-8"?>
<!-- Generator: Adobe Illustrator 22.1.0, SVG Export Plug-In . SVG Version: 6.00 Build 0)  -->
<svg version="1.1" id="Layer_1" xmlns="http://www.w3.org/2000/svg" xmlns:xlink="http://www.w3.org/1999/xlink" x="0px" y="0px"
	 viewBox="0 0 546 88" style="enable-background:new 0 0 546 88;" xml:space="preserve">
<style type="text/css">
	.st0{fill:#1DA9E1;}
	.st1{fill:#FFFFFF;}
	.st2{fill-rule:evenodd;clip-rule:evenodd;fill:#1DA9E1;}
	.st3{fill-rule:evenodd;clip-rule:evenodd;}
</style>
<g>
	<g>
		<rect x="12.4" y="5.1" class="st0" width="107.5" height="71.7"/>
		<g>
			<path class="st1" d="M26,18.5v44.9h7v-19h29.7V18.5H26z M55.7,37.5H32.9v-12h22.7V37.5z"/>
			<path class="st1" d="M106.3,25.5v-7H69.6v44.9h36.7V37.5H76.6v-12H106.3z M99.3,44.4v12H76.6v-12H99.3z"/>
		</g>
	</g>
	<path class="st2" d="M402.6,31.1h0.5v21.7h-4.4v-8.9c0-1.9,0-3.1,0-4.6c0-0.7,0-1.2,0.2-3.4l-5,14.6h-2.2c0,0,0,0,0,0
		c-0.2,0-0.8,0-2,0c-0.1,0-0.1,0-0.1,0l-5-14.6c0.2,2.1,0.2,2.7,0.2,3.4c0,1.5,0,2.6,0,4.6v8.9h-4.4V31.1h6.7l4.7,14.7l4.7-14.7
		H402.6z M533.4,42.9c0.9,0.9,1.3,2.1,1.3,3.6c0,2.1-0.8,3.7-2.5,4.7c-1.7,1-3.9,1.6-6.8,1.6H517V32c2.9-0.6,5.5-0.8,7.8-0.8
		c2.8,0,4.9,0.5,6.5,1.4c1.6,1,2.4,2.3,2.4,4.1c0,1.2-0.3,2.1-1,2.9c-0.7,0.8-1.8,1.3-3.4,1.7C531.1,41.5,532.5,42,533.4,42.9z
		 M522.2,34.8v5.3h2.9c2.3,0,3.5-0.9,3.5-2.8c0-1.8-1.3-2.7-3.8-2.7C524,34.6,523.2,34.7,522.2,34.8z M528.2,48.6
		c0.8-0.4,1.2-1.2,1.2-2.4c0-1.1-0.3-1.9-1-2.4c-0.7-0.5-1.7-0.7-2.9-0.7h-3.2v6.1h2.7C526.3,49.3,527.3,49.1,528.2,48.6z
		 M503.8,31.1c3.2,0,5.6,1,7.4,2.9c1.8,1.9,2.7,4.6,2.7,7.9c0,2.1-0.4,4-1.2,5.7c-0.8,1.6-2,2.9-3.5,3.8c-1.5,0.9-3.3,1.4-5.4,1.4
		c-3.2,0-5.6-1-7.4-2.9c-1.8-1.9-2.7-4.6-2.7-8c0-2.1,0.4-4,1.2-5.7c0.8-1.6,2-2.9,3.5-3.8C499.9,31.6,501.7,31.1,503.8,31.1z
		 M507.2,47.3c0.8-1.2,1.2-2.9,1.2-5.4c0-2.4-0.4-4.2-1.2-5.3c-0.8-1.2-1.9-1.7-3.4-1.7c-3.1,0-4.7,2.4-4.7,7.1
		c0,2.4,0.4,4.2,1.2,5.4c0.8,1.2,1.9,1.7,3.5,1.7C505.3,49.1,506.5,48.5,507.2,47.3z M482.3,31.1c2.7,0,4.7,0.9,6,2.8
		c1.3,1.9,2,4.5,2,7.9c0,2.1-0.3,4-1,5.6c-0.7,1.6-1.6,2.9-2.9,3.8c-1.3,0.9-2.8,1.4-4.5,1.4c-2.3,0-4-0.7-5.4-2.2v9.5l-5.2,0.5
		V31.7h4.5l0.3,2.5c0.8-1,1.8-1.8,2.8-2.3C480,31.4,481.1,31.1,482.3,31.1z M480.4,48.9c3,0,4.5-2.3,4.5-7c0-2.5-0.3-4.3-1-5.4
		c-0.7-1.1-1.7-1.6-3.1-1.6c-0.8,0-1.6,0.3-2.4,0.8c-0.7,0.5-1.4,1.2-1.9,2v9.2C477.4,48.2,478.7,48.9,480.4,48.9z M458.1,31.1
		c3,0,5.3,0.9,7,2.7c1.6,1.8,2.5,4.4,2.5,7.6c0,0.3,0,0.9-0.1,2h-13.4c0.2,2,0.7,3.4,1.6,4.3c0.9,0.9,2.1,1.3,3.6,1.3
		c0.9,0,1.8-0.1,2.7-0.4c0.8-0.3,1.7-0.8,2.7-1.4l2.1,2.8c-2.4,1.8-5,2.8-7.9,2.8c-3.3,0-5.8-1-7.6-2.9c-1.8-1.9-2.7-4.5-2.7-7.8
		c0-2.1,0.4-4,1.1-5.6c0.8-1.7,1.9-3,3.3-3.9C454.4,31.6,456.1,31.1,458.1,31.1z M462.3,40.3v-0.2c0-3.6-1.4-5.4-4.2-5.4
		c-1.3,0-2.3,0.4-3,1.3c-0.7,0.9-1.1,2.3-1.3,4.3H462.3z M446.6,31.1l-5.8,10l6.4,11.6h-5.5l-5-9.6h-2.2v9.6h-5V31.1h5v8.6h2.3
		l4.8-8.6H446.6z M416.3,31.1c3,0,5.3,0.9,7,2.7c1.6,1.8,2.5,4.4,2.5,7.6c0,0.3,0,0.9-0.1,2h-13.4c0.2,2,0.7,3.4,1.6,4.3
		c0.9,0.9,2.1,1.3,3.6,1.3c0.9,0,1.8-0.1,2.7-0.4c0.8-0.3,1.7-0.8,2.7-1.4l2.1,2.8c-2.4,1.8-5,2.8-7.9,2.8c-3.3,0-5.8-1-7.6-2.9
		c-1.8-1.9-2.7-4.5-2.7-7.8c0-2.1,0.4-4,1.1-5.6c0.8-1.7,1.9-3,3.3-3.9C412.7,31.6,414.4,31.1,416.3,31.1z M420.6,40.3v-0.2
		c0-3.6-1.4-5.4-4.2-5.4c-1.3,0-2.3,0.4-3,1.3c-0.7,0.9-1.1,2.3-1.3,4.3H420.6z M370.1,41.2l6.4,11.6H371l-5-9.6h-2.2v9.6h-5V31.1h5
		v8.6h2.3l4.8-8.6h5L370.1,41.2z M344.9,49.3l4.8-18.2h5.3l-6.9,21.8c-0.9,2.7-2.2,4.8-3.9,6.2c-1.7,1.5-4.1,2.4-7.2,2.6l-0.5-3.8
		c1.4-0.2,2.5-0.5,3.4-0.9c0.8-0.4,1.5-0.9,2-1.6c0.5-0.7,1-1.5,1.4-2.6h-1.8l-6.8-21.7h5.5L344.9,49.3z M330.8,37.2
		c1.8,1.5,2.8,3.6,2.8,6.5c0,3.1-1,5.4-2.9,6.9c-1.9,1.5-4.5,2.3-7.7,2.3h-8.4V24.8h15.9l-0.5,4.2h-10.2V35h3.2
		C326.3,35,328.9,35.7,330.8,37.2z M326.7,47.6c0.9-0.8,1.4-2.1,1.4-3.9c0-1.7-0.5-2.9-1.4-3.7c-0.9-0.8-2.3-1.2-4.1-1.2h-2.9v9.9
		h3.1C324.5,48.8,325.8,48.4,326.7,47.6z"/>
	<path class="st3" d="M157.3,24.3c3.5,0,6.3,0.8,8.2,2.3c2,1.5,2.9,3.8,2.9,6.8c0,3.2-1,5.5-3,7.1c-2,1.6-4.6,2.4-7.9,2.4h-3.2v9.9
		h-5.3V24.3H157.3z M157.3,38.7c1.9,0,3.3-0.4,4.3-1.2c1-0.8,1.4-2.2,1.4-4.2c0-3.4-1.9-5.1-5.7-5.1h-2.8v10.5H157.3z M189.7,41.3
		c0,0.3,0,0.9-0.1,2h-13.3c0.2,2,0.7,3.4,1.6,4.3c0.9,0.9,2.1,1.3,3.6,1.3c0.9,0,1.8-0.1,2.6-0.4c0.8-0.3,1.7-0.8,2.6-1.4l2.1,2.9
		c-2.3,1.8-5,2.8-7.8,2.8c-3.2,0-5.7-1-7.5-2.9c-1.7-1.9-2.6-4.6-2.6-7.9c0-2.1,0.4-4,1.1-5.7c0.7-1.7,1.8-3,3.2-3.9
		c1.4-0.9,3.1-1.4,5-1.4c3,0,5.3,0.9,6.9,2.8C188.9,35.5,189.7,38,189.7,41.3z M184.7,39.8c0-3.8-1.4-5.7-4.1-5.7
		c-1.3,0-2.2,0.5-2.9,1.4c-0.7,0.9-1.1,2.5-1.3,4.6h8.3V39.8z M207.2,52.7V44c0-1.6,0.1-3.1,0.2-4.5c0.1-1.4,0.3-2.5,0.4-3.2
		L200,52.7h-5.6V30.9h5v8.7c0,1.5-0.1,3-0.2,4.5c-0.1,1.5-0.3,2.5-0.5,3.2l7.8-16.4h5.6v21.8H207.2z M203.2,26.4
		c-1.9,0-3.4-0.5-4.5-1.5c-1.1-1-1.8-2.4-2-4.1l3-0.6c0.3,0.9,0.7,1.5,1.2,1.9c0.6,0.4,1.3,0.6,2.2,0.6c0.9,0,1.7-0.2,2.3-0.6
		c0.6-0.4,1-1,1.2-1.9l3,0.6c-0.2,1.7-0.8,3.1-2,4.1C206.6,25.9,205.1,26.4,203.2,26.4z M227.5,34.9v17.8h-5.1V34.9h-6.6v-4h18.5
		l-0.6,4H227.5z M250.6,52.7V44c0-1.6,0.1-3.1,0.2-4.5c0.1-1.4,0.3-2.5,0.4-3.2l-7.8,16.5h-5.6V30.9h5v8.7c0,1.5-0.1,3-0.2,4.5
		c-0.1,1.5-0.3,2.5-0.5,3.2l7.8-16.4h5.6v21.8H250.6z M266.2,43.6v9.1h-5.1V30.9h5.1v8.7h7.2v-8.7h5.1v21.8h-5.1v-9.1H266.2z
		 M284.1,30.9h14.2l-0.6,4.1h-8.4v17.7h-5.1V30.9z"/>
</g>
</svg>
