<svg width="133" height="32" viewBox="0 0 133 32" fill="none" xmlns="http://www.w3.org/2000/svg">
    <path fill-rule="evenodd" clip-rule="evenodd" d="M96.46 8.61985C96.1543 9.65774 95.8386 10.6949 95.5329 11.7335C94.8093 14.1936 94.0869 16.6542 93.3659 19.1153C93.1366 19.8962 92.788 20.1502 91.961 20.1502H90.8144C90.1265 20.1502 89.7588 19.8932 89.5608 19.2288C88.9494 17.1673 88.3432 15.102 87.734 13.039C87.3263 11.6586 86.9172 10.2788 86.5064 8.89943C86.4834 8.7982 86.4318 8.70543 86.3574 8.63187V9.02118V18.9417C86.3574 19.7977 85.9981 20.1532 85.1344 20.154C84.5741 20.154 84.0138 20.1585 83.4528 20.154C82.7893 20.1472 82.3827 19.7504 82.3827 19.095C82.3796 14.4354 82.3796 9.77724 82.3827 5.12061C82.3827 4.48254 82.784 4.07896 83.4245 4.07595C84.7871 4.06843 86.1497 4.06843 87.5123 4.07595C88.0917 4.07595 88.4678 4.35778 88.6367 4.95827C89.1343 6.72969 89.6144 8.50561 90.0997 10.28C90.5354 11.8726 90.9696 13.4651 91.4251 15.1336C91.4825 14.9697 91.5222 14.8765 91.5482 14.7796C92.4145 11.6045 93.2808 8.42945 94.1471 5.25439C94.4138 4.27737 94.6775 4.07369 95.6964 4.07369H99.3654C100.105 4.07369 100.494 4.45699 100.494 5.18675V19.0484C100.494 19.7707 100.098 20.1517 99.357 20.1547H97.6754C96.911 20.1547 96.5212 19.7789 96.5212 19.0274V9.0317V8.63187L96.46 8.61985Z" fill="#4B5959"/>
    <path fill-rule="evenodd" clip-rule="evenodd" d="M75.2759 9.8725C74.3326 11.6863 73.3899 13.5 72.4477 15.3138C71.7302 16.6946 71.0137 18.0762 70.2983 19.4586C70.0483 19.9426 69.6684 20.1711 69.102 20.156C68.1986 20.132 67.2936 20.1515 66.3893 20.1493C65.6716 20.1493 65.2649 19.7622 65.2642 19.0693V5.13094C65.2642 4.47108 65.6639 4.07877 66.3297 4.06975C66.9282 4.06298 67.5267 4.06524 68.126 4.06975C68.8429 4.07426 69.2358 4.4583 69.2366 5.16251V14.1812V14.5847L69.2985 14.6088C69.3711 14.4878 69.4514 14.3698 69.514 14.245C71.1307 11.1389 72.7534 8.0357 74.3533 4.92126C74.659 4.32828 75.058 4.02541 75.7574 4.06148C76.5577 4.10206 77.3626 4.06975 78.1644 4.07125C78.9372 4.07125 79.3239 4.44703 79.3239 5.19182V19.0204C79.3239 19.772 78.9418 20.1523 78.1774 20.1553H76.4576C75.7475 20.1508 75.3523 19.7607 75.3523 19.0557V10.3016V9.89354L75.2759 9.8725Z" fill="#4B5959"/>
    <path fill-rule="evenodd" clip-rule="evenodd" d="M107.553 16.766H108.002H115.493C116.233 16.766 116.619 17.1493 116.623 17.8776C116.623 18.2909 116.629 18.7043 116.623 19.1176C116.612 19.7309 116.214 20.145 115.6 20.1458C111.931 20.1513 108.262 20.1513 104.593 20.1458C103.972 20.1458 103.556 19.7399 103.556 19.1327C103.551 14.449 103.551 9.76429 103.556 5.0786C103.556 4.46909 103.968 4.06701 104.591 4.06626C108.26 4.06125 111.929 4.06125 115.598 4.06626C116.217 4.06626 116.612 4.47585 116.623 5.09063C116.629 5.50398 116.623 5.91734 116.623 6.33069C116.619 7.0597 116.233 7.44299 115.494 7.44374H108.003H107.556V10.45H115.41C116.254 10.45 116.62 10.8077 116.622 11.6322V12.7595C116.615 13.4359 116.22 13.829 115.526 13.8297C112.992 13.8327 110.457 13.8327 107.923 13.8297H107.555L107.553 16.766Z" fill="#4B5959"/>
    <path fill-rule="evenodd" clip-rule="evenodd" d="M55.9157 4.06855H57.2915C57.8419 4.07306 58.1522 4.27372 58.3418 4.77125C60.0988 9.38079 61.853 13.9926 63.6044 18.6066C63.9629 19.5513 63.5196 20.1496 62.4885 20.1503H60.7304C60.0371 20.1503 59.7627 19.9617 59.5319 19.3334C59.301 18.7051 59.0664 18.0903 58.8501 17.4628C58.7866 17.2786 58.6972 17.2125 58.4992 17.2132C56.7667 17.2208 55.0341 17.2208 53.3015 17.2132C53.1043 17.2132 53.0111 17.2704 52.9469 17.4575C52.7221 18.1083 52.4798 18.7532 52.2398 19.3988C52.0403 19.9376 51.7346 20.1503 51.1468 20.1503C50.4718 20.1503 49.7969 20.1571 49.1227 20.1503C48.3584 20.1413 47.8768 19.5378 48.129 18.8306C48.7757 17.0411 49.459 15.2645 50.134 13.4848C51.226 10.6043 52.3216 7.72461 53.4208 4.84565C53.6401 4.26846 53.9329 4.07155 54.5757 4.0693C55.0252 4.0678 55.47 4.06855 55.9157 4.06855ZM55.9455 8.68084H55.853L54.1347 13.8192H57.6661L55.9455 8.68084Z" fill="#4B5959"/>
    <path fill-rule="evenodd" clip-rule="evenodd" d="M123.652 15.0377V19.0044C123.652 19.7762 123.27 20.1475 122.477 20.149C121.904 20.149 121.33 20.1535 120.757 20.149C120.091 20.143 119.681 19.7492 119.68 19.0968C119.677 14.4372 119.677 9.77755 119.68 5.11791C119.68 4.46255 120.084 4.06573 120.755 4.06573C122.793 4.06573 124.831 4.04244 126.87 4.08001C127.607 4.09375 128.341 4.18572 129.059 4.35433C131.505 4.93152 132.827 6.491 132.951 8.9561C132.996 9.7302 132.937 10.5068 132.775 11.2656C132.317 13.3106 130.864 14.3898 128.861 14.7934C128.069 14.9528 127.247 14.9926 126.435 15.0264C125.521 15.0677 124.606 15.0377 123.652 15.0377ZM123.681 7.45299V11.6512C124.816 11.6512 125.923 11.6827 127.028 11.6422C128.132 11.6016 129.002 10.6554 129.002 9.55058C129.002 8.44579 128.139 7.50034 127.025 7.46126C125.91 7.42218 124.814 7.45374 123.681 7.45374V7.45299Z" fill="#4B5959"/>
    <path fill-rule="evenodd" clip-rule="evenodd" d="M44.765 11.3625C45.203 11.6165 45.6593 11.8224 46.0446 12.114C47.052 12.8859 47.3891 13.9583 47.3333 15.1743C47.214 17.789 45.1166 19.5033 42.6339 19.9843C41.0286 20.3013 39.3685 20.2238 37.8009 19.7588C35.8135 19.1719 34.4621 17.9551 33.9714 15.9064C33.7902 15.1548 34.19 14.6001 34.9735 14.5934C35.6354 14.5881 36.2981 14.5934 36.9608 14.5934C37.5165 14.5934 37.8077 14.7948 38.0103 15.2961C38.6654 16.9225 40.6963 17.5928 42.2418 16.6902C42.8533 16.334 43.1591 15.8079 43.1277 15.1007C43.0964 14.3935 42.7662 13.8148 42.0874 13.5735C41.5615 13.3864 40.9776 13.3112 40.4142 13.2812C39.497 13.2323 39.1721 12.9542 39.1637 12.0539C39.1578 11.7912 39.1683 11.5284 39.1951 11.267C39.2524 10.7762 39.617 10.4704 40.1245 10.4486C40.5067 10.4328 40.8889 10.4441 41.2619 10.3734C42.2479 10.187 42.7991 9.5467 42.7486 8.70871C42.7012 7.91657 41.9728 7.20034 41.0509 7.16577C40.4922 7.14473 39.9159 7.24619 39.3693 7.3732C38.9245 7.47616 38.5859 7.79407 38.4009 8.2187C38.1356 8.82821 37.6923 9.08599 37.0151 9.02888C36.5343 8.98829 36.0474 9.02136 35.5628 9.02061C34.6776 9.02061 34.2381 8.46596 34.4652 7.60919C34.7808 6.41797 35.5253 5.54316 36.5932 4.9299C37.5486 4.38126 38.6096 4.16406 39.6942 4.08665C40.9814 3.99421 42.264 4.05734 43.5114 4.43162C44.34 4.68038 45.0876 5.06217 45.6998 5.68145C47.37 7.37019 47.0298 10.0172 44.9821 11.2332L44.765 11.3625Z" fill="#4B5959"/>
    <path fill-rule="evenodd" clip-rule="evenodd" d="M72.7405 3.32059C71.6566 3.29955 70.7493 3.14999 69.9299 2.66298C69.4552 2.38115 69.0425 2.02867 68.8124 1.51911C68.5823 1.00956 68.736 0.489482 69.1724 0.191115C69.6067 -0.117861 70.2098 -0.0450851 70.5552 0.35796C71.3837 1.27711 72.4225 1.36204 73.5186 1.06592C73.9077 0.960707 74.2601 0.660837 74.5811 0.393283C74.9021 0.12573 75.2461 -0.0704259 75.6848 0.0423073C76.0815 0.130371 76.3887 0.438933 76.4698 0.830688C76.5631 1.21097 76.4278 1.54467 76.1962 1.84529C75.5495 2.68552 74.6415 3.06356 73.6226 3.23115C73.2847 3.28827 72.94 3.30255 72.7405 3.32059Z" fill="#4B5959"/>
    <path d="M34.0557 26.1543H36.4007C37.6237 26.1543 38.5058 26.6255 38.5058 27.922C38.5058 29.1004 37.7346 29.6453 36.6255 29.6453H35.4491V31.3986H34.0557V26.1543ZM36.2356 28.5848C36.7149 28.5848 37.1575 28.548 37.1575 27.937C37.1575 27.4289 36.8357 27.2741 36.3488 27.2741H35.4491V28.5856L36.2356 28.5848Z" fill="#7D8888"/>
    <path d="M41.6885 31.5247C40.0405 31.5247 39.0132 30.3755 39.0132 28.777C39.0132 27.2228 40.0695 26.0293 41.6724 26.0293C43.2608 26.0293 44.2866 27.0973 44.2866 28.7837C44.2881 30.3244 43.3066 31.5247 41.6885 31.5247ZM41.6587 27.1446C40.9096 27.1446 40.4357 27.7706 40.4357 28.765C40.4357 29.7886 40.8943 30.4003 41.664 30.4003C42.4207 30.4003 42.8625 29.7893 42.8625 28.7432C42.8648 27.7458 42.4077 27.1446 41.6587 27.1446Z" fill="#7D8888"/>
    <path d="M47.6214 31.3994H45.0669V26.1543H49.2709V27.2591H46.4428V27.9077H47.6933C48.9369 27.9077 49.7234 28.4526 49.7234 29.631C49.7265 30.9019 48.9476 31.3994 47.6214 31.3994ZM47.3967 28.9764H46.4374V30.2878H47.4311C48.0227 30.2878 48.3147 30.133 48.3147 29.625C48.3178 29.0418 47.8759 28.9756 47.3967 28.9756V28.9764Z" fill="#7D8888"/>
    <path d="M52.9853 31.5247C51.3374 31.5247 50.3101 30.3755 50.3101 28.777C50.3101 27.2228 51.3664 26.0293 52.9693 26.0293C54.5577 26.0293 55.5834 27.0973 55.5834 28.7837C55.5842 30.3244 54.6035 31.5247 52.9853 31.5247ZM52.9555 27.1423C52.2065 27.1423 51.7325 27.7684 51.7325 28.7627C51.7325 29.7863 52.1912 30.3981 52.9609 30.3981C53.7176 30.3981 54.1594 29.7871 54.1594 28.7409C54.1609 27.7458 53.7039 27.1446 52.9548 27.1446L52.9555 27.1423Z" fill="#7D8888"/>
    <path d="M60.6029 27.3185H59.0222V31.3994H57.6134V27.3185H56.0327V26.1543H60.6021L60.6029 27.3185Z" fill="#7D8888"/>
    <path d="M66.1147 31.5247C64.4668 31.5247 63.4395 30.3755 63.4395 28.777C63.4395 27.2228 64.4958 26.0293 66.0987 26.0293C67.687 26.0293 68.7128 27.0973 68.7128 28.7837C68.7136 30.3244 67.7344 31.5247 66.1147 31.5247ZM66.0849 27.1423C65.3358 27.1423 64.8619 27.7684 64.8619 28.7627C64.8619 29.7863 65.3206 30.3981 66.0903 30.3981C66.847 30.3981 67.2888 29.7871 67.2888 28.7409C67.2926 27.7458 66.8355 27.1446 66.0865 27.1446L66.0849 27.1423Z" fill="#7D8888"/>
    <path d="M74.1017 31.3994H72.7007V29.2334H70.8952V31.3986H69.4941V26.1543H70.8952V28.0249H72.7007V26.1543H74.1017V31.3994Z" fill="#7D8888"/>
    <path d="M79.6824 31.3998H78.2813V27.3189H77.0981L77.0308 29.3594C76.9781 30.8399 76.3116 31.5028 75.3974 31.5028C75.1498 31.4999 74.9034 31.4678 74.6636 31.4074V30.3101C74.7961 30.3548 74.9354 30.3772 75.0756 30.3762C75.3905 30.3762 75.645 30.244 75.6748 29.1685L75.765 26.1562H79.6832L79.6824 31.3998Z" fill="#7D8888"/>
    <path d="M85.5176 31.4003H84.0775L83.7328 30.4428H81.8899L81.5375 31.4003H80.1143L82.1146 26.1484H83.5226L85.5176 31.4003ZM82.8209 27.6215L82.2094 29.4553H83.4232L82.8209 27.6215Z" fill="#7D8888"/>
    <path d="M90.5659 31.3996H89.2099L89.307 27.9079L87.4863 31.3996H85.9575V26.1545H87.3135L87.2608 29.6462L89.0815 26.1545H90.5651L90.5659 31.3996ZM88.3638 25.8975C87.6598 25.8975 86.9925 25.5735 86.9925 24.7852H87.6368C87.7041 25.0723 88.0114 25.212 88.3638 25.212C88.7161 25.212 89.0234 25.0723 89.0907 24.7852H89.7335C89.7335 25.5728 89.0677 25.8975 88.3638 25.8975Z" fill="#7D8888"/>
    <path d="M96.1468 31.3994H94.7457V29.2334H92.9441V31.3986H91.543V26.1543H92.9441V28.0249H94.7495V26.1543H96.1506L96.1468 31.3994Z" fill="#7D8888"/>
    <path d="M101.6 31.5251C100.116 31.5251 99.2402 30.8329 99.2173 29.6462H100.618C100.618 30.2648 101.053 30.4729 101.592 30.4729C102.064 30.4729 102.394 30.2076 102.394 29.8394C102.394 29.405 102.042 29.169 101.533 29.169H101.038V28.2108C101.195 28.2258 101.375 28.2258 101.442 28.2258C102.042 28.2258 102.259 27.953 102.259 27.6366C102.259 27.3495 101.981 27.0767 101.562 27.0767C101.022 27.0767 100.721 27.2976 100.693 27.7177H99.3648C99.387 26.628 100.196 26.0312 101.53 26.0312C102.803 26.0312 103.612 26.5761 103.612 27.49C103.612 27.941 103.26 28.3956 102.856 28.5422C103.429 28.6567 103.834 29.1611 103.814 29.7357C103.817 30.8036 102.851 31.5251 101.6 31.5251Z" fill="#7D8888"/>
    <path d="M109.398 31.4003H107.959L107.614 30.4428H105.771L105.419 31.4003H103.997L105.997 26.1484H107.405L109.398 31.4003ZM106.702 27.6215L106.091 29.4553H107.305L106.702 27.6215Z" fill="#7D8888"/>
    <path d="M114.446 31.3996H113.09L113.187 27.9079L111.365 31.3996H109.836V26.1545H111.192L111.14 29.6462L112.96 26.1545H114.444L114.446 31.3996ZM112.244 25.8975C111.54 25.8975 110.873 25.5735 110.873 24.7852H111.518C111.585 25.0723 111.893 25.212 112.245 25.212C112.597 25.212 112.905 25.0723 112.972 24.7852H113.616C113.615 25.5728 112.948 25.8975 112.244 25.8975Z" fill="#7D8888"/>
    <path d="M115.436 26.1543H117.458L118.432 29.7933L119.426 26.1543H121.396V31.3986H120.079L120.146 27.3989L118.955 31.3986H117.885L116.701 27.4064L116.746 31.3986H115.436V26.1543Z" fill="#7D8888"/>
    <path d="M124.866 31.5247C123.218 31.5247 122.191 30.3755 122.191 28.777C122.191 27.2228 123.247 26.0293 124.85 26.0293C126.438 26.0293 127.464 27.0973 127.464 28.7837C127.466 30.3244 126.484 31.5247 124.866 31.5247ZM124.836 27.1423C124.087 27.1423 123.613 27.7684 123.613 28.7627C123.613 29.7863 124.072 30.3981 124.842 30.3981C125.598 30.3981 126.04 29.7871 126.04 28.7409C126.041 27.7458 125.582 27.1446 124.836 27.1446V27.1423Z" fill="#7D8888"/>
    <path d="M128.244 26.1543H130.926C131.847 26.1543 132.649 26.5008 132.649 27.4725C132.649 27.9986 132.402 28.2992 131.953 28.533C132.59 28.7389 132.911 29.174 132.911 29.8219C132.911 30.3081 132.732 30.7132 132.387 31.0003C131.928 31.3836 131.413 31.3979 130.836 31.3979H128.244V26.1543ZM130.604 28.2166C131.075 28.2166 131.292 28.0617 131.292 27.7085C131.292 27.2741 130.939 27.2005 130.565 27.2005H129.606V28.2173L130.604 28.2166ZM130.708 30.3157C131.128 30.3157 131.503 30.2345 131.503 29.7189C131.503 29.2034 131.106 29.1177 130.671 29.1177H129.607V30.3202L130.708 30.3157Z" fill="#7D8888"/>
    <path d="M9.26643 22.3125H0V31.4244H9.26643V22.3125Z" fill="#FF8900"/>
    <path d="M9.26643 22.3125L0 31.4244V22.3125H9.26643Z" fill="#FFA700"/>
    <path d="M18.5345 22.3125H9.26807V31.4244H18.5345V22.3125Z" fill="#FFB83A"/>
    <path d="M18.5345 22.3125L9.26807 31.4244V22.3125H18.5345Z" fill="#FFCA49"/>
    <path d="M18.5345 13.1992H9.26807V22.3103H18.5345V13.1992Z" fill="#B8BA3C"/>
    <path d="M18.5345 13.1992L9.26807 22.3103V13.1992H18.5345Z" fill="#CACB4B"/>
    <path d="M27.8006 13.1992H18.5342V22.3103H27.8006V13.1992Z" fill="#71BB3E"/>
    <path d="M27.8006 13.1992L18.5342 22.3103V13.1992H27.8006Z" fill="#8DCC4E"/>
    <path d="M27.8006 4.08789H18.5342V13.199H27.8006V4.08789Z" fill="#4C9D33"/>
    <path d="M27.8006 4.08789L18.5342 13.1997V4.08789H27.8006Z" fill="#5FB640"/>
</svg>