<svg width="138" height="24" viewBox="0 0 138 24" fill="none" xmlns="http://www.w3.org/2000/svg">
    <g clip-path="url(#clip0)">
    <path d="M21.2753 17.7816C21.4996 18.1228 21.6492 18.3882 21.8361 18.6536C25.4628 24.4167 32.903 25.592 37.8757 21.7247C41.8388 18.6157 43.4091 14.3693 42.437 9.40246C41.4649 4.54937 38.4365 1.5162 33.7256 0.302928C29.6876 -0.758683 24.8272 1.02331 22.3969 4.54937C20.0789 7.92378 17.9477 11.4119 15.7044 14.8243C15.5175 15.0897 15.4053 15.3171 15.6297 15.6584C16.7513 17.4025 17.8356 19.1465 18.9946 20.9664C19.7797 19.8669 20.4901 18.8811 21.2753 17.7816ZM11.4048 23.8859C12.7881 23.9996 14.2089 23.7342 15.5923 23.1655C16.1157 22.938 16.1905 22.7484 15.854 22.2935C14.9941 21.1181 14.0967 19.9048 13.3116 18.6536C12.9003 17.9712 12.4143 17.7437 11.6291 17.8195C7.81551 18.1987 4.60012 13.9901 5.9461 10.0091C7.32946 5.9143 12.0778 4.66312 15.2558 7.54464C15.5175 7.77212 15.7044 8.18919 16.1157 7.62046C17.013 6.25554 17.9477 4.92852 18.9198 3.60151C19.1068 3.3361 19.1441 3.14653 18.845 2.88113C16.2653 0.71999 13.3864 -0.341621 10.0962 0.113355C3.25415 1.02331 -0.933337 7.84795 0.18831 14.1797C1.27257 20.3219 6.95558 24.3788 11.4048 23.8859ZM101.473 14.2176C101.473 16.3029 101.51 18.3882 101.473 20.4735C101.473 21.1939 101.66 21.6868 102.37 21.3835C103.081 21.1181 104.427 22.3314 104.427 20.5115C104.427 19.6394 104.464 18.7295 104.427 17.8574C104.389 17.2129 104.502 16.9475 105.249 17.175C106.595 17.5541 107.866 17.2508 108.988 16.4546C110.858 15.1655 111.643 12.7769 111.007 10.3124C110.297 7.50672 107.717 6.10388 105.1 7.12757C104.913 7.2034 104.688 7.35506 104.576 7.27923C103.829 6.78634 103.006 7.16549 102.221 7.05174C101.623 6.97591 101.473 7.2034 101.473 7.77212C101.51 9.93326 101.473 12.0944 101.473 14.2176ZM127.607 12.0565C127.607 11.1086 127.607 10.1607 127.607 9.21288C127.607 7.01383 127.607 7.05174 125.402 7.01383C124.729 7.01383 124.654 7.27923 124.654 7.84795C124.691 9.55411 124.654 11.2603 124.654 12.9664C124.654 13.8385 123.943 14.4451 122.934 14.5209C122.074 14.5968 121.551 14.1418 121.513 13.1939C121.438 11.8669 121.438 10.5399 121.438 9.21288C121.438 7.01383 121.438 7.05174 119.307 7.05174C118.709 7.05174 118.522 7.16549 118.522 7.81004C118.559 9.74369 118.522 11.6394 118.522 13.5731C118.522 16.6062 120.878 18.1228 123.644 16.9096C124.018 16.7579 124.542 15.8859 124.878 17.0233C124.878 17.0991 125.177 17.0991 125.327 17.0991C125.888 17.0991 126.448 17.0612 127.009 17.0991C127.533 17.1371 127.645 16.9096 127.645 16.4167C127.607 14.938 127.607 13.4972 127.607 12.0565ZM134.001 6.82426C133.066 6.74843 132.094 6.938 131.234 7.46881C130.225 8.11336 129.739 9.02331 129.776 10.2366C129.813 11.374 130.412 12.0944 131.384 12.5873C132.281 13.0423 133.216 13.156 134.15 13.3456C134.524 13.4214 134.973 13.5352 134.973 14.066C134.973 14.6347 134.562 14.8243 134.113 14.9001C133.216 15.0517 132.393 14.7484 131.571 14.5209C131.047 14.3693 130.449 13.7247 130.075 14.028C129.701 14.3314 130.075 15.0897 130.038 15.6584C130.038 16.0754 129.926 16.5683 130.486 16.7958C132.393 17.5162 134.375 17.7437 136.282 16.9096C137.702 16.265 138.076 15.0138 137.964 13.5352C137.852 12.284 137.067 11.7153 136.057 11.374C135.272 11.1086 134.449 10.919 133.627 10.7295C133.216 10.6157 132.692 10.5778 132.73 9.97118C132.804 9.32663 133.328 9.36454 133.814 9.36454C134.562 9.32663 135.272 9.5162 136.02 9.70577C136.468 9.81952 136.992 10.3882 137.328 10.1228C137.702 9.81952 137.403 9.09914 137.478 8.56833C137.59 7.77212 137.254 7.43089 136.543 7.24132C135.758 6.938 134.936 6.78634 134.001 6.82426ZM84.4988 9.32663C84.4988 7.01383 84.4614 4.73895 84.4988 2.42615C84.4988 1.62994 84.1997 1.47828 83.5267 1.47828C82.8537 1.47828 82.592 1.66786 82.6294 2.38824C82.6668 3.71525 82.6294 5.04226 82.6668 6.36928C82.6668 7.01383 82.4798 7.16549 81.8442 7.01383C78.7036 6.21762 76.0117 7.9617 75.5256 11.1465C75.2265 13.0802 75.6004 14.9001 77.2081 16.1892C78.741 17.4404 80.4235 17.5541 82.1807 16.72C82.4425 16.6062 82.592 16.6442 82.8163 16.7958C83.8632 17.4025 84.4988 16.9854 84.4988 15.81C84.4988 13.611 84.4988 11.4498 84.4988 9.32663ZM69.7304 12.8527C70.7399 12.8527 71.712 12.8527 72.7215 12.8527C73.0954 12.8527 73.4319 12.8148 73.4693 12.3219C73.6936 9.70577 72.3476 7.24132 69.5061 7.05174C65.9542 6.82426 63.524 10.1987 64.6456 13.8385C65.543 16.7958 68.6088 18.1228 71.7868 17.0233C72.9458 16.6062 73.1328 16.3029 73.0206 15.1655C72.9458 14.7105 72.8337 14.5209 72.3476 14.7863C71.899 15.0517 71.4129 15.2792 70.8895 15.4309C69.0948 15.9996 67.188 15.2413 66.5151 13.7247C66.2533 13.156 66.3281 12.8527 67.0385 12.8527C67.9358 12.8906 68.8331 12.8527 69.7304 12.8527ZM113.101 9.21288C113.101 11.0707 113.101 12.9285 113.101 14.7863C113.101 16.9475 113.101 16.9096 115.232 16.9475C115.942 16.9475 116.092 16.7579 116.092 16.0375C116.054 11.9048 116.092 7.77212 116.092 3.63942C116.092 1.40245 116.092 1.44037 113.923 1.44037C113.213 1.44037 113.138 1.70577 113.138 2.31241C113.138 4.58729 113.101 6.90008 113.101 9.21288ZM93.0981 11.9427C93.0981 11.9427 93.1355 11.9427 93.0981 11.9427C93.1355 12.7769 93.0607 13.6489 93.1355 14.483C93.285 16.4546 95.4162 17.7437 97.1734 17.0233C97.9586 16.72 97.809 16.0375 97.6968 15.5067C97.5473 14.9001 97.0986 15.3171 96.7995 15.393C95.6031 15.6584 94.8927 15.0517 94.7806 13.611C94.7058 12.5873 94.7806 11.6015 94.7806 10.5778C94.7806 8.71999 94.7806 8.71999 96.6126 8.71999C97.323 8.71999 97.5847 8.56833 97.6221 7.77212C97.6221 6.90009 97.1734 6.97591 96.6126 6.97591C96.3509 6.97591 96.0518 6.97591 95.7901 6.97591C95.1171 7.01383 94.7432 6.74843 94.818 5.99013C94.8553 5.49724 94.818 4.96644 94.818 4.47355C94.818 4.20814 94.7806 3.98065 94.4441 3.94274C93.6589 3.86691 93.1729 4.28397 93.1729 5.08018C93.1729 5.3835 93.1355 5.72473 93.1729 6.02805C93.2477 6.74843 92.9112 7.05174 92.2382 6.97591C91.5652 6.90009 91.3035 7.08966 91.3035 7.84795C91.3035 8.64416 91.6773 8.75791 92.3129 8.68208C92.9485 8.60625 93.2103 8.87165 93.1729 9.55411C93.0607 10.3503 93.0981 11.1465 93.0981 11.9427ZM53.0179 17.2508C53.6909 17.3266 54.4387 17.0991 55.1864 16.8337C56.009 16.4925 55.7846 15.7721 55.5977 15.2034C55.3734 14.483 54.9247 15.1276 54.663 15.2413C52.6814 16.0754 50.4755 15.3551 49.7651 13.5352C49.1669 12.0565 49.3912 10.6536 50.4381 9.47828C51.5598 8.26501 52.9805 8.18919 54.476 8.68208C54.8125 8.79582 55.1864 9.2508 55.4855 8.94748C55.7846 8.64416 55.5977 8.11336 55.5977 7.65838C55.5977 7.27923 55.2986 7.12757 54.9995 7.01383C54.476 6.82426 53.9152 6.78634 53.3544 6.71051C50.3259 6.48302 47.8583 8.75791 47.7462 11.829C47.634 14.9759 49.8399 17.2508 53.0179 17.2508ZM59.9721 8.2271C59.8973 7.99961 59.86 7.9617 59.86 7.88587C59.9347 7.2034 59.673 6.97591 58.9626 6.97591C58.1775 6.97591 58.2149 7.39298 58.2149 7.9617C58.2149 10.6916 58.2523 13.4593 58.2149 16.1892C58.2149 16.8337 58.4766 16.9096 59 16.9096C59.5235 16.9096 59.8973 16.9096 59.86 16.1892C59.8226 14.5968 59.86 13.0423 59.86 11.4498C59.86 9.85743 60.9068 8.71999 62.5145 8.71999C63.4866 8.71999 63.4492 8.18919 63.4118 7.54464C63.3744 6.71051 62.7762 6.82426 62.2528 6.90009C61.3555 7.01383 60.6825 7.54464 59.9721 8.2271ZM89.1723 12.0565C89.1723 10.6536 89.1349 9.21288 89.1723 7.81004C89.2097 7.12757 88.9106 7.01383 88.3498 7.01383C87.789 7.01383 87.3777 7.01383 87.3777 7.77212C87.4151 10.5778 87.4151 13.3835 87.3777 16.1892C87.3777 16.8337 87.6394 17.0612 88.275 17.0612C88.9106 17.0612 89.1723 16.8717 89.1723 16.1892C89.1349 14.8243 89.1723 13.4593 89.1723 12.0565ZM87.1534 3.60151C87.1534 4.24606 87.789 4.89061 88.4246 4.85269C89.0228 4.81478 89.5836 4.20814 89.5462 3.48776C89.5462 2.76738 89.0228 2.23658 88.3124 2.27449C87.6394 2.31241 87.116 2.91904 87.1534 3.60151Z" fill="#FEFEFE"/>
    <path d="M21.2737 17.7819C20.4886 18.8814 19.8156 19.8672 19.0304 20.9667C17.8714 19.1468 16.7871 17.4028 15.6655 15.6587C15.4411 15.3175 15.5533 15.09 15.7402 14.8246C17.9462 11.4122 20.1147 7.92409 22.3954 4.54968C24.8256 1.02361 29.6861 -0.758378 33.724 0.303234C38.4349 1.5165 41.4634 4.54968 42.3981 9.40276C43.3702 14.3696 41.7999 18.616 37.8367 21.725C32.8641 25.6302 25.4238 24.4549 21.7971 18.6539C21.6476 18.4265 21.4606 18.1611 21.2737 17.7819ZM31.2938 17.8577C34.5839 17.7819 37.2011 15.2037 37.1263 11.981C37.0515 8.60655 34.4344 5.87669 31.2938 5.91461C28.1158 5.99044 25.536 8.68238 25.6107 11.8672C25.7229 15.2416 28.3027 17.9336 31.2938 17.8577Z" fill="#232F3C"/>
    <path d="M11.4038 23.8866C6.99199 24.3795 1.30898 20.3227 0.187333 14.1805C-0.934314 7.84872 3.25317 1.02408 10.0952 0.114124C13.3854 -0.340853 16.3017 0.720759 18.8067 2.91981C19.1058 3.1473 19.0684 3.37479 18.8815 3.64019C17.9467 4.96721 17.012 6.29422 16.0773 7.65915C15.7035 8.22787 15.4791 7.81081 15.2174 7.58332C12.0394 4.7018 7.2911 5.91507 5.90773 10.0478C4.56176 14.0288 7.77715 18.2373 11.5907 17.8582C12.3759 17.7824 12.8246 18.0099 13.2732 18.6923C14.0584 19.9435 14.9557 21.1189 15.8156 22.3321C16.1521 22.7871 16.0773 22.9767 15.5539 23.2042C14.2079 23.735 12.7872 24.0383 11.4038 23.8866Z" fill="#7CBA58"/>
    <path d="M101.472 14.2178C101.472 12.0566 101.472 9.93339 101.472 7.77225C101.472 7.20353 101.621 6.93813 102.219 7.05188C103.005 7.16562 103.827 6.78647 104.575 7.27936C104.687 7.35519 104.911 7.20353 105.098 7.1277C107.716 6.14192 110.295 7.50685 111.006 10.3125C111.641 12.777 110.856 15.1656 108.987 16.4547C107.865 17.213 106.594 17.5163 105.248 17.1751C104.5 16.9855 104.388 17.2509 104.425 17.8576C104.463 18.7296 104.463 19.6396 104.425 20.5116C104.388 22.3315 103.042 21.1182 102.369 21.3836C101.659 21.6869 101.472 21.1941 101.472 20.4737C101.509 18.3884 101.472 16.3031 101.472 14.2178ZM108.239 12.1324C108.239 10.1609 106.93 9.02344 105.285 9.51633C104.724 9.66799 104.388 9.97131 104.425 10.6538C104.463 11.4879 104.425 12.2841 104.425 13.1182C104.425 14.4832 104.874 14.8623 106.22 14.6727C107.491 14.4832 108.239 13.5353 108.239 12.1324Z" fill="#232F3C"/>
    <path d="M127.606 12.0567C127.606 13.4974 127.606 14.9761 127.606 16.4169C127.606 16.8718 127.494 17.1372 126.971 17.0993C126.41 17.0614 125.849 17.0993 125.288 17.0993C125.139 17.0993 124.877 17.0993 124.839 17.0235C124.503 15.924 123.979 16.7581 123.606 16.9098C120.839 18.123 118.483 16.6064 118.483 13.5733C118.483 11.6396 118.521 9.70596 118.483 7.81023C118.483 7.16568 118.67 7.05193 119.269 7.05193C121.4 7.05193 121.4 7.05193 121.4 9.21307C121.4 10.5401 121.4 11.8671 121.474 13.1941C121.512 14.142 122.035 14.597 122.895 14.5211C123.905 14.4453 124.615 13.8387 124.615 12.9666C124.615 11.2605 124.615 9.5543 124.615 7.84814C124.615 7.27942 124.69 7.01402 125.363 7.01402C127.569 7.01402 127.569 6.9761 127.569 9.21307C127.606 10.1609 127.606 11.1088 127.606 12.0567Z" fill="#232F3C"/>
    <path d="M134 6.82434C134.934 6.82434 135.757 6.93808 136.579 7.20349C137.29 7.39306 137.626 7.77221 137.514 8.5305C137.439 9.06131 137.738 9.74377 137.364 10.085C137.028 10.3883 136.505 9.78168 136.056 9.66794C135.346 9.47837 134.635 9.28879 133.85 9.32671C133.401 9.36462 132.841 9.28879 132.766 9.93334C132.691 10.54 133.252 10.5779 133.663 10.6916C134.486 10.9191 135.308 11.0708 136.093 11.3362C137.103 11.6774 137.925 12.2461 138 13.4973C138.112 14.976 137.738 16.2272 136.318 16.8717C134.373 17.7438 132.429 17.5163 130.522 16.758C129.962 16.5305 130.074 16.0376 130.074 15.6205C130.111 15.0518 129.737 14.2935 130.111 13.9902C130.485 13.6869 131.083 14.3314 131.607 14.4831C132.429 14.7106 133.289 15.0139 134.149 14.8623C134.598 14.7864 135.009 14.6348 135.009 14.0281C135.009 13.4594 134.56 13.3836 134.186 13.3078C133.252 13.1182 132.28 13.0044 131.42 12.5495C130.448 12.0566 129.849 11.3362 129.812 10.1987C129.775 8.98548 130.261 8.07552 131.27 7.43097C132.093 6.90017 133.065 6.74851 134 6.82434Z" fill="#232F3C"/>
    <path d="M84.4974 9.32687C84.4974 11.488 84.4974 13.6112 84.4974 15.7724C84.4974 16.9477 83.8618 17.3648 82.8149 16.7581C82.5532 16.6065 82.4037 16.5686 82.1793 16.6823C80.4221 17.5164 78.7022 17.4027 77.2067 16.1515C75.6364 14.8624 75.2625 13.0425 75.5243 11.1089C76.0103 7.92403 78.7022 6.17995 81.8428 6.97616C82.5158 7.12782 82.6654 7.01407 82.6654 6.33161C82.628 5.00459 82.7028 3.67758 82.628 2.35057C82.5906 1.63019 82.8523 1.44061 83.5253 1.44061C84.1983 1.44061 84.5348 1.59227 84.4974 2.38848C84.46 4.70128 84.4974 7.01407 84.4974 9.32687ZM82.7028 11.943C82.7028 11.2984 82.628 10.616 82.7028 9.97142C82.8149 9.09938 82.4037 8.75815 81.6559 8.60649C80.1978 8.30317 78.8518 8.379 77.8423 9.6681C77.0198 10.6918 76.8702 12.7771 77.5432 14.0662C78.1788 15.2795 79.2631 15.7724 80.8708 15.5828C82.2541 15.4311 82.6654 14.9762 82.6654 13.5733C82.7028 13.0046 82.7028 12.4738 82.7028 11.943Z" fill="#7CBA58"/>
    <path d="M69.7291 12.853C68.8317 12.853 67.9344 12.8909 67.0371 12.853C66.3267 12.8151 66.252 13.1184 66.5137 13.725C67.1867 15.2795 69.0935 16.0378 70.8881 15.4312C71.3741 15.2795 71.8602 15.052 72.3462 14.7866C72.7949 14.5212 72.9445 14.7108 73.0192 15.1658C73.1688 16.3032 72.9445 16.6065 71.7854 17.0236C68.6074 18.161 65.5416 16.7961 64.6443 13.8388C63.5226 10.1989 65.9528 6.82453 69.5047 7.05202C72.3836 7.24159 73.6922 9.74396 73.4679 12.3222C73.4305 12.8151 73.094 12.853 72.7201 12.853C71.748 12.853 70.7385 12.853 69.7291 12.853ZM69.0561 11.071C69.7664 11.071 70.4768 11.071 71.1872 11.071C71.6359 11.071 71.7854 10.9193 71.6359 10.4264C71.3368 9.21316 70.402 8.45486 69.1308 8.45486C67.8223 8.41695 66.6632 9.25107 66.3641 10.3885C66.2146 10.9193 66.4015 11.071 66.8876 11.0331C67.6353 11.071 68.3457 11.071 69.0561 11.071Z" fill="#7CBA58"/>
    <path d="M113.099 9.21312C113.099 6.90033 113.137 4.62545 113.099 2.31265C113.099 1.70602 113.212 1.44061 113.885 1.44061C116.053 1.44061 116.053 1.44061 116.053 3.63966C116.053 7.77237 116.053 11.9051 116.053 16.0378C116.053 16.7202 115.904 16.9477 115.193 16.9477C113.062 16.9098 113.062 16.9477 113.062 14.7866C113.099 12.9288 113.099 11.0709 113.099 9.21312Z" fill="#232F3C"/>
    <path d="M93.0969 11.9431C93.0969 11.1468 93.0596 10.3506 93.0969 9.59234C93.1343 8.90988 92.8726 8.64448 92.237 8.72031C91.6388 8.79614 91.2649 8.64448 91.2275 7.88618C91.2275 7.12789 91.4893 6.93832 92.1622 7.01415C92.7978 7.08997 93.1717 6.78666 93.0969 6.06628C93.0596 5.76296 93.0969 5.42173 93.0969 5.11841C93.0969 4.3222 93.583 3.90514 94.3681 3.98097C94.742 4.01888 94.742 4.24637 94.742 4.51178C94.742 5.00467 94.7794 5.53547 94.742 6.02836C94.6672 6.82457 95.0411 7.05206 95.7141 7.01415C95.9758 7.01415 96.2749 7.01415 96.5367 7.01415C97.0975 6.97623 97.5461 6.93832 97.5461 7.81035C97.5461 8.60656 97.247 8.75822 96.5367 8.75822C94.7046 8.75822 94.7046 8.75822 94.7046 10.616C94.7046 11.6397 94.6673 12.6255 94.7046 13.6492C94.7794 15.1279 95.5272 15.6966 96.7236 15.4312C97.0227 15.3554 97.5088 14.9383 97.6209 15.545C97.7331 16.0758 97.8826 16.7582 97.0975 17.0615C95.3029 17.8198 93.1717 16.4928 93.0596 14.5213C93.0596 13.6492 93.1343 12.8151 93.0969 11.9431C93.1343 11.9431 93.0969 11.9431 93.0969 11.9431Z" fill="#7CBA58"/>
    <path d="M53.0166 17.2511C49.8386 17.2511 47.6326 14.9383 47.7448 11.9051C47.857 8.79608 50.362 6.55911 53.3531 6.7866C53.9139 6.82451 54.4747 6.86243 54.9981 7.08992C55.2972 7.20366 55.5963 7.35532 55.5963 7.73447C55.5963 8.15153 55.7833 8.68233 55.4842 9.02357C55.1851 9.32688 54.8112 8.87191 54.4747 8.75816C52.9792 8.26527 51.5584 8.3411 50.4368 9.55437C49.3899 10.7297 49.1656 12.0947 49.7638 13.6112C50.4742 15.4312 52.6801 16.1515 54.6616 15.3174C54.9234 15.2037 55.372 14.5591 55.5963 15.2795C55.7833 15.8482 56.0076 16.5686 55.1851 16.9098C54.4373 17.1373 53.6895 17.3269 53.0166 17.2511Z" fill="#7CBA58"/>
    <path d="M59.9709 8.22736C60.6813 7.5449 61.3917 7.01409 62.2516 6.90035C62.775 6.82452 63.3732 6.71078 63.4106 7.5449C63.448 8.22736 63.4854 8.75817 62.5133 8.72025C60.9056 8.68234 59.8587 9.81978 59.8587 11.4501C59.8587 13.0425 59.8214 14.597 59.8587 16.1895C59.8961 16.9098 59.4849 16.9098 58.9988 16.9098C58.4754 16.9098 58.2137 16.834 58.2137 16.1895C58.251 13.4596 58.251 10.6918 58.2137 7.96196C58.2137 7.43115 58.1763 6.97618 58.9614 6.97618C59.6718 6.97618 59.9335 7.20367 59.8587 7.88613C59.8587 7.96196 59.8961 8.03779 59.9709 8.22736Z" fill="#7CBA58"/>
    <path d="M89.1711 12.0569C89.1711 13.4597 89.1337 14.8246 89.1711 16.2275C89.2085 16.9099 88.9094 17.0995 88.2738 17.0995C87.6382 17.0995 87.3765 16.872 87.3765 16.2275C87.3765 13.4218 87.4139 10.6161 87.3765 7.81042C87.3765 7.05212 87.7877 7.05212 88.3486 7.05212C88.9094 7.05212 89.2085 7.16587 89.1711 7.84833C89.1337 9.21326 89.1711 10.654 89.1711 12.0569Z" fill="#7CBA58"/>
    <path d="M87.1522 3.60163C87.1148 2.91916 87.6756 2.31253 88.3112 2.27462C89.0216 2.2367 89.545 2.76751 89.545 3.48789C89.545 4.17035 89.0216 4.8149 88.4234 4.85281C87.7878 4.89073 87.1522 4.28409 87.1522 3.60163Z" fill="#7CBA58"/>
    <path d="M31.2942 17.8577C28.2657 17.8957 25.7233 15.2037 25.6486 11.8672C25.5738 8.68238 28.1536 5.99044 31.3316 5.91461C34.4722 5.83878 37.0894 8.60655 37.1641 11.981C37.2015 15.2037 34.6217 17.8198 31.2942 17.8577Z" fill="#FEFEFE"/>
    <path d="M108.239 12.1326C108.239 13.5354 107.492 14.4833 106.22 14.6729C104.874 14.8624 104.426 14.4833 104.426 13.1184C104.426 12.2842 104.463 11.488 104.426 10.6539C104.388 9.97145 104.725 9.66813 105.286 9.51647C106.931 9.02358 108.239 10.161 108.239 12.1326Z" fill="#FEFEFE"/>
    <path d="M82.7028 11.9432C82.7028 12.474 82.7028 13.0048 82.7028 13.5356C82.7028 14.9384 82.2915 15.3934 80.9081 15.5451C79.3004 15.7346 78.2162 15.2417 77.5806 14.0285C76.9076 12.7394 77.0571 10.692 77.8797 9.63036C78.8892 8.34126 80.2351 8.26543 81.6933 8.56875C82.441 8.72041 82.8523 9.06164 82.7402 9.93368C82.628 10.6161 82.7028 11.2607 82.7028 11.9432Z" fill="#FEFEFE"/>
    <path d="M69.0559 11.071C68.3455 11.071 67.6351 11.033 66.9248 11.071C66.4387 11.1089 66.2518 10.9193 66.4013 10.4264C66.7378 9.25105 67.8595 8.45484 69.1681 8.49275C70.4393 8.53067 71.374 9.25105 71.6731 10.4643C71.7852 10.9572 71.6731 11.1089 71.2244 11.1089C70.514 11.071 69.8037 11.071 69.0559 11.071Z" fill="#FEFEFE"/>
    </g>
    <defs>
    <clipPath id="clip0">
    <rect width="138" height="24" fill="white"/>
    </clipPath>
    </defs>
</svg>