<svg width="190" height="38" viewBox="0 0 190 38" fill="none" xmlns="http://www.w3.org/2000/svg">
    <path d="M74.5787 10.5162L71.4392 26.4235C71.2989 26.8895 70.9845 27.1231 70.5118 27.1231H67.8721C67.3655 27.1231 67.0579 26.8827 66.9436 26.4041L64.5664 14.2062C64.445 13.5834 64.3342 12.9587 64.2339 12.332H63.734L63.3755 14.2062L61.0242 26.4041C61.0076 26.5077 60.9707 26.6069 60.9158 26.696C60.8608 26.7851 60.7889 26.8621 60.7042 26.9227C60.5294 27.0576 60.3155 27.13 60.0957 27.1288H57.4312C56.9381 27.1288 56.6373 26.8964 56.5276 26.4305L53.3892 10.5219H55.9067L58.2579 23.18C58.3031 23.4525 58.3981 24.159 58.5452 25.3004H59.0903C59.1672 24.6134 59.2882 23.9059 59.4488 23.18L61.8001 11.3188C61.9086 10.7875 62.2095 10.5288 62.7026 10.5288H65.2461C65.47 10.5288 65.6623 10.6067 65.8285 10.7555C65.9948 10.9112 66.1045 11.099 66.1486 11.32L68.4806 23.2052C68.6084 23.8475 68.7237 24.5482 68.8391 25.3004H69.3831C69.4159 25.0725 69.46 24.7291 69.5245 24.2631C69.5889 23.7959 69.6466 23.4525 69.6907 23.2247L72.042 10.5242H74.5787V10.5173V10.5162ZM87.9522 25.1195L88.0743 26.9742C86.6335 27.1036 84.289 27.1689 81.0409 27.1689C80.0287 27.1689 79.2292 26.9032 78.6388 26.3652C78.0507 25.827 77.7487 25.1 77.7363 24.1863V13.454C77.7487 12.5405 78.0496 11.8134 78.6388 11.2753C79.2224 10.7372 80.0231 10.4716 81.0409 10.4716C84.289 10.4716 86.6335 10.5357 88.0755 10.6662L87.9522 12.5405H81.4379C80.964 12.5405 80.6248 12.656 80.4268 12.8896C80.2278 13.1232 80.1328 13.5193 80.1328 14.0826V17.4028H87.0497V19.3549H80.1317V23.5898C80.1317 24.1531 80.2278 24.5493 80.4257 24.7829C80.6248 25.0164 80.9573 25.1321 81.4379 25.1321H87.9522V25.1207V25.1195ZM100.008 18.4538V18.5512C101.199 18.661 102.038 19.0824 102.538 19.8151C103.038 20.5478 103.287 21.5989 103.287 22.9796C103.287 24.6467 102.897 25.7881 102.108 26.3972C101.328 27.0063 99.9561 27.3108 98.0098 27.3108C95.3317 27.3108 93.2688 27.2467 91.828 27.1162V10.5173C93.1093 10.388 94.9347 10.3227 97.2916 10.3227C99.3545 10.3227 100.783 10.6215 101.584 11.2249C102.384 11.8283 102.781 12.9686 102.781 14.655C102.781 15.8606 102.557 16.7685 102.115 17.3844C101.68 18.0005 100.968 18.3577 100.008 18.455V18.4538ZM94.16 17.5918H97.485C98.6239 17.5918 99.4121 17.4097 99.8476 17.0536C100.283 16.6895 100.501 15.9888 100.501 14.9459C100.501 13.9212 100.264 13.2342 99.7899 12.8896C99.3149 12.5462 98.444 12.3709 97.1774 12.3709H94.16V17.5918ZM94.16 25.2363L97.6501 25.2626C98.8998 25.2626 99.7514 25.0806 100.206 24.7245C100.655 24.3605 100.885 23.6483 100.885 22.5721C100.885 21.3654 100.641 20.5478 100.161 20.1197C99.6813 19.6846 98.7969 19.4648 97.5099 19.4453H94.16V25.2363ZM115.381 18.4538V18.5512C116.572 18.661 117.411 19.0824 117.911 19.8151C118.41 20.5478 118.66 21.5989 118.66 22.9796C118.66 24.6467 118.27 25.7881 117.481 26.3972C116.701 27.0063 115.329 27.3108 113.382 27.3108C110.705 27.3108 108.643 27.2467 107.201 27.1162V10.5173C108.482 10.388 110.308 10.3227 112.665 10.3227C114.728 10.3227 116.156 10.6215 116.957 11.2249C117.757 11.8283 118.154 12.9686 118.154 14.655C118.154 15.8606 117.93 16.7685 117.487 17.3844C117.053 18.0005 116.348 18.3577 115.381 18.455V18.4538ZM109.533 17.5918H112.857C113.997 17.5918 114.785 17.4097 115.221 17.0536C115.656 16.6895 115.874 15.9888 115.874 14.9459C115.874 13.9212 115.637 13.2342 115.163 12.8896C114.688 12.5462 113.817 12.3709 112.55 12.3709H109.533V17.5918ZM109.533 25.2363L113.023 25.2626C114.273 25.2626 115.124 25.0806 115.579 24.7245C116.028 24.3605 116.258 23.6483 116.258 22.5721C116.258 21.3654 116.015 20.5478 115.534 20.1197C115.054 19.6846 114.17 19.4648 112.883 19.4453H109.533V25.2363ZM131.279 22.1106H124.744L123.227 27.1174H120.805L125.936 11.1654C126.065 10.7303 126.359 10.5162 126.814 10.5162H129.235C129.71 10.5162 129.998 10.7303 130.095 11.1654L135.25 27.1174H132.804L131.279 22.1106ZM130.664 20.0155L128.735 13.714C128.665 13.4894 128.598 13.2642 128.532 13.0385C128.441 12.7339 128.377 12.5071 128.326 12.3652H127.686L127.307 13.714L125.38 20.0166H130.664V20.0155ZM150.885 10.5162V26.1762C150.885 26.7991 150.591 27.1174 150.009 27.1174H147.754C147.279 27.1174 146.939 26.87 146.729 26.3709L141.617 15.0626C141.047 13.8112 140.72 13.0396 140.644 12.7534H140.311C140.388 13.3957 140.432 14.1673 140.432 15.0626V27.1174H138.057V11.4573C138.057 10.8345 138.356 10.5162 138.959 10.5162H141.143C141.605 10.5162 141.951 10.7635 142.187 11.2626L147.152 22.279C147.215 22.4221 147.324 22.6625 147.484 22.9865C147.645 23.3174 147.792 23.6276 147.925 23.9265C148.061 24.2242 148.182 24.4967 148.299 24.7566H148.657C148.583 23.9002 148.542 23.0413 148.535 22.1816V10.5162H150.886H150.885ZM159.539 19.4396H157.688C157.798 20.114 157.855 20.6841 157.855 21.1456V27.1104H155.478V10.5093H157.855V15.6133C157.855 16.3002 157.798 16.93 157.688 17.4875H159.539L164.363 10.5105H166.95L162.313 17.2929C162.017 17.7085 161.682 18.0948 161.314 18.447V18.518C161.755 18.9015 162.139 19.3228 162.454 19.7705L167.251 27.1093H164.613L159.539 19.4385V19.4396ZM172.632 27.1174H170.256V10.5162H172.631V27.1174H172.632ZM188.96 27.1174H186.416L185.014 21.9423C184.668 20.8329 183.976 20.2823 182.944 20.2823L179.57 20.2559V27.1104H177.218V10.5093C178.564 10.3674 180.472 10.2964 182.944 10.2964C184.923 10.2964 186.32 10.6399 187.14 11.3336C187.954 12.0206 188.364 13.2857 188.364 15.1142C188.364 16.4434 188.126 17.4486 187.666 18.123C187.198 18.7973 186.422 19.2061 185.348 19.348V19.4717C186.411 19.7957 187.096 20.5937 187.416 21.8772L188.96 27.1174ZM179.57 18.2134H182.895C184.066 18.2008 184.874 17.9867 185.308 17.578C185.743 17.1693 185.962 16.3987 185.962 15.2572C185.962 14.1352 185.743 13.3693 185.308 12.9743C184.873 12.5724 184.066 12.3709 182.893 12.3709C181.28 12.3709 180.171 12.3778 179.568 12.3973V18.2134H179.57Z" fill="#212429"/>
    <path d="M28.5676 37.1081H10.3571C4.66839 37.1081 0.019043 32.4003 0.019043 26.6437V11.0203C0.019043 5.2614 4.66952 0.554688 10.3571 0.554688H28.5676C34.2563 0.554688 38.9057 5.26254 38.9057 11.0203V26.6437C38.9057 32.3957 34.2495 37.1093 28.5688 37.1093L28.5676 37.1081Z" fill="#F9DA5E"/>
    <path d="M24.7454 8.05811L33.7082 17.1315L24.224 26.7327L15.2612 17.6593L24.7454 8.05811Z" fill="white"/>
    <path d="M26.1277 9.94733L25.0872 8.89402C24.9705 8.77719 24.813 8.71166 24.6489 8.71166C24.4848 8.71166 24.3273 8.77719 24.2107 8.89402L11.2714 21.9906C11.156 22.1088 11.0913 22.2681 11.0913 22.4342C11.0913 22.6004 11.156 22.7598 11.2714 22.8779L18.9959 30.6976C19.1125 30.8144 19.27 30.8799 19.4341 30.8799C19.5982 30.8799 19.7556 30.8144 19.8724 30.6976L32.8105 17.5999C32.9258 17.4818 32.9905 17.3223 32.9905 17.1562C32.9905 16.9901 32.9258 16.8307 32.8105 16.7126L27.9315 11.7723L18.5706 21.2487L16.7645 19.4261L26.1288 9.94619L26.1277 9.94733ZM10.7252 23.4309C10.4649 23.1664 10.3188 22.8082 10.3188 22.4349C10.3188 22.0615 10.4649 21.7034 10.7252 21.4387L23.6644 8.34103C23.9257 8.0776 24.2796 7.92969 24.6484 7.92969C25.0172 7.92969 25.3709 8.0776 25.6323 8.34103L33.3567 16.1607C33.6169 16.4253 33.7629 16.7835 33.7629 17.1568C33.7629 17.5302 33.6169 17.8883 33.3567 18.1528L20.4186 31.2507C20.1572 31.5141 19.8035 31.6619 19.4347 31.6619C19.0659 31.6619 18.712 31.5141 18.4508 31.2507L10.7263 23.4309H10.7252Z" fill="#0E0F0F"/>
    <path d="M20.145 30.9746C19.956 31.1645 19.7004 31.2711 19.4342 31.2711C19.1678 31.2711 18.9123 31.1645 18.7234 30.9746L5.78522 17.8769C5.59722 17.6855 5.4917 17.4266 5.4917 17.1567C5.4917 16.8868 5.59722 16.6279 5.78522 16.4366L13.5097 8.62372C13.6986 8.43376 13.9541 8.32715 14.2205 8.32715C14.4867 8.32715 14.7423 8.43376 14.9313 8.62372L27.8694 21.7215C28.0573 21.9128 28.1629 22.1717 28.1629 22.4416C28.1629 22.7115 28.0573 22.9704 27.8694 23.1617L20.145 30.9746Z" fill="white"/>
    <path d="M18.4508 31.2517L5.51277 18.1527C5.25254 17.8882 5.10645 17.5301 5.10645 17.1567C5.10645 16.7834 5.25254 16.4252 5.51277 16.1606L13.2371 8.34664C13.4985 8.0832 13.8523 7.9353 14.2211 7.9353C14.5899 7.9353 14.9437 8.0832 15.205 8.34664L28.1432 21.4455C28.4033 21.7101 28.5494 22.0683 28.5494 22.4416C28.5494 22.815 28.4033 23.1731 28.1432 23.4376L20.4188 31.2517C20.1574 31.5151 19.8035 31.6629 19.4347 31.6629C19.0659 31.6629 18.7122 31.5151 18.4508 31.2517ZM19.8724 30.6986L27.5968 22.8846C27.712 22.7666 27.7764 22.6074 27.7764 22.4416C27.7764 22.2757 27.712 22.1166 27.5968 21.9985L14.6599 8.89849C14.5433 8.78165 14.3857 8.71612 14.2216 8.71612C14.0575 8.71612 13.9001 8.78165 13.7834 8.89849L6.05902 16.7125C5.94361 16.8305 5.87889 16.99 5.87889 17.1561C5.87889 17.3223 5.94361 17.4817 6.05902 17.5998L18.9972 30.6975C19.1138 30.8143 19.2712 30.8799 19.4353 30.8799C19.5994 30.8799 19.757 30.8143 19.8737 30.6975L19.8724 30.6986ZM18.2598 27.5616C17.9204 27.9051 17.3583 27.9005 17.01 27.5479L7.4467 17.8665C7.36449 17.7845 7.29909 17.6868 7.25425 17.579C7.20941 17.4713 7.186 17.3557 7.18536 17.2388C7.18474 17.1219 7.2069 17.0061 7.25057 16.8979C7.29426 16.7896 7.3586 16.6913 7.43992 16.6082L13.5696 10.4029C13.6516 10.3204 13.749 10.2551 13.856 10.2108C13.963 10.1665 14.0775 10.144 14.1931 10.1446C14.3087 10.1453 14.423 10.169 14.5296 10.2145C14.636 10.26 14.7326 10.3264 14.8137 10.4098L24.3771 20.0842C24.7197 20.4392 24.7276 21.0001 24.3883 21.3493L18.2586 27.5616H18.2598ZM24.2799 21.2394C24.4133 21.0984 24.4867 20.9101 24.4844 20.7148C24.4821 20.5196 24.4041 20.333 24.2674 20.1953L14.7028 10.5208C14.6361 10.4522 14.5566 10.3975 14.469 10.36C14.3813 10.3225 14.2871 10.3029 14.192 10.3022C14.0968 10.3016 14.0024 10.32 13.9143 10.3563C13.8261 10.3926 13.7459 10.4462 13.6782 10.5139L7.54849 16.7193C7.48149 16.7877 7.42848 16.8689 7.39251 16.9581C7.35652 17.0474 7.33828 17.1428 7.3388 17.2392C7.33933 17.3355 7.35861 17.4308 7.39557 17.5196C7.43252 17.6084 7.4864 17.6889 7.55414 17.7566L17.1174 27.4379C17.2528 27.5778 17.4373 27.6576 17.6306 27.66C17.8239 27.6623 18.0103 27.587 18.149 27.4505L24.2786 21.2394H24.2799ZM23.0821 26.3881C22.9174 26.5393 22.7014 26.6207 22.479 26.6152C22.2566 26.6097 22.0449 26.5179 21.8876 26.3586C21.7302 26.1993 21.6395 25.985 21.6341 25.7599C21.6287 25.5347 21.709 25.3161 21.8584 25.1493C21.9381 25.0665 22.0333 25.0008 22.1385 24.9558C22.2437 24.9109 22.3567 24.8878 22.4708 24.8878C22.585 24.8878 22.698 24.9109 22.8032 24.9558C22.9083 25.0008 23.0036 25.0665 23.0832 25.1493C23.2453 25.3137 23.3363 25.5365 23.3363 25.7687C23.3363 26.0009 23.2453 26.2237 23.0832 26.3881H23.0821ZM22.9735 25.2592C22.9082 25.191 22.83 25.1368 22.7435 25.0998C22.6571 25.0627 22.5642 25.0437 22.4702 25.0437C22.3764 25.0437 22.2835 25.0627 22.1971 25.0998C22.1106 25.1368 22.0323 25.191 21.9669 25.2592C21.8672 25.36 21.7992 25.4885 21.7716 25.6285C21.7439 25.7685 21.7579 25.9135 21.8119 26.0454C21.8657 26.1773 21.9571 26.2901 22.0743 26.3694C22.1914 26.4487 22.3293 26.491 22.4702 26.491C22.6112 26.491 22.7491 26.4487 22.8663 26.3694C22.9834 26.2901 23.0748 26.1773 23.1287 26.0454C23.1826 25.9135 23.1966 25.7685 23.1689 25.6285C23.1413 25.4885 23.0734 25.36 22.9735 25.2592Z" fill="#0E0F0F"/>
</svg>
