<svg width="44" height="17" viewBox="0 0 44 17" xmlns="http://www.w3.org/2000/svg"><title>Group 8</title><g fill="none" fill-rule="evenodd"><rect stroke="#D0021B" fill="#D0021B" x=".5" y=".5" width="43" height="16" rx="2"/><path d="M5.067 7.605v-.852c.396-.018.673-.044.831-.08.252-.055.457-.166.615-.333a1.1 1.1 0 0 0 .246-.457c.033-.114.049-.2.049-.255h1.041V12H6.566V7.605H5.067zm5.942 1.27c0 .733.06 1.293.18 1.681.12.389.366.583.738.583s.616-.194.732-.583c.116-.388.174-.948.174-1.68 0-.768-.058-1.336-.174-1.706-.116-.369-.36-.553-.732-.553s-.618.184-.738.553c-.12.37-.18.938-.18 1.705zm.918-3.291c.812 0 1.38.286 1.708.857.326.571.49 1.383.49 2.434 0 1.052-.164 1.862-.49 2.43-.327.569-.896.853-1.708.853-.811 0-1.38-.284-1.707-.852-.327-.569-.49-1.379-.49-2.43 0-1.052.163-1.864.49-2.435.327-.571.896-.857 1.707-.857zm6.588 3.291c0 .733.06 1.293.18 1.681.12.389.366.583.738.583s.616-.194.732-.583c.116-.388.173-.948.173-1.68 0-.768-.057-1.336-.173-1.706-.116-.369-.36-.553-.732-.553s-.618.184-.738.553c-.12.37-.18.938-.18 1.705zm.918-3.291c.812 0 1.38.286 1.707.857.327.571.49 1.383.49 2.434 0 1.052-.163 1.862-.49 2.43-.326.569-.895.853-1.707.853-.811 0-1.38-.284-1.707-.852-.327-.569-.49-1.379-.49-2.43 0-1.052.163-1.864.49-2.435.327-.571.896-.857 1.707-.857zm4.087 3.291c0 .733.06 1.293.18 1.681.12.389.366.583.739.583.372 0 .615-.194.731-.583.116-.388.174-.948.174-1.68 0-.768-.058-1.336-.174-1.706-.116-.369-.36-.553-.731-.553-.373 0-.619.184-.739.553-.12.37-.18.938-.18 1.705zm.919-3.291c.811 0 1.38.286 1.707.857.326.571.49 1.383.49 2.434 0 1.052-.164 1.862-.49 2.43-.327.569-.896.853-1.707.853-.812 0-1.381-.284-1.708-.852-.326-.569-.49-1.379-.49-2.43 0-1.052.164-1.864.49-2.435.327-.571.896-.857 1.708-.857zm4.086 3.291c0 .733.06 1.293.18 1.681.12.389.367.583.739.583s.616-.194.732-.583c.115-.388.173-.948.173-1.68 0-.768-.058-1.336-.173-1.706-.116-.369-.36-.553-.732-.553s-.618.184-.738.553c-.12.37-.18.938-.18 1.705zm.919-3.291c.811 0 1.38.286 1.707.857.327.571.49 1.383.49 2.434 0 1.052-.163 1.862-.49 2.43-.326.569-.896.853-1.707.853-.812 0-1.38-.284-1.707-.852-.327-.569-.49-1.379-.49-2.43 0-1.052.163-1.864.49-2.435.326-.571.895-.857 1.707-.857zm5.238 3.05h.759V5.598h1.701c.409 0 .756.056 1.043.169.286.113.52.262.7.448.18.186.31.402.393.65a2.4 2.4 0 0 1 0 1.522 1.67 1.67 0 0 1-.394.631c-.18.183-.413.328-.7.435-.286.106-.633.16-1.042.16h-.512v.695h1.61v.942h-1.61V12h-1.19v-.75h-.758v-.942h.759v-.695h-.76v-.979zm2.341 0c.165 0 .319-.014.462-.041.143-.027.27-.078.38-.15a.726.726 0 0 0 .256-.307c.06-.131.091-.3.091-.508 0-.207-.03-.381-.091-.521a.811.811 0 0 0-.256-.334 1.007 1.007 0 0 0-.38-.174 2.024 2.024 0 0 0-.462-.05h-.393v2.085h.393z" fill="#FFF"/></g></svg>