<svg width="138" height="34" viewBox="0 0 138 34" xmlns="http://www.w3.org/2000/svg" xmlns:xlink="http://www.w3.org/1999/xlink"><title>Group 6</title><defs><rect id="a" width="138" height="34" rx="6"/></defs><g fill="none" fill-rule="evenodd"><use fill="#D0021B" xlink:href="#a"/><path d="M17.488 20.984a5.478 5.478 0 0 1-1.698-.333 4.048 4.048 0 0 1-1.292-.771 3.34 3.34 0 0 1-.822-1.133 3.441 3.441 0 0 1-.289-1.413c0-.237.026-.49.076-.758a3.45 3.45 0 0 1 .75-1.568c.203-.243.456-.461.761-.654.305-.192.663-.349 1.076-.47.413-.12.892-.189 1.438-.206v-1.01h1.866v1.01a5.828 5.828 0 0 1 1.44.207c.416.12.774.277 1.077.47.302.192.555.41.758.653a3.435 3.435 0 0 1 .75 1.568c.05.269.076.521.076.758 0 .508-.097.98-.29 1.413a3.34 3.34 0 0 1-.821 1.133 4.048 4.048 0 0 1-1.292.771 5.478 5.478 0 0 1-1.698.333V22h-1.866v-1.016zm0-5.954c-.445.013-.812.091-1.102.235-.29.144-.518.324-.685.54a1.925 1.925 0 0 0-.35.71 2.86 2.86 0 0 0-.091.756c0 .427.069.79.206 1.089.138.298.313.541.527.73.214.188.453.325.717.412.265.087.524.13.778.13V15.03zm1.866 4.59c.254 0 .513-.044.778-.13a2.035 2.035 0 0 0 1.244-1.146c.137-.3.206-.665.206-1.092a3 3 0 0 0-.098-.746 1.873 1.873 0 0 0-.353-.704 2 2 0 0 0-.682-.537c-.286-.144-.65-.222-1.095-.235v4.59zm5.294-4.539h1.714v.99h.025c.123-.207.252-.386.387-.536.136-.15.286-.274.451-.371a1.93 1.93 0 0 1 .55-.216c.2-.047.428-.07.682-.07.211 0 .43.025.653.076a2.687 2.687 0 0 1 1.765 1.346c.144.262.258.568.343.917a5.1 5.1 0 0 1 .127 1.197c0 .558-.06 1.07-.181 1.536-.12.465-.303.865-.546 1.2-.243.334-.55.594-.92.78-.37.186-.806.28-1.305.28-.173 0-.35-.017-.527-.051a2.145 2.145 0 0 1-.52-.172 1.947 1.947 0 0 1-.876-.844h-.026v3.536h-1.796V15.08zm3.275 1.41c-.287 0-.53.06-.726.183a1.462 1.462 0 0 0-.477.476c-.12.195-.208.415-.263.66a3.33 3.33 0 0 0-.082.73c0 .132.007.275.022.429.015.154.043.311.085.47.043.158.1.312.175.46.074.148.168.28.282.393a1.32 1.32 0 0 0 .984.381c.22 0 .41-.035.572-.104.16-.07.298-.162.412-.277.114-.114.209-.245.283-.393.074-.148.132-.302.174-.46.043-.159.071-.316.086-.47a4.51 4.51 0 0 0 .022-.428 3.33 3.33 0 0 0-.082-.73 2.126 2.126 0 0 0-.264-.66 1.452 1.452 0 0 0-.479-.477 1.352 1.352 0 0 0-.724-.184zm4.717-1.41h1.796v4.266h.025l2.52-4.266h1.886V22h-1.79v-4.17h-.032L34.6 22H32.64v-6.919zm13.984-2.52c.004.356-.058.646-.185.873a1.546 1.546 0 0 1-.504.546c-.21.137-.45.237-.724.298a5.753 5.753 0 0 1-.84.124 7.442 7.442 0 0 0-.617.08 3.55 3.55 0 0 0-.622.164 2.743 2.743 0 0 0-.577.292 2.17 2.17 0 0 0-.845 1.083c-.093.245-.15.533-.17.863.067-.22.175-.429.323-.625.148-.197.333-.369.555-.515.222-.146.48-.262.771-.349.292-.086.616-.13.972-.13.474 0 .901.08 1.282.238.38.159.704.382.971.67.267.288.47.635.613 1.04.141.407.212.858.212 1.353 0 .55-.081 1.05-.244 1.498a3.28 3.28 0 0 1-.698 1.152c-.303.32-.672.567-1.108.743a3.91 3.91 0 0 1-1.473.263c-.795 0-1.453-.163-1.974-.489-.52-.325-.92-.857-1.2-1.593a4.645 4.645 0 0 1-.215-.793 9.351 9.351 0 0 1-.153-1.429 19.642 19.642 0 0 1-.006-.361c0-.66.076-1.265.228-1.813a3.866 3.866 0 0 1 .727-1.431c.332-.406.76-.734 1.283-.984.522-.25 1.156-.408 1.9-.476.238-.021.406-.06.505-.117.1-.058.162-.116.188-.175h1.625zm-4.57 5.98c0 .262.028.521.085.777.057.256.151.485.282.686.132.2.303.363.515.485.211.123.471.184.78.184.326 0 .596-.06.81-.18.213-.121.384-.28.51-.477.128-.196.216-.423.267-.679.051-.256.076-.521.076-.796 0-.271-.03-.525-.088-.762a1.782 1.782 0 0 0-.28-.62 1.31 1.31 0 0 0-.495-.412c-.203-.1-.448-.149-.736-.149-.31 0-.573.052-.79.156a1.476 1.476 0 0 0-.537.422c-.14.178-.241.384-.305.619a2.847 2.847 0 0 0-.095.746zm7.756.558c0 .064.006.148.02.254a1.946 1.946 0 0 0 .24.714c.072.125.169.238.29.34.12.101.268.184.443.247.176.064.387.096.632.096a1.358 1.358 0 0 0 .724-.213c.105-.07.198-.155.276-.254a.93.93 0 0 0 .168-.34h1.86c0 .127-.028.272-.083.435a2.099 2.099 0 0 1-.25.495 2.954 2.954 0 0 1-.422.492c-.17.161-.37.304-.604.429a3.55 3.55 0 0 1-.79.301 3.912 3.912 0 0 1-.98.114c-.462 0-.894-.068-1.299-.206a2.754 2.754 0 0 1-1.06-.654c-.302-.298-.54-.684-.714-1.158-.173-.474-.26-1.05-.26-1.727 0-.47.062-.921.187-1.355.125-.434.32-.816.584-1.146a2.85 2.85 0 0 1 1.016-.79c.412-.197.909-.295 1.488-.295.614 0 1.13.1 1.55.301.418.201.756.486 1.012.854s.439.813.549 1.333c.11.52.165 1.098.165 1.733H49.81zm2.876-1.193c0-.305-.046-.559-.137-.762a1.388 1.388 0 0 0-.343-.486 1.197 1.197 0 0 0-.454-.253 1.682 1.682 0 0 0-.476-.073c-.148 0-.304.024-.47.073a1.197 1.197 0 0 0-.453.253c-.138.121-.252.283-.343.486-.091.203-.136.457-.136.762h2.812zm4.564-1.365h-2.095v-1.46h5.98v1.46H59.04V22h-1.79v-5.459zm12.408-1.865v-1.421c.66-.03 1.12-.073 1.384-.132.42-.093.762-.278 1.026-.557.18-.19.317-.444.41-.761.054-.19.08-.332.08-.425h1.736V22h-2.138v-7.324h-2.498zm9.903 2.116c0 1.221.1 2.155.3 2.802.2.647.61.97 1.23.97s1.027-.323 1.22-.97c.193-.647.29-1.58.29-2.802 0-1.279-.097-2.226-.29-2.841-.193-.616-.6-.923-1.22-.923s-1.03.307-1.23.923c-.2.615-.3 1.562-.3 2.841zm1.53-5.485c1.353 0 2.301.476 2.846 1.428.544.952.816 2.305.816 4.057 0 1.753-.272 3.104-.816 4.05-.545.948-1.493 1.422-2.846 1.422-1.352 0-2.3-.474-2.845-1.421-.545-.947-.817-2.298-.817-4.05 0-1.753.272-3.106.817-4.058.544-.952 1.493-1.428 2.845-1.428zm10.98 5.485c0 1.221.1 2.155.3 2.802.2.647.61.97 1.23.97s1.027-.323 1.22-.97c.192-.647.289-1.58.289-2.802 0-1.279-.097-2.226-.29-2.841-.192-.616-.599-.923-1.219-.923-.62 0-1.03.307-1.23.923-.2.615-.3 1.562-.3 2.841zm1.53-5.485c1.353 0 2.301.476 2.846 1.428.544.952.816 2.305.816 4.057 0 1.753-.272 3.104-.816 4.05-.545.948-1.493 1.422-2.846 1.422-1.352 0-2.3-.474-2.845-1.421-.545-.947-.817-2.298-.817-4.05 0-1.753.272-3.106.817-4.058.544-.952 1.493-1.428 2.845-1.428zm6.812 5.485c0 1.221.1 2.155.3 2.802.2.647.61.97 1.23.97s1.027-.323 1.22-.97c.193-.647.29-1.58.29-2.802 0-1.279-.097-2.226-.29-2.841-.193-.616-.6-.923-1.22-.923s-1.03.307-1.23.923c-.2.615-.3 1.562-.3 2.841zm1.53-5.485c1.353 0 2.301.476 2.846 1.428.544.952.816 2.305.816 4.057 0 1.753-.272 3.104-.816 4.05-.545.948-1.493 1.422-2.846 1.422-1.352 0-2.3-.474-2.845-1.421-.545-.947-.817-2.298-.817-4.05 0-1.753.272-3.106.817-4.058.544-.952 1.493-1.428 2.845-1.428zm6.812 5.485c0 1.221.1 2.155.3 2.802.2.647.61.97 1.23.97s1.027-.323 1.22-.97c.193-.647.29-1.58.29-2.802 0-1.279-.097-2.226-.29-2.841-.193-.616-.6-.923-1.22-.923s-1.03.307-1.23.923c-.2.615-.3 1.562-.3 2.841zm1.53-5.485c1.353 0 2.302.476 2.846 1.428.545.952.817 2.305.817 4.057 0 1.753-.272 3.104-.817 4.05-.544.948-1.493 1.422-2.845 1.422-1.353 0-2.301-.474-2.846-1.421-.544-.947-.816-2.298-.816-4.05 0-1.753.272-3.106.816-4.058.545-.952 1.493-1.428 2.846-1.428zm8.128 5.831h1.096v-4.386h2.458c.59 0 1.092.082 1.506.244.414.163.75.38 1.01.648s.45.581.568.938c.12.357.179.724.179 1.103 0 .387-.06.753-.179 1.097a2.411 2.411 0 0 1-.568.911c-.26.264-.596.473-1.01.628-.414.154-.916.23-1.506.23h-.74v1.005h2.325v1.36h-2.325V22h-1.718v-1.083h-1.096v-1.361h1.096v-1.004h-1.096v-1.414zm3.382 0c.238 0 .46-.02.667-.06.207-.039.39-.112.548-.217a1.05 1.05 0 0 0 .37-.443c.088-.19.132-.434.132-.733 0-.3-.044-.55-.132-.753a1.172 1.172 0 0 0-.37-.482 1.454 1.454 0 0 0-.548-.251 2.923 2.923 0 0 0-.667-.073h-.568v3.012h.568z" fill="#FFF"/></g></svg>