<svg width="200" height="34" viewBox="0 0 200 34" xmlns="http://www.w3.org/2000/svg" xmlns:xlink="http://www.w3.org/1999/xlink"><title>Group</title><defs><rect id="a" width="200" height="34" rx="6"/><path id="c" d="M.087.08h8.796V9.1H.087z"/><path id="e" d="M0 .044h10.825v.994H0z"/></defs><g fill="none" fill-rule="evenodd"><g><mask id="b" fill="#fff"><use xlink:href="#a"/></mask><use fill="#DAAD40" xlink:href="#a"/><path fill="#1D1E1F" mask="url(#b)" d="M-16-5h55v44h-55z"/></g><path d="M53.627 17.125l-3.524-5.61h2.867l2.063 3.712 2.11-3.711h2.773l-3.524 5.515L60.15 23h-2.937l-2.18-3.922L52.713 23H49.9l3.727-5.875zm10.864-5.61h2.742L71.295 23h-2.61l-.733-2.367h-4.243L62.913 23H60.38l4.11-11.484zm-.141 7.133h2.93l-1.43-4.546h-.031l-1.469 4.546zm8.278-7.132h8.36v1.976h-5.961v2.547h2.851c.172 0 .393.005.664.016.271.01.559.048.863.113.305.065.612.168.922.309.31.14.59.34.84.597.25.258.453.586.61.985.156.398.234.889.234 1.472 0 .578-.078 1.065-.234 1.461a3.047 3.047 0 0 1-.598.98 2.625 2.625 0 0 1-.809.594 4.463 4.463 0 0 1-1.629.418c-.231.01-.402.016-.511.016h-5.602V11.516zm2.399 9.5h2.593c.22 0 .444-.016.676-.047.232-.032.445-.1.64-.203.196-.105.356-.26.481-.465.125-.206.188-.48.188-.824 0-.36-.062-.642-.184-.848a1.21 1.21 0 0 0-.48-.465 1.832 1.832 0 0 0-.668-.195 7.122 7.122 0 0 0-.746-.04h-2.5v3.087zm8.582-9.5h2.305v7.82h.031l4.547-7.82h2.43V23h-2.305v-7.773h-.031L86.046 23H83.61V11.516zm11.45 0h8.36v1.976h-5.961v2.547h2.851c.172 0 .394.005.664.016.271.01.559.048.864.113.304.065.612.168.922.309.31.14.59.34.84.597.25.258.453.586.609.985.156.398.234.889.234 1.472 0 .578-.078 1.065-.234 1.461a3.047 3.047 0 0 1-.598.98 2.625 2.625 0 0 1-.808.594 4.463 4.463 0 0 1-1.63.418c-.231.01-.402.016-.511.016h-5.602V11.516zm2.399 9.5h2.594c.218 0 .444-.016.675-.047.232-.032.446-.1.641-.203.195-.105.355-.26.48-.465.125-.206.188-.48.188-.824 0-.36-.061-.642-.184-.848a1.21 1.21 0 0 0-.48-.465 1.832 1.832 0 0 0-.668-.195 7.122 7.122 0 0 0-.746-.04h-2.5v3.087zm33.454-9.5h9.313V23h-2.398v-9.508h-4.508V23h-2.406V11.516zm10.841 5.742c0-.86.115-1.656.344-2.39a5.387 5.387 0 0 1 1.031-1.911 4.762 4.762 0 0 1 1.727-1.27c.692-.307 1.5-.46 2.422-.46.849 0 1.614.153 2.296.46.683.308 1.262.731 1.739 1.27.476.54.842 1.176 1.097 1.91.256.735.383 1.531.383 2.39 0 .855-.127 1.65-.383 2.388a5.639 5.639 0 0 1-1.097 1.914 5.064 5.064 0 0 1-1.739 1.27c-.682.306-1.447.46-2.296.46-.922 0-1.73-.154-2.422-.46a4.762 4.762 0 0 1-1.727-1.27 5.383 5.383 0 0 1-1.031-1.914 7.999 7.999 0 0 1-.344-2.387zm5.524 3.953c.49 0 .927-.099 1.312-.297a2.87 2.87 0 0 0 .98-.824c.269-.352.473-.768.614-1.25.14-.482.21-1.01.21-1.582 0-.573-.07-1.1-.21-1.582a3.787 3.787 0 0 0-.613-1.25 2.87 2.87 0 0 0-.98-.824 2.832 2.832 0 0 0-1.313-.297c-.49 0-.928.099-1.313.297a2.87 2.87 0 0 0-.98.824 3.844 3.844 0 0 0-.618 1.25 5.533 5.533 0 0 0-.214 1.582c0 .573.071 1.1.214 1.582.144.482.35.898.618 1.25.268.351.595.626.98.824.385.198.823.297 1.313.297zm7.23-9.695h5.22c.609 0 1.139.083 1.59.25.45.166.824.408 1.12.726.297.318.519.703.665 1.156.145.454.218.97.218 1.547a4.12 4.12 0 0 1-.257 1.48c-.172.451-.421.84-.747 1.165-.325.325-.722.58-1.191.762-.469.182-1 .273-1.594.273h-2.625V23h-2.398V11.516zm2.4 5.375h2.273c.541 0 .967-.133 1.277-.399.31-.265.465-.698.465-1.297 0-.302-.04-.56-.121-.773a1.365 1.365 0 0 0-.344-.527 1.369 1.369 0 0 0-.547-.305 2.53 2.53 0 0 0-.73-.098h-2.274v3.399zm10.371 4.125h2.031c.22 0 .444-.016.676-.047.232-.032.445-.1.64-.203.196-.105.356-.26.481-.465.125-.206.188-.48.188-.824 0-.36-.061-.642-.184-.848a1.21 1.21 0 0 0-.48-.465 1.832 1.832 0 0 0-.668-.195 7.122 7.122 0 0 0-.746-.04h-1.938v3.087zm-2.398-9.5h2.398v4.523h2.29c.171 0 .391.005.66.016.268.01.555.048.863.113.307.065.614.168.921.309.308.14.586.34.836.597.25.258.454.586.61.985.156.398.234.889.234 1.472 0 .578-.078 1.065-.234 1.461a3.047 3.047 0 0 1-.598.98c-.242.258-.51.456-.805.594a4.371 4.371 0 0 1-1.625.418c-.231.01-.402.016-.511.016h-5.04V11.516zm10.372 0h8.43v1.976h-6.126v2.547h5.633v1.984h-5.633v2.899h6.399V23h-8.703V11.516z" fill="#1D1E1F"/><path d="M115.834 11.803h1.562L113.412 19h-1.42l-.904-7.197h1.606l.4 5.464 2.74-5.464zm2.485 4.975c-.022.33.015.575.113.738.182.296.57.444 1.162.444.355 0 .65-.04.888-.117.453-.15.721-.428.806-.835.052-.238-.013-.422-.195-.552-.18-.127-.482-.24-.908-.337l-.728-.17c-.713-.17-1.191-.354-1.436-.553-.413-.332-.545-.85-.395-1.557.137-.645.485-1.18 1.045-1.607.56-.426 1.294-.64 2.202-.64.759 0 1.362.202 1.812.604.449.402.605.985.468 1.75h-1.445c.068-.433-.054-.74-.366-.923-.209-.12-.487-.18-.835-.18-.388 0-.714.078-.98.234a.968.968 0 0 0-.485.654c-.055.258.018.45.22.577.127.084.418.184.874.297l1.177.298c.514.13.887.305 1.118.523.358.338.468.828.332 1.47-.14.657-.508 1.203-1.104 1.638-.596.434-1.352.652-2.27.652-.938 0-1.63-.214-2.076-.643-.445-.428-.589-1.016-.43-1.765h1.436z" fill="#FFF"/><path d="M111.5 21.5h10.97" stroke="#1D1E1F" stroke-linecap="round"/><path d="M10.747 18.126c-.653 0-1.306.002-1.96-.001-.328-.002-.65-.044-.952-.19-.657-.315-.875-.743-.683-1.447.631-2.314 1.28-4.624 1.91-6.938.084-.307.22-.438.558-.424.69.028 1.384.033 2.074 0 .459-.02.558.096.427.55-.555 1.918-1.077 3.845-1.607 5.769-.158.573-.078.678.51.702.86.035.904-.004 1.138-.852.515-1.869 1.048-3.733 1.545-5.607.114-.429.299-.594.75-.567.67.04 1.345.017 2.017.007.304-.004.47.034.36.42-.69 2.437-1.36 4.881-2.04 7.322-.197.709-.68 1.088-1.4 1.186-.88.119-1.764.056-2.647.07" fill="#DAAD40"/><g transform="translate(24.115 9.034)"><mask id="d" fill="#fff"><use xlink:href="#c"/></mask><path d="M3.919 9.088c-.75 0-1.5.022-2.248-.004C.32 9.036-.157 8.37.2 7.095c.51-1.811 1.012-3.624 1.515-5.437C2.01.6 2.352.26 3.42.164 5.144.007 6.876.126 8.604.098c.216-.004.346.05.243.3a.306.306 0 0 0-.016.055c-.337 1.64-.337 1.64-1.98 1.647-.595.002-1.191.01-1.786-.001-.388-.008-.594.156-.695.535-.342 1.279-.701 2.554-1.066 3.827-.13.451.011.655.486.651.98-.008 1.96.01 2.94-.009.396-.007.483.087.373.494C6.7 9.095 6.716 9.1 5.187 9.1H3.919v-.01z" fill="#DAAD40" mask="url(#d)"/></g><path d="M20.752 12.477c.96 0 1.921.007 2.881-.004.332-.004.433.079.353.435-.351 1.558-.34 1.56-1.932 1.56-.538 0-1.077.019-1.614-.006-.357-.016-.514.134-.599.465-.233.91-.505 1.811-.732 2.723-.089.358-.241.507-.629.49-.709-.031-1.421-.02-2.132-.003-.34.007-.44-.082-.338-.434.462-1.604.91-3.213 1.343-4.825.089-.332.263-.408.575-.403.941.016 1.883.006 2.824.006v-.004zM21.158 11.133c-.921 0-1.843-.01-2.764.005-.394.006-.547-.062-.42-.52.41-1.482.39-1.487 1.927-1.487 1.516 0 3.033.01 4.549-.005.411-.004.588.041.443.537-.429 1.46-.407 1.467-1.95 1.467h-1.785v.003z" fill="#DAAD40"/><g transform="translate(6 19.88)"><mask id="f" fill="#fff"><use xlink:href="#e"/></mask><path d="M5.316 1.02c-1.614 0-3.23.006-4.844-.007C.304 1.012-.01 1.038 0 .82.016.527-.026.071.494.046.571.042.648.045.725.045c3.172 0 6.343-.004 9.515.011.202.001.64.01.579.269-.03.366-.06.732-.66.713C8.546.986 6.931 1.02 5.316 1.02" fill="#DAAD40" mask="url(#f)"/></g><path d="M19.473 23.826c.228-.398.666-.82 1.314-1.264.564-.387.934-.664 1.11-.832.27-.26.436-.546.495-.856.05-.253.028-.463-.067-.63-.094-.168-.26-.252-.495-.252a.82.82 0 0 0-.737.4c-.097.154-.183.398-.257.733h-1.032c.115-.508.276-.918.484-1.231.398-.596.957-.894 1.68-.894.57 0 .992.175 1.262.525.27.35.35.813.238 1.39a2.444 2.444 0 0 1-.58 1.178c-.202.228-.508.481-.92.761l-.488.334c-.305.209-.516.36-.633.453a1.66 1.66 0 0 0-.31.325h2.358L22.698 25H19c.092-.428.25-.82.473-1.174zm7.764-.11h-.61L26.38 25h-1.039l.246-1.285H23.45l.197-1.025 2.681-3.624h1.192l-.719 3.73h.61l-.174.92zm-1.475-.92l.495-2.577-1.846 2.578h1.351zm2.194 1.03c.228-.398.666-.82 1.314-1.264.563-.387.933-.664 1.11-.832.27-.26.435-.546.495-.856.05-.253.027-.463-.067-.63-.094-.168-.26-.252-.495-.252a.82.82 0 0 0-.738.4c-.097.154-.182.398-.257.733h-1.031c.114-.508.275-.918.484-1.231.397-.596.957-.894 1.68-.894.57 0 .991.175 1.262.525.27.35.35.813.238 1.39a2.444 2.444 0 0 1-.58 1.178c-.202.228-.509.481-.92.761l-.488.334c-.306.209-.517.36-.633.453a1.66 1.66 0 0 0-.31.325h2.358L31.18 25h-3.697c.091-.428.25-.82.473-1.174z" fill="#DAAD40"/></g></svg>