<svg xmlns="http://www.w3.org/2000/svg" viewBox="0 0 56.89 17.65"><defs><mask id="a" x="47.23" y="1.8" width="7.17" height="7.52" maskUnits="userSpaceOnUse"><path fill="#fff" d="M47.23 1.8h7.16v7.51h-7.16V1.8z"/></mask><mask id="b" x="32.39" y="10.8" width="8.82" height=".83" maskUnits="userSpaceOnUse"><path fill="#fff" d="M32.4 10.8h8.82v.83H32.4v-.83z"/></mask></defs><title>Монтажная область 1</title><rect x="29.89" width="27" height="16" rx="2.8" ry="2.8" fill="#1d1e1f"/><path d="M36.26 9.3h-1.59a1.75 1.75 0 0 1-.78-.15.92.92 0 0 1-.56-1.21c.52-1.93 1.05-3.85 1.56-5.78.07-.26.18-.37.45-.36h1.69c.38 0 .46.08.35.45-.45 1.6-.88 3.21-1.31 4.81-.13.48-.06.57.42.59.7 0 .73 0 .93-.71.41-1.56.85-3.12 1.25-4.68.1-.35.25-.49.62-.47h1.64c.25 0 .38 0 .29.35q-.84 3-1.66 6.1a1.28 1.28 0 0 1-1.14 1 17.31 17.31 0 0 1-2.16.05" fill="#daad40"/><path d="M50.35 9.3h-1.83c-1.1 0-1.49-.6-1.2-1.66.42-1.51.82-3 1.23-4.53.24-.88.52-1.16 1.39-1.24 1.41-.14 2.82 0 4.23-.06.17 0 .28 0 .19.25-.27 1.36-.27 1.36-1.61 1.37h-1.46a.5.5 0 0 0-.56.44c-.28 1.07-.58 2.13-.87 3.19-.11.38 0 .55.39.55h2.4c.32 0 .39.07.3.41-.33 1.25-.31 1.25-1.56 1.25h-1z" fill="#daad40" mask="url(#a)"/><path d="M44.41 4.6h2.35c.27 0 .36.07.29.37-.29 1.3-.28 1.3-1.57 1.3h-1.32a.43.43 0 0 0-.49.39c-.19.76-.41 1.51-.59 2.27-.08.3-.2.42-.52.41h-1.73c-.28 0-.36-.06-.28-.36.38-1.33.74-2.67 1.09-4a.39.39 0 0 1 .47-.33h2.3zM44.75 3.48h-2.26c-.32 0-.44 0-.34-.43.33-1.24.32-1.24 1.57-1.24h3.71c.33 0 .48 0 .36.45-.35 1.22-.33 1.23-1.59 1.23z" fill="#daad40"/><path d="M36.73 11.62h-3.95c-.14 0-.39 0-.39-.16s0-.62.41-.64h7.94c.16 0 .52 0 .47.23s-.05.61-.54.59h-3.94" fill="#daad40" mask="url(#b)"/><path d="M42.72 13.6a2.72 2.72 0 0 1 .91-.76 7 7 0 0 0 .77-.5.93.93 0 0 0 .34-.52.46.46 0 0 0 0-.37.39.39 0 0 0-.35-.15.6.6 0 0 0-.51.24 1.41 1.41 0 0 0-.17.43H43a1.91 1.91 0 0 1 .34-.73 1.37 1.37 0 0 1 1.16-.54 1.1 1.1 0 0 1 .87.32.87.87 0 0 1 .17.83 1.45 1.45 0 0 1-.4.71 4.2 4.2 0 0 1-.64.45l-.34.2-.44.27a1.34 1.34 0 0 0-.21.2h1.63l-.14.62h-2.61a2.15 2.15 0 0 1 .33-.7zm5.38-.07h-.43l-.17.77h-.72l.17-.77h-1.47l.13-.62 1.86-2.17h.82L47.8 13h.42zm-1-.55l.34-1.55-1.3 1.57zm1.51.62a2.83 2.83 0 0 1 .91-.76 7 7 0 0 0 .77-.5 1 1 0 0 0 .35-.52.5.5 0 0 0 0-.37.38.38 0 0 0-.34-.15.58.58 0 0 0-.51.24 1.17 1.17 0 0 0-.18.43h-.72a1.91 1.91 0 0 1 .34-.73 1.37 1.37 0 0 1 1.16-.54 1.13 1.13 0 0 1 .88.32.89.89 0 0 1 .16.83 1.45 1.45 0 0 1-.4.71 3.75 3.75 0 0 1-.64.45l-.34.2-.43.27a1.07 1.07 0 0 0-.22.2H51l-.13.62h-2.6a1.94 1.94 0 0 1 .32-.7z" fill="#daad40"/><path d="M1.86 3.06L.1.26h1.44l1 1.85L3.62.26H5L3.25 3l1.88 3H3.66L2.57 4 1.41 6H0zm7.34 2.1a2.41 2.41 0 0 0 0 .31.68.68 0 0 0 .06.2.31.31 0 0 0 .08.11h.09V6h-1.2l-.07-.2a1.26 1.26 0 0 1 0-.3l-.26.25a1.35 1.35 0 0 1-.3.25 1.59 1.59 0 0 1-.35.13 2.28 2.28 0 0 1-.48 0A1.51 1.51 0 0 1 6.24 6a1.1 1.1 0 0 1-.42-.24 1.33 1.33 0 0 1-.27-.41 1.7 1.7 0 0 1-.1-.57 1.3 1.3 0 0 1 .09-.49 1.09 1.09 0 0 1 .23-.39 1.28 1.28 0 0 1 .36-.29 1.87 1.87 0 0 1 .49-.15l1.08-.12h.26a.28.28 0 0 0 .09-.1.32.32 0 0 0 0-.18.58.58 0 0 0 0-.19.33.33 0 0 0-.05-.22.41.41 0 0 0-.21-.1 1.06 1.06 0 0 0-.33 0 1.13 1.13 0 0 0-.35.05.66.66 0 0 0-.22.12.52.52 0 0 0-.11.19 1.55 1.55 0 0 0-.05.23H5.57a1.12 1.12 0 0 1 0-.22 2.43 2.43 0 0 1 .09-.3 1.86 1.86 0 0 1 .19-.33 1.23 1.23 0 0 1 .33-.31 1.86 1.86 0 0 1 .49-.23 2.31 2.31 0 0 1 .69-.09 3.25 3.25 0 0 1 .92.11 1.64 1.64 0 0 1 .56.3.9.9 0 0 1 .26.42 1.41 1.41 0 0 1 .07.45zM8.09 3.92l-.2.1a1.25 1.25 0 0 1-.27.08l-.29.05-.33.08a1.36 1.36 0 0 0-.24.13.49.49 0 0 0-.14.18.61.61 0 0 0-.05.28.5.5 0 0 0 .16.4.51.51 0 0 0 .18.09.78.78 0 0 0 .22 0h.36a.91.91 0 0 0 .22-.11.68.68 0 0 0 .19-.2.86.86 0 0 0 .1-.28 1 1 0 0 0 .05-.37zM13.93.19a1.08 1.08 0 0 1-.12.54.9.9 0 0 1-.31.33 1.34 1.34 0 0 1-.44.19 3 3 0 0 1-.52.07l-.38.05-.38.1a2 2 0 0 0-.36.18 1.58 1.58 0 0 0-.3.28 1.47 1.47 0 0 0-.22.39 2 2 0 0 0-.1.53 1.07 1.07 0 0 1 .2-.38 1.3 1.3 0 0 1 .34-.32 1.56 1.56 0 0 1 .47-.21 1.9 1.9 0 0 1 .6-.08 2 2 0 0 1 .79.14 1.94 1.94 0 0 1 .6.41 1.77 1.77 0 0 1 .37.64 2.47 2.47 0 0 1 .13.84 2.69 2.69 0 0 1-.15.92 2 2 0 0 1-.43.71A1.8 1.8 0 0 1 13 6a2.37 2.37 0 0 1-.9.17 2.27 2.27 0 0 1-1.22-.3 2 2 0 0 1-.74-1 3.92 3.92 0 0 1-.13-.49C10 4.2 10 4 10 3.88v-.39-.22a4.35 4.35 0 0 1 .14-1.12 2.53 2.53 0 0 1 .45-.88 2.42 2.42 0 0 1 .79-.61A3.46 3.46 0 0 1 12.5.37a.83.83 0 0 0 .31-.07.33.33 0 0 0 .12-.11zm-2.82 3.68a2 2 0 0 0 .06.48 1.13 1.13 0 0 0 .17.42.92.92 0 0 0 .32.3.9.9 0 0 0 .48.11.91.91 0 0 0 .49-.11.82.82 0 0 0 .37-.29 1.11 1.11 0 0 0 .16-.42 2.63 2.63 0 0 0 .05-.49 2.34 2.34 0 0 0-.05-.47 1.21 1.21 0 0 0-.23-.4.73.73 0 0 0-.3-.25 1.06 1.06 0 0 0-.45-.09 1.19 1.19 0 0 0-.49.09 1.06 1.06 0 0 0-.33.26 1 1 0 0 0-.19.38 1.76 1.76 0 0 0-.06.48zm4-2.13h1.09v2.63l1.56-2.63h1.16V6h-1.1V3.43L16.3 6h-1.21zM23.7.19a1.2 1.2 0 0 1-.11.54 1 1 0 0 1-.31.33 1.3 1.3 0 0 1-.45.19 3 3 0 0 1-.52.07l-.38.05-.38.1a2.31 2.31 0 0 0-.35.18 1.38 1.38 0 0 0-.31.28 1.45 1.45 0 0 0-.21.39 1.66 1.66 0 0 0-.11.53 1.27 1.27 0 0 1 .2-.38 1.3 1.3 0 0 1 .34-.32 1.75 1.75 0 0 1 .48-.21 1.83 1.83 0 0 1 .59-.08A2 2 0 0 1 23 2a1.73 1.73 0 0 1 .6.41 1.94 1.94 0 0 1 .38.64 2.74 2.74 0 0 1 .13.84 2.69 2.69 0 0 1-.15.92 2.21 2.21 0 0 1-.43.71 2 2 0 0 1-.68.45 2.38 2.38 0 0 1-.91.17 2.24 2.24 0 0 1-1.21-.3 1.85 1.85 0 0 1-.74-1 3.94 3.94 0 0 1-.14-.49 4.66 4.66 0 0 1-.06-.49 3 3 0 0 1 0-.39v-.2a4 4 0 0 1 .14-1.12 2.35 2.35 0 0 1 .44-.88 2.42 2.42 0 0 1 .73-.61 3.59 3.59 0 0 1 1.17-.29.83.83 0 0 0 .31-.07.26.26 0 0 0 .12-.11zm-2.81 3.68a2 2 0 0 0 .05.48 1.13 1.13 0 0 0 .17.42.92.92 0 0 0 .32.3.9.9 0 0 0 .48.11 1 1 0 0 0 .5-.11.86.86 0 0 0 .31-.29 1.13 1.13 0 0 0 .17-.42 2.63 2.63 0 0 0 0-.49 1.78 1.78 0 0 0-.05-.47 1.19 1.19 0 0 0-.13-.4.76.76 0 0 0-.31-.25 1 1 0 0 0-.4-.07 1.22 1.22 0 0 0-.49.09 1.06 1.06 0 0 0-.33.26 1 1 0 0 0-.18.38 1.76 1.76 0 0 0-.11.46zM.45 10.26h4.66V16h-1.2v-4.75H1.66V16H.45zM6 13.87a2.67 2.67 0 0 1 .1-.87 2 2 0 0 1 .43-.71 2 2 0 0 1 .68-.46 2.24 2.24 0 0 1 .91-.17 2.25 2.25 0 0 1 .92.17 1.9 1.9 0 0 1 .68.46 2 2 0 0 1 .43.71 2.84 2.84 0 0 1 0 1.82 2 2 0 0 1-.43.71A1.93 1.93 0 0 1 9 16a2.55 2.55 0 0 1-1.83 0 2 2 0 0 1-.68-.47 2 2 0 0 1-.43-.71 2.67 2.67 0 0 1-.06-.95zm1.15 0a2.61 2.61 0 0 0 .05.48 1.32 1.32 0 0 0 .17.42.92.92 0 0 0 .32.3.9.9 0 0 0 .48.11 1 1 0 0 0 .5-.11.86.86 0 0 0 .31-.29 1.32 1.32 0 0 0 .17-.42 3 3 0 0 0 0-1 1.32 1.32 0 0 0-.22-.36.86.86 0 0 0-.31-.29 1.09 1.09 0 0 0-.5-.11 1 1 0 0 0-.48.11 1 1 0 0 0-.32.3 1.42 1.42 0 0 0-.17.42 2.61 2.61 0 0 0-.05.44zm4-2.13h1.06v.61a2.36 2.36 0 0 1 .24-.33 1.23 1.23 0 0 1 .28-.23 1.15 1.15 0 0 1 .34-.13 1.76 1.76 0 0 1 .42 0 1.87 1.87 0 0 1 .4 0 2.74 2.74 0 0 1 .4.15 1.89 1.89 0 0 1 .38.27 1.61 1.61 0 0 1 .3.41 2.51 2.51 0 0 1 .22.57 3.23 3.23 0 0 1 .07.73 3.54 3.54 0 0 1-.11 1 2.17 2.17 0 0 1-.33.74 1.66 1.66 0 0 1-.57.48 1.93 1.93 0 0 1-1.25.09 1.35 1.35 0 0 1-.32-.11 1.08 1.08 0 0 1-.29-.2 1.19 1.19 0 0 1-.25-.32v2.18h-1.08zm2 .87a.88.88 0 0 0-.45.11.92.92 0 0 0-.29.3 1.09 1.09 0 0 0-.16.4 1.73 1.73 0 0 0 0 .45 2.35 2.35 0 0 0 0 .26 2.5 2.5 0 0 0 0 .29 1.45 1.45 0 0 0 .11.29.81.81 0 0 0 .17.24.78.78 0 0 0 .26.17.91.91 0 0 0 .35.06 1 1 0 0 0 .35-.06.74.74 0 0 0 .25-.17 1.08 1.08 0 0 0 .18-.24 1.42 1.42 0 0 0 .1-.29 1.36 1.36 0 0 0 .06-.29 2.35 2.35 0 0 0 0-.26 2.3 2.3 0 0 0 0-.45 1.29 1.29 0 0 0-.16-.4 1 1 0 0 0-.3-.3.87.87 0 0 0-.54-.11zm2.85-.87h1.11v1.48h1.13a2.93 2.93 0 0 1 .7.08 1.46 1.46 0 0 1 .53.26 1.18 1.18 0 0 1 .33.43 1.73 1.73 0 0 1 .11.63 1.51 1.51 0 0 1-.09.55 1.38 1.38 0 0 1-.25.39 1.08 1.08 0 0 1-.32.24 1.89 1.89 0 0 1-.35.13l-.32.06H16zm1.11 3.43h1.15a.92.92 0 0 0 .23-.09.41.41 0 0 0 .16-.16.51.51 0 0 0 .07-.28.49.49 0 0 0-.07-.28.46.46 0 0 0-.17-.17 1 1 0 0 0-.26-.09 1.55 1.55 0 0 0-.31 0h-.84zm4.32-1a1 1 0 0 0 0 .16.8.8 0 0 0 .05.21.77.77 0 0 0 .1.23.6.6 0 0 0 .18.21.87.87 0 0 0 .27.15 1.14 1.14 0 0 0 .39.06.91.91 0 0 0 .23 0 .68.68 0 0 0 .21-.1.52.52 0 0 0 .17-.16.53.53 0 0 0 .11-.21h1.14a1 1 0 0 1-.05.27 1.25 1.25 0 0 1-.15.31 2.32 2.32 0 0 1-.26.3 1.64 1.64 0 0 1-.37.26 2.38 2.38 0 0 1-.49.19 2.25 2.25 0 0 1-.6.07 2.32 2.32 0 0 1-.8-.13 1.72 1.72 0 0 1-.66-.4 1.85 1.85 0 0 1-.43-.71 3.05 3.05 0 0 1-.16-1.07 2.91 2.91 0 0 1 .09-.81 2 2 0 0 1 .36-.7 1.67 1.67 0 0 1 .62-.49 2.16 2.16 0 0 1 .92-.18 2.21 2.21 0 0 1 .95.18 1.63 1.63 0 0 1 .63.53 2.17 2.17 0 0 1 .33.82 4.93 4.93 0 0 1 .11 1.06zm1.77-.73a1.09 1.09 0 0 0-.09-.47.81.81 0 0 0-.21-.3.69.69 0 0 0-.28-.15.87.87 0 0 0-.58 0 .85.85 0 0 0-.28.15 1.14 1.14 0 0 0-.21.3 1.28 1.28 0 0 0-.08.47z"/></svg>