<svg xmlns="http://www.w3.org/2000/svg" viewBox="0 0 40 40">
    <path d="M9.66,22.3a1.18,1.18,0,0,0-.61.16.47.47,0,0,0-.25.38V32H31.2V22.84c0-.29-.39-.54-.86-.54Zm-9.1,3a.57.57,0,0,0-.4,1l3.55,3.58L.16,33.45a.57.57,0,0,0,.4,1H6.77a.58.58,0,0,0,.57-.57V25.32Zm31.71,0v8.53a.57.57,0,0,0,.56.57h6.22a.57.57,0,0,0,.39-1l-3.55-3.58,3.55-3.58a.57.57,0,0,0-.4-1ZM19.59,5.54a.53.53,0,0,0-.29.28L17.51,9.45l-4,.59a.55.55,0,0,0-.45.38.59.59,0,0,0,.14.59l2.89,2.83-.68,4a.55.55,0,0,0,.22.55.57.57,0,0,0,.6.05l3.57-1.89,3.58,1.89a.55.55,0,0,0,.59-.05.56.56,0,0,0,.23-.55l-.68-4L26.41,11a.57.57,0,0,0,.14-.58.56.56,0,0,0-.46-.39l-4-.58L20.31,5.82A.56.56,0,0,0,19.59,5.54ZM8.3,11a.57.57,0,0,0-.29.28L6.92,13.5l-2.43.35a.56.56,0,0,0-.46.39.57.57,0,0,0,.14.58l1.76,1.72L5.52,19a.56.56,0,0,0,.22.55.55.55,0,0,0,.6,0l2.18-1.14,2.17,1.14a.56.56,0,0,0,.82-.59l-.41-2.43,1.76-1.73a.56.56,0,0,0,.14-.58.55.55,0,0,0-.45-.38l-2.44-.36L9,11.29A.55.55,0,0,0,8.3,11Zm22.58,0a.57.57,0,0,0-.29.28L29.5,13.5l-2.44.35a.57.57,0,0,0-.31,1l1.76,1.72L28.09,19a.57.57,0,0,0,.23.55.53.53,0,0,0,.59,0l2.18-1.14,2.18,1.14a.56.56,0,0,0,.82-.59l-.41-2.43,1.76-1.73a.56.56,0,0,0,.14-.58.55.55,0,0,0-.46-.38l-2.43-.36L31.6,11.29a.55.55,0,0,0-.72-.27Z" fill="#fff"/>
    <path d="M12.34,30.28V24.82h1V24h-3v.85h1v5.46Zm2.88,0a1.6,1.6,0,0,0,1-.39,1.41,1.41,0,0,0,.35-.47,1.72,1.72,0,0,0,.13-.68V25.46a1.79,1.79,0,0,0-.13-.68,1.57,1.57,0,0,0-.35-.48,1.51,1.51,0,0,0-.49-.29,1.67,1.67,0,0,0-1.08,0,1.47,1.47,0,0,0-.48.29,1.57,1.57,0,0,0-.35.48,1.62,1.62,0,0,0-.13.68v3.33a1.56,1.56,0,0,0,.13.68,1.41,1.41,0,0,0,.35.47,1.32,1.32,0,0,0,.48.29A1.47,1.47,0,0,0,15.22,30.33Zm0-.9a.6.6,0,0,1-.42-.16.59.59,0,0,1-.18-.48V25.46A.63.63,0,0,1,14.8,25a.64.64,0,0,1,.42-.15.64.64,0,0,1,.43.15.63.63,0,0,1,.18.49v3.33a.59.59,0,0,1-.18.48A.6.6,0,0,1,15.22,29.43Zm3.2.85V27.81h.45a1.57,1.57,0,0,0,.81-.17,1.28,1.28,0,0,0,.5-.48,1.59,1.59,0,0,0,.2-.55,3.74,3.74,0,0,0,.05-.72,3.56,3.56,0,0,0-.09-.9,1.31,1.31,0,0,0-.31-.58,1.21,1.21,0,0,0-.51-.34,1.89,1.89,0,0,0-.65-.1H17.52v6.31ZM18.85,27h-.43V24.82h.46a.9.9,0,0,1,.41.08.52.52,0,0,1,.21.23,1,1,0,0,1,.08.35c0,.13,0,.27,0,.42s0,.3,0,.43a.8.8,0,0,1-.08.33.47.47,0,0,1-.22.22.83.83,0,0,1-.42.08Zm5.73,3.32V24h-.9l-.9.66v1l.9-.66v5.35Zm2.65,0a1.43,1.43,0,0,0,.5-.09,1.24,1.24,0,0,0,.72-.7,1.25,1.25,0,0,0,.11-.56V25.27a1.32,1.32,0,0,0-.11-.57,1.37,1.37,0,0,0-.29-.42,1.21,1.21,0,0,0-.43-.27,1.33,1.33,0,0,0-1,0,1.3,1.3,0,0,0-.43.27,1.37,1.37,0,0,0-.29.42,1.32,1.32,0,0,0-.11.57V29a1.26,1.26,0,0,0,.11.57,1.3,1.3,0,0,0,.29.43,1.48,1.48,0,0,0,.43.27,1.44,1.44,0,0,0,.51.09Zm0-.9a.44.44,0,0,1-.32-.13.45.45,0,0,1-.12-.32V25.27a.44.44,0,0,1,.12-.32.41.41,0,0,1,.32-.13.4.4,0,0,1,.31.13.41.41,0,0,1,.13.32V29a.44.44,0,0,1-.13.33.44.44,0,0,1-.31.13Z" fill="#fff"/>
</svg>