<svg xmlns="http://www.w3.org/2000/svg" viewBox="0 0 39 39">
    <path d="M14.91,15.76V13.67a12.77,12.77,0,0,0,2-.19,2.87,2.87,0,0,0,1.5-.82,2.57,2.57,0,0,0,.6-1.11,2.54,2.54,0,0,0,.12-.63h2.55V26.5H18.57V15.76Z" fill="#fff"/>
    <path d="M30.33,4.5c1.08-.9.71-2-.06-2.81A8.65,8.65,0,0,0,28.33.5C28.24.59,26.91,2.51,30.33,4.5Zm2.51-2s-2.41,1.93.94,5C36.93,6.07,33,2.33,32.84,2.51ZM37,9.66a8.91,8.91,0,0,0-.87-2.16c-.1,0-2,1.3-.45,5,1.25-.36,1.5-1.63,1.32-2.84Z" fill="#f8e71c"/>
    <path d="M36.18,16.5c2.62.11,1.7-5.09,1.5-5C37.68,11.48,35.34,12.18,36.18,16.5Zm2.81,1c-.11,0-2.78-.06-3,3.91a2.19,2.19,0,0,0,2.76-1.62A7.38,7.38,0,0,0,39,17.5Zm-1.56,5.18c-.77.4-1.67,1.24-2.43,3.46,1.35.85,2.43.06,3.17-1.05a6.14,6.14,0,0,0,.83-2.5A2.37,2.37,0,0,0,37.43,22.68ZM33,29.87c1.85,2.18,4.11-2,4-2.07S34.84,26.34,33,29.87Zm-4,3.39a2,2,0,0,0,3.15.79A8.66,8.66,0,0,0,34,32.31c0-.1-2-2.27-5,.95Zm.85,1.41a5.43,5.43,0,0,0-3.85.48c.41,1.29,1.64,1.47,2.85,1.29A5.52,5.52,0,0,0,31,35.55,2.32,2.32,0,0,0,29.85,34.67ZM22,36.73c0,1.33,1.19,1.73,2.49,1.77A8.37,8.37,0,0,0,27,38.21s-.75-2.46-5-1.48Z" fill="#f8e71c"/>
    <path d="M25.62,34.32a17.27,17.27,0,0,0,9.86-11.58C36.91,17,35.21,10.8,32.42,7.51A19.25,19.25,0,0,0,28.73,3.9l-.85-.49a3.2,3.2,0,0,0-2.68-1.9,4.24,4.24,0,0,0-1.76.23A5.64,5.64,0,0,0,24.7,3a4.83,4.83,0,0,0,3,.83l.81.47c.35.29.77.63,1.22,1C27.08,3.21,26,6,26.08,5.9a3.42,3.42,0,0,0,1.39.51,1.94,1.94,0,0,0,2.38-.94,15,15,0,0,1,2.2,2.36,4,4,0,0,1,.24.33c-2-2.31-3.44-.2-3.44-.2s1.73,2.35,3.75.61a14.18,14.18,0,0,1,1.69,3.22C33,9,31,10.76,31,10.7a3.78,3.78,0,0,0,1,1.18,1.93,1.93,0,0,0,2.49.42A18.35,18.35,0,0,1,35.19,15a1.91,1.91,0,0,0-2.65-1.1c.16,0,.39,2.85,2.87,2.5a19,19,0,0,1,.06,2.93,2,2,0,0,0-2.3-1.91A4,4,0,0,0,33.42,19a2.12,2.12,0,0,0,2,1.67,15.26,15.26,0,0,1-.36,2c-.07.3-.19.58-.28.87a1.93,1.93,0,0,0-.61-1.92A2.44,2.44,0,0,0,32.91,21c.15.07-1,2.8,1.42,3.72A15.72,15.72,0,0,1,33,27.37a2.09,2.09,0,0,0-1.08-2.95c.06.06-1.65,2.36.43,3.95a18.6,18.6,0,0,1-1.56,1.82,2.18,2.18,0,0,0-.61-2.63,3.71,3.71,0,0,0-.85,1.27,2.39,2.39,0,0,0,.22,2.54,16.24,16.24,0,0,1-2.44,1.72A1.92,1.92,0,0,0,28,31.22a2.56,2.56,0,0,0-.49-1.3c.07.16-2.55,1.26-1.47,3.69-.18.07-.36.18-.54.25a7.8,7.8,0,0,1-2.3.72,2.09,2.09,0,0,0,1.19-2.87A2.71,2.71,0,0,0,22,34.83,7.18,7.18,0,0,1,20.7,35l-1.86,0v0H18.3A6.4,6.4,0,0,1,17,34.83a2.71,2.71,0,0,0-2.32-3.12,2.09,2.09,0,0,0,1.19,2.87,7.8,7.8,0,0,1-2.3-.72c-.18-.07-.37-.18-.54-.25,1.08-2.43-1.54-3.53-1.47-3.69a2.74,2.74,0,0,0-.5,1.3,2,2,0,0,0,.9,1.87A15.75,15.75,0,0,1,9.5,31.37a2.39,2.39,0,0,0,.22-2.54,3.71,3.71,0,0,0-.85-1.27,2.18,2.18,0,0,0-.61,2.63A16.22,16.22,0,0,1,6.7,28.37c2.08-1.59.37-3.89.43-3.95a2.07,2.07,0,0,0-1.07,2.95,16.58,16.58,0,0,1-1.4-2.64c2.41-.92,1.28-3.65,1.43-3.72a2.48,2.48,0,0,0-1.22.56,2,2,0,0,0-.61,1.92c-.09-.29-.21-.57-.28-.87a17.21,17.21,0,0,1-.37-2,2.12,2.12,0,0,0,2-1.67,4,4,0,0,0,.25-1.53,2,2,0,0,0-2.3,1.91,19,19,0,0,1,.06-2.93c2.48.35,2.71-2.53,2.87-2.5A1.92,1.92,0,0,0,3.8,15a21.23,21.23,0,0,1,.7-2.72A2,2,0,0,0,7,11.89,4.13,4.13,0,0,0,8,10.7C8,10.76,6,9,4.7,11.79A14.43,14.43,0,0,1,6.41,8.57c2,1.74,3.64-.69,3.74-.61s-1.45-2.11-3.44.2c.08-.1.16-.23.24-.33a15,15,0,0,1,2.2-2.36,1.94,1.94,0,0,0,2.38.94,3.42,3.42,0,0,0,1.38-.51c.05.1-1-2.69-3.6-.56.45-.39.87-.73,1.22-1l.81-.47a4.85,4.85,0,0,0,3-.83,5.4,5.4,0,0,0,1.26-1.28,4.21,4.21,0,0,0-1.75-.23,3.2,3.2,0,0,0-2.69,1.9l-.85.5a19.15,19.15,0,0,0-3.69,3.6C3.79,10.81,2.09,17,3.52,22.75a17.21,17.21,0,0,0,9.85,11.57,11.8,11.8,0,0,0,2.73.83,6.74,6.74,0,0,0,2.17.31h.37a.48.48,0,0,0,.18,0l1.91,0a6.65,6.65,0,0,0,2.16-.31,11.39,11.39,0,0,0,2.73-.83ZM27,33.16l-.21.1Z" fill="#f8e71c"/>
    <path d="M10.67.5A8.08,8.08,0,0,0,8.74,1.7C8,2.52,7.59,3.6,8.67,4.5,12.1,2.51,10.76.6,10.67.5Zm-5.45,7c3.35-3.06.94-5,.94-5C6,2.33,2.07,6.07,5.22,7.5Zm-1.85,5C5,8.8,3,7.55,2.92,7.5a8.91,8.91,0,0,0-.87,2.16C1.87,10.87,2.12,12.14,3.37,12.5Z" fill="#f8e71c"/>
    <path d="M2.82,16.5c.84-4.32-1.5-5-1.5-5C1.12,11.41.2,16.61,2.82,16.5ZM3,21.41c-.21-4-2.88-3.93-3-3.91a7.38,7.38,0,0,0,.23,2.29A2.19,2.19,0,0,0,3,21.41Zm1,4.73c-.76-2.21-1.66-3.06-2.43-3.46A2.37,2.37,0,0,0,0,22.59a6,6,0,0,0,.83,2.5C1.57,26.2,2.64,27,4,26.14ZM2,27.8c-.11.06,2.15,4.25,4,2.07C4.16,26.34,2,27.8,2,27.8Zm8,5.46c-3-3.22-4.95-1-5-.95a8.66,8.66,0,0,0,1.85,1.74A2,2,0,0,0,10,33.26Zm-.85,1.41A2.26,2.26,0,0,0,8,35.55a5.43,5.43,0,0,0,2.15.89c1.21.18,2.46,0,2.85-1.29a5.43,5.43,0,0,0-3.85-.48ZM12,38.21a8.4,8.4,0,0,0,2.52.29c1.28,0,2.47-.44,2.48-1.77C12.75,35.75,12,38.21,12,38.21Z" fill="#f8e71c"/>
</svg>