<svg xmlns="http://www.w3.org/2000/svg" viewBox="0 0 38 38">
    <path d="M27.49,17.92H3.39a.62.62,0,0,0-.6.61v9.74a.62.62,0,0,0,.6.61h24.1a.63.63,0,0,0,.61-.61V18.53a.63.63,0,0,0-.61-.61Zm-16.7,9.74H4V19.13h6.83v8.53Zm1.26-8.53h6.79v8.53H12.05Zm14.83,8.53H20.05V19.13h6.79v8.53Z" fill="#e0d11e"/>
    <path d="M37.8,15.09a2.67,2.67,0,1,0-5.34,0,2.65,2.65,0,0,0,2,2.59v4.85H30.64V14.2a.62.62,0,0,0-.6-.6H26.32v-2a.62.62,0,0,0-.61-.6H22.07A6.82,6.82,0,0,0,8.49,11H4.85a.62.62,0,0,0-.61.6v2H.81a.63.63,0,0,0-.61.61V32.72a.62.62,0,0,0,.61.6H30.08a.62.62,0,0,0,.6-.6v-9h4.45a.62.62,0,0,0,.61-.6V17.68a2.64,2.64,0,0,0,2.06-2.59ZM1.41,14.81H29.47v17.3H1.41V14.81Zm4.13-2.59h3.6a.62.62,0,0,0,.6-.61,5.58,5.58,0,1,1,11.16,0,.62.62,0,0,0,.61.61H25.1v1.37H5.54Zm29.59,4.33a1.46,1.46,0,1,1,1.45-1.46A1.46,1.46,0,0,1,35.13,16.55Z" fill="#e0d11e"/>
    <path d="M21.43,23.18l1.05.68L22,25a.2.2,0,0,0,.08.25.26.26,0,0,0,.24,0l.93-.77.94.77a.2.2,0,0,0,.24,0c.08,0,.08-.16.08-.25l-.45-1.09,1.05-.68a.15.15,0,0,0,.09-.21c0-.08-.08-.16-.21-.16l-1.25-.08-.32-1.05c0-.16-.33-.16-.41,0l-.32,1.05-1.25.08a.28.28,0,0,0-.21.16S21.34,23.14,21.43,23.18Zm-4.05-.25c0-.08-.08-.16-.2-.16l-1.25-.08-.33-1.05c0-.16-.32-.16-.4,0L15,22.73l-1.26.08a.27.27,0,0,0-.2.16.16.16,0,0,0,.08.21l1.05.68L14.19,25a.2.2,0,0,0,.08.25.26.26,0,0,0,.24,0l.93-.77.93.77a.2.2,0,0,0,.24,0c.08,0,.08-.16.08-.25l-.44-1.09,1.05-.68A.46.46,0,0,0,17.38,22.93Zm-10.79.93L6.14,25a.21.21,0,0,0,.08.25.28.28,0,0,0,.25,0l.93-.77.93.77a.2.2,0,0,0,.24,0c.08,0,.08-.16.08-.25l-.44-1.09,1-.68A.15.15,0,0,0,9.34,23c0-.08-.08-.16-.2-.16l-1.26-.08-.32-1.05c0-.16-.32-.16-.4,0l-.33,1.05-1.17.08a.27.27,0,0,0-.2.16.15.15,0,0,0,.08.21l1,.68Z" fill="#e0d11e"/>
</svg>