<svg xmlns="http://www.w3.org/2000/svg" viewBox="0 0 40 40">
    <path d="M35,14.94A15,15,0,1,0,11.82,27.45v9.83a2.72,2.72,0,0,0,3.86,2.47l3.76-1.7a1.39,1.39,0,0,1,1.13,0l3.76,1.7a2.61,2.61,0,0,0,1.12.25,2.74,2.74,0,0,0,2.73-2.72V27.45A14.93,14.93,0,0,0,35,14.94ZM25.45,37.28l-3.76-1.7a4.07,4.07,0,0,0-3.38,0l-3.76,1.7V28.84a14.8,14.8,0,0,0,10.9,0ZM20,27.17A12.23,12.23,0,1,1,32.27,14.94,12.26,12.26,0,0,1,20,27.17Z" fill="#fff"/>
    <path d="M26.5,12.56,22.55,12a.26.26,0,0,1-.24-.19l-1.8-3.54a.57.57,0,0,0-1,0l-1.76,3.46c0,.11-.16.15-.24.19l-4,.58a.55.55,0,0,0-.32.92L16,16.13a.3.3,0,0,1,.08.31l-.68,3.89a.56.56,0,0,0,.8.57l3.55-1.8a.44.44,0,0,1,.32,0l3.64,1.84a.55.55,0,0,0,.8-.57l-.68-3.81a.41.41,0,0,1,.08-.31l2.91-2.73A.58.58,0,0,0,26.5,12.56Z" fill="#fff"/>
</svg>