<svg xmlns="http://www.w3.org/2000/svg" viewBox="0 0 38 38">
    <path d="M33.88,0H4.12A4.11,4.11,0,0,0,0,4.08V25.92A4.1,4.1,0,0,0,4.08,30H6v4.2a3.75,3.75,0,0,0,2.32,3.48A3.69,3.69,0,0,0,9.72,38a3.79,3.79,0,0,0,2.68-1.12L19.28,30h14.6A4.1,4.1,0,0,0,38,25.88V4.08A4,4,0,0,0,33.88,0Zm.92,25.92a.91.91,0,0,1-.92.92H18.64a1.45,1.45,0,0,0-1.12.48l-7.36,7.32a.52.52,0,0,1-.64.12.61.61,0,0,1-.36-.56V28.44a1.6,1.6,0,0,0-1.6-1.6H4.08a.91.91,0,0,1-.92-.92V4.08a.91.91,0,0,1,.92-.92h29.8a.91.91,0,0,1,.92.92Z" fill="#f8e71c"/>
    <path d="M25.56,12.84l-4-.56a.25.25,0,0,1-.24-.2L19.56,8.4a.57.57,0,0,0-1,0L16.8,12c0,.12-.16.16-.24.2l-4,.6a.58.58,0,0,0-.32,1l2.88,2.8a.31.31,0,0,1,.08.32l-.68,4a.57.57,0,0,0,.8.6l3.56-1.88a.44.44,0,0,1,.32,0l3.64,1.92a.56.56,0,0,0,.8-.6l-.68-4a.43.43,0,0,1,.08-.32l2.92-2.84A.62.62,0,0,0,25.56,12.84Z" fill="#f8e71c"/>
</svg>