<svg xmlns="http://www.w3.org/2000/svg" viewBox="0 0 40 40">
    <path d="M9.66,22.3a1.18,1.18,0,0,0-.61.16.47.47,0,0,0-.25.38V32H31.2V22.84c0-.29-.39-.54-.86-.54Zm-9.1,3a.57.57,0,0,0-.4,1l3.55,3.58L.16,33.45a.57.57,0,0,0,.4,1H6.77a.58.58,0,0,0,.57-.57V25.32Zm31.71,0v8.53a.57.57,0,0,0,.56.57h6.22a.57.57,0,0,0,.39-1l-3.55-3.58,3.55-3.58a.57.57,0,0,0-.4-1ZM19.72,5.54a.55.55,0,0,0-.3.28L17.63,9.45l-4,.59a.58.58,0,0,0-.46.38.59.59,0,0,0,.15.59l2.89,2.83-.69,4a.56.56,0,0,0,.23.55.55.55,0,0,0,.59.05l3.58-1.89,3.57,1.89a.57.57,0,0,0,.6-.05.55.55,0,0,0,.22-.55l-.68-4L26.53,11a.57.57,0,0,0-.31-1l-4-.58L20.44,5.82a.57.57,0,0,0-.72-.28ZM8.43,11a.59.59,0,0,0-.3.28L7,13.5l-2.43.35a.57.57,0,0,0-.31,1l1.76,1.72L5.64,19a.56.56,0,0,0,.22.55.55.55,0,0,0,.6,0l2.18-1.14,2.18,1.14a.55.55,0,0,0,.59,0,.57.57,0,0,0,.23-.55l-.42-2.43L13,14.82a.57.57,0,0,0,.15-.58.58.58,0,0,0-.46-.38l-2.43-.36L9.15,11.29A.55.55,0,0,0,8.43,11ZM31,11a.61.61,0,0,0-.29.28L29.62,13.5l-2.43.35a.56.56,0,0,0-.46.39.57.57,0,0,0,.14.58l1.77,1.72L28.22,19a.56.56,0,0,0,.22.55.55.55,0,0,0,.6,0l2.18-1.14,2.17,1.14a.57.57,0,0,0,.83-.59l-.42-2.43,1.76-1.73a.57.57,0,0,0,.15-.58.58.58,0,0,0-.46-.38l-2.44-.36-1.08-2.21A.55.55,0,0,0,31,11Z" fill="#fff"/>
    <path d="M14.74,30.28V24.82h1V24h-3v.85h1v5.46Zm2.88,0a1.6,1.6,0,0,0,1-.39,1.41,1.41,0,0,0,.35-.47,1.72,1.72,0,0,0,.13-.68V25.46a1.79,1.79,0,0,0-.13-.68,1.57,1.57,0,0,0-.35-.48,1.51,1.51,0,0,0-.49-.29,1.67,1.67,0,0,0-1.08,0,1.47,1.47,0,0,0-.48.29,1.42,1.42,0,0,0-.35.48,1.62,1.62,0,0,0-.13.68v3.33a1.56,1.56,0,0,0,.13.68,1.29,1.29,0,0,0,.35.47,1.32,1.32,0,0,0,.48.29A1.47,1.47,0,0,0,17.62,30.33Zm0-.9a.6.6,0,0,1-.42-.16.59.59,0,0,1-.18-.48V25.46A.63.63,0,0,1,17.2,25a.64.64,0,0,1,.42-.15.64.64,0,0,1,.43.15.63.63,0,0,1,.18.49v3.33a.59.59,0,0,1-.18.48A.6.6,0,0,1,17.62,29.43Zm3.2.85V27.81h.45a1.57,1.57,0,0,0,.81-.17,1.28,1.28,0,0,0,.5-.48,1.59,1.59,0,0,0,.2-.55,3.74,3.74,0,0,0,0-.72,3.56,3.56,0,0,0-.09-.9,1.31,1.31,0,0,0-.31-.58,1.21,1.21,0,0,0-.51-.34,1.89,1.89,0,0,0-.65-.1H19.92v6.31Zm0-3.32V24.82h.46a.9.9,0,0,1,.41.08.52.52,0,0,1,.21.23,1,1,0,0,1,.08.35c0,.13,0,.27,0,.42s0,.3,0,.43a.8.8,0,0,1-.08.33.47.47,0,0,1-.22.22.83.83,0,0,1-.42.08Zm5.52,3.37a1.25,1.25,0,0,0,.68-.16,1.41,1.41,0,0,0,.43-.41,1.57,1.57,0,0,0,.12-.21,1,1,0,0,0,.07-.24c0-.09,0-.2,0-.33s0-.31,0-.52,0-.41,0-.55a1.89,1.89,0,0,0-.06-.38.76.76,0,0,0-.16-.26,1.88,1.88,0,0,0-.32-.25,2.13,2.13,0,0,0,.3-.22.61.61,0,0,0,.17-.24,1,1,0,0,0,.07-.33c0-.14,0-.31,0-.53a3.65,3.65,0,0,0-.08-.87,1.27,1.27,0,0,0-.11-.26c0-.07-.1-.14-.15-.21a1.71,1.71,0,0,0-.37-.3,1.13,1.13,0,0,0-.61-.14,1.35,1.35,0,0,0-.53.1,1.42,1.42,0,0,0-.43.29,1.26,1.26,0,0,0-.29.42,1.35,1.35,0,0,0-.11.52v.53h.9v-.52A.59.59,0,0,1,26,25a.38.38,0,0,1,.34-.15.42.42,0,0,1,.32.12.45.45,0,0,1,.12.32v.82a.53.53,0,0,1-.15.45,1.21,1.21,0,0,1-.56.1v.79l.36,0a.34.34,0,0,1,.21.09.65.65,0,0,1,.14.49v.9a.53.53,0,0,1-.12.37.4.4,0,0,1-.32.14.42.42,0,0,1-.32-.14.51.51,0,0,1-.12-.35v-.47H25V29a1.47,1.47,0,0,0,.13.63,1.37,1.37,0,0,0,.32.42,1.28,1.28,0,0,0,.43.23,1.5,1.5,0,0,0,.45.07Z" fill="#fff"/>
</svg>