<svg xmlns="http://www.w3.org/2000/svg" viewBox="0 0 36 36">
    <path d="M33.5,28.5a7.5,7.5,0,1,1-14.83-1.59l0,.09H5.87a2.44,2.44,0,0,1-2.24-2.11V15.75a1.21,1.21,0,0,1-1.11-1V10.13A2.44,2.44,0,0,1,4.61,7.88H9.25a5.53,5.53,0,0,1-1.52-1A4.06,4.06,0,0,1,6.55,4,4,4,0,0,1,7.74,1.15a4.14,4.14,0,0,1,5.72,0C15.67,3.36,16,7.41,16,7.88c0-.47.33-4.52,2.54-6.73a4.14,4.14,0,0,1,5.72,0,4.06,4.06,0,0,1,0,5.73A4.35,4.35,0,0,1,23,7.76l-.22.12h4.5A2.42,2.42,0,0,1,29.49,10v4.43c0,.7-.33,1.28-1,1.35h-.14v5.61l.16.06a7.51,7.51,0,0,1,5,7.06ZM26,23a5.5,5.5,0,1,0,5.5,5.5A5.5,5.5,0,0,0,26,23Zm.39,1a.29.29,0,0,1,.29.29V25a1.9,1.9,0,0,1,1.65,1.65.19.19,0,0,1-.07.22A.27.27,0,0,1,28,27H27.2a.33.33,0,0,1-.3-.22.47.47,0,0,0-.45-.35h-.74A.74.74,0,0,0,25,27a.86.86,0,0,0,.2.54.75.75,0,0,0,.51.22h.65a2.26,2.26,0,0,1,1.62.74,2,2,0,0,1,.55,1.62A2.17,2.17,0,0,1,26.74,32v.73a.29.29,0,0,1-.29.29h-.84a.29.29,0,0,1-.29-.29V32a1.9,1.9,0,0,1-1.65-1.65c0-.1,0-.16.06-.22A.29.29,0,0,1,24,30h.84a.31.31,0,0,1,.29.22.49.49,0,0,0,.45.35h.75A.72.72,0,0,0,27,30a.85.85,0,0,0-.19-.54.75.75,0,0,0-.52-.22h-.58a2.21,2.21,0,0,1-2.23-1.91A2.11,2.11,0,0,1,25.25,25v-.73a.29.29,0,0,1,.3-.29ZM20,15.88H12.82v8.74h6.76l.06-.1.25-.38L20,24V15.88Zm-9.53,0H5.68v8.74h4.76Zm15.88,0H21.56v6.58l.08-.07A7.54,7.54,0,0,1,26,21h.32V15.88Zm.8-5.56H22.35V13.5h4.77Zm-6.35,0H12V13.5h8.74Zm-11.12,0H4.88V13.5H9.65ZM21.46,2.38a1.67,1.67,0,0,0-1.19.5,8.87,8.87,0,0,0-1.89,4.27,9.06,9.06,0,0,0,4.27-1.89,1.69,1.69,0,0,0-1.19-2.88Zm-10.92,0A1.68,1.68,0,0,0,9.35,5.26a9,9,0,0,0,4.27,1.89,8.87,8.87,0,0,0-1.89-4.27,1.67,1.67,0,0,0-1.19-.5Z" fill="#fff"/>
</svg>