<svg xmlns="http://www.w3.org/2000/svg" viewBox="0 0 34 34">
    <path d="M31,17H25V13h6ZM30,31H24V20h6ZM22.38,3.62a2.12,2.12,0,0,1,3,3A11.21,11.21,0,0,1,20,9,11.21,11.21,0,0,1,22.38,3.62ZM23,17H12V13H23ZM22,31H13V20h9ZM8,5.12A2.12,2.12,0,0,1,10.12,3a2.14,2.14,0,0,1,1.51.62A11.34,11.34,0,0,1,14,9c-1.87-.39-4.13-1.12-5.38-2.37A2.13,2.13,0,0,1,8,5.12ZM9,17H3V13H9Zm1,14H4V20h6ZM25.5,9.92a6.64,6.64,0,0,0,1.91-1.25,5.13,5.13,0,0,0,0-7.22,5.23,5.23,0,0,0-7.22,0C17.41,4.23,17,9.33,17,9.92c0-.59-.41-5.69-3.19-8.47a5.23,5.23,0,0,0-7.22,0,5.12,5.12,0,0,0,0,7.22A6.64,6.64,0,0,0,8.5,9.92H2.83A3.05,3.05,0,0,0,0,12.75v5.67a1.52,1.52,0,0,0,1.42,1.41V31.17A3,3,0,0,0,4.25,34h25.5a3,3,0,0,0,2.83-2.83V19.86c.94,0,1.42-.76,1.42-1.7V12.75a3,3,0,0,0-2.83-2.83Z" fill="#f8e71c"/>
</svg>