<svg width="26" height="26" viewBox="0 0 26 26" fill="none" xmlns="http://www.w3.org/2000/svg">
<path d="M12.288 19.5335C12.3508 19.5866 12.418 19.6397 12.4841 19.6917C11.1662 20.5687 9.61789 21.0355 8.03483 21.0328C6.78121 21.0328 5.54499 20.7394 4.42505 20.1761C3.30511 19.6128 2.33252 18.7953 1.58509 17.7889C0.837663 16.7824 0.336127 15.615 0.1206 14.3801C-0.0949261 13.1451 -0.0184619 11.8769 0.343877 10.6767C0.706216 9.47663 1.34437 8.37796 2.20731 7.46862C3.07024 6.55927 4.13401 5.86448 5.31351 5.43982C6.49302 5.01517 7.75554 4.87243 9.00008 5.02302C10.2446 5.17362 11.4367 5.61337 12.4808 6.3071C12.4158 6.36235 12.3508 6.41326 12.3021 6.4696C11.3636 7.27931 10.6107 8.28175 10.0946 9.40865C9.5784 10.5356 9.31115 11.7604 9.311 12.9999C9.31128 14.2385 9.57716 15.4626 10.0907 16.5897C10.6043 17.7168 11.3535 18.7206 12.288 19.5335ZM17.9657 4.96593C16.3191 4.96593 14.7905 5.45993 13.5187 6.3071C13.5837 6.36235 13.6487 6.41326 13.6974 6.4696C14.6359 7.27931 15.3888 8.28175 15.9049 9.40865C16.4211 10.5356 16.6883 11.7604 16.6885 12.9999C16.6878 14.2384 16.4217 15.4624 15.9082 16.5894C15.3947 17.7164 14.6456 18.7203 13.7115 19.5335C13.6487 19.5866 13.5815 19.6397 13.5154 19.6917C14.8332 20.569 16.3816 21.0358 17.9647 21.0328C19.0198 21.0333 20.0647 20.8258 21.0396 20.4223C22.0145 20.0188 22.9003 19.4271 23.6465 18.6811C24.3927 17.9352 24.9846 17.0495 25.3884 16.0747C25.7921 15.0999 25.9999 14.055 25.9998 12.9999C25.9995 10.8693 25.1529 8.82596 23.6463 7.31935C22.1397 5.81275 20.0964 4.96622 17.9657 4.96593ZM12.9998 6.68843C12.0427 7.43839 11.2691 8.39655 10.7377 9.49015C10.2063 10.5838 9.93105 11.7841 9.93283 12.9999C9.93073 14.216 10.2058 15.4166 10.7373 16.5104C11.2687 17.6042 12.0425 18.5625 12.9998 19.3125C13.9568 18.5623 14.7304 17.604 15.2618 16.5102C15.7932 15.4164 16.0685 14.216 16.0667 12.9999C16.0684 11.7841 15.7932 10.5838 15.2618 9.49015C14.7304 8.39655 13.9568 7.43839 12.9998 6.68843Z" fill="#1D2D4A"/>
</svg>
