<svg width="22" height="20" viewBox="0 0 22 20" fill="none" xmlns="http://www.w3.org/2000/svg">
<path d="M21.172 8.03234C21.0525 7.34333 20.4719 6.92992 19.6323 6.92074C19.3732 6.91706 19.116 6.94279 18.8642 6.91523C18.3682 6.86378 18.2377 7.02914 18.2414 7.42234C18.2653 9.35157 18.2579 11.279 18.2506 13.2027C18.245 14.2114 17.2602 15.2477 16.077 15.5104C12.4022 16.317 8.73118 17.1365 5.05278 17.9357C4.63938 18.0258 4.20392 18.0717 3.78317 18.068C3.59943 18.068 3.34588 17.9284 3.26687 17.7924C3.21543 17.7024 3.37711 17.4837 3.50389 17.3717C3.67109 17.2357 3.88422 17.1273 4.10287 17.052C4.77718 16.8113 5.46252 16.5926 6.14418 16.3666C8.87266 15.459 11.6067 14.5623 14.3315 13.6492C15.5607 13.2339 16.224 12.4144 16.2442 11.38C16.3066 8.02867 16.2754 4.67732 16.2607 1.32229C16.2607 0.791296 15.9851 0.348491 15.353 0.11882C14.6254 -0.142085 13.986 0.0655373 13.354 0.366865C9.49185 2.20974 5.63156 4.04894 1.76575 5.88814C0.628418 6.43016 -0.00547644 7.21472 3.56492e-05 8.33183C0.0128972 11.5013 0.00371335 14.6652 0.00738807 17.831C0.00738807 17.989 0.023923 18.1507 0.0735318 18.3014C0.453866 19.3781 1.44053 19.9954 2.80385 19.9954C5.52131 20.0028 8.24796 19.9991 10.9673 19.9991C13.6774 19.9991 16.3783 20.0028 19.0884 19.9954C19.6763 19.9954 20.2184 19.8741 20.6593 19.5103C21.2308 19.051 21.2014 18.4667 21.2014 17.8843C21.2069 14.7975 21.2069 11.7144 21.2032 8.62213C21.2087 8.42921 21.205 8.2271 21.172 8.03234ZM9.87219 7.042C10.146 6.33094 10.7431 5.8863 11.6544 5.77238C12.2571 5.69521 12.7826 6.0682 12.8689 6.61206C12.9994 7.4499 11.9521 8.4237 10.9176 8.42002C10.0541 8.42002 9.5727 7.81553 9.87219 7.042Z" fill="#1D2D4A"/>
</svg>
