<svg width="24" height="24" viewBox="0 0 24 24" fill="none" xmlns="http://www.w3.org/2000/svg">
<g clip-path="url(#clip0)">
<path d="M11.9431 0.181885C13.8151 0.181885 15.5971 0.611885 17.1951 1.37888C17.4461 1.49188 17.6981 1.62688 17.9481 1.76288L16.8521 2.73288L15.2091 1.04088L12.3771 3.52388L10.7101 1.73988L5.50307 6.36788L8.83707 10.0029L7.53507 11.1309L10.8251 14.7659L9.52307 15.8939L14.2271 21.0639L17.0121 18.5349L19.4331 21.2449C18.9531 21.6059 18.4281 21.9679 17.8581 22.2839C16.0579 23.2915 14.029 23.8197 11.9661 23.8179C5.36607 23.8169 7.36626e-05 18.5119 7.36626e-05 11.9899C-0.0229263 5.50988 5.34307 0.181885 11.9431 0.181885ZM9.75007 11.2679L12.6051 8.73888L15.1631 11.5609L12.3081 14.0899L9.75007 11.2679ZM11.7831 16.1439L14.6151 13.5939L17.1951 16.4149L14.3401 18.9439L11.7831 16.1439ZM7.72007 6.45988L10.5741 3.93088L13.1311 6.75288L10.2771 9.28088L7.72007 6.45988ZM12.9481 5.10488L15.0721 3.20888L16.9911 5.30788L14.8671 7.22688L12.9481 5.10488ZM16.7401 13.7959L18.8631 11.8999L20.7811 14.0209L18.6571 15.9189L16.7401 13.7959ZM18.6121 18.0629L20.7361 16.1659L22.6531 18.2659L20.5301 20.1839L18.6121 18.0629ZM19.4801 8.30989L20.8951 7.04588L22.1741 8.44588L20.7581 9.70988L19.4801 8.30989ZM17.6531 4.13388L19.0691 2.84788L20.3491 4.26988L18.9311 5.53388L17.6531 4.13388ZM21.2831 12.4869L22.6991 11.2229L24.0011 12.6229L22.5631 13.8869L21.2831 12.4869ZM14.9131 9.34888L17.0371 7.45288L18.9551 9.55188L16.8311 11.4489L14.9131 9.34888Z" fill="#1D2D4A"/>
</g>
<defs>
<clipPath id="clip0">
<rect width="24" height="24" fill="white"/>
</clipPath>
</defs>
</svg>
