<svg width="24" height="20" viewBox="0 0 24 20" fill="none" xmlns="http://www.w3.org/2000/svg">
<path fill-rule="evenodd" clip-rule="evenodd" d="M10.1556 1.41503L10.1555 1.41514L10.1554 1.41519C9.92277 1.65029 9.69011 1.88541 9.45557 2.11853C9.70512 2.36543 9.9519 2.61512 10.1986 2.86477L10.1986 2.86479L10.1987 2.86485L10.1987 2.86489L10.1988 2.86491C10.6569 3.32851 11.1149 3.79194 11.5903 4.23706C11.908 3.94385 12.2226 3.64743 12.5372 3.35103L12.5373 3.35097L12.5374 3.35087L12.5374 3.35082C12.9762 2.93745 13.4149 2.52412 13.8617 2.11961C13.4483 1.74141 13.0397 1.3575 12.631 0.973548L12.631 0.973516L12.6309 0.973458L12.6309 0.973413L12.6308 0.973391C12.2843 0.647808 11.9377 0.322193 11.5882 0C11.1003 0.460285 10.628 0.937595 10.1556 1.41498L10.1556 1.415L10.1556 1.41503ZM7.25716 5.4725C8.48817 5.14849 9.75929 5.01737 11.0271 4.94043C11.0302 7.773 11.0295 10.6056 11.0288 13.4381V13.4403C11.0285 14.6544 11.0282 15.8686 11.0282 17.0827C9.66068 17.0903 8.29312 17.0924 6.92556 17.0838C6.46393 17.0957 6.07707 16.737 5.91127 16.3295C5.50755 15.3811 5.11011 14.4299 4.71267 13.4787L4.71263 13.4787C4.1329 12.0912 3.55318 10.7039 2.95401 9.32486C2.69068 9.51125 2.42411 9.69547 2.15103 9.86885C2.68413 11.2665 3.25965 12.6483 3.83515 14.0301L3.83515 14.0301L3.83515 14.0301L3.83516 14.0302L3.8352 14.0302C4.25873 15.0471 4.68223 16.064 5.08879 17.087C4.84839 17.0848 4.60788 17.0864 4.36737 17.0881L4.36665 17.0881C3.89292 17.0913 3.4192 17.0945 2.94642 17.0686C2.35212 14.9125 1.48501 12.8508 0.619141 10.7921C0.411429 10.2982 0.203788 9.80449 0 9.30969C2.07084 7.4805 4.56322 6.1151 7.25716 5.4725ZM4.81006 8.48399C6.16136 7.88907 7.58961 7.47729 9.04061 7.20312C9.04326 8.33338 9.0423 9.46363 9.04135 10.5939V10.5948C9.03996 12.234 9.03857 13.8733 9.04819 15.5125C8.95131 15.5127 8.84744 15.519 8.74071 15.5256L8.74066 15.5256C8.2648 15.5546 7.73186 15.5872 7.50617 15.0942C7.0066 13.908 6.52575 12.7133 6.04491 11.5186C5.6371 10.5053 5.22928 9.49201 4.81006 8.48399ZM17.3592 5.8975C15.6839 5.30258 13.9133 5.036 12.1437 4.93848C12.1437 6.21721 12.1443 7.49595 12.145 8.77468C12.1464 11.5455 12.1478 14.3164 12.1426 17.0872C12.6397 17.0864 13.1369 17.0873 13.634 17.0883L13.6357 17.0883H13.6362C14.507 17.0899 15.3777 17.0915 16.2485 17.0839C16.7394 17.097 17.1284 16.6993 17.2931 16.2669C17.6797 15.3389 18.0702 14.4124 18.4608 13.4859L18.4608 13.4858L18.461 13.4855L18.461 13.4854L18.4611 13.4853C19.0427 12.1055 19.6245 10.7256 20.193 9.34023C20.478 9.50386 20.7532 9.68375 21.0241 9.87014C20.9183 10.2167 20.7772 10.5518 20.6363 10.8863L20.6356 10.888L20.6355 10.8882C20.6093 10.9505 20.5831 11.0128 20.5571 11.0751C20.1758 12.0032 19.7934 12.9306 19.411 13.8579L19.4107 13.8586C18.9672 14.9341 18.5237 16.0097 18.082 17.0861C18.6965 17.0894 19.3098 17.0894 19.9242 17.0861C20.0942 16.6988 20.2651 16.3119 20.4361 15.9249L20.4367 15.9235L20.4373 15.9222C21.403 13.736 22.3694 11.5483 23.16 9.29255C21.4533 7.82313 19.5038 6.60945 17.3592 5.8975ZM18.2881 8.45899C16.9639 7.86407 15.553 7.47179 14.127 7.2063C14.1345 9.97826 14.1389 12.7513 14.128 15.5244C14.237 15.5234 14.3464 15.526 14.4558 15.5287L14.4559 15.5287C14.7153 15.535 14.9751 15.5413 15.2312 15.4994C15.5997 15.3558 15.7416 14.9807 15.8725 14.6349C15.8917 14.584 15.9107 14.5339 15.9301 14.4851C16.1182 14.0194 16.3061 13.5536 16.494 13.0878L16.4942 13.0874L16.4943 13.087C17.025 11.7714 17.5556 10.4559 18.0909 9.14277C18.1118 9.06724 18.1471 8.99072 18.1826 8.91366C18.2521 8.76298 18.3225 8.61028 18.2881 8.45899ZM8.88157 18.0481C7.03937 18.0482 5.19718 18.0483 3.35498 18.0483V20H19.9347V18.0483C16.2503 18.0476 12.566 18.0479 8.88157 18.0481Z" fill="#1D2D4A"/>
</svg>
