<svg width="21" height="21" viewBox="0 0 21 21" fill="none" xmlns="http://www.w3.org/2000/svg">
<path d="M19.3335 9.3335H12.3335V1.3335C12.3335 1.06828 12.2281 0.813926 12.0406 0.626389C11.8531 0.438853 11.5987 0.333496 11.3335 0.333496H1.3335C1.06828 0.333496 0.813926 0.438853 0.626389 0.626389C0.438853 0.813926 0.333496 1.06828 0.333496 1.3335V19.3335C0.333496 19.5987 0.438853 19.8531 0.626389 20.0406C0.813926 20.2281 1.06828 20.3335 1.3335 20.3335H3.3335V13.3335C3.3335 13.0683 3.43885 12.8139 3.62639 12.6264C3.81393 12.4389 4.06828 12.3335 4.3335 12.3335H8.3335C8.59871 12.3335 8.85307 12.4389 9.0406 12.6264C9.22814 12.8139 9.3335 13.0683 9.3335 13.3335V20.3335H19.3335C19.5987 20.3335 19.8531 20.2281 20.0406 20.0406C20.2281 19.8531 20.3335 19.5987 20.3335 19.3335V10.3335C20.3335 10.0683 20.2281 9.81393 20.0406 9.62639C19.8531 9.43885 19.5987 9.3335 19.3335 9.3335ZM8.3335 9.3335H4.3335C4.06828 9.3335 3.81393 9.22814 3.62639 9.0406C3.43885 8.85307 3.3335 8.59871 3.3335 8.3335C3.3335 8.06828 3.43885 7.81393 3.62639 7.62639C3.81393 7.43885 4.06828 7.3335 4.3335 7.3335H8.3335C8.59871 7.3335 8.85307 7.43885 9.0406 7.62639C9.22814 7.81393 9.3335 8.06828 9.3335 8.3335C9.3335 8.59871 9.22814 8.85307 9.0406 9.0406C8.85307 9.22814 8.59871 9.3335 8.3335 9.3335ZM8.3335 6.3335H4.3335C4.06828 6.3335 3.81393 6.22814 3.62639 6.0406C3.43885 5.85307 3.3335 5.59871 3.3335 5.3335C3.3335 5.06828 3.43885 4.81393 3.62639 4.62639C3.81393 4.43885 4.06828 4.3335 4.3335 4.3335H8.3335C8.59871 4.3335 8.85307 4.43885 9.0406 4.62639C9.22814 4.81393 9.3335 5.06828 9.3335 5.3335C9.3335 5.59871 9.22814 5.85307 9.0406 6.0406C8.85307 6.22814 8.59871 6.3335 8.3335 6.3335ZM5.3335 14.3335H7.3335V20.3335H5.3335V14.3335Z" fill="#1D2D4A"/>
</svg>
