<svg width="31" height="20" viewBox="0 0 31 20" fill="none" xmlns="http://www.w3.org/2000/svg">
<path d="M28.0184 2.46143C28.0184 2.96481 28.0184 3.4682 28.0184 3.97471C28.0184 5.18471 28.0184 6.39158 28.0184 7.60158C28.0184 9.06484 28.0184 10.5281 28.0184 11.9913C28.0184 13.242 28.0184 14.4958 28.0184 15.7464C28.0184 16.3373 28.0246 16.9283 28.0184 17.5192C28.0184 17.5817 28.0153 17.6443 28.0059 17.7068C28.0215 17.5974 28.0371 17.4848 28.0496 17.3754C28.034 17.4723 28.009 17.563 27.9746 17.6568C28.0153 17.5567 28.059 17.4567 28.0997 17.3566C28.0559 17.4567 28.0027 17.5505 27.9402 17.638C28.0059 17.5536 28.0715 17.4692 28.1372 17.3848C28.0684 17.4692 27.9934 17.5442 27.9089 17.613C27.9934 17.5473 28.0778 17.4817 28.1622 17.416C28.0747 17.4817 27.9809 17.5348 27.8808 17.5755C27.9809 17.5348 28.0809 17.4911 28.181 17.4504C28.0903 17.4848 27.9965 17.5098 27.8996 17.5255C28.009 17.5098 28.1216 17.4942 28.231 17.4817C27.9621 17.5161 27.6776 17.4942 27.4056 17.4942C26.7896 17.4942 26.1737 17.4942 25.5577 17.4942C24.6385 17.4942 23.7193 17.4942 22.8032 17.4942C21.6807 17.4942 20.5552 17.4942 19.4327 17.4942C18.1946 17.4942 16.9564 17.4942 15.7183 17.4942C14.4739 17.4942 13.2295 17.4942 11.9851 17.4942C10.8251 17.4942 9.66515 17.4942 8.50517 17.4942C7.52654 17.4942 6.55104 17.4942 5.57241 17.4942C4.87205 17.4942 4.16856 17.4942 3.4682 17.4942C3.14616 17.4942 2.82412 17.4942 2.50207 17.4942C2.43329 17.4942 2.36763 17.4911 2.29884 17.4817C2.40828 17.4973 2.52083 17.5129 2.63026 17.5255C2.53334 17.5098 2.44267 17.4848 2.34887 17.4504C2.44892 17.4911 2.54897 17.5348 2.64902 17.5755C2.54897 17.5317 2.45517 17.4786 2.36763 17.416C2.45205 17.4817 2.53647 17.5473 2.62089 17.613C2.53647 17.5442 2.46143 17.4692 2.39264 17.3848C2.4583 17.4692 2.52396 17.5536 2.58962 17.638C2.52396 17.5505 2.47081 17.4567 2.43016 17.3566C2.47081 17.4567 2.51458 17.5567 2.55523 17.6568C2.52083 17.5661 2.49582 17.4723 2.48019 17.3754C2.49582 17.4848 2.51145 17.5974 2.52396 17.7068C2.50207 17.5286 2.51145 17.3441 2.51145 17.1659C2.51145 16.8032 2.51145 16.4436 2.51145 16.081C2.51145 14.8741 2.51145 13.6641 2.51145 12.4572C2.51145 10.9877 2.51145 9.52132 2.51145 8.05181C2.51145 6.79179 2.51145 5.53176 2.51145 4.27174C2.51145 3.67455 2.5052 3.07737 2.51145 2.48019C2.51145 2.41765 2.51458 2.35512 2.52396 2.29259C2.50833 2.40202 2.49269 2.51458 2.48019 2.62401C2.49582 2.52709 2.52083 2.43641 2.55523 2.34262C2.51458 2.44267 2.47081 2.54272 2.43016 2.64277C2.47393 2.54272 2.52709 2.44892 2.58962 2.36138C2.52396 2.44579 2.4583 2.53021 2.39264 2.61463C2.46143 2.53021 2.53647 2.45517 2.62089 2.38639C2.53647 2.45205 2.45205 2.51771 2.36763 2.58337C2.45517 2.51771 2.54897 2.46455 2.64902 2.42391C2.54897 2.46455 2.44892 2.50833 2.34887 2.54897C2.43954 2.51458 2.53334 2.48957 2.63026 2.47393C2.52083 2.48957 2.40828 2.5052 2.29884 2.51771C2.56773 2.48331 2.85225 2.5052 3.12427 2.5052C3.74021 2.5052 4.35616 2.5052 4.9721 2.5052C5.89132 2.5052 6.81055 2.5052 7.72665 2.5052C8.8491 2.5052 9.97468 2.5052 11.0971 2.5052C12.3353 2.5052 13.5734 2.5052 14.8116 2.5052C16.056 2.5052 17.3003 2.5052 18.5447 2.5052C19.7047 2.5052 20.8647 2.5052 22.0247 2.5052C23.0033 2.5052 23.9788 2.5052 24.9574 2.5052C25.6578 2.5052 26.3613 2.5052 27.0616 2.5052C27.3837 2.5052 27.7057 2.5052 28.0278 2.5052C28.0965 2.5052 28.1622 2.50833 28.231 2.51771C28.1216 2.50207 28.009 2.48644 27.8996 2.47393C27.9965 2.48957 28.0872 2.51458 28.181 2.54897C28.0809 2.50833 27.9809 2.46455 27.8808 2.42391C27.9809 2.46768 28.0747 2.52083 28.1622 2.58337C28.0778 2.51771 27.9934 2.45205 27.9089 2.38639C27.9934 2.45517 28.0684 2.53021 28.1372 2.61463C28.0715 2.53021 28.0059 2.44579 27.9402 2.36138C28.0059 2.44892 28.059 2.54272 28.0997 2.64277C28.059 2.54272 28.0153 2.44267 27.9746 2.34262C28.009 2.43329 28.034 2.52709 28.0496 2.62401C28.034 2.51458 28.0184 2.40202 28.0059 2.29259C28.0121 2.34574 28.0153 2.40202 28.0184 2.46143C28.0246 2.7866 28.1528 3.11489 28.3842 3.34626C28.5999 3.562 28.9564 3.72771 29.269 3.71207C29.9381 3.68081 30.5322 3.16179 30.5197 2.46143C30.5072 1.81734 30.2664 1.22016 29.8256 0.751169C29.3878 0.282177 28.7719 0.0476809 28.1434 0.00390827C28.0747 -0.00234495 28.009 0.000781648 27.9402 0.000781648C27.6338 0.000781648 27.3243 0.000781648 27.0179 0.000781648C26.4551 0.000781648 25.8892 0.000781648 25.3264 0.000781648C24.5572 0.000781648 23.7881 0.000781648 23.0158 0.000781648C22.0997 0.000781648 21.1805 0.000781648 20.2644 0.000781648C19.2545 0.000781648 18.2477 0.000781648 17.2378 0.000781648C16.1998 0.000781648 15.1586 0.000781648 14.1206 0.000781648C13.095 0.000781648 12.0726 0.000781648 11.0471 0.000781648C10.0997 0.000781648 9.15238 0.000781648 8.20502 0.000781648C7.38897 0.000781648 6.57605 0.000781648 5.76001 0.000781648C5.13781 0.000781648 4.51249 0.000781648 3.89029 0.000781648C3.50884 0.000781648 3.12427 0.000781648 2.74282 0.000781648C2.66153 0.000781648 2.58024 0.000781648 2.49582 0.000781648C1.83923 0.00390826 1.22954 0.247784 0.751169 0.69489C0.254038 1.15763 0.00390826 1.83923 0.000781648 2.50833C0.000781648 2.63964 0.000781648 2.76784 0.000781648 2.89915C0.000781648 3.4807 0.000781648 4.06538 0.000781648 4.64693C0.000781648 5.53489 0.000781648 6.41972 0.000781648 7.30768C0.000781648 8.33634 0.000781648 9.36499 0.000781648 10.3905C0.000781648 11.3973 0.000781648 12.4072 0.000781648 13.414C0.000781648 14.2363 0.000781648 15.0617 0.000781648 15.884C0.000781648 16.3686 0.000781648 16.8564 0.000781648 17.341C0.000781648 17.4348 -0.00234496 17.5286 0.00390828 17.6224C0.0476809 18.2508 0.282177 18.8668 0.751169 19.3045C1.22016 19.7422 1.82047 19.9892 2.46143 19.9986C2.62401 20.0017 2.7866 19.9986 2.94605 19.9986C3.39316 19.9986 3.83714 19.9986 4.28424 19.9986C4.96272 19.9986 5.6412 19.9986 6.31967 19.9986C7.17324 19.9986 8.0268 19.9986 8.88037 19.9986C9.85275 19.9986 10.8251 19.9986 11.7944 19.9986C12.823 19.9986 13.8517 19.9986 14.8803 19.9986C15.9215 19.9986 16.9627 19.9986 18.0038 19.9986C18.995 19.9986 19.9861 19.9986 20.9772 19.9986C21.8621 19.9986 22.75 19.9986 23.6349 19.9986C24.3571 19.9986 25.0762 19.9986 25.7985 19.9986C26.305 19.9986 26.8146 19.9986 27.3211 19.9986C27.5556 19.9986 27.7901 19.9986 28.0246 19.9986C28.6844 19.9955 29.3441 19.7422 29.8068 19.2639C30.2727 18.7824 30.5134 18.1508 30.5134 17.4848C30.5134 17.1034 30.5134 16.725 30.5134 16.3436C30.5134 15.5838 30.5134 14.8209 30.5134 14.0612C30.5134 13.0825 30.5134 12.1008 30.5134 11.1221C30.5134 10.0841 30.5134 9.04608 30.5134 8.00804C30.5134 7.07318 30.5134 6.13833 30.5134 5.20659C30.5134 4.54063 30.5134 3.87153 30.5134 3.20556C30.5134 2.95856 30.5134 2.71156 30.5134 2.46768C30.5134 1.81422 29.9381 1.18577 29.2628 1.21703C28.5906 1.24205 28.0184 1.76107 28.0184 2.46143Z" fill="#1D2D4A"/>
<path d="M15.2617 14.7865C17.9071 14.7865 20.0516 12.6419 20.0516 9.99652C20.0516 7.35109 17.9071 5.20654 15.2617 5.20654C12.6162 5.20654 10.4717 7.35109 10.4717 9.99652C10.4717 12.6419 12.6162 14.7865 15.2617 14.7865Z" fill="#1D2D4A"/>
<path d="M19.1136 9.99652C19.1136 10.2154 19.098 10.4311 19.0699 10.6469C19.0824 10.5624 19.0918 10.4811 19.1043 10.3967C19.0449 10.8157 18.9354 11.2222 18.7728 11.613C18.8041 11.5379 18.8354 11.4629 18.8666 11.3879C18.7478 11.6661 18.604 11.9319 18.4352 12.1851C18.3945 12.2477 18.3507 12.3071 18.3038 12.3696C18.2069 12.5009 18.3633 12.3102 18.3633 12.2946C18.3633 12.3102 18.2976 12.379 18.2851 12.3915C18.1882 12.5072 18.0881 12.6166 17.9818 12.7229C17.8755 12.8292 17.7661 12.9293 17.6504 13.0262C17.6254 13.0481 17.5972 13.07 17.5722 13.0919C17.4878 13.1607 17.7661 12.948 17.6473 13.0325C17.5816 13.0794 17.5159 13.1294 17.4472 13.1732C17.197 13.342 16.9281 13.4858 16.6499 13.6046C16.7249 13.5734 16.7999 13.5421 16.875 13.5108C16.4842 13.6734 16.0777 13.786 15.6587 13.8423C15.7432 13.8297 15.8244 13.8204 15.9089 13.8079C15.4774 13.8641 15.0397 13.8641 14.6082 13.8079C14.6926 13.8204 14.7739 13.8297 14.8583 13.8423C14.4394 13.7828 14.0329 13.6734 13.6421 13.5108C13.7171 13.5421 13.7921 13.5734 13.8672 13.6046C13.5889 13.4858 13.3232 13.342 13.0699 13.1732C13.0074 13.1325 12.948 13.0887 12.8854 13.0418C12.7541 12.9449 12.9448 13.1012 12.9605 13.1012C12.9448 13.1012 12.876 13.0356 12.8635 13.0231C12.7479 12.9262 12.6384 12.8261 12.5321 12.7198C12.4258 12.6135 12.3258 12.5041 12.2288 12.3884C12.207 12.3634 12.1851 12.3352 12.1632 12.3102C12.0944 12.2258 12.307 12.5041 12.2226 12.3853C12.1757 12.3196 12.1257 12.2539 12.0819 12.1851C11.913 11.935 11.7692 11.6661 11.6504 11.3879C11.6817 11.4629 11.7129 11.5379 11.7442 11.613C11.5816 11.2222 11.4691 10.8157 11.4128 10.3967C11.4253 10.4811 11.4347 10.5624 11.4472 10.6469C11.3909 10.2154 11.3909 9.77765 11.4472 9.34618C11.4347 9.4306 11.4253 9.51189 11.4128 9.59631C11.4722 9.17734 11.5816 8.77088 11.7442 8.38006C11.7129 8.4551 11.6817 8.53013 11.6504 8.60517C11.7692 8.3269 11.913 8.06114 12.0819 7.80789C12.1225 7.74535 12.1663 7.68595 12.2132 7.62342C12.3101 7.4921 12.1538 7.68282 12.1538 7.69845C12.1538 7.68282 12.2195 7.61404 12.232 7.60153C12.3289 7.48584 12.4289 7.37641 12.5352 7.27011C12.6416 7.1638 12.751 7.06375 12.8667 6.96683C12.8917 6.94494 12.9198 6.92305 12.9448 6.90117C13.0293 6.83238 12.751 7.04499 12.8698 6.96057C12.9355 6.91367 13.0011 6.86365 13.0699 6.81988C13.32 6.65104 13.5889 6.50721 13.8672 6.3884C13.7921 6.41967 13.7171 6.45094 13.6421 6.4822C14.0329 6.31962 14.4394 6.20706 14.8583 6.15078C14.7739 6.16329 14.6926 6.17267 14.6082 6.18517C15.0397 6.12889 15.4774 6.12889 15.9089 6.18517C15.8244 6.17267 15.7432 6.16329 15.6587 6.15078C16.0777 6.21019 16.4842 6.31962 16.875 6.4822C16.7999 6.45094 16.7249 6.41967 16.6499 6.3884C16.9281 6.50721 17.1939 6.65104 17.4472 6.81988C17.5097 6.86052 17.5691 6.90429 17.6316 6.95119C17.7629 7.04812 17.5722 6.89179 17.5566 6.89179C17.5722 6.89179 17.641 6.95745 17.6535 6.96995C17.7692 7.06688 17.8786 7.16693 17.9849 7.27323C18.0912 7.37954 18.1913 7.48897 18.2882 7.60466C18.3101 7.62967 18.332 7.65781 18.3539 7.68282C18.4227 7.76724 18.2101 7.48897 18.2945 7.60778C18.3414 7.67344 18.3914 7.7391 18.4352 7.80789C18.604 8.05802 18.7478 8.3269 18.8666 8.60517C18.8354 8.53013 18.8041 8.4551 18.7728 8.38006C18.9354 8.77088 19.048 9.17734 19.1043 9.59631C19.0918 9.51189 19.0824 9.4306 19.0699 9.34618C19.098 9.56192 19.1136 9.77765 19.1136 9.99652C19.1168 10.4874 19.542 10.9564 20.0516 10.9345C20.5581 10.9126 20.9927 10.5218 20.9896 9.99652C20.9834 8.8428 20.6394 7.66719 19.961 6.72608C19.2512 5.74119 18.3038 5.01269 17.1626 4.59373C14.9865 3.79331 12.3664 4.50305 10.8938 6.2946C10.109 7.24822 9.64625 8.37068 9.5462 9.60569C9.4524 10.7625 9.75256 11.9694 10.356 12.9605C10.9313 13.9079 11.7974 14.7146 12.8073 15.1742C13.961 15.6995 15.2054 15.8495 16.4529 15.6025C18.6822 15.1586 20.5519 13.2388 20.8989 10.9845C20.949 10.6562 20.9865 10.3311 20.9896 9.99964C20.9927 9.50877 20.5581 9.03977 20.0516 9.06166C19.542 9.08042 19.1168 9.47125 19.1136 9.99652Z" fill="#1D2D4A"/>
<path d="M5.96933 2.20807C5.96933 4.28101 4.29034 5.96313 2.21739 5.96313C1.88597 5.96313 1.56706 5.92248 1.25439 5.84119V2.46132C1.25439 1.79223 1.7953 1.24194 2.46439 1.24194H5.84114C5.92556 1.5546 5.96933 1.87665 5.96933 2.20807Z" fill="#1D2D4A"/>
<path d="M5.03168 2.21109C5.03168 2.38618 5.01917 2.55814 4.99729 2.7301C5.00979 2.64569 5.01917 2.56439 5.03168 2.47998C4.98478 2.80202 4.90036 3.11155 4.7753 3.41171C4.80656 3.33667 4.83783 3.26163 4.8691 3.18659C4.77842 3.40233 4.66899 3.60868 4.53767 3.80253C4.50328 3.85256 4.46889 3.90258 4.43137 3.95261C4.32506 4.10269 4.57207 3.78377 4.45326 3.92447C4.37509 4.01827 4.2938 4.10894 4.20625 4.19649C4.12496 4.27778 4.03742 4.35594 3.94987 4.43098C3.94049 4.43724 3.89672 4.48414 3.88734 4.48414C3.88734 4.48414 4.08432 4.33718 3.98114 4.41222C3.93111 4.44662 3.88108 4.48414 3.83106 4.51853C3.63096 4.65297 3.41835 4.76553 3.19636 4.85933C3.2714 4.82806 3.34643 4.7968 3.42147 4.76553C3.12132 4.89059 2.81178 4.97501 2.48974 5.02191C2.57416 5.00941 2.65545 5.00003 2.73987 4.98752C2.39282 5.03442 2.04889 5.03129 1.70183 4.98752C1.78625 5.00003 1.86755 5.00941 1.95196 5.02191C1.80189 5.00003 1.65494 4.97189 1.50798 4.93437C1.73623 5.23452 1.9676 5.5378 2.19584 5.83796C2.19584 4.83119 2.19584 3.82442 2.19584 2.81765C2.19584 2.64256 2.18646 2.46122 2.20835 2.28613C2.19584 2.37054 2.18646 2.45184 2.17395 2.53626C2.18959 2.43933 2.2146 2.34866 2.24899 2.25486C2.21773 2.3299 2.18646 2.40494 2.15519 2.47998C2.18333 2.41119 2.22085 2.34553 2.25837 2.27987C2.34592 2.12979 2.20209 2.36429 2.19584 2.35491C2.19271 2.35178 2.274 2.27049 2.27713 2.26424C2.30214 2.23923 2.32716 2.22047 2.35217 2.19545C2.42721 2.12042 2.15207 2.3299 2.274 2.25799C2.34592 2.21734 2.4147 2.17669 2.48974 2.14543C2.4147 2.17669 2.33966 2.20796 2.26463 2.23923C2.3553 2.20483 2.4491 2.17982 2.54602 2.16419C2.4616 2.17669 2.38031 2.18607 2.29589 2.19858C2.69922 2.14855 3.12757 2.18607 3.53403 2.18607C4.15623 2.18607 4.78155 2.18607 5.40375 2.18607C5.5507 2.18607 5.69765 2.18607 5.84773 2.18607C5.54757 1.95783 5.24429 1.72646 4.94413 1.49822C4.98165 1.64517 5.00979 1.79212 5.03168 1.9422C5.01917 1.85778 5.00979 1.77649 4.99729 1.69207C5.01917 1.86403 5.02855 2.03912 5.03168 2.21109C5.03481 2.70197 5.46003 3.17096 5.96966 3.14907C6.47618 3.12718 6.91077 2.73636 6.90765 2.21109C6.90452 1.80463 6.85137 1.39504 6.74819 1.00109C6.64501 0.604008 6.25106 0.313232 5.8446 0.313232C4.74716 0.313232 3.64972 0.313232 2.55227 0.313232C2.04576 0.313232 1.56739 0.450803 1.16406 0.763465C0.626279 1.17618 0.326124 1.79525 0.316744 2.47372C0.310491 3.01775 0.316744 3.55866 0.316744 4.10269C0.316744 4.68111 0.316744 5.25954 0.316744 5.83796C0.316744 6.24442 0.607519 6.6415 1.0046 6.74155C2.18021 7.04483 3.43085 6.89475 4.4939 6.31008C5.41313 5.80669 6.12912 4.98127 6.53558 4.0214C6.77946 3.4461 6.90452 2.83641 6.90765 2.20796C6.91077 1.71708 6.47305 1.24809 5.96966 1.26998C5.4569 1.29499 5.03481 1.68582 5.03168 2.21109Z" fill="#1D2D4A"/>
<path d="M5.96933 17.7849C5.96933 18.1163 5.92556 18.4384 5.84427 18.751H2.46752C1.7953 18.751 1.25439 18.2007 1.25439 17.5316V14.1549C1.56706 14.0736 1.88284 14.033 2.21739 14.033C4.28721 14.033 5.96933 15.7119 5.96933 17.7849Z" fill="#1D2D4A"/>
<path d="M5.03183 17.7818C5.03183 17.9569 5.01932 18.1288 4.99744 18.3008C5.00994 18.2164 5.01932 18.1351 5.03183 18.0507C5.00994 18.2007 4.9818 18.3477 4.94428 18.4946C5.24444 18.2664 5.54772 18.035 5.84788 17.8068C4.84111 17.8068 3.83434 17.8068 2.82757 17.8068C2.65248 17.8068 2.47113 17.8162 2.29604 17.7943C2.38046 17.8068 2.46175 17.8162 2.54617 17.8287C2.44925 17.813 2.35857 17.788 2.26478 17.7536C2.33981 17.7849 2.41485 17.8162 2.48989 17.8474C2.42111 17.8193 2.35545 17.7818 2.28979 17.7443C2.13971 17.6567 2.37421 17.8005 2.36483 17.8068C2.3617 17.8099 2.28041 17.7286 2.27416 17.7255C2.24914 17.7005 2.23038 17.6755 2.20537 17.6505C2.13033 17.5754 2.33981 17.8506 2.2679 17.7286C2.22726 17.6567 2.18661 17.5879 2.15534 17.5129C2.18661 17.5879 2.21788 17.663 2.24914 17.738C2.21475 17.6473 2.18974 17.5535 2.1741 17.4566C2.18661 17.541 2.19599 17.6223 2.2085 17.7067C2.15847 17.3034 2.19599 16.8751 2.19599 16.4717C2.19599 15.8495 2.19599 15.2242 2.19599 14.602C2.19599 14.4551 2.19599 14.3081 2.19599 14.158C1.96775 14.4582 1.73638 14.7615 1.50813 15.0616C1.65509 15.0241 1.80204 14.996 1.95211 14.9741C1.8677 14.9866 1.7864 14.996 1.70199 15.0085C2.04904 14.9647 2.39609 14.9616 2.74002 15.0085C2.6556 14.996 2.57431 14.9866 2.48989 14.9741C2.81193 15.021 3.12147 15.1054 3.42162 15.2305C3.34658 15.1992 3.27155 15.1679 3.19651 15.1367C3.41224 15.2273 3.6186 15.3368 3.81245 15.4681C3.86248 15.5025 3.9125 15.5369 3.96253 15.5744C4.11261 15.6807 3.79369 15.4337 3.93439 15.5525C4.02819 15.6307 4.11886 15.712 4.2064 15.7995C4.2877 15.8808 4.36586 15.9683 4.4409 16.0559C4.44715 16.0653 4.49405 16.109 4.49405 16.1184C4.49405 16.1184 4.3471 15.9214 4.42214 16.0246C4.45653 16.0746 4.49405 16.1247 4.52844 16.1747C4.66289 16.3748 4.77545 16.5874 4.86925 16.8094C4.83798 16.7344 4.80671 16.6593 4.77545 16.5843C4.90051 16.8844 4.98493 17.194 5.03183 17.516C5.01932 17.4316 5.00994 17.3503 4.99744 17.2659C5.01932 17.4347 5.0287 17.6067 5.03183 17.7818C5.03496 18.2727 5.46018 18.7416 5.96981 18.7198C6.47633 18.6979 6.91093 18.307 6.9078 17.7818C6.90155 16.6531 6.49509 15.6057 5.78222 14.7365C5.14751 13.9642 4.19702 13.3983 3.21839 13.1982C2.48364 13.0481 1.73638 13.0606 1.00788 13.2482C0.60767 13.3514 0.316895 13.7484 0.316895 14.1549C0.316895 15.2523 0.316895 16.3498 0.316895 17.4472C0.316895 17.9537 0.454466 18.4321 0.767127 18.8354C1.18297 19.3732 1.80204 19.6734 2.48051 19.6828C3.02454 19.689 3.56545 19.6828 4.10948 19.6828C4.6879 19.6828 5.26633 19.6828 5.84475 19.6828C6.25121 19.6828 6.64829 19.392 6.74834 18.9949C6.84839 18.6009 6.90467 18.1914 6.9078 17.7849C6.91093 17.294 6.4732 16.825 5.96981 16.8469C5.45705 16.8657 5.03496 17.2565 5.03183 17.7818Z" fill="#1D2D4A"/>
<path d="M29.2691 2.46132V5.83807C28.9565 5.91936 28.6407 5.96313 28.3061 5.96313C26.2332 5.96313 24.5542 4.27789 24.5542 2.20807C24.5542 1.87665 24.598 1.5546 24.6793 1.24194H28.056C28.7282 1.24194 29.2691 1.79223 29.2691 2.46132Z" fill="#1D2D4A"/>
<path d="M28.3311 2.46139C28.3311 3.44628 28.3311 4.43116 28.3311 5.41917C28.3311 5.55987 28.3311 5.70057 28.3311 5.84126C28.5594 5.54111 28.7908 5.23783 29.019 4.93767C28.8721 4.97519 28.7251 5.00333 28.575 5.02522C28.6594 5.01271 28.7407 5.00333 28.8252 4.99082C28.4781 5.0346 28.131 5.03772 27.7871 4.99082C27.8715 5.00333 27.9528 5.01271 28.0372 5.02522C27.7152 4.97832 27.4057 4.8939 27.1055 4.76883C27.1806 4.8001 27.2556 4.83137 27.3306 4.86263C27.1149 4.77196 26.9085 4.66253 26.7147 4.53121C26.6647 4.49682 26.6146 4.46243 26.5646 4.42491C26.4145 4.3186 26.7334 4.5656 26.5928 4.44679C26.499 4.36863 26.4083 4.28734 26.3207 4.19979C26.2394 4.1185 26.1613 4.03095 26.0862 3.94341C26.08 3.93403 26.0331 3.89025 26.0331 3.88088C26.0331 3.88088 26.18 4.07785 26.105 3.97467C26.0706 3.92465 26.0331 3.87462 25.9987 3.8246C25.8642 3.62449 25.7517 3.41188 25.6579 3.18989C25.6892 3.26493 25.7204 3.33997 25.7517 3.41501C25.6266 3.11485 25.5422 2.80532 25.4953 2.48328C25.5078 2.5677 25.5172 2.64899 25.5297 2.73341C25.4828 2.38635 25.4859 2.04243 25.5297 1.69537C25.5172 1.77979 25.5078 1.86108 25.4953 1.9455C25.5172 1.79542 25.5453 1.64847 25.5829 1.50152C25.2827 1.72976 24.9794 1.96113 24.6793 2.18938C25.686 2.18938 26.6928 2.18938 27.6996 2.18938C27.8747 2.18938 28.056 2.18 28.2311 2.20188C28.1467 2.18938 28.0654 2.18 27.981 2.16749C28.0779 2.18312 28.1686 2.20814 28.2624 2.24253C28.1873 2.21126 28.1123 2.18 28.0372 2.14873C28.106 2.17687 28.1717 2.21439 28.2374 2.25191C28.3874 2.33945 28.1529 2.19563 28.1623 2.18938C28.1654 2.18625 28.2467 2.26754 28.253 2.27067C28.278 2.29568 28.2968 2.32069 28.3218 2.34571C28.3968 2.42075 28.1873 2.1456 28.2592 2.26754C28.2999 2.33945 28.3405 2.40824 28.3718 2.48328C28.3405 2.40824 28.3093 2.3332 28.278 2.25816C28.3124 2.34883 28.3374 2.44263 28.353 2.53956C28.3405 2.45514 28.3311 2.37385 28.3186 2.28943C28.3249 2.34571 28.328 2.40199 28.3311 2.46139C28.3405 2.95227 28.7564 3.42126 29.2691 3.39938C29.7694 3.37749 30.2165 2.98666 30.2071 2.46139C30.1915 1.5109 29.5849 0.697981 28.6813 0.404079C28.3687 0.300901 28.0404 0.310281 27.7183 0.310281C26.9336 0.310281 26.1456 0.310281 25.3609 0.310281C25.1326 0.310281 24.9075 0.310281 24.6793 0.310281C24.2728 0.310281 23.8757 0.601056 23.7757 0.998136C23.4536 2.25504 23.6412 3.64013 24.3541 4.73444C24.9982 5.71933 25.9924 6.46659 27.1399 6.75423C27.9184 6.95121 28.7376 6.94183 29.5161 6.74173C29.9132 6.63855 30.204 6.2446 30.204 5.83814C30.204 4.85325 30.204 3.86837 30.204 2.88036C30.204 2.73966 30.204 2.59896 30.204 2.45827C30.204 1.96739 29.7725 1.49839 29.266 1.52028C28.7595 1.54529 28.3311 1.93612 28.3311 2.46139Z" fill="#1D2D4A"/>
<path d="M29.2689 14.1548V17.5316C29.2689 18.2007 28.728 18.751 28.0589 18.751H24.6822C24.6009 18.4383 24.5571 18.1163 24.5571 17.7849C24.5571 15.7119 26.2361 14.0298 28.3091 14.0298C28.6405 14.0329 28.9563 14.0736 29.2689 14.1548Z" fill="#1D2D4A"/>
<path d="M28.3311 14.1548C28.3311 15.1616 28.3311 16.1683 28.3311 17.1751C28.3311 17.3502 28.3404 17.5315 28.3186 17.7066C28.3311 17.6222 28.3404 17.5409 28.353 17.4565C28.3373 17.5534 28.3123 17.6441 28.2779 17.7379C28.3092 17.6629 28.3404 17.5878 28.3717 17.5128C28.3436 17.5816 28.3061 17.6472 28.2685 17.7129C28.181 17.863 28.3248 17.6285 28.3311 17.6379C28.3342 17.641 28.2529 17.7223 28.2498 17.7285C28.2248 17.7535 28.1997 17.7723 28.1747 17.7973C28.0997 17.8723 28.3748 17.6629 28.2529 17.7348C28.181 17.7754 28.1122 17.8161 28.0372 17.8473C28.1122 17.8161 28.1872 17.7848 28.2623 17.7535C28.1716 17.7879 28.0778 17.8129 27.9809 17.8286C28.0653 17.8161 28.1466 17.8067 28.231 17.7942C27.8277 17.8442 27.3993 17.8067 26.9929 17.8067C26.3707 17.8067 25.7454 17.8067 25.1232 17.8067C24.9762 17.8067 24.8293 17.8067 24.6792 17.8067C24.9793 18.0349 25.2826 18.2663 25.5828 18.4945C25.5452 18.3476 25.5171 18.2006 25.4952 18.0506C25.5077 18.135 25.5171 18.2163 25.5296 18.3007C25.4858 17.9536 25.4827 17.6066 25.5296 17.2627C25.5171 17.3471 25.5077 17.4284 25.4952 17.5128C25.5421 17.1907 25.6265 16.8812 25.7516 16.5811C25.7203 16.6561 25.6891 16.7311 25.6578 16.8062C25.7485 16.5904 25.8579 16.3841 25.9892 16.1902C26.0236 16.1402 26.058 16.0902 26.0955 16.0401C26.2018 15.8901 25.9548 16.209 26.0736 16.0683C26.1518 15.9745 26.2331 15.8838 26.3207 15.7963C26.4019 15.715 26.4895 15.6368 26.577 15.5618C26.5864 15.5555 26.6302 15.5086 26.6396 15.5086C26.6396 15.5086 26.4426 15.6556 26.5458 15.5805C26.5958 15.5461 26.6458 15.5086 26.6958 15.4742C26.8959 15.3398 27.1086 15.2272 27.3305 15.1334C27.2555 15.1647 27.1805 15.196 27.1054 15.2272C27.4056 15.1022 27.7151 15.0177 28.0372 14.9708C27.9527 14.9834 27.8714 14.9927 27.787 15.0052C28.1341 14.9583 28.478 14.9615 28.8251 15.0052C28.7406 14.9927 28.6594 14.9834 28.5749 14.9708C28.725 14.9927 28.872 15.0209 29.0189 15.0584C29.4942 15.1803 30.0601 14.9021 30.1726 14.4018C30.2852 13.9141 30.0257 13.3794 29.5161 13.2481C28.2623 12.926 26.8741 13.1136 25.7797 13.8265C24.7949 14.4706 24.0476 15.4649 23.76 16.6123C23.563 17.3908 23.5724 18.21 23.7725 18.9885C23.8756 19.3856 24.2696 19.6764 24.676 19.6764C25.7735 19.6764 26.8709 19.6764 27.9684 19.6764C28.4749 19.6764 28.9533 19.5388 29.3566 19.2262C29.8944 18.8103 30.1945 18.1913 30.2039 17.5128C30.2102 16.9688 30.2039 16.4278 30.2039 15.8838C30.2039 15.3054 30.2039 14.727 30.2039 14.1485C30.2039 13.6577 29.7724 13.1887 29.2659 13.2106C28.7594 13.2387 28.3311 13.6295 28.3311 14.1548Z" fill="#1D2D4A"/>
</svg>
