<svg width="67" height="20" viewBox="0 0 67 20" fill="none" xmlns="http://www.w3.org/2000/svg">
<path fill-rule="evenodd" clip-rule="evenodd" d="M10.5926 2.16923C11.1167 2.1661 12.6744 2.02581 13.3341 4.25261C13.7786 5.75261 14.4866 8.20968 15.4581 11.6238H15.8537C16.8956 8.0244 17.6113 5.56733 18.0008 4.25261C18.6675 2.00261 20.3341 2.16928 21.0008 2.16928L26.1443 2.16929V18.1692H20.9019V8.7402H20.5504L17.628 18.1692H13.6838L10.7614 8.73321H10.4099V18.1692H5.16748V2.16929L10.5926 2.16923ZM33.6723 2.16929V11.6053H34.0905L37.6453 3.84614C38.3353 2.30204 39.806 2.16929 39.806 2.16929H44.8791V18.1693H39.5272V8.73321H39.109L35.6239 16.4924C34.9339 18.0295 33.3935 18.1693 33.3935 18.1693H28.3204V2.16929H33.6723ZM63.3776 9.77259C62.631 11.8881 60.2866 13.4031 57.6911 13.4031H52.0786V18.1693H46.9892V9.77259H63.3776Z" fill="#1D2D4A"/>
<path fill-rule="evenodd" clip-rule="evenodd" d="M57.9363 2.16895H46.7222C46.9891 5.73109 50.0567 8.78051 53.2323 8.78051H63.731C64.3368 5.81995 62.2512 2.16895 57.9363 2.16895Z" fill="#1D2D4A"/>
</svg>
