<svg width="27" height="20" viewBox="0 0 27 20" fill="none" xmlns="http://www.w3.org/2000/svg">
<path d="M0 8.7395V17.0028C0 18.6555 1.34454 20 2.9972 20H23.6135C25.2661 20 26.6107 18.6555 26.6107 17.0028V8.7395H0ZM7.78712 15.4622C7.78712 16.0504 7.31093 16.4986 6.75071 16.4986H4.53782C3.94958 16.4986 3.5014 16.0224 3.5014 15.4622V13.2493C3.5014 12.6611 3.97759 12.2129 4.53782 12.2129H6.75071C7.33894 12.2129 7.78712 12.6891 7.78712 13.2493V15.4622Z" fill="#1D2D4A"/>
<path d="M26.6107 4.90196V2.9972C26.6107 1.34454 25.2661 0 23.6135 0H2.9972C1.34454 0 0 1.34454 0 2.9972V4.90196H26.6107Z" fill="#1D2D4A"/>
</svg>
