<svg width="39" height="20" viewBox="0 0 39 20" fill="none" xmlns="http://www.w3.org/2000/svg">
<g clip-path="url(#clip0)">
<path d="M38.1824 6.54206C37.9661 6.8972 37.6454 7.02056 37.239 7.00561C36.6014 6.98692 35.9601 6.99813 35.3187 7.00187C35.1547 7.00187 35.013 6.96449 34.9086 6.82617C34.0286 5.6785 32.9063 4.82991 31.6683 4.11589C29.8972 3.1028 27.9918 2.42991 26.0194 1.94019C24.0618 1.45421 22.0707 1.18505 20.0572 1.0729C18.2749 0.975701 16.4963 1.01308 14.7177 1.18131C12.5028 1.39439 10.3327 1.80561 8.21857 2.50467C6.38778 3.11028 4.64648 3.9028 3.09535 5.0729C2.53604 5.49533 2.02148 5.95888 1.57031 6.49346C1.51811 6.55327 1.39879 6.63178 1.46591 6.7028C1.55167 6.79252 1.66726 6.70654 1.7381 6.62804C1.9581 6.39252 2.19673 6.17196 2.44283 5.96262C3.61737 4.97196 4.95597 4.2729 6.37287 3.71589C8.22603 2.98692 10.15 2.54206 12.1188 2.28037C13.8974 2.04112 15.6797 1.96262 17.4732 2.03364C20.0012 2.13458 22.4883 2.50841 24.9045 3.29346C26.5973 3.84299 28.2044 4.56822 29.6325 5.65607C29.8636 5.83178 30.0799 6.02991 30.3036 6.21682C30.4565 6.34392 30.5124 6.50841 30.4528 6.7028C30.3968 6.88224 30.2365 6.99439 30.024 6.99813C29.7742 7.00561 29.5281 6.99813 29.2782 7.00187C29.1403 7.00187 29.0247 6.95327 28.9277 6.85607C27.5854 5.45794 25.9112 4.60187 24.1215 3.94766C22.2683 3.27103 20.3517 2.88598 18.3942 2.68411C16.7461 2.51215 15.098 2.4785 13.4462 2.58692C10.8175 2.76262 8.25213 3.24112 5.80611 4.26168C4.44514 4.82991 3.16992 5.54766 2.10352 6.58692C1.32422 7.34579 0.720171 8.2243 0.526278 9.32336C0.306286 10.5645 0.66424 11.6636 1.40625 12.6542C2.18555 13.6972 3.21094 14.4449 4.337 15.0654C6.17152 16.0748 8.15146 16.6729 10.2022 17.0542C12.0778 17.4019 13.9682 17.5477 15.8736 17.5103C18.8491 17.4505 21.7575 17.0093 24.5465 15.9327C25.8031 15.4467 26.9925 14.8336 28.0552 13.9888C28.3386 13.7645 28.6071 13.5252 28.8569 13.2598C28.965 13.1439 29.0918 13.0841 29.2521 13.0841C29.4833 13.0878 29.7108 13.0841 29.9419 13.0841C30.188 13.0878 30.3372 13.185 30.408 13.3832C30.4789 13.5888 30.3931 13.7383 30.244 13.8766C29.1664 14.8449 27.9284 15.5439 26.6048 16.1084C24.8262 16.8673 22.9656 17.3458 21.0602 17.6486C19.043 17.9701 17.0108 18.0785 14.9712 17.9963C12.4469 17.8953 9.96733 17.5178 7.55859 16.7364C5.84712 16.1869 4.22887 15.4542 2.79705 14.3514C2.43537 14.0748 2.09606 13.7757 1.78658 13.443C1.7642 13.4206 1.74556 13.3944 1.71946 13.3794C1.64862 13.3346 1.55913 13.2561 1.48828 13.3308C1.40998 13.4131 1.52184 13.4729 1.57031 13.5252C2.48384 14.5944 3.60618 15.3981 4.83292 16.0673C6.89116 17.1925 9.09855 17.8878 11.3842 18.3551C13.916 18.871 16.4739 19.0617 19.0542 18.9981C21.8917 18.9271 24.6808 18.5383 27.4027 17.7159C29.2671 17.1514 31.0456 16.4037 32.6602 15.2935C33.4842 14.729 34.2337 14.0785 34.8526 13.286C34.9645 13.1402 35.1025 13.0804 35.2852 13.0804C35.9116 13.0841 36.5417 13.0991 37.1682 13.0766C37.638 13.0579 37.9885 13.2037 38.1898 13.6449C38.1898 13.7944 38.1898 13.9439 38.1898 14.0935C38.0481 14.3065 37.8729 14.486 37.6902 14.6617C36.3963 15.8841 34.8862 16.7776 33.2717 17.4916C29.9196 18.9682 26.3885 19.6635 22.7568 19.929C22.533 19.9439 22.3018 19.914 22.0856 20C20.6687 20 19.2518 20 17.8349 20C17.8088 19.9327 17.7491 19.9626 17.7081 19.9589C17.3315 19.929 16.9512 19.9103 16.5746 19.8766C14.975 19.7346 13.3865 19.4991 11.8168 19.1439C9.41548 18.5981 7.09997 17.8206 4.95224 16.5944C3.60618 15.8243 2.37571 14.9047 1.40252 13.6785C0.69407 12.7813 0.205611 11.7794 0.0564631 10.6318C0.0527344 10.5981 0.0639205 10.5533 0.0117188 10.5421C0.0117188 10.1944 0.0117188 9.84299 0.0117188 9.49533C0.0713779 9.47663 0.0527344 9.4243 0.0564631 9.38692C0.164595 8.58692 0.43679 7.84299 0.850675 7.15514C1.48828 6.09346 2.34961 5.24112 3.33026 4.50093C4.72106 3.45047 6.26101 2.68037 7.87926 2.06355C11.2351 0.785047 14.7326 0.205607 18.3121 0.0411215C18.3979 0.0373832 18.4949 0.0785047 18.5694 0C19.5016 0 20.4338 0 21.3659 0C21.3846 0.0598131 21.4368 0.0373832 21.4778 0.0411215C22.0558 0.0560748 22.63 0.0971963 23.2042 0.142056C25.2102 0.299065 27.1939 0.616822 29.144 1.1215C31.37 1.70093 33.5103 2.49346 35.4791 3.70467C36.4783 4.31776 37.4105 5.01308 38.1824 5.90654C38.1824 6.11963 38.1824 6.32897 38.1824 6.54206Z" fill="#1D2D4A"/>
<path d="M3.95982 10.0261C3.95982 9.45785 3.96728 8.89337 3.95609 8.32514C3.95236 8.16813 4.00829 8.13823 4.14625 8.1457C4.47438 8.1644 4.66827 8.32141 4.73912 8.65785C4.79505 8.93075 4.76149 9.20365 4.76895 9.47654C4.7764 9.69711 4.79877 9.72327 5.01877 9.72701C5.16046 9.72701 5.30588 9.72701 5.44757 9.72701C5.57061 9.72701 5.63027 9.66346 5.634 9.54383C5.634 9.46159 5.634 9.38309 5.634 9.30084C5.64519 8.64664 6.15229 8.12701 6.80108 8.10832C6.9987 8.10084 7.20005 8.10458 7.39767 8.10832C8.0502 8.12701 8.57221 8.65038 8.57967 9.30832C8.5834 9.76439 8.57967 10.2167 8.57967 10.6728C8.57967 11.3532 8.11358 11.8728 7.43869 11.9401C7.20005 11.9625 6.95396 11.9625 6.71532 11.9326C6.10009 11.8541 5.63773 11.3307 5.634 10.7065C5.634 10.355 5.62654 10.3513 5.27978 10.3476C4.71674 10.3438 4.76895 10.3214 4.76895 10.8635C4.76895 11.1625 4.76522 11.4616 4.77267 11.7607C4.7764 11.8653 4.74284 11.9027 4.63471 11.899C4.46692 11.8915 4.29913 11.8878 4.13134 11.899C3.99338 11.9102 3.94863 11.8691 3.95236 11.7233C3.96355 11.1588 3.95982 10.5943 3.95982 10.0261ZM6.40584 10.0149C6.40584 10.2279 6.40584 10.4373 6.40584 10.6504C6.40584 11.0803 6.65566 11.3307 7.08446 11.3307C7.55428 11.3307 7.81529 11.0878 7.81529 10.6392C7.81529 10.2579 7.81529 9.88028 7.81529 9.49897C7.81529 8.94944 7.58038 8.71393 7.03599 8.7214C6.67058 8.72514 6.40957 8.99056 6.40584 9.36066C6.40211 9.57748 6.40584 9.7943 6.40584 10.0149Z" fill="#1D2D4A"/>
<path d="M38.1334 10.0561C38.1334 10.6281 38.1297 11.2038 38.1372 11.7758C38.1372 11.8954 38.1073 11.9365 37.9806 11.9328C37.5741 11.9253 37.3318 11.6935 37.3206 11.2599C37.3131 10.7851 37.3206 10.3141 37.3168 9.8393C37.3168 9.74958 37.3429 9.6337 37.2162 9.61127C37.0969 9.58884 37.0633 9.69725 37.0297 9.78323C36.8396 10.2692 36.6457 10.7552 36.4667 11.2449C36.4182 11.3758 36.3548 11.4206 36.2243 11.4057C36.0416 11.387 35.8142 11.4804 35.6837 11.3683C35.5606 11.2673 35.5345 11.0505 35.4674 10.8823C35.322 10.5122 35.1766 10.1421 35.0312 9.77201C34.9976 9.68977 34.9678 9.59631 34.8559 9.61127C34.7366 9.62996 34.759 9.73463 34.7552 9.82061C34.7552 10.2804 34.7627 10.744 34.7515 11.2038C34.7441 11.6935 34.498 11.944 34.0729 11.9328C33.9759 11.929 33.9424 11.9066 33.9424 11.8057C33.9461 10.6393 33.9461 9.47669 33.9424 8.31033C33.9424 8.19818 33.9871 8.17575 34.0841 8.17949C34.3376 8.18697 34.5949 8.1907 34.8485 8.17949C35.0125 8.17201 35.0983 8.24304 35.1542 8.38883C35.3556 8.94584 35.5569 9.49912 35.762 10.0524C35.7955 10.1384 35.8254 10.2281 35.8627 10.3141C35.8999 10.3963 35.9149 10.5122 36.0305 10.5159C36.146 10.5159 36.1647 10.4038 36.202 10.3178C36.2654 10.1571 36.3287 9.99257 36.3884 9.83183C36.5562 9.37575 36.7165 8.91968 36.8843 8.4636C36.9887 8.17949 36.9925 8.18323 37.287 8.18323C37.5182 8.18323 37.7456 8.1907 37.9768 8.17949C38.0999 8.17575 38.1372 8.21687 38.1334 8.3365C38.1297 8.9122 38.1334 9.48416 38.1334 10.0561Z" fill="#1D2D4A"/>
<path d="M13.9417 10.0001C13.9417 9.43189 13.9454 8.8674 13.938 8.29918C13.938 8.1646 13.979 8.13095 14.1058 8.13843C14.4637 8.15712 14.68 8.32908 14.7247 8.68422C14.7807 9.14404 14.7359 9.60385 14.7471 10.0637C14.7508 10.1683 14.7471 10.2767 14.7471 10.3814C14.7471 10.4338 14.7546 10.4824 14.8142 10.501C14.8664 10.516 14.9149 10.4973 14.9485 10.4562C14.9783 10.4188 15.0081 10.3777 15.0342 10.3366C15.4966 9.65619 15.9589 8.97955 16.4176 8.29918C16.4772 8.20946 16.5406 8.17581 16.645 8.17955C16.8315 8.18703 17.0179 8.18703 17.2043 8.17955C17.3013 8.17581 17.3348 8.20946 17.3348 8.30665C17.3311 9.47301 17.3311 10.6356 17.3348 11.802C17.3348 11.8992 17.3087 11.9291 17.2118 11.9328C16.783 11.944 16.5294 11.6786 16.5257 11.1889C16.522 10.7328 16.5257 10.2805 16.522 9.82441C16.522 9.74964 16.5667 9.64497 16.4623 9.61133C16.3467 9.57021 16.302 9.67862 16.2498 9.75338C15.7874 10.4263 15.3251 11.0954 14.8664 11.7683C14.7993 11.8693 14.7285 11.9104 14.6092 11.9029C14.4414 11.8917 14.2736 11.8917 14.1058 11.9029C13.979 11.9104 13.938 11.873 13.938 11.7422C13.9454 11.159 13.9417 10.5796 13.9417 10.0001Z" fill="#1D2D4A"/>
<path d="M32.8946 10.0562C32.8946 10.6281 32.8908 11.2039 32.8983 11.7758C32.8983 11.8954 32.8685 11.9366 32.7454 11.9328C32.3726 11.9253 32.1265 11.7235 32.1116 11.3422C32.0892 10.8562 32.1004 10.3702 32.0966 9.88422C32.0966 9.83563 32.0966 9.78329 32.0966 9.73469C32.0929 9.67862 32.0892 9.6188 32.0183 9.60385C31.9587 9.59263 31.9102 9.61506 31.8729 9.66366C31.8356 9.716 31.8021 9.7646 31.7648 9.81693C31.3211 10.4637 30.8736 11.1067 30.4374 11.7571C30.3665 11.8618 30.2919 11.9067 30.1652 11.8992C29.9937 11.888 29.8184 11.8917 29.6432 11.8992C29.5425 11.9029 29.5015 11.873 29.5015 11.7646C29.5052 10.5982 29.5052 9.43563 29.5015 8.26927C29.5015 8.15712 29.5462 8.13843 29.6469 8.13843C30.057 8.13843 30.2994 8.38516 30.3069 8.83002C30.3143 9.316 30.3069 9.80198 30.3106 10.288C30.3106 10.3665 30.2808 10.4637 30.3777 10.501C30.4858 10.5422 30.5306 10.445 30.5791 10.3739C31.0414 9.69357 31.5038 9.01693 31.9624 8.33656C32.0407 8.21693 32.1265 8.17207 32.2644 8.17955C32.4248 8.19076 32.5888 8.19076 32.7492 8.17955C32.8759 8.17207 32.902 8.22067 32.902 8.3403C32.8908 8.91226 32.8946 9.48422 32.8946 10.0562Z" fill="#1D2D4A"/>
<path d="M12.9868 10.0597C12.9868 10.6317 12.9831 11.2074 12.9905 11.7793C12.9905 11.9064 12.9495 11.9364 12.8339 11.9326C12.4797 11.9214 12.2411 11.7195 12.2001 11.3494C12.174 11.1139 12.1814 10.8784 12.1814 10.6392C12.1814 10.4709 12.1218 10.3887 11.9391 10.3924C11.5028 10.3999 11.0703 10.3999 10.634 10.3924C10.4625 10.3887 10.4028 10.4635 10.4028 10.6279C10.4066 11.0018 10.3991 11.3756 10.4066 11.7494C10.4103 11.8653 10.3767 11.9027 10.2611 11.899C10.0859 11.8915 9.91437 11.8878 9.73913 11.899C9.59371 11.9102 9.58252 11.8429 9.58252 11.7233C9.58625 10.7214 9.58625 9.7158 9.58625 8.71393C9.58625 8.5644 9.58998 8.41486 9.58625 8.26533C9.58252 8.16813 9.61608 8.13823 9.71302 8.13449C10.0486 8.12701 10.2984 8.31767 10.3693 8.65038C10.4289 8.9158 10.4066 9.18496 10.4028 9.45038C10.3991 9.6186 10.4662 9.68589 10.634 9.68215C11.0703 9.67841 11.5028 9.67467 11.9391 9.68215C12.1218 9.68589 12.1814 9.60365 12.1777 9.43542C12.174 9.06907 12.1814 8.69897 12.174 8.33262C12.1702 8.20926 12.2075 8.16813 12.3306 8.17561C12.4984 8.18683 12.6661 8.18683 12.8339 8.17561C12.9607 8.16813 12.9905 8.22047 12.9868 8.33636C12.9831 8.91206 12.9868 9.48776 12.9868 10.0597Z" fill="#1D2D4A"/>
<path d="M25.5971 10.0412C25.5971 9.47302 25.5971 8.90853 25.5971 8.34031C25.5971 8.24311 25.5971 8.17956 25.7313 8.17956C26.3391 8.18703 26.9506 8.17208 27.5584 8.1833C28.2519 8.19825 28.6211 8.54591 28.6882 9.24124C28.7218 9.56274 28.6957 9.87675 28.5204 10.1609C28.3079 10.5048 27.9947 10.6842 27.5957 10.6954C27.2862 10.7029 26.973 10.7029 26.6635 10.6954C26.4883 10.6917 26.4137 10.7627 26.4174 10.9384C26.4211 11.2076 26.4137 11.473 26.4211 11.7422C26.4249 11.8581 26.3988 11.9141 26.2683 11.9029C26.0967 11.8917 25.9215 11.8917 25.7463 11.9029C25.612 11.9141 25.5934 11.8581 25.5971 11.7422C25.5971 11.174 25.5971 10.6057 25.5971 10.0412ZM26.4137 9.43189C26.4137 9.58143 26.4137 9.73096 26.4137 9.88049C26.4137 10.0076 26.4733 10.0824 26.6039 10.0824C26.9021 10.0824 27.2004 10.0898 27.4987 10.0786C27.7299 10.0711 27.8828 9.92909 27.9164 9.70105C27.9425 9.5104 27.9425 9.31601 27.9126 9.12535C27.8828 8.94217 27.7747 8.8375 27.592 8.81881C27.2564 8.78143 26.9245 8.80386 26.5889 8.80386C26.4808 8.80386 26.4211 8.87488 26.4211 8.98703C26.4137 9.13283 26.4137 9.28236 26.4137 9.43189Z" fill="#1D2D4A"/>
<path d="M19.0574 10.0374C19.0574 10.2879 19.0537 10.5346 19.0574 10.7851C19.0611 11.1065 19.2289 11.2785 19.5533 11.2822C19.833 11.286 20.1126 11.2785 20.3923 11.286C20.6831 11.2935 20.9143 11.4841 20.9851 11.7645C21.0112 11.8579 20.9963 11.8991 20.8845 11.8991C20.3624 11.8953 19.8404 11.9103 19.3184 11.8916C18.7479 11.8729 18.252 11.3533 18.2408 10.7738C18.2296 10.2804 18.2296 9.79066 18.2408 9.2972C18.2557 8.71776 18.7442 8.21309 19.3259 8.19066C19.8143 8.17197 20.3065 8.18318 20.7987 8.17944C20.9068 8.17944 20.9255 8.21683 20.8994 8.31402C20.8211 8.60187 20.5862 8.79253 20.2916 8.79627C20.0604 8.8 19.833 8.79253 19.6018 8.79627C19.2177 8.8 19.0574 8.96075 19.0574 9.34206C19.0574 9.57757 19.0574 9.80561 19.0574 10.0374Z" fill="#1D2D4A"/>
<path d="M23.4347 8.18309C23.8822 8.18309 24.3296 8.19056 24.777 8.17935C24.9486 8.17561 24.9448 8.2429 24.9038 8.36626C24.8143 8.63168 24.5981 8.79617 24.3184 8.80365C24.1618 8.80738 24.0089 8.80365 23.8523 8.80365C23.6323 8.80738 23.595 8.84103 23.595 9.06533C23.595 9.94383 23.5913 10.8223 23.5988 11.6971C23.5988 11.8616 23.5615 11.9177 23.3937 11.9027C23.2408 11.8878 23.0842 11.8915 22.9276 11.9027C22.8008 11.9102 22.7747 11.8579 22.7747 11.742C22.7785 10.8635 22.7785 9.98495 22.7785 9.11019C22.7785 8.83355 22.7486 8.80365 22.4652 8.80365C22.1744 8.80365 21.8798 8.79991 21.589 8.80365C21.4697 8.80738 21.4361 8.78122 21.4771 8.65411C21.5741 8.36252 21.7829 8.18682 22.0961 8.18309C22.5398 8.17935 22.9873 8.18309 23.4347 8.18309Z" fill="#1D2D4A"/>
</g>
<defs>
<clipPath id="clip0">
<rect width="38.1818" height="20" fill="white"/>
</clipPath>
</defs>
</svg>
