<svg width="66" height="20" viewBox="0 0 66 20" fill="none" xmlns="http://www.w3.org/2000/svg">
<g clip-path="url(#clip0)">
<path d="M65.8834 0H0V20H65.8834V0Z" fill="#1D2D4A"/>
<path d="M9.54997 8.42933H6.65381V6.65381H14.5368V8.42933H11.6512V13.3076H9.54997V8.42933Z" fill="white"/>
<path d="M15.2793 13.3076V6.65381H17.3805V13.3076H15.2793Z" fill="white"/>
<path d="M24.2129 10.3064V6.65381H26.146V13.3076H24.353L20.7529 9.63402V13.3076H18.8198V6.65381H20.6969L24.2129 10.3064Z" fill="white"/>
<path d="M29.6444 13.3076H27.6133V6.65381H29.6444V9.15775H30.2048L32.6562 6.65381H35.2056L31.9558 9.84414L35.3317 13.3076H32.6282L30.2048 10.7862H29.6444V13.3076Z" fill="white"/>
<path d="M43.9149 9.99821C43.9149 11.9873 42.276 13.5282 39.5619 13.5282C36.8479 13.5282 35.1914 11.9873 35.1914 9.99821C35.1914 8.00906 36.8303 6.47168 39.5724 6.47168C42.3145 6.47168 43.9149 8.01257 43.9149 9.99821ZM41.7857 9.99821C41.7857 8.90558 40.9067 8.11062 39.5619 8.11062C38.2171 8.11062 37.3346 8.90558 37.3346 9.99821C37.3346 11.0908 38.2031 11.9068 39.5724 11.9068C40.9417 11.9068 41.7857 11.0908 41.7857 9.99821Z" fill="white"/>
<path d="M46.9267 8.34528V9.54997H51.4093V10.9508H46.9267V13.3076H44.8955V6.65381H51.5773V8.34528H46.9267Z" fill="white"/>
<path d="M54.5649 8.34528V9.54997H59.0475V10.9508H54.5649V13.3076H52.5303V6.65381H59.2086V8.34528H54.5649Z" fill="white"/>
</g>
<defs>
<clipPath id="clip0">
<rect width="65.8834" height="20" fill="white"/>
</clipPath>
</defs>
</svg>
