<svg width="29" height="21" viewBox="0 0 29 21" fill="none" xmlns="http://www.w3.org/2000/svg">
<path fill-rule="evenodd" clip-rule="evenodd" d="M26.6107 2.9972V4.90196H0V2.9972C0 1.34454 1.34454 0 2.9972 0H23.6135C25.2661 0 26.6107 1.34454 26.6107 2.9972ZM0 17.0028V8.7395H26.6107V11.4196C25.9607 11.1492 25.2478 11 24.5 11C21.4624 11 19 13.4624 19 16.5C19 17.8296 19.4718 19.0491 20.2572 20H2.9972C1.34454 20 0 18.6555 0 17.0028ZM6.75071 16.4986C7.31093 16.4986 7.78712 16.0504 7.78712 15.4622V13.2493C7.78712 12.6891 7.33894 12.2129 6.75071 12.2129H4.53782C3.97759 12.2129 3.5014 12.6611 3.5014 13.2493V15.4622C3.5014 16.0224 3.94958 16.4986 4.53782 16.4986H6.75071ZM22.774 18.76L25.678 14.572H26.47L23.566 18.76H22.774ZM23.08 16.876C22.728 16.876 22.46 16.776 22.276 16.576C22.092 16.376 22 16.08 22 15.688C22 15.296 22.092 15 22.276 14.8C22.46 14.6 22.728 14.5 23.08 14.5C23.432 14.5 23.7 14.6 23.884 14.8C24.068 15 24.16 15.296 24.16 15.688C24.16 16.08 24.068 16.376 23.884 16.576C23.7 16.776 23.432 16.876 23.08 16.876ZM23.08 16.36C23.184 16.36 23.262 16.32 23.314 16.24C23.366 16.156 23.392 16.024 23.392 15.844V15.532C23.392 15.352 23.366 15.222 23.314 15.142C23.262 15.058 23.184 15.016 23.08 15.016C22.976 15.016 22.898 15.058 22.846 15.142C22.794 15.222 22.768 15.352 22.768 15.532V15.844C22.768 16.024 22.794 16.156 22.846 16.24C22.898 16.32 22.976 16.36 23.08 16.36ZM26.164 18.832C25.812 18.832 25.544 18.732 25.36 18.532C25.176 18.332 25.084 18.036 25.084 17.644C25.084 17.252 25.176 16.956 25.36 16.756C25.544 16.556 25.812 16.456 26.164 16.456C26.516 16.456 26.784 16.556 26.968 16.756C27.152 16.956 27.244 17.252 27.244 17.644C27.244 18.036 27.152 18.332 26.968 18.532C26.784 18.732 26.516 18.832 26.164 18.832ZM26.164 18.316C26.268 18.316 26.346 18.276 26.398 18.196C26.45 18.112 26.476 17.98 26.476 17.8V17.488C26.476 17.308 26.45 17.178 26.398 17.098C26.346 17.014 26.268 16.972 26.164 16.972C26.06 16.972 25.982 17.014 25.93 17.098C25.878 17.178 25.852 17.308 25.852 17.488V17.8C25.852 17.98 25.878 18.112 25.93 18.196C25.982 18.276 26.06 18.316 26.164 18.316ZM29 16.5C29 18.9853 26.9853 21 24.5 21C22.0147 21 20 18.9853 20 16.5C20 14.0147 22.0147 12 24.5 12C26.9853 12 29 14.0147 29 16.5Z" fill="#1D2D4A"/>
</svg>
