<svg width="23" height="20" viewBox="0 0 23 20" fill="none" xmlns="http://www.w3.org/2000/svg">
<g clip-path="url(#clip0)">
<path d="M10.5412 5.63672L12.6517 6.19531C12.7234 6.21215 12.7875 6.25229 12.8342 6.30951C12.8808 6.36673 12.9073 6.43781 12.9096 6.51172C12.9096 6.69141 12.7505 6.83984 12.5549 6.83984H11.1704C11.0213 6.83941 10.8735 6.81024 10.7353 6.75391C10.5315 6.66797 10.2966 6.6875 10.1403 6.83203L9.40139 7.51562C9.36721 7.54567 9.33772 7.5807 9.31389 7.61953C9.28338 7.66979 9.26308 7.72562 9.25416 7.7838C9.24523 7.84198 9.24786 7.90136 9.26188 7.95851C9.27591 8.01567 9.30106 8.06947 9.33588 8.11681C9.3707 8.16416 9.41451 8.20411 9.46478 8.23438C9.87397 8.48105 10.3321 8.6344 10.8068 8.68359V9.375C10.8068 9.71875 11.1113 10 11.4823 10H12.1578C12.5292 10 12.8337 9.71875 12.8337 9.375V8.6875C14.1143 8.54688 15.0831 7.47656 14.9143 6.22656C14.7918 5.32812 14.0408 4.61328 13.1036 4.36328L10.9931 3.80469C10.9214 3.78785 10.8573 3.74771 10.8107 3.69049C10.764 3.63327 10.7375 3.56219 10.7353 3.48828C10.7353 3.30859 10.8943 3.16016 11.0899 3.16016H12.4744C12.6241 3.16039 12.7724 3.18957 12.9111 3.24609C13.1145 3.33203 13.3498 3.3125 13.5061 3.16797L14.245 2.48438C14.278 2.45497 14.3065 2.42073 14.3294 2.38281C14.3602 2.33257 14.3807 2.2767 14.3898 2.21843C14.399 2.16016 14.3966 2.10065 14.3827 2.04334C14.3688 1.98602 14.3437 1.93204 14.3089 1.88451C14.2742 1.83697 14.2304 1.79683 14.1801 1.76641C13.7707 1.51974 13.3124 1.36639 12.8376 1.31719V0.625C12.8376 0.28125 12.5335 0 12.1621 0H11.4866C11.1152 0 10.8111 0.28125 10.8111 0.625V1.3125C9.53205 1.45312 8.56139 2.52344 8.73017 3.77344C8.85228 4.67188 9.60555 5.38672 10.5412 5.63672ZM21.9827 12.8164C21.5238 12.3984 20.8083 12.4258 20.3261 12.8164L16.7327 15.7031C16.2916 16.0586 15.7427 16.2516 15.1772 16.25H10.5778C10.4128 16.25 10.2545 16.1842 10.1378 16.0669C10.0211 15.9497 9.95555 15.7908 9.95555 15.625C9.95555 15.4592 10.0211 15.3003 10.1378 15.1831C10.2545 15.0658 10.4128 15 10.5778 15H13.6224C14.2407 15 14.8167 14.5742 14.9154 13.9609C14.9276 13.8905 14.9336 13.8191 14.9333 13.7477C14.9327 13.4165 14.8013 13.0992 14.568 12.8653C14.3347 12.6314 14.0185 12.5 13.6889 12.5H7.46667C6.41729 12.5003 5.3999 12.8629 4.585 13.527L2.77667 15H0.622222C0.457199 15 0.298934 15.0658 0.182245 15.1831C0.0655554 15.3003 0 15.4592 0 15.625L0 19.375C0 19.5408 0.0655554 19.6997 0.182245 19.8169C0.298934 19.9342 0.457199 20 0.622222 20H14.4966C15.0619 20.0004 15.6105 19.8076 16.0522 19.4531L21.9333 14.7266C22.0748 14.6129 22.1899 14.4696 22.2705 14.3066C22.3511 14.1437 22.3953 13.965 22.4001 13.7831C22.4048 13.6012 22.3699 13.4204 22.2979 13.2535C22.2259 13.0865 22.1185 12.9373 21.9831 12.8164H21.9827Z" fill="#1D2D4A"/>
</g>
<defs>
<clipPath id="clip0">
<rect width="22.4" height="20" fill="white"/>
</clipPath>
</defs>
</svg>
