<svg width="26" height="26" viewBox="0 0 26 26" fill="none" xmlns="http://www.w3.org/2000/svg">
<path d="M8.00001 5.188C6.97404 5.18787 5.95809 5.38983 5.01018 5.78236C4.06227 6.17489 3.20096 6.7503 2.47545 7.47572C1.74993 8.20115 1.17441 9.06238 0.781761 10.0102C0.389108 10.9581 0.187012 11.974 0.187012 13C0.187286 14.4847 0.610626 15.9385 1.40744 17.1912C2.20425 18.4439 3.34155 19.4437 4.68609 20.0733C6.03064 20.7029 7.52676 20.9363 8.99921 20.7463C10.4717 20.5562 11.8594 19.9504 13 19C14.1405 19.951 15.5285 20.5572 17.0012 20.7475C18.474 20.9379 19.9704 20.7046 21.3153 20.0749C22.6602 19.4452 23.7977 18.4453 24.5946 17.1922C25.3915 15.9392 25.8147 14.485 25.8147 13C25.8147 11.515 25.3915 10.0608 24.5946 8.80776C23.7977 7.55472 22.6602 6.55477 21.3153 5.92509C19.9704 5.29541 18.474 5.06208 17.0012 5.25246C15.5285 5.44284 14.1405 6.04903 13 7C11.5983 5.82682 9.8279 5.18523 8.00001 5.188ZM18 7.188C19.5411 7.18932 21.0188 7.80205 22.1086 8.89169C23.1984 9.98134 23.8114 11.4589 23.813 13C23.8117 14.5413 23.1988 16.0191 22.109 17.1089C21.0191 18.1988 19.5413 18.8117 18 18.813C16.622 18.813 15.372 18.303 14.375 17.5C15.3086 16.185 15.811 14.6127 15.813 13C15.811 11.3873 15.3086 9.81499 14.375 8.5C15.372 7.696 16.622 7.187 18 7.187V7.188Z" fill="#1D2D4A"/>
</svg>
