<svg width="16" height="24" viewBox="0 0 16 24" fill="none" xmlns="http://www.w3.org/2000/svg">
<path d="M15 24H1C0.734784 24 0.48043 23.8946 0.292893 23.7071C0.105357 23.5196 0 23.2652 0 23V1C0 0.734784 0.105357 0.48043 0.292893 0.292893C0.48043 0.105357 0.734784 0 1 0L15 0C15.2652 0 15.5196 0.105357 15.7071 0.292893C15.8946 0.48043 16 0.734784 16 1V23C16 23.2652 15.8946 23.5196 15.7071 23.7071C15.5196 23.8946 15.2652 24 15 24ZM2 22H14V2H2V22Z" fill="#1D2D4A"/>
<path d="M9.66978 14.1069L10.5312 13.2455C10.6473 13.1309 10.794 13.0525 10.9538 13.0197C11.1135 12.9869 11.2794 13.0012 11.4311 13.0609L12.481 13.4801C12.6344 13.5423 12.7659 13.6486 12.859 13.7855C12.952 13.9223 13.0025 14.0837 13.004 14.2492V16.1721C13.0031 16.2847 12.9795 16.3959 12.9344 16.4991C12.8894 16.6024 12.824 16.6954 12.7421 16.7726C12.6601 16.8499 12.5634 16.9098 12.4578 16.9486C12.3521 16.9875 12.2397 17.0046 12.1272 16.9989C4.77031 16.5413 3.28586 10.3112 3.00512 7.92684C2.99209 7.80975 3.004 7.69123 3.04006 7.57907C3.07612 7.46692 3.13552 7.36367 3.21436 7.27611C3.29319 7.18856 3.38966 7.1187 3.49744 7.07111C3.60521 7.02352 3.72184 6.99929 3.83965 7.00002H5.69714C5.86289 7.00051 6.02471 7.05057 6.16178 7.14378C6.29884 7.23699 6.40489 7.36907 6.46628 7.52304L6.88547 8.57292C6.9471 8.72408 6.96282 8.89006 6.93067 9.0501C6.89853 9.21015 6.81994 9.35718 6.70472 9.47282L5.84327 10.3343C5.84327 10.3343 6.33937 13.6916 9.66978 14.1069Z" fill="#1D2D4A"/>
<circle cx="12" cy="11" r="1" fill="#1D2D4A"/>
</svg>
