<svg width="22" height="20" viewBox="0 0 22 20" fill="none" xmlns="http://www.w3.org/2000/svg">
<path d="M16.4403 4.59565C16.5355 4.67044 16.6239 4.75203 16.7123 4.83589C16.9503 5.05573 17.1746 5.28691 17.3877 5.52715C17.5531 5.71073 17.7095 5.90111 17.8614 6.09829C17.8138 6.0371 17.7662 5.97591 17.7186 5.91471C18.0993 6.40879 18.4393 6.93461 18.7203 7.49215C18.8087 7.66666 18.8903 7.84345 18.9674 8.02249C18.9379 7.94997 18.9062 7.87744 18.8767 7.80492C19.1374 8.42592 19.3255 9.07638 19.4161 9.74498C19.4048 9.66566 19.3935 9.58407 19.3844 9.50474C19.466 10.1121 19.466 10.7241 19.3867 11.3315C19.398 11.2522 19.4093 11.1706 19.4184 11.0912C19.3277 11.7553 19.1442 12.4035 18.8835 13.02C18.913 12.9474 18.9447 12.8749 18.9742 12.8024C18.6388 13.5956 18.1832 14.33 17.6597 15.0122C17.7072 14.951 17.7548 14.8898 17.8024 14.8286C16.9231 15.9663 15.8578 16.9477 14.7224 17.8271C14.7836 17.7795 14.8447 17.7319 14.9059 17.6843C14.6272 17.8996 14.3461 18.1081 14.0583 18.3098C13.8928 18.4277 13.7682 18.5523 13.6866 18.7427C13.6095 18.9218 13.5801 19.1416 13.6413 19.332C13.6889 19.4816 13.7682 19.6153 13.8747 19.7331C14.0152 19.8873 14.3053 20.0165 14.5161 19.9983C15.0215 19.9553 15.5247 19.9122 16.0301 19.8691C16.8347 19.8011 17.6415 19.7309 18.4461 19.6629C18.632 19.647 18.8201 19.6312 19.0059 19.6153C19.2507 19.5949 19.4683 19.5292 19.6473 19.3501C19.8037 19.1937 19.9238 18.9354 19.9125 18.7087C19.9012 18.4753 19.8241 18.2305 19.6473 18.0673C19.4796 17.9132 19.2439 17.7817 19.0059 17.8021C18.5005 17.8452 17.9974 17.8883 17.4919 17.9313C16.6874 17.9993 15.8805 18.0696 15.0759 18.1376C14.8901 18.1534 14.702 18.1693 14.5161 18.1852C14.668 18.7472 14.8221 19.3116 14.9739 19.8737C16.8619 18.5365 18.6524 16.9658 19.8808 14.9827C20.7193 13.6296 21.2474 12.0726 21.2587 10.4725C21.2678 9.16478 20.9256 7.89104 20.3612 6.7193C19.9329 5.83085 19.3527 5.01267 18.6999 4.27382C18.403 3.93612 18.0857 3.60975 17.7367 3.32191C17.7322 3.31738 17.7276 3.31285 17.7231 3.31058C17.5282 3.1542 17.3424 3.04541 17.0817 3.04541C16.8596 3.04541 16.5944 3.14513 16.4403 3.31058C16.2817 3.48283 16.1638 3.70947 16.1751 3.95198C16.1842 4.17863 16.2545 4.44833 16.4403 4.59565Z" fill="#1D2D4A"/>
<path d="M14.796 15.0035C14.6668 15.4341 14.5376 15.867 14.4084 16.2976C14.1999 16.9912 13.9936 17.6825 13.7851 18.376C13.7375 18.5346 13.6899 18.6933 13.6423 18.8519C13.5064 19.3052 13.8055 19.8605 14.2747 19.967C14.762 20.0781 15.2447 19.8197 15.3898 19.3347C15.519 18.9041 15.6481 18.4712 15.7773 18.0405C15.9858 17.347 16.1921 16.6557 16.4006 15.9622C16.4482 15.8036 16.4958 15.6449 16.5434 15.4863C16.6794 15.033 16.3802 14.4777 15.9111 14.3712C15.4238 14.2578 14.941 14.5162 14.796 15.0035Z" fill="#1D2D4A"/>
<path d="M4.81861 15.4044C4.72342 15.3296 4.63503 15.248 4.54664 15.1641C4.30866 14.9443 4.08429 14.7131 3.87124 14.4729C3.70579 14.2893 3.54941 14.0989 3.39756 13.9017C3.44515 13.9629 3.49275 14.0241 3.54034 14.0853C3.15958 13.5912 2.81962 13.0654 2.53858 12.5079C2.45019 12.3334 2.3686 12.1566 2.29154 11.9775C2.321 12.0501 2.35273 12.1226 2.38219 12.1951C2.12156 11.5741 1.93344 10.9236 1.84278 10.255C1.85412 10.3344 1.86545 10.416 1.87451 10.4953C1.79292 9.88788 1.79292 9.27594 1.87225 8.66854C1.86092 8.74786 1.84958 8.82945 1.84052 8.90878C1.93118 8.24471 2.11476 7.59652 2.3754 6.98005C2.34593 7.05257 2.3142 7.1251 2.28474 7.19762C2.62017 6.40437 3.07572 5.67005 3.59927 4.98785C3.55167 5.04905 3.50408 5.11024 3.45648 5.17143C4.33586 4.03368 5.40108 3.05232 6.53656 2.17294C6.47537 2.22054 6.41418 2.26813 6.35298 2.31573C6.63175 2.10042 6.91279 1.89191 7.20063 1.69019C7.36608 1.57234 7.49073 1.44769 7.57232 1.25731C7.64938 1.07826 7.67885 0.858414 7.61765 0.668034C7.57006 0.51845 7.49073 0.38473 7.38421 0.266876C7.24369 0.112759 6.95359 -0.0164281 6.74281 0.00170335C6.23739 0.0447655 5.73425 0.0878278 5.22883 0.13089C4.42425 0.198883 3.6174 0.269142 2.81282 0.337135C2.62697 0.353 2.43886 0.368865 2.25301 0.38473C2.00823 0.405128 1.79066 0.470855 1.61161 0.649903C1.45522 0.806287 1.3351 1.06466 1.34644 1.2913C1.35777 1.52475 1.43483 1.76952 1.61161 1.9327C1.77932 2.08682 2.01503 2.21827 2.25301 2.19788C2.75842 2.15481 3.26157 2.11175 3.76698 2.06869C4.57157 2.0007 5.37842 1.93044 6.183 1.86244C6.36885 1.84658 6.55696 1.83071 6.74281 1.81485C6.59096 1.25277 6.43684 0.688432 6.28499 0.126357C4.39705 1.46355 2.60657 3.03419 1.37817 5.01732C0.539586 6.37038 0.0115079 7.92741 0.000175744 9.52751C-0.00888998 10.8352 0.333341 12.109 0.897683 13.2807C1.32604 14.1692 1.90624 14.9873 2.55898 15.7262C2.85588 16.0639 3.17318 16.3903 3.52221 16.6781C3.52674 16.6826 3.53128 16.6872 3.53581 16.6894C3.73072 16.8458 3.91657 16.9546 4.17721 16.9546C4.39932 16.9546 4.66449 16.8549 4.81861 16.6894C4.97726 16.5172 5.09511 16.2905 5.08378 16.048C5.07245 15.8214 5.00219 15.5517 4.81861 15.4044Z" fill="#1D2D4A"/>
<path d="M6.46204 4.99707C6.59122 4.56645 6.72041 4.13356 6.8496 3.70294C7.05811 3.00942 7.26436 2.31816 7.47287 1.62463C7.52047 1.46598 7.56806 1.30733 7.61566 1.14868C7.75164 0.695398 7.45247 0.140124 6.98332 0.0336023C6.49603 -0.0774524 6.01328 0.18092 5.86823 0.665934C5.73904 1.09655 5.60985 1.52944 5.48066 1.96006C5.27215 2.65359 5.0659 3.34485 4.85739 4.03837C4.8098 4.19702 4.7622 4.35567 4.7146 4.51432C4.57862 4.9676 4.87779 5.52288 5.34694 5.6294C5.83423 5.74045 6.31698 5.48208 6.46204 4.99707Z" fill="#1D2D4A"/>
<path d="M10.6299 9.09281C10.4939 9.09281 10.3579 9.08374 10.2219 9.06561C10.3012 9.07694 10.3828 9.08827 10.4622 9.09734C10.2106 9.06108 9.96581 8.99308 9.7301 8.89563C9.80262 8.92509 9.87515 8.95682 9.94768 8.98628C9.71877 8.88883 9.50572 8.76417 9.30628 8.61232C9.36747 8.65992 9.42866 8.70751 9.48986 8.75511C9.28588 8.59646 9.10456 8.41741 8.94818 8.21343C8.99578 8.27462 9.04337 8.33582 9.09097 8.39701C8.94138 8.19983 8.81446 7.98452 8.717 7.75561C8.74647 7.82814 8.7782 7.90066 8.80766 7.97319C8.7102 7.73748 8.64221 7.49271 8.60595 7.24113C8.61728 7.32046 8.62861 7.40205 8.63768 7.48137C8.60142 7.21167 8.60142 6.93743 8.63768 6.66772C8.62635 6.74705 8.61501 6.82864 8.60595 6.90797C8.64221 6.65639 8.7102 6.41162 8.80766 6.17591C8.7782 6.24843 8.74647 6.32096 8.717 6.39349C8.81446 6.16458 8.93911 5.95153 9.09097 5.75209C9.04337 5.81328 8.99578 5.87447 8.94818 5.93567C9.10683 5.73169 9.28588 5.55037 9.48986 5.39399C9.42866 5.44159 9.36747 5.48918 9.30628 5.53677C9.50346 5.38719 9.71877 5.26027 9.94768 5.16281C9.87515 5.19228 9.80262 5.22401 9.7301 5.25347C9.96581 5.15601 10.2106 5.08802 10.4622 5.05176C10.3828 5.06309 10.3012 5.07442 10.2219 5.08349C10.4916 5.04723 10.7659 5.04723 11.0356 5.08349C10.9562 5.07216 10.8746 5.06082 10.7953 5.05176C11.0469 5.08802 11.2917 5.15601 11.5274 5.25347C11.4549 5.22401 11.3823 5.19228 11.3098 5.16281C11.5387 5.26027 11.7518 5.38492 11.9512 5.53677C11.89 5.48918 11.8288 5.44159 11.7676 5.39399C11.9716 5.55264 12.1529 5.73169 12.3093 5.93567C12.2617 5.87447 12.2141 5.81328 12.1665 5.75209C12.3161 5.94927 12.443 6.16458 12.5405 6.39349C12.511 6.32096 12.4793 6.24843 12.4498 6.17591C12.5473 6.41162 12.6153 6.65639 12.6515 6.90797C12.6402 6.82864 12.6289 6.74705 12.6198 6.66772C12.6379 6.80371 12.647 6.93743 12.647 7.07568C12.6493 7.30912 12.7467 7.55163 12.9122 7.71708C13.0686 7.87347 13.3269 7.99359 13.5536 7.98225C14.0431 7.95959 14.4624 7.58336 14.4601 7.07568C14.4579 6.45015 14.3015 5.84728 14.0182 5.28973C13.7462 4.75939 13.3383 4.32877 12.8668 3.97067C11.9512 3.27941 10.6888 3.07543 9.59185 3.38593C9.01617 3.54911 8.49716 3.84828 8.05067 4.24491C7.59512 4.64833 7.27555 5.16508 7.05118 5.72262C6.62282 6.78331 6.75427 8.06838 7.34355 9.04068C8.03481 10.1875 9.29268 10.8969 10.6321 10.9037C11.1058 10.906 11.5614 10.4844 11.5387 9.99711C11.5138 9.5053 11.1376 9.09507 10.6299 9.09281Z" fill="#1D2D4A"/>
<path d="M10.6296 10.9124C10.7656 10.9124 10.9016 10.9215 11.0376 10.9396C10.9582 10.9283 10.8766 10.917 10.7973 10.9079C11.0489 10.9442 11.2937 11.0122 11.5294 11.1096C11.4568 11.0802 11.3843 11.0484 11.3118 11.019C11.5407 11.1164 11.7537 11.2411 11.9532 11.3929C11.892 11.3453 11.8308 11.2977 11.7696 11.2501C11.9736 11.4088 12.1549 11.5878 12.3113 11.7918C12.2637 11.7306 12.2161 11.6694 12.1685 11.6082C12.3181 11.8054 12.445 12.0207 12.5425 12.2496C12.513 12.1771 12.4813 12.1046 12.4518 12.0321C12.5493 12.2678 12.6173 12.5126 12.6535 12.7641C12.6422 12.6848 12.6309 12.6032 12.6218 12.5239C12.6581 12.7936 12.6581 13.0678 12.6218 13.3375C12.6331 13.2582 12.6445 13.1766 12.6535 13.0973C12.6173 13.3489 12.5493 13.5936 12.4518 13.8293C12.4813 13.7568 12.513 13.6843 12.5425 13.6118C12.445 13.8407 12.3204 14.0537 12.1685 14.2532C12.2161 14.192 12.2637 14.1308 12.3113 14.0696C12.1526 14.2736 11.9736 14.4549 11.7696 14.6113C11.8308 14.5637 11.892 14.5161 11.9532 14.4685C11.756 14.6181 11.5407 14.745 11.3118 14.8424C11.3843 14.813 11.4568 14.7812 11.5294 14.7518C11.2937 14.8492 11.0489 14.9172 10.7973 14.9535C10.8766 14.9422 10.9582 14.9308 11.0376 14.9218C10.7678 14.958 10.4936 14.958 10.2239 14.9218C10.3032 14.9331 10.3848 14.9444 10.4641 14.9535C10.2126 14.9172 9.9678 14.8492 9.73209 14.7518C9.80461 14.7812 9.87714 14.813 9.94967 14.8424C9.72076 14.745 9.50771 14.6203 9.30827 14.4685C9.36946 14.5161 9.43065 14.5637 9.49185 14.6113C9.28787 14.4526 9.10655 14.2736 8.95017 14.0696C8.99776 14.1308 9.04536 14.192 9.09295 14.2532C8.94337 14.056 8.81645 13.8407 8.71899 13.6118C8.74846 13.6843 8.78019 13.7568 8.80965 13.8293C8.71219 13.5936 8.6442 13.3489 8.60794 13.0973C8.61927 13.1766 8.6306 13.2582 8.63967 13.3375C8.62154 13.2015 8.61247 13.0678 8.61247 12.9296C8.6102 12.6961 8.51275 12.4536 8.3473 12.2882C8.19091 12.1318 7.93254 12.0117 7.7059 12.023C7.21635 12.0457 6.79706 12.4219 6.79933 12.9296C6.80159 13.5551 6.95798 14.158 7.24128 14.7155C7.51325 15.2459 7.92121 15.6765 8.39263 16.0346C9.30827 16.7258 10.5707 16.9298 11.6676 16.6193C12.2433 16.4561 12.7623 16.157 13.2088 15.7603C13.6643 15.3569 13.9839 14.8402 14.2083 14.2826C14.6366 13.2219 14.5052 11.9369 13.9159 10.9646C13.2247 9.81776 11.9668 9.10837 10.6273 9.10157C10.1536 9.09931 9.69809 9.52086 9.72076 10.0081C9.74342 10.4977 10.1196 10.9102 10.6296 10.9124Z" fill="#1D2D4A"/>
<path d="M9.71396 2.78287C9.71396 3.26336 9.71396 3.74384 9.71396 4.22432C9.71396 5.3734 9.71396 6.52248 9.71396 7.67157C9.71396 9.06089 9.71396 10.4502 9.71396 11.8395C9.71396 13.043 9.71396 14.2465 9.71396 15.45C9.71396 16.0302 9.70716 16.6126 9.71396 17.1928C9.71396 17.2019 9.71396 17.2087 9.71396 17.2178C9.71396 17.6915 10.131 18.147 10.6205 18.1243C11.1124 18.1017 11.5271 17.7255 11.5271 17.2178C11.5271 16.7373 11.5271 16.2568 11.5271 15.7763C11.5271 14.6272 11.5271 13.4782 11.5271 12.3291C11.5271 10.9398 11.5271 9.55044 11.5271 8.16112C11.5271 6.95764 11.5271 5.75416 11.5271 4.55069C11.5271 3.97048 11.5339 3.38801 11.5271 2.8078C11.5271 2.79874 11.5271 2.79194 11.5271 2.78287C11.5271 2.30919 11.1101 1.85364 10.6205 1.8763C10.1287 1.89896 9.71396 2.27519 9.71396 2.78287Z" fill="#1D2D4A"/>
</svg>
