<svg width="24" height="24" viewBox="0 0 24 24" fill="none" xmlns="http://www.w3.org/2000/svg">
<path d="M11.0641 0C5.17011 0 0.391113 4.778 0.391113 10.673C0.391113 16.568 5.17011 21.346 11.0651 21.346C12.6321 21.346 14.1831 21.053 16.4631 21.036C18.4961 21.036 20.7301 21.75 23.1811 23.922C23.4291 24.139 23.7551 23.86 23.5381 23.596C21.1331 20.54 18.8981 19.966 16.6651 19.47C13.9351 18.864 12.5391 17.344 11.5611 15.653C11.3751 15.312 11.2811 15.374 11.2661 15.809C11.2481 16.448 11.2961 17.087 11.4061 17.717H11.0801C9.20817 17.7154 7.41336 16.9711 6.08969 15.6474C4.76603 14.3238 4.0217 12.5289 4.02011 10.657C4.02223 8.7855 4.76683 6.9913 6.09046 5.66823C7.41409 4.34516 9.20861 3.60132 11.0801 3.6C12.0763 3.60052 13.0612 3.81175 13.97 4.21982C14.8788 4.62788 15.691 5.22356 16.3533 5.96773C17.0156 6.71191 17.513 7.58775 17.8128 8.53776C18.1127 9.48777 18.2082 10.4905 18.0931 11.48C17.5651 11.387 16.5561 11.372 15.8431 11.434C15.5791 11.465 15.6101 11.589 15.8121 11.621C18.1391 12.055 19.7371 13.498 20.1091 16.12C20.1241 16.182 20.2021 16.197 20.2331 16.15C21.2171 14.4928 21.7369 12.6013 21.7381 10.674C21.7381 4.778 16.9601 0 11.0641 0ZM18.7081 15.077C18.6473 15.0703 18.5859 15.0816 18.5315 15.1095C18.4771 15.1374 18.4321 15.1807 18.4021 15.234C18.2781 15.452 18.3721 15.87 18.6041 16.243C18.8361 16.615 19.0541 16.801 19.2101 16.801C19.3651 16.801 19.5041 16.615 19.4421 16.134C19.4121 15.87 19.2561 15.266 18.8521 15.11C18.8051 15.089 18.7511 15.087 18.7081 15.077ZM16.4941 16.864C16.2771 16.864 16.1061 16.94 15.9971 17.08C15.7181 17.421 15.8421 18.042 16.2771 18.415C16.4631 18.585 16.7431 18.678 17.0071 18.678C17.1269 18.6811 17.2459 18.6578 17.3556 18.6098C17.4653 18.5617 17.5632 18.4901 17.6421 18.4C17.8911 18.058 17.7521 17.592 17.2701 17.189C17.0221 16.972 16.7431 16.864 16.4941 16.864Z" fill="#1D2D4A"/>
</svg>
