<svg width="26" height="21" viewBox="0 0 26 21" fill="none" xmlns="http://www.w3.org/2000/svg">
<path d="M20.9858 9.45248C20.9858 9.45248 21.3249 11.1134 21.4012 11.4613H19.9106L20.625 9.51917C20.6161 9.53284 20.772 9.11259 20.8612 8.85385L20.9858 9.45248ZM25.713 2.69796V18.4119C25.7128 18.9802 25.4869 19.5252 25.0851 19.927C24.6832 20.3289 24.1382 20.5547 23.5699 20.5549H2.14205C1.57375 20.5547 1.02879 20.3289 0.626937 19.927C0.225088 19.5252 -0.000763596 18.9802 -0.000976562 18.4119V2.69796C-0.000763596 2.12966 0.225088 1.5847 0.626937 1.18285C1.02879 0.780996 1.57375 0.555145 2.14205 0.554932H23.5699C24.1382 0.555145 24.6832 0.780996 25.0851 1.18285C25.4869 1.5847 25.7128 2.12966 25.713 2.69796ZM6.80738 13.9121L9.62859 6.98402H7.73145L5.97733 11.716L5.78528 10.7566L5.16013 7.56899C5.05728 7.12705 4.74069 7.0017 4.34776 6.98402H1.45985L1.42851 7.12223C2.08988 7.28448 2.72429 7.5416 3.312 7.88559L4.91023 13.9121H6.80738ZM11.0219 13.9209L12.1469 6.98402H10.3526L9.23245 13.9209H11.0219ZM17.267 11.6534C17.2758 10.8635 16.7937 10.2608 15.7628 9.76506C15.1336 9.44766 14.7495 9.23392 14.7495 8.90768C14.7584 8.61279 15.0758 8.30905 15.7805 8.30905C16.2395 8.2961 16.6955 8.38616 17.1151 8.57261L17.2758 8.64814L17.5217 7.14794C17.0087 6.95156 16.4639 6.85159 15.9147 6.85304C14.1421 6.85304 12.8966 7.79961 12.8877 9.14714C12.8741 10.1427 13.7805 10.6964 14.4594 11.0306C15.1513 11.3697 15.3883 11.5931 15.3883 11.892C15.3795 12.3565 14.8259 12.5702 14.3124 12.5702C13.5981 12.5702 13.214 12.4585 12.629 12.1998L12.3928 12.0881L12.1429 13.6461C12.5623 13.8382 13.3393 14.0077 14.1429 14.0166C16.0263 14.0206 17.2541 13.0877 17.2678 11.651L17.267 11.6534ZM23.5699 13.9209L22.1236 6.98402H20.7351C20.3068 6.98402 19.9805 7.10937 19.7973 7.56015L17.132 13.9217H19.0155C19.0155 13.9217 19.3232 13.0644 19.3907 12.882H21.6945C21.7483 13.1279 21.909 13.9217 21.909 13.9217L23.5699 13.9209Z" fill="#1D2D4A"/>
</svg>
