<svg width="24" height="20" viewBox="0 0 24 20" fill="none" xmlns="http://www.w3.org/2000/svg">
<path d="M11.5729 7.03394C11.4874 7.03394 11.402 7.02824 11.3166 7.01685C11.3664 7.02397 11.4177 7.03109 11.4675 7.03679C11.3095 7.014 11.1557 6.97129 11.0076 6.91007C11.0532 6.92858 11.0987 6.94851 11.1443 6.96702C11.0005 6.9058 10.8667 6.82749 10.7414 6.7321C10.7798 6.762 10.8183 6.7919 10.8567 6.8218C10.7286 6.72213 10.6147 6.60965 10.5164 6.48151C10.5463 6.51996 10.5762 6.5584 10.6061 6.59684C10.5122 6.47297 10.4324 6.33771 10.3712 6.19391C10.3897 6.23947 10.4096 6.28503 10.4281 6.33059C10.3669 6.18252 10.3242 6.02875 10.3014 5.87071C10.3086 5.92055 10.3157 5.9718 10.3214 6.02163C10.2986 5.85221 10.2986 5.67993 10.3214 5.5105C10.3142 5.56033 10.3071 5.61159 10.3014 5.66142C10.3242 5.50338 10.3669 5.34961 10.4281 5.20154C10.4096 5.2471 10.3897 5.29266 10.3712 5.33822C10.4324 5.19442 10.5107 5.06059 10.6061 4.93529C10.5762 4.97374 10.5463 5.01218 10.5164 5.05062C10.6161 4.92248 10.7286 4.80858 10.8567 4.71034C10.8183 4.74024 10.7798 4.77014 10.7414 4.80004C10.8652 4.70607 11.0005 4.62634 11.1443 4.56511C11.0987 4.58362 11.0532 4.60355 11.0076 4.62206C11.1557 4.56084 11.3095 4.51813 11.4675 4.49535C11.4177 4.50247 11.3664 4.50959 11.3166 4.51528C11.486 4.4925 11.6583 4.4925 11.8277 4.51528C11.7779 4.50816 11.7266 4.50104 11.6768 4.49535C11.8348 4.51813 11.9886 4.56084 12.1367 4.62206C12.0911 4.60355 12.0456 4.58362 12 4.56511C12.1438 4.62634 12.2776 4.70464 12.4029 4.80004C12.3645 4.77014 12.326 4.74024 12.2876 4.71034C12.4157 4.81 12.5296 4.92248 12.6279 5.05062C12.598 5.01218 12.5681 4.97374 12.5382 4.93529C12.6322 5.05916 12.7119 5.19442 12.7731 5.33822C12.7546 5.29266 12.7347 5.2471 12.7162 5.20154C12.7774 5.34961 12.8201 5.50338 12.8429 5.66142C12.8358 5.61159 12.8286 5.56033 12.8229 5.5105C12.8343 5.59593 12.84 5.67993 12.84 5.76678C12.8414 5.91343 12.9027 6.06577 13.0066 6.16971C13.1048 6.26795 13.2672 6.34341 13.4095 6.33629C13.7171 6.32205 13.9805 6.0857 13.979 5.76678C13.9776 5.37382 13.8794 4.99509 13.7014 4.64484C13.5306 4.31168 13.2743 4.04116 12.9781 3.81621C12.4029 3.38196 11.6099 3.25382 10.9208 3.44887C10.5591 3.55139 10.2331 3.73932 9.95261 3.98848C9.66643 4.24192 9.46568 4.56654 9.32472 4.91679C9.05563 5.58311 9.13821 6.39039 9.50839 7.00119C9.94264 7.72162 10.7328 8.16726 11.5743 8.17153C11.8719 8.17296 12.158 7.90814 12.1438 7.60202C12.1281 7.29306 11.8918 7.03536 11.5729 7.03394Z" fill="#1D2D4A"/>
<path d="M11.5727 8.17691C11.6581 8.17691 11.7435 8.1826 11.829 8.19399C11.7791 8.18687 11.7279 8.17976 11.678 8.17406C11.8361 8.19684 11.9899 8.23955 12.1379 8.30078C12.0924 8.28227 12.0468 8.26233 12.0012 8.24383C12.145 8.30505 12.2789 8.38336 12.4042 8.47875C12.3657 8.44885 12.3273 8.41895 12.2888 8.38905C12.417 8.48871 12.5309 8.60119 12.6291 8.72933C12.5992 8.69089 12.5693 8.65245 12.5394 8.61401C12.6334 8.73787 12.7131 8.87313 12.7744 9.01693C12.7558 8.97137 12.7359 8.92581 12.7174 8.88025C12.7786 9.02832 12.8213 9.18209 12.8441 9.34013C12.837 9.2903 12.8299 9.23904 12.8242 9.18921C12.847 9.35864 12.847 9.53092 12.8242 9.70035C12.8313 9.65051 12.8384 9.59926 12.8441 9.54943C12.8213 9.70747 12.7786 9.86123 12.7174 10.0093C12.7359 9.96374 12.7558 9.91818 12.7744 9.87262C12.7131 10.0164 12.6348 10.1503 12.5394 10.2756C12.5693 10.2371 12.5992 10.1987 12.6291 10.1602C12.5295 10.2884 12.417 10.4023 12.2888 10.5005C12.3273 10.4706 12.3657 10.4407 12.4042 10.4108C12.2803 10.5048 12.145 10.5845 12.0012 10.6457C12.0468 10.6272 12.0924 10.6073 12.1379 10.5888C11.9899 10.65 11.8361 10.6927 11.678 10.7155C11.7279 10.7084 11.7791 10.7013 11.829 10.6956C11.6595 10.7183 11.4873 10.7183 11.3178 10.6956C11.3677 10.7027 11.4189 10.7098 11.4688 10.7155C11.3107 10.6927 11.1569 10.65 11.0089 10.5888C11.0544 10.6073 11.1 10.6272 11.1456 10.6457C11.0018 10.5845 10.8679 10.5062 10.7426 10.4108C10.7811 10.4407 10.8195 10.4706 10.858 10.5005C10.7298 10.4008 10.6159 10.2884 10.5177 10.1602C10.5476 10.1987 10.5775 10.2371 10.6074 10.2756C10.5134 10.1517 10.4337 10.0164 10.3724 9.87262C10.391 9.91818 10.4109 9.96374 10.4294 10.0093C10.3682 9.86123 10.3255 9.70747 10.3027 9.54943C10.3098 9.59926 10.3169 9.65051 10.3226 9.70035C10.3112 9.61492 10.3055 9.53092 10.3055 9.44407C10.3041 9.29742 10.2429 9.14507 10.1389 9.04114C10.0407 8.9429 9.8784 8.86744 9.73602 8.87456C9.42848 8.88879 9.16509 9.12514 9.16651 9.44407C9.16793 9.83703 9.26617 10.2158 9.44415 10.566C9.615 10.8992 9.87128 11.1697 10.1674 11.3946C10.7426 11.8289 11.5357 11.957 12.2248 11.762C12.5864 11.6595 12.9125 11.4715 13.1929 11.2224C13.4791 10.9689 13.6799 10.6443 13.8208 10.2941C14.0899 9.62773 14.0073 8.82045 13.6372 8.20966C13.2029 7.48923 12.4127 7.04358 11.5713 7.03931C11.2737 7.03789 10.9875 7.30271 11.0018 7.60882C11.016 7.91636 11.2523 8.17548 11.5727 8.17691Z" fill="#1D2D4A"/>
<path d="M10.9975 3.07002C10.9975 3.37186 10.9975 3.6737 10.9975 3.97554C10.9975 4.69739 10.9975 5.41925 10.9975 6.1411C10.9975 7.01388 10.9975 7.88665 10.9975 8.75942C10.9975 9.51545 10.9975 10.2715 10.9975 11.0275C10.9975 11.392 10.9932 11.7579 10.9975 12.1224C10.9975 12.1281 10.9975 12.1323 10.9975 12.138C10.9975 12.4356 11.2595 12.7218 11.567 12.7075C11.876 12.6933 12.1365 12.457 12.1365 12.138C12.1365 11.8362 12.1365 11.5344 12.1365 11.2325C12.1365 10.5107 12.1365 9.78881 12.1365 9.06696C12.1365 8.19418 12.1365 7.32141 12.1365 6.44864C12.1365 5.69261 12.1365 4.93659 12.1365 4.18056C12.1365 3.81608 12.1408 3.45017 12.1365 3.08568C12.1365 3.07999 12.1365 3.07571 12.1365 3.07002C12.1365 2.77245 11.8746 2.48627 11.567 2.50051C11.2581 2.51475 10.9975 2.75109 10.9975 3.07002Z" fill="#1D2D4A"/>
<path d="M20.8333 15.8333H2.5C1.83696 15.8333 1.20107 15.5699 0.732233 15.1011C0.263392 14.6323 0 13.9964 0 13.3333V2.5C0 1.83696 0.263392 1.20107 0.732233 0.732233C1.20107 0.263392 1.83696 0 2.5 0H20.8333C21.4964 0 22.1323 0.263392 22.6011 0.732233C23.0699 1.20107 23.3333 1.83696 23.3333 2.5V13.3333C23.3333 13.9964 23.0699 14.6323 22.6011 15.1011C22.1323 15.5699 21.4964 15.8333 20.8333 15.8333ZM2.5 1.66667C2.27899 1.66667 2.06702 1.75446 1.91074 1.91074C1.75446 2.06702 1.66667 2.27899 1.66667 2.5V13.3333C1.66667 13.5543 1.75446 13.7663 1.91074 13.9226C2.06702 14.0789 2.27899 14.1667 2.5 14.1667H20.8333C21.0543 14.1667 21.2663 14.0789 21.4226 13.9226C21.5789 13.7663 21.6667 13.5543 21.6667 13.3333V2.5C21.6667 2.27899 21.5789 2.06702 21.4226 1.91074C21.2663 1.75446 21.0543 1.66667 20.8333 1.66667H2.5Z" fill="#1D2D4A"/>
<path d="M11.6668 20.0001C11.4458 20.0001 11.2339 19.9123 11.0776 19.756C10.9213 19.5997 10.8335 19.3878 10.8335 19.1667V15.0001C10.8335 14.7791 10.9213 14.5671 11.0776 14.4108C11.2339 14.2545 11.4458 14.1667 11.6668 14.1667C11.8878 14.1667 12.0998 14.2545 12.2561 14.4108C12.4124 14.5671 12.5002 14.7791 12.5002 15.0001V19.1667C12.5002 19.3878 12.4124 19.5997 12.2561 19.756C12.0998 19.9123 11.8878 20.0001 11.6668 20.0001Z" fill="#1D2D4A"/>
<path d="M14.1668 19.9999H9.16683C8.94582 19.9999 8.73385 19.9121 8.57757 19.7558C8.42129 19.5996 8.3335 19.3876 8.3335 19.1666C8.3335 18.9456 8.42129 18.7336 8.57757 18.5773C8.73385 18.421 8.94582 18.3333 9.16683 18.3333H14.1668C14.3878 18.3333 14.5998 18.421 14.7561 18.5773C14.9124 18.7336 15.0002 18.9456 15.0002 19.1666C15.0002 19.3876 14.9124 19.5996 14.7561 19.7558C14.5998 19.9121 14.3878 19.9999 14.1668 19.9999Z" fill="#1D2D4A"/>
</svg>
