<svg width="30" height="30" viewBox="0 0 30 30" fill="none" xmlns="http://www.w3.org/2000/svg">
    <path d="M2 13.7395V22.0028C2 23.6555 3.34454 25 4.9972 25H25.6135C27.2661 25 28.6107 23.6555 28.6107 22.0028V13.7395H2ZM9.78712 20.4622C9.78712 21.0504 9.31093 21.4986 8.75071 21.4986H6.53782C5.94958 21.4986 5.5014 21.0224 5.5014 20.4622V18.2493C5.5014 17.6611 5.97759 17.2129 6.53782 17.2129H8.75071C9.33894 17.2129 9.78712 17.6891 9.78712 18.2493V20.4622Z" fill="#1D2D4A"/>
    <path d="M28.6107 9.90196V7.9972C28.6107 6.34454 27.2661 5 25.6135 5H4.9972C3.34454 5 2 6.34454 2 7.9972V9.90196H28.6107Z" fill="#1D2D4A"/>
    <path d="M28 2L2 28" stroke="#1D2D4A" stroke-width="2" stroke-linecap="round"/>
</svg>