<svg width="27" height="27" viewBox="0 0 27 27" fill="none" xmlns="http://www.w3.org/2000/svg">
<path d="M22.3335 11H15.3335V3C15.3335 2.73478 15.2281 2.48043 15.0406 2.29289C14.8531 2.10536 14.5987 2 14.3335 2H4.3335C4.06828 2 3.81393 2.10536 3.62639 2.29289C3.43885 2.48043 3.3335 2.73478 3.3335 3V21C3.3335 21.2652 3.43885 21.5196 3.62639 21.7071C3.81393 21.8946 4.06828 22 4.3335 22H6.3335V15C6.3335 14.7348 6.43885 14.4804 6.62639 14.2929C6.81393 14.1054 7.06828 14 7.3335 14H11.3335C11.5987 14 11.8531 14.1054 12.0406 14.2929C12.2281 14.4804 12.3335 14.7348 12.3335 15V22H22.3335C22.5987 22 22.8531 21.8946 23.0406 21.7071C23.2281 21.5196 23.3335 21.2652 23.3335 21V12C23.3335 11.7348 23.2281 11.4804 23.0406 11.2929C22.8531 11.1054 22.5987 11 22.3335 11ZM11.3335 11H7.3335C7.06828 11 6.81393 10.8946 6.62639 10.7071C6.43885 10.5196 6.3335 10.2652 6.3335 10C6.3335 9.73478 6.43885 9.48043 6.62639 9.29289C6.81393 9.10536 7.06828 9 7.3335 9H11.3335C11.5987 9 11.8531 9.10536 12.0406 9.29289C12.2281 9.48043 12.3335 9.73478 12.3335 10C12.3335 10.2652 12.2281 10.5196 12.0406 10.7071C11.8531 10.8946 11.5987 11 11.3335 11ZM11.3335 8H7.3335C7.06828 8 6.81393 7.89464 6.62639 7.70711C6.43885 7.51957 6.3335 7.26522 6.3335 7C6.3335 6.73478 6.43885 6.48043 6.62639 6.29289C6.81393 6.10536 7.06828 6 7.3335 6H11.3335C11.5987 6 11.8531 6.10536 12.0406 6.29289C12.2281 6.48043 12.3335 6.73478 12.3335 7C12.3335 7.26522 12.2281 7.51957 12.0406 7.70711C11.8531 7.89464 11.5987 8 11.3335 8ZM8.3335 16H10.3335V22H8.3335V16Z" fill="#1D2D4A"/>
<path d="M25 2L2 25" stroke="#1D2D4A" stroke-width="2" stroke-linecap="round"/>
</svg>
