<svg width="28" height="20" viewBox="0 0 28 20" fill="none" xmlns="http://www.w3.org/2000/svg">
<path d="M15.82 7.55054H13.0335C12.7189 8.17975 12.5391 8.80896 12.4941 9.52807H15.6852C15.6852 8.85391 15.7301 8.17975 15.82 7.55054Z" fill="#1D2D4A"/>
<path d="M15.6852 10.427H12.4941C12.5391 11.1461 12.7638 11.8203 13.0335 12.4045H15.82C15.7301 11.8203 15.6852 11.1461 15.6852 10.427Z" fill="#1D2D4A"/>
<path d="M13.5732 13.3484C14.3373 14.3372 15.4159 15.0563 16.6744 15.3709C16.4047 14.8315 16.18 14.1124 16.0002 13.3484H13.5732Z" fill="#1D2D4A"/>
<path d="M16.6739 4.62915C15.4154 4.94376 14.3368 5.66286 13.6177 6.65162H15.9997C16.1345 5.88758 16.3592 5.16848 16.6739 4.62915Z" fill="#1D2D4A"/>
<path d="M22.4268 6.65162C21.6627 5.66286 20.5841 4.94376 19.3706 4.62915C19.6403 5.16848 19.865 5.88758 20.0448 6.65162H22.4268Z" fill="#1D2D4A"/>
<path d="M17.9776 4.44946C17.663 4.44946 17.2135 5.21351 16.8989 6.65171H19.1012C18.7866 5.21351 18.2922 4.44946 17.9776 4.44946Z" fill="#1D2D4A"/>
<path d="M19.4159 9.52807C19.4159 8.80896 19.326 8.13481 19.2811 7.55054H16.7642C16.6743 8.13481 16.6294 8.80896 16.6294 9.52807H19.4159Z" fill="#1D2D4A"/>
<path d="M20.3145 9.52807H23.5055C23.4606 8.80896 23.2359 8.13481 22.9662 7.55054H20.1797C20.2246 8.17975 20.3145 8.85391 20.3145 9.52807Z" fill="#1D2D4A"/>
<path d="M20.1797 12.4495H22.9662C23.2808 11.8202 23.4606 11.191 23.5055 10.4719H20.3145C20.3145 11.1461 20.2246 11.8202 20.1797 12.4495Z" fill="#1D2D4A"/>
<path d="M25.7528 0H2.69657C1.84264 0 1.12354 0.719101 1.12354 1.57303V6.24719H4.17971C6.15724 6.24719 7.86511 7.73034 8.04488 9.61798C8.2696 11.8202 6.56174 13.7528 4.31455 13.7528H1.16848V18.427C1.16848 19.2809 1.88758 20 2.74151 20H25.7977C26.6516 20 27.3707 19.2809 27.3707 18.427V1.57303C27.3258 0.719101 26.6067 0 25.7528 0ZM17.9775 16.4494C14.4269 16.4494 11.5505 13.573 11.5505 10.0225C11.5505 6.47191 14.4269 3.59551 17.9775 3.59551C21.528 3.59551 24.4494 6.42697 24.4494 9.97753C24.4494 13.5281 21.528 16.4494 17.9775 16.4494Z" fill="#1D2D4A"/>
<path d="M19.3257 15.3709C20.5841 15.0563 21.6628 14.3372 22.4268 13.3484H20.0448C19.865 14.1124 19.5953 14.8315 19.3257 15.3709Z" fill="#1D2D4A"/>
<path d="M16.584 10.427C16.584 11.1461 16.6739 11.8203 16.7188 12.4045H19.2357C19.3256 11.8203 19.3705 11.1461 19.3705 10.427H16.584Z" fill="#1D2D4A"/>
<path d="M17.9776 15.5506C18.2922 15.5506 18.7416 14.7866 19.0563 13.3484H16.854C17.2136 14.7866 17.7079 15.5506 17.9776 15.5506Z" fill="#1D2D4A"/>
<path d="M7.10112 9.70779C6.96629 8.26959 5.66292 7.146 4.13483 7.146H1.07865C0.449438 7.146 0 7.64038 0 8.22465V11.7752C0 12.3595 0.494382 12.8539 1.07865 12.8539H4.22472C5.93258 12.8539 7.2809 11.4157 7.10112 9.70779ZM4.7191 9.57296H4.80899C5.07865 9.57296 5.25843 9.75274 5.25843 10.0224C5.25843 10.2921 5.07865 10.4718 4.80899 10.4718H4.7191C4.44944 10.4718 4.26966 10.2921 4.26966 10.0224C4.26966 9.75274 4.44944 9.57296 4.7191 9.57296Z" fill="#1D2D4A"/>
</svg>
