<svg width="21" height="21" viewBox="0 0 21 21" fill="none" xmlns="http://www.w3.org/2000/svg">
<path d="M5.60036 20.48C5.42212 20.48 5.25118 20.4097 5.12515 20.2847C4.99912 20.1597 4.92832 19.9901 4.92832 19.8133V5.36887C4.92832 5.19206 4.99912 5.02249 5.12515 4.89746C5.25118 4.77244 5.42212 4.7022 5.60036 4.7022H7.16847V20.48H5.60036ZM19.2646 0.47998H0.89666C0.778909 0.47998 0.66231 0.502987 0.553522 0.547687C0.444734 0.592388 0.345887 0.657907 0.262624 0.740504C0.179362 0.8231 0.113314 0.921157 0.068253 1.02907C0.0231918 1.13699 -5.88354e-07 1.25266 0 1.36947V6.92383C-5.88354e-07 7.04064 0.0231918 7.1563 0.068253 7.26422C0.113314 7.37214 0.179362 7.47019 0.262624 7.55279C0.345887 7.63539 0.444734 7.70091 0.553522 7.74561C0.66231 7.79031 0.778909 7.81331 0.89666 7.81331H3.80824V4.7022H2.68817V3.59109H17.4731V4.7022H16.353V7.81331H19.2646C19.3824 7.81331 19.499 7.79031 19.6078 7.74561C19.7166 7.70091 19.8154 7.63539 19.8987 7.55279C19.9819 7.47019 20.048 7.37214 20.093 7.26422C20.1381 7.1563 20.1613 7.04064 20.1613 6.92383V1.36947C20.1613 1.25266 20.1381 1.13699 20.093 1.02907C20.048 0.921157 19.9819 0.8231 19.8987 0.740504C19.8154 0.657907 19.7166 0.592388 19.6078 0.547687C19.499 0.502987 19.3824 0.47998 19.2646 0.47998ZM14.5609 20.48H8.73656V4.7022H14.5609C14.7392 4.7022 14.9101 4.77244 15.0361 4.89746C15.1622 5.02249 15.233 5.19206 15.233 5.36887V19.8133C15.233 19.9901 15.1622 20.1597 15.0361 20.2847C14.9101 20.4097 14.7392 20.48 14.5609 20.48ZM13.4409 6.03494C13.4409 5.97616 13.4173 5.91979 13.3754 5.87823C13.3335 5.83666 13.2767 5.81331 13.2174 5.81331H11.6481C11.5889 5.81331 11.5321 5.83666 11.4902 5.87823C11.4483 5.91979 11.4247 5.97616 11.4247 6.03494V7.59169C11.4247 7.65047 11.4483 7.70684 11.4902 7.7484C11.5321 7.78996 11.5889 7.81331 11.6481 7.81331H13.2174C13.2767 7.81331 13.3335 7.78996 13.3754 7.7484C13.4173 7.70684 13.4409 7.65047 13.4409 7.59169V6.03494Z" fill="#1D2D4A"/>
</svg>
