<svg width="20" height="20" viewBox="0 0 20 20" fill="none" xmlns="http://www.w3.org/2000/svg">
<g clip-path="url(#clip0)">
<path d="M19.9438 11.028C19.9485 10.9907 19.9531 10.9486 19.9531 10.9112C19.9531 9.08879 19.9531 7.27103 19.9438 5.4486C19.9391 4.79439 19.9158 4.14019 19.7662 3.5C19.369 1.77103 18.3176 0.663551 16.5933 0.228972C15.7896 0.0233645 14.9578 0.0140187 14.1354 0.0093458C11.4345 -0.0046729 8.73353 0 6.03259 0.0046729C5.27558 0.0046729 4.52325 0.0327103 3.77558 0.14486C2.1868 0.378505 1.05596 1.23364 0.401754 2.69626C0.12138 3.32243 0.0279223 4.00467 0.0139036 4.67757C-0.0188066 6.15421 0.00923076 7.63551 0.00923076 9.11215C0.00455786 10.9907 0.00923076 12.8645 -0.000115034 14.743C-0.00478793 15.3037 0.0512868 15.8598 0.144745 16.4159C0.434464 18.0748 1.68213 19.3925 3.32231 19.771C4.13072 19.9579 4.95783 19.986 5.78493 19.9907C8.1354 20.0047 10.4905 19.9953 12.841 20C13.6588 20 14.4765 20 15.2943 19.9486C15.9812 19.9065 16.6681 19.8364 17.2989 19.5514C18.8597 18.8505 19.6915 17.6168 19.8644 15.9299C20.0232 14.2991 19.9438 12.6636 19.9438 11.028ZM13.5887 17.6636C12.2616 17.8364 11.1494 17.4252 10.2662 16.4206C10.126 16.2617 10.0887 16.3692 10.0139 16.4533C8.39708 18.3084 5.45315 18.1589 4.0653 16.1495C3.6354 15.528 3.43446 14.8411 3.43914 14.0841C3.44381 12.4953 3.44381 10.9112 3.44848 9.32243C3.44848 9.23832 3.44381 9.14953 3.43914 9.06542C3.44381 8.02804 3.44848 6.99533 3.45315 5.95794C3.45783 4.35981 4.35035 3.04673 5.81764 2.48598C7.27558 1.92523 8.95315 2.3271 9.97651 3.49065C10.0933 3.6215 10.1541 3.63551 10.3036 3.52804C11.7943 2.46729 13.8223 2.67757 15.0606 4.01869C16.3924 5.45794 16.327 7.6729 14.9672 9.04206C14.8083 9.20093 14.5373 9.32243 14.5326 9.52804C14.5279 9.71495 14.7288 9.90187 14.841 10.0888C15.0606 10.4533 15.2849 10.8131 15.5045 11.1729C15.5139 11.1729 15.5232 11.1729 15.5326 11.1729C15.5232 11.1729 15.5139 11.1729 15.5045 11.1729C15.7709 11.6869 16.1214 12.1495 16.3597 12.6822C17.3083 14.7757 15.8737 17.3645 13.5887 17.6636Z" fill="#1D2D4A"/>
<path d="M14.0933 12.7431C13.7195 12.1122 13.3737 11.4674 12.9578 10.8599C12.6774 10.3879 12.4064 9.90661 12.1074 9.43932C11.9765 9.23371 11.9718 9.11689 12.1634 8.94399C12.6214 8.53745 13.056 8.0982 13.4999 7.67296C13.9298 7.25707 14.1074 6.7524 13.9952 6.16829C13.8737 5.55147 13.4999 5.13091 12.9064 4.93932C12.3036 4.74306 11.7475 4.86922 11.2849 5.30848C10.5513 6.00474 9.82698 6.71035 9.09333 7.40661C9.03726 7.45801 8.9952 7.54679 8.88772 7.54212C8.88772 7.2524 8.8924 6.97203 8.88772 6.69165C8.88305 6.31782 8.92978 5.93932 8.86436 5.57483C8.70548 4.71035 7.88772 4.15427 6.9438 4.2524C6.10268 4.33651 5.46716 5.04212 5.46249 5.89259C5.45782 7.14492 5.44847 8.39726 5.4438 9.65427C5.4438 10.1122 5.45314 10.5702 5.45782 11.0281C5.42511 12.1029 5.42978 13.173 5.4438 14.2477C5.44847 14.5702 5.56997 14.8646 5.78959 15.1122C6.31763 15.7103 7.08399 15.9019 7.79894 15.6403C8.3924 15.4206 8.92044 14.729 8.88305 13.944C8.85969 13.4627 8.91576 12.9767 8.86903 12.4954C8.82698 12.0468 8.9952 11.7851 9.36903 11.5842C9.51857 11.5001 9.56997 11.4907 9.66343 11.6449C10.2989 12.7197 10.9485 13.7898 11.5933 14.8646C12.0466 15.6216 12.9672 15.9206 13.7335 15.5468C14.3877 15.2244 14.8924 14.2945 14.4999 13.4533C14.3831 13.2057 14.2288 12.9767 14.0933 12.7431Z" fill="#1D2D4A"/>
</g>
<defs>
<clipPath id="clip0">
<rect width="19.9626" height="20" fill="white"/>
</clipPath>
</defs>
</svg>
