<svg width="30" height="23" viewBox="0 0 30 23" fill="none" xmlns="http://www.w3.org/2000/svg">
<path d="M0 8.7395V17.0028C0 18.6555 1.34454 20 2.9972 20H23.6135C25.2661 20 26.6107 18.6555 26.6107 17.0028V8.7395H0ZM7.78712 15.4622C7.78712 16.0504 7.31093 16.4986 6.75071 16.4986H4.53782C3.94958 16.4986 3.5014 16.0224 3.5014 15.4622V13.2493C3.5014 12.6611 3.97759 12.2129 4.53782 12.2129H6.75071C7.33894 12.2129 7.78712 12.6891 7.78712 13.2493V15.4622Z" fill="#1D2D4A"/>
<path d="M26.6107 4.90196V2.9972C26.6107 1.34454 25.2661 0 23.6135 0H2.9972C1.34454 0 0 1.34454 0 2.9972V4.90196H26.6107Z" fill="#1D2D4A"/>
<circle cx="24.5" cy="17.5" r="5" fill="#1D2D4A" stroke="white"/>
<path d="M24.308 20.172V19.62C24.004 19.592 23.748 19.522 23.54 19.41C23.332 19.298 23.152 19.158 23 18.99L23.54 18.498C23.656 18.618 23.784 18.718 23.924 18.798C24.064 18.874 24.218 18.924 24.386 18.948V17.868C23.934 17.776 23.61 17.632 23.414 17.436C23.218 17.24 23.12 16.996 23.12 16.704C23.12 16.388 23.22 16.13 23.42 15.93C23.624 15.73 23.92 15.608 24.308 15.564V15H24.992V15.564C25.232 15.592 25.442 15.652 25.622 15.744C25.802 15.832 25.958 15.952 26.09 16.104L25.544 16.596C25.472 16.516 25.386 16.444 25.286 16.38C25.186 16.316 25.064 16.268 24.92 16.236V17.232C25.344 17.328 25.656 17.466 25.856 17.646C26.06 17.826 26.162 18.07 26.162 18.378C26.162 18.674 26.066 18.934 25.874 19.158C25.686 19.382 25.392 19.528 24.992 19.596V20.172H24.308ZM23.948 16.68C23.948 16.796 23.982 16.886 24.05 16.95C24.122 17.014 24.234 17.068 24.386 17.112V16.224C24.234 16.256 24.122 16.312 24.05 16.392C23.982 16.468 23.948 16.564 23.948 16.68ZM25.334 18.444C25.334 18.356 25.308 18.272 25.256 18.192C25.204 18.108 25.092 18.04 24.92 17.988V18.936C25.06 18.896 25.164 18.834 25.232 18.75C25.3 18.662 25.334 18.56 25.334 18.444Z" fill="white"/>
</svg>
