<svg width="21" height="20" viewBox="0 0 21 20" fill="none" xmlns="http://www.w3.org/2000/svg">
<path d="M19.9337 7.21363C19.7163 6.42553 18.9146 5.94994 18.1265 6.16735C17.3384 6.38476 16.8628 7.18646 17.0802 7.97457C17.2432 8.57244 17.3248 9.21108 17.3248 9.83613C17.3248 13.8038 14.1044 17.0242 10.1367 17.0242C9.75623 17.0242 9.38935 16.997 9.03606 16.9427C10.7074 16.5622 11.9575 15.0675 11.9575 13.2875C11.9575 11.2085 10.2726 9.53719 8.20719 9.53719C6.12822 9.53719 4.45688 11.2221 4.45688 13.2875C4.45688 13.6951 4.52482 14.0756 4.63353 14.4425C3.58725 13.1924 2.9622 11.589 2.9622 9.84972C2.9622 6.58858 5.16346 3.73509 8.3023 2.90622C9.09041 2.7024 9.56599 1.88712 9.34859 1.09901C9.14476 0.3109 8.32948 -0.164681 7.54137 0.0527275C3.09808 1.2213 0 5.25695 0 9.86331C0 15.4616 4.552 20 10.1367 20C15.735 20 20.2734 15.448 20.2734 9.86331C20.2734 8.95291 20.1647 8.06968 19.9337 7.21363Z" fill="#1D2D4A"/>
<path d="M16.4696 3.41363C16.6027 2.06944 15.6209 0.871862 14.2767 0.738756C12.9325 0.60565 11.735 1.58742 11.6018 2.93161C11.4687 4.2758 12.4505 5.47338 13.7947 5.60649C15.1389 5.73959 16.3365 4.75782 16.4696 3.41363Z" fill="#1D2D4A"/>
</svg>
