<svg width="15" height="23" viewBox="0 0 15 23" fill="none" xmlns="http://www.w3.org/2000/svg">
<path d="M12.2188 0H2.15625C0.970313 0 0 0.970313 0 2.15625V20.8438C0 22.0297 0.970313 23 2.15625 23H12.2188C13.4047 23 14.375 22.0297 14.375 20.8438V2.15625C14.375 0.970313 13.4047 0 12.2188 0ZM4.3125 1.07812H10.0625V1.79688H4.3125V1.07812ZM7.1875 21.5625C6.80625 21.5625 6.44062 21.411 6.17103 21.1415C5.90145 20.8719 5.75 20.5062 5.75 20.125C5.75 19.7438 5.90145 19.3781 6.17103 19.1085C6.44062 18.839 6.80625 18.6875 7.1875 18.6875C7.56875 18.6875 7.93438 18.839 8.20397 19.1085C8.47355 19.3781 8.625 19.7438 8.625 20.125C8.625 20.5062 8.47355 20.8719 8.20397 21.1415C7.93438 21.411 7.56875 21.5625 7.1875 21.5625ZM12.9375 17.25H1.4375V2.875H12.9375V17.25Z" fill="#1D2D4A"/>
<path d="M7.1875 8L10.1875 10.5L7.1875 13" stroke="#1D2D4A" stroke-linecap="round" stroke-linejoin="round"/>
<path d="M10.1875 10.5L3.6875 10.5" stroke="#1D2D4A" stroke-linecap="round" stroke-linejoin="round"/>
</svg>
