<?xml version="1.0" encoding="UTF-8"?>
<svg width="151px" height="24px" viewBox="0 0 151 24" version="1.1" xmlns="http://www.w3.org/2000/svg" xmlns:xlink="http://www.w3.org/1999/xlink">
    <!-- Generator: Sketch 52.4 (67378) - http://www.bohemiancoding.com/sketch -->
    <title>kazinoigri copy 7</title>
    <desc>Created with Sketch.</desc>
    <g id="обзор-казино" stroke="none" stroke-width="1" fill="none" fill-rule="evenodd">
        <g id="1440-обзор-казино" transform="translate(-360.000000, -271.000000)">
            <g id="kazinoigri-copy-7" transform="translate(360.000000, 271.000000)">
                <path d="M44.538992,2.36 L33.1238727,2.36 C32.8435013,2.36 32.4029178,2.8 32.4029178,3.08 L32.4029178,6 C32.4029178,6.28 32.8435013,6.36 33.1238727,6.36 L38.8514589,6.36 L38.8514589,6.56 L31.8822281,20.12 L23.7514589,2.64 C23.6713528,2.48 23.5111406,2.36 23.3509284,2.36 L23.070557,2.36 C22.8702918,2.36 22.7100796,2.48 22.6299735,2.64 L14.6994695,19.6 L8.41114058,11.4 L14.6994695,3.44 C14.9798408,3.04 14.7395225,2.32 14.2188329,2.32 L10.8143236,2.32 C10.6541114,2.32 10.4137931,2.56 10.333687,2.68 L4.40583554,10.24 L4.40583554,3.2 C4.40583554,2.84 4.08541114,2.36 3.72493369,2.36 L0.600795756,2.36 C0.240318302,2.36 0,2.88 0,3.2 L0,20.68 C0,21.04 0.200265252,21.16 0.600795756,21.16 L3.72493369,21.16 C4.08541114,21.16 4.40583554,21.04 4.40583554,20.68 L4.40583554,12.68 L10.5740053,21.04 C10.6140584,21.12 10.8543767,21.16 11.0546419,21.16 L14.5392573,21.16 C14.5793103,21.16 14.6594164,21.16 14.6994695,21.16 L17.6633952,21.16 C18.1840849,21.16 18.5045093,20.84 18.6246684,20.52 L19.5859416,18.36 L26.8755968,18.36 L27.83687,20.48 C28.0771883,21 28.2774536,21.16 28.7580902,21.16 L31.7220159,21.16 C31.8421751,21.16 31.9623342,21.12 32.0424403,21.04 C32.1225464,21.12 32.2427056,21.16 32.3228117,21.16 L44.0183024,21.16 C44.2986737,21.16 44.4588859,21.08 44.4588859,20.84 L44.4588859,17.92 C44.4588859,17.64 44.2986737,17.16 44.0183024,17.16 L38.0503979,17.16 L38.0503979,17.32 L44.8594164,3.4 L44.8594164,3.04 C44.8594164,2.8 44.8193634,2.36 44.538992,2.36 Z M21.1880637,14.76 L23.1907162,10.36 L23.2307692,10.36 L25.2734748,14.76 L21.1880637,14.76 Z" id="Shape" fill="#FFFFFF" fill-rule="nonzero"></path>
                <path d="M50.066313,2.88 C50.066313,2.6 49.8259947,2.36 49.5456233,2.36 L46.1811671,2.36 C45.9007958,2.36 45.6604775,2.6 45.6604775,2.88 L45.6604775,20.68 C45.6604775,20.96 45.9007958,21.2 46.1811671,21.2 L49.5856764,21.2 C49.8660477,21.2 50.106366,20.96 50.106366,20.68 L50.066313,2.88 Z" id="Path" fill="#FFFFFF"></path>
                <path d="M108.183289,11.56 L102.776127,11.56 C102.495756,11.56 102.135279,11.88 102.135279,12.2 L102.135279,14.84 C102.135279,15.12 102.495756,15.16 102.776127,15.16 L104.538462,15.16 L104.538462,16.88 C103.737401,17.2 102.896286,17.32 102.135279,17.32 C99.2114058,17.32 96.8082228,14.92 96.8082228,12 C96.8082228,9.04 99.1713528,6.6 102.095225,6.6 C103.416976,6.6 104.578515,6.96 105.619894,7.88 C105.820159,8.04 106.140584,8.04 106.340849,7.84 L108.46366,5.6 C108.663926,5.4 108.663926,5.08 108.423607,4.88 C106.581167,3.28 104.137931,2.36 101.89496,2.36 C96.5679045,2.36 92.2822281,6.64 92.2822281,12 C92.2822281,17.36 96.5679045,21.6 101.89496,21.6 C105.780106,21.6 108.543767,19.84 108.543767,19.84 C108.663926,19.76 108.744032,19.56 108.744032,19.4 L108.703979,12.12 C108.663926,11.84 108.46366,11.56 108.183289,11.56 Z" id="Path" fill="#FFFFFF"></path>
                <path d="M123.884085,8.24 C123.884085,5.04 121.240584,2.36 118.03634,2.36 L110.025729,2.36 C109.745358,2.36 109.384881,2.8 109.384881,3.08 L109.384881,20.8 C109.384881,21.08 109.745358,21.12 110.025729,21.12 L113.229973,21.12 C113.510345,21.12 113.790716,21.04 113.790716,20.8 L113.790716,13.92 L115.593103,13.92 L119.157825,20.96 C119.197878,21.08 119.35809,21.12 119.598408,21.12 L123.16313,21.12 C123.603714,21.12 123.803979,20.76 123.603714,20.44 L119.918833,13.64 C122.24191,12.72 123.884085,10.72 123.884085,8.24 Z M117.675862,10.36 L113.750663,10.36 L113.750663,6.36 L117.675862,6.36 C118.757294,6.36 119.718568,7.2 119.718568,8.32 C119.718568,9.44 118.757294,10.36 117.675862,10.36 Z" id="Shape" fill="#FFFFFF" fill-rule="nonzero"></path>
                <path d="M128.970822,2.88 C128.970822,2.6 128.730504,2.36 128.450133,2.36 L125.045623,2.36 C124.765252,2.36 124.524934,2.6 124.524934,2.88 L124.524934,20.68 C124.524934,20.96 124.765252,21.2 125.045623,21.2 L128.450133,21.2 C128.730504,21.2 128.970822,20.96 128.970822,20.68 L128.970822,2.88 Z" id="Path" fill="#FFFFFF"></path>
                <path d="M64.6456233,13.56 C63.8045093,13.24 63.2838196,12.84 62.8832891,12.48 L62.8832891,12.36 L62.803183,12.36 L52.1090186,2.36 L51.4281167,2.36 C51.1477454,2.36 50.9074271,2.56 50.9074271,2.8 L50.9474801,20.72 C50.9474801,21 51.1877984,21.12 51.4681698,21.12 L54.6724138,21.12 C54.9527851,21.12 54.9127321,21.04 54.9127321,20.8 L54.9127321,10.72 L55.1931034,10.72 L65.8071618,21.36 C65.8472149,21.4 66.0875332,21.52 66.1676393,21.52 L66.6082228,21.52 C66.8885942,21.52 66.9687003,21.36 66.9687003,21.08 L66.9687003,17.64 L65.6870027,16.84 C64.4453581,16.2 64.0848806,14.76 64.6456233,13.56 Z" id="Path" fill="#FFFFFF"></path>
                <path d="M66.5281167,2.36 L63.3238727,2.36 C63.0435013,2.36 62.8832891,2.8 62.8832891,3.08 L62.8832891,8.76 C62.8832891,8.68 63.0435013,8.56 63.1636605,8.48 L63.2037135,8.44 L63.2838196,8.36 C64.1249337,7.76 65.2464191,7.24 66.768435,6.92 C66.8084881,6.92 66.8485411,6.92 66.8485411,6.92 L66.8485411,3.16 C66.8885942,2.8 66.8084881,2.36 66.5281167,2.36 Z" id="Path" fill="#FFFFFF"></path>
                <path d="M86.9151194,16.92 L86.9151194,20.84 C86.9151194,21.12 87.395756,21.16 87.6360743,21.16 L90.8403183,21.16 C91.1206897,21.16 91.2809019,21.08 91.2809019,20.84 L91.2809019,14.68 C90.5198939,15.8 88.9177719,16.52 86.9151194,16.92 Z" id="Path" fill="#FFFFFF"></path>
                <path d="M90.8803714,2.36 L87.6761273,2.36 C87.395756,2.36 86.9551724,2.8 86.9551724,3.08 L86.9551724,6.48 L88.1167109,7.08 C88.7175066,7.44 89.2381963,8 89.3984085,8.64 C89.5586207,9.28 89.5185676,9.92 89.1981432,10.48 C89.2381963,10.48 89.3183024,10.48 89.3583554,10.52 L89.3984085,10.52 L89.4785146,10.56 C90.4798408,10.96 90.9604775,11.44 91.361008,11.96 L91.361008,3.08 C91.3209549,2.8 91.1607427,2.36 90.8803714,2.36 Z" id="Path" fill="#FFFFFF"></path>
                <path d="M89.3984085,13.4 C89.3984085,13.36 89.4785146,13.32 89.4785146,13.24 C89.4785146,13.16 89.3583554,12.92 88.5572944,12.6 C88.3570292,12.52 88.1167109,12.4 87.9965517,12.28 L86.8750663,14.04 L86.8750663,14.64 C88.5172414,14.16 89.3583554,13.64 89.3984085,13.4 Z" id="Path" fill="#09263E"></path>
                <path d="M64.0848806,10.64 C64.0848806,10.72 64.3251989,11.16 65.6068966,11.64 L66.8885942,9.36 L66.8885942,9.16 C64.8859416,9.68 64.1249337,10.44 64.0848806,10.64 Z" id="Path" fill="#09263E"></path>
                <path d="M89.2381963,11.12 C89.2381963,11.12 89.1981432,11.12 89.2381963,11.12 C89.1580902,11.08 89.0779841,11.08 89.037931,11.08 C88.8376658,11.08 88.4371353,11.2 88.3570292,11.4 C88.3169761,11.48 88.1167109,11.56 88.1167109,11.68 C88.1167109,11.84 88.4771883,12 88.6374005,12.08 C89.798939,12.56 90.0793103,13 90.0793103,13.32 C90.0793103,13.44 90.0793103,13.56 90.0793103,13.64 C89.798939,14.44 87.9164456,15.2 85.5132626,15.64 L88.5973475,10.32 C89.1580902,9.36 88.8376658,8.16 87.8763926,7.64 L75.2596817,0.36 C74.9392573,0.2 74.6188329,0.08 74.2583554,0.08 C73.5774536,0.08 72.8965517,0.44 72.5360743,1.08 L66.0074271,12.4 C64.365252,11.92 63.564191,11.24 63.564191,10.68 C63.564191,10.64 63.564191,10.64 63.564191,10.6 C63.6442971,9.92 64.8058355,9.04 67.2490716,8.52 C67.3291777,8.52 67.4092838,8.48 67.4493369,8.4 C67.569496,8.28 67.6496021,8.08 67.6095491,7.92 C67.569496,7.68 67.3692308,7.52 67.1289125,7.52 C67.0888594,7.52 67.0488064,7.52 67.0087533,7.52 C65.4867374,7.84 64.3251989,8.32 63.564191,8.92 C63.2037135,9.2 62.9633952,9.48 62.803183,9.76 C62.6429708,10.04 62.5628647,10.36 62.5628647,10.68 C62.5628647,11.76 63.604244,12.64 65.4867374,13.28 C66.6082228,13.64 68.0100796,13.92 69.6522546,14.08 L69.6923077,14.08 L69.7323607,14.08 C69.6522546,14.36 69.4119363,14.56 69.131565,14.56 C69.0915119,14.56 69.0915119,14.56 69.0514589,14.56 C67.4893899,14.4 66.2076923,14.16 65.166313,13.84 C64.7257294,14.76 65.0461538,15.88 65.967374,16.4 L78.5840849,23.68 C78.9045093,23.84 79.2249337,23.96 79.5854111,23.96 C80.266313,23.96 80.9472149,23.6 81.3076923,22.96 L84.5519894,17.44 C83.8310345,17.52 83.1501326,17.6 82.5092838,17.6 C82.1888594,17.6 81.9485411,17.32 81.868435,17.04 C81.9084881,17.04 81.9084881,17 81.9485411,17 C82.8697613,17 83.8710875,16.92 84.9124668,16.76 C87.7562334,16.36 90.6,15.44 91.0806366,13.96 C91.4811671,12.72 90.8403183,11.76 89.2381963,11.12 Z M78.664191,13 C78.3037135,13.64 77.6228117,14 76.9018568,14 C76.5413793,14 76.2209549,13.92 75.9005305,13.72 C74.9392573,13.16 74.6188329,11.92 75.1795756,10.96 C75.5400531,10.32 76.2209549,9.96 76.9419098,9.96 C77.3023873,9.96 77.6228117,10.04 77.9432361,10.24 C78.9045093,10.8 79.2249337,12.04 78.664191,13 Z" id="Shape" fill="#FF333A" fill-rule="nonzero"></path>
                <path d="M130.733156,19.72 C130.893369,19.6 131.053581,19.52 131.253846,19.52 C131.454111,19.52 131.614324,19.6 131.774536,19.72 C131.934748,19.84 132.014854,20.04 132.014854,20.28 C132.014854,20.52 131.934748,20.72 131.774536,20.84 C131.614324,20.96 131.454111,21.04 131.253846,21.04 C131.053581,21.04 130.893369,20.96 130.733156,20.84 C130.572944,20.72 130.492838,20.52 130.492838,20.28 C130.492838,20.04 130.572944,19.84 130.733156,19.72 Z" id="Path" fill="#FF333A"></path>
                <path d="M137.021485,20.28 C136.460743,20.84 135.779841,21.12 135.018833,21.12 C134.217772,21.12 133.576923,20.88 133.056233,20.4 C132.535544,19.92 132.255172,19.24 132.255172,18.36 C132.255172,17.48 132.535544,16.8 133.056233,16.32 C133.576923,15.84 134.257825,15.6 135.018833,15.6 C135.739788,15.6 136.380637,15.84 136.901326,16.36 L136.100265,17.2 C135.779841,16.92 135.459416,16.8 135.058886,16.8 C134.618302,16.8 134.257825,16.96 133.977454,17.24 C133.697082,17.52 133.53687,17.88 133.53687,18.36 C133.53687,18.84 133.697082,19.2 133.977454,19.48 C134.257825,19.76 134.618302,19.88 135.018833,19.88 C135.499469,19.88 135.859947,19.72 136.140318,19.44 L137.021485,20.28 Z" id="Path" fill="#FF333A"></path>
                <path d="M141.54748,16.44 C142.06817,16.96 142.308488,17.6 142.308488,18.36 C142.308488,19.12 142.06817,19.76 141.587533,20.28 C141.106897,20.8 140.425995,21.04 139.624934,21.04 C138.78382,21.04 138.142971,20.8 137.662334,20.28 C137.181698,19.76 136.941379,19.12 136.941379,18.36 C136.941379,17.6 137.181698,16.96 137.662334,16.44 C138.142971,15.92 138.823873,15.68 139.624934,15.68 C140.385942,15.64 141.02679,15.92 141.54748,16.44 Z M138.543501,17.28 C138.303183,17.6 138.183024,17.96 138.183024,18.36 C138.183024,18.76 138.303183,19.16 138.543501,19.44 C138.78382,19.72 139.144297,19.88 139.584881,19.88 C140.025464,19.88 140.385942,19.72 140.62626,19.44 C140.866578,19.16 140.986737,18.8 140.986737,18.36 C140.986737,17.96 140.866578,17.6 140.586207,17.28 C140.305836,16.96 139.985411,16.8 139.584881,16.8 C139.144297,16.8 138.78382,16.96 138.543501,17.28 Z" id="Shape" fill="#FF333A" fill-rule="nonzero"></path>
                <path d="M146.27374,20.92 L146.27374,18.16 C146.27374,17.8 146.193634,17.48 145.993369,17.24 C145.793103,17 145.552785,16.88 145.192308,16.88 C144.871883,16.88 144.591512,17 144.391247,17.28 C144.190981,17.56 144.070822,17.84 144.070822,18.2 L144.070822,20.96 L142.789125,20.96 L142.789125,15.76 L143.990716,15.76 L144.070822,16.4 C144.190981,16.16 144.391247,15.96 144.631565,15.84 C144.871883,15.72 145.152255,15.68 145.432626,15.68 C146.193634,15.68 146.714324,16 146.954642,16.64 C147.355172,16 147.915915,15.68 148.676923,15.68 C149.397878,15.68 149.958621,15.88 150.319098,16.32 C150.679576,16.76 150.879841,17.36 150.879841,18.16 L150.879841,20.96 L149.598143,20.96 L149.598143,18.16 C149.598143,17.8 149.518037,17.48 149.357825,17.24 C149.197613,17 148.957294,16.88 148.63687,16.88 C148.316446,16.88 148.036074,17 147.835809,17.24 C147.635544,17.48 147.515385,17.8 147.515385,18.16 L147.515385,20.92 L146.27374,20.92 Z" id="Path" fill="#FF333A"></path>
            </g>
        </g>
    </g>
</svg>