<?xml version="1.0" encoding="UTF-8"?>
<svg width="154px" height="111px" viewBox="0 0 154 111" version="1.1" xmlns="http://www.w3.org/2000/svg" xmlns:xlink="http://www.w3.org/1999/xlink">
    <!-- Generator: Sketch 52.4 (67378) - http://www.bohemiancoding.com/sketch -->
    <title>crown copy 8</title>
    <desc>Created with Sketch.</desc>
    <g id="бонусы-общая-казино" stroke="none" stroke-width="1" fill="none" fill-rule="evenodd" fill-opacity="0.197149">
        <g id="1440-казино-бонусы-общая" transform="translate(-643.000000, -1958.000000)" fill="#000000" fill-rule="nonzero">
            <g id="crown-copy-8" transform="translate(643.000000, 1958.000000)">
                <path d="M77.5,0 C71.701375,0 67,4.925085 67,11 C67,17.075135 71.701375,22 77.5,22 C83.298975,22 88,17.075135 88,11 C88,4.925085 83.298975,0 77.5,0 Z M70.9535858,24 L46.0232107,59.2646525 L14.1459195,47.079208 C12.9860086,48.2417802 11.5808492,49.1220201 10,49.6622824 L26.3029329,97 L126.697067,97 L143,49.6622824 C141.41933,49.1220201 140.014171,48.2417802 138.854081,47.079208 L106.976789,59.2646525 L82.0464213,24 C80.3323707,24.730754 78.4695215,25.1230758 76.5000036,25.1230758 C74.5304857,25.1230758 72.6676365,24.730754 70.9535858,24 Z M7,32 C3.134075,32 0,35.1340575 0,39 C0,42.86596 3.134075,46 7,46 C10.865925,46 14,42.86596 14,39 C14,35.1340575 10.865925,32 7,32 Z M147,32 C143.134075,32 140,35.1340575 140,39 C140,42.86596 143.134075,46 147,46 C150.865925,46 154,42.86596 154,39 C154,35.1340575 150.865925,32 147,32 Z M77.5,66 C83.298975,66 88,70.9248833 88,77 C88,83.0751167 83.298975,88 77.5,88 C71.701025,88 67,83.0751167 67,77 C67,70.9248833 71.701025,66 77.5,66 Z M27,100 L27,111 L127,111 L127,100 L27,100 Z" id="Shape"></path>
            </g>
        </g>
    </g>
</svg>