<svg width="128" height="57" viewBox="0 0 128 57" fill="none" xmlns="http://www.w3.org/2000/svg">
    <path d="M108.594 51.9727C108.625 52.5547 108.85 52.957 109.268 53.1797C109.482 53.2969 109.725 53.3555 109.994 53.3555C110.498 53.3555 110.928 53.1465 111.283 52.7285C111.639 52.3066 111.891 51.4531 112.039 50.168C111.805 50.5391 111.514 50.8008 111.166 50.9531C110.822 51.1016 110.451 51.1758 110.053 51.1758C109.244 51.1758 108.604 50.9238 108.131 50.4199C107.662 49.916 107.428 49.2676 107.428 48.4746C107.428 47.7129 107.66 47.043 108.125 46.4648C108.59 45.8867 109.275 45.5977 110.182 45.5977C111.404 45.5977 112.248 46.1484 112.713 47.25C112.971 47.8555 113.1 48.6133 113.1 49.5234C113.1 50.5508 112.945 51.4609 112.637 52.2539C112.125 53.5742 111.258 54.2344 110.035 54.2344C109.215 54.2344 108.592 54.0195 108.166 53.5898C107.74 53.1602 107.527 52.6211 107.527 51.9727H108.594ZM110.193 50.25C110.611 50.25 110.992 50.1133 111.336 49.8398C111.684 49.5625 111.857 49.0801 111.857 48.3926C111.857 47.7754 111.701 47.3164 111.389 47.0156C111.08 46.7109 110.686 46.5586 110.205 46.5586C109.689 46.5586 109.279 46.7324 108.975 47.0801C108.674 47.4238 108.523 47.8848 108.523 48.4629C108.523 49.0098 108.656 49.4453 108.922 49.7695C109.188 50.0898 109.611 50.25 110.193 50.25ZM116.926 45.6094C118.012 45.6094 118.797 46.0566 119.281 46.9512C119.656 47.6426 119.844 48.5898 119.844 49.793C119.844 50.9336 119.674 51.877 119.334 52.623C118.842 53.6934 118.037 54.2285 116.92 54.2285C115.912 54.2285 115.162 53.791 114.67 52.916C114.26 52.1855 114.055 51.2051 114.055 49.9746C114.055 49.0215 114.178 48.2031 114.424 47.5195C114.885 46.2461 115.719 45.6094 116.926 45.6094ZM116.914 53.2676C117.461 53.2676 117.896 53.0254 118.221 52.541C118.545 52.0566 118.707 51.1543 118.707 49.834C118.707 48.8809 118.59 48.0977 118.355 47.4844C118.121 46.8672 117.666 46.5586 116.99 46.5586C116.369 46.5586 115.914 46.8516 115.625 47.4375C115.34 48.0195 115.197 48.8789 115.197 50.0156C115.197 50.8711 115.289 51.5586 115.473 52.0781C115.754 52.8711 116.234 53.2676 116.914 53.2676ZM123.605 45.6094C124.691 45.6094 125.477 46.0566 125.961 46.9512C126.336 47.6426 126.523 48.5898 126.523 49.793C126.523 50.9336 126.354 51.877 126.014 52.623C125.521 53.6934 124.717 54.2285 123.6 54.2285C122.592 54.2285 121.842 53.791 121.35 52.916C120.939 52.1855 120.734 51.2051 120.734 49.9746C120.734 49.0215 120.857 48.2031 121.104 47.5195C121.564 46.2461 122.398 45.6094 123.605 45.6094ZM123.594 53.2676C124.141 53.2676 124.576 53.0254 124.9 52.541C125.225 52.0566 125.387 51.1543 125.387 49.834C125.387 48.8809 125.27 48.0977 125.035 47.4844C124.801 46.8672 124.346 46.5586 123.67 46.5586C123.049 46.5586 122.594 46.8516 122.305 47.4375C122.02 48.0195 121.877 48.8789 121.877 50.0156C121.877 50.8711 121.969 51.5586 122.152 52.0781C122.434 52.8711 122.914 53.2676 123.594 53.2676Z" fill="#20A980"/>
    <path d="M3.24609 45.6094C4.33203 45.6094 5.11719 46.0566 5.60156 46.9512C5.97656 47.6426 6.16406 48.5898 6.16406 49.793C6.16406 50.9336 5.99414 51.877 5.6543 52.623C5.16211 53.6934 4.35742 54.2285 3.24023 54.2285C2.23242 54.2285 1.48242 53.791 0.990234 52.916C0.580078 52.1855 0.375 51.2051 0.375 49.9746C0.375 49.0215 0.498047 48.2031 0.744141 47.5195C1.20508 46.2461 2.03906 45.6094 3.24609 45.6094ZM3.23437 53.2676C3.78125 53.2676 4.2168 53.0254 4.54102 52.541C4.86523 52.0566 5.02734 51.1543 5.02734 49.834C5.02734 48.8809 4.91016 48.0977 4.67578 47.4844C4.44141 46.8672 3.98633 46.5586 3.31055 46.5586C2.68945 46.5586 2.23438 46.8516 1.94531 47.4375C1.66016 48.0195 1.51758 48.8789 1.51758 50.0156C1.51758 50.8711 1.60937 51.5586 1.79297 52.0781C2.07422 52.8711 2.55469 53.2676 3.23437 53.2676Z" fill="#DD0A19"/>
    <path d="M17.1172 11.2285C16.125 11.2285 15.4043 10.957 14.9551 10.4141C14.5098 9.86719 14.2871 9.20312 14.2871 8.42188H15.3887C15.4355 8.96484 15.5371 9.35938 15.6934 9.60547C15.9668 10.0469 16.4609 10.2676 17.1758 10.2676C17.7305 10.2676 18.1758 10.1191 18.5117 9.82227C18.8477 9.52539 19.0156 9.14258 19.0156 8.67383C19.0156 8.0957 18.8379 7.69141 18.4824 7.46094C18.1309 7.23047 17.6406 7.11523 17.0117 7.11523C16.9414 7.11523 16.8691 7.11719 16.7949 7.12109C16.7246 7.12109 16.6523 7.12305 16.5781 7.12695V6.19531C16.6875 6.20703 16.7793 6.21484 16.8535 6.21875C16.9277 6.22266 17.0078 6.22461 17.0938 6.22461C17.4883 6.22461 17.8125 6.16211 18.0664 6.03711C18.5117 5.81836 18.7344 5.42773 18.7344 4.86523C18.7344 4.44727 18.5859 4.125 18.2891 3.89844C17.9922 3.67187 17.6465 3.55859 17.252 3.55859C16.5488 3.55859 16.0625 3.79297 15.793 4.26172C15.6445 4.51953 15.5605 4.88672 15.541 5.36328H14.498C14.498 4.73828 14.623 4.20703 14.873 3.76953C15.3027 2.98828 16.0586 2.59766 17.1406 2.59766C17.9961 2.59766 18.6582 2.78906 19.127 3.17188C19.5957 3.55078 19.8301 4.10156 19.8301 4.82422C19.8301 5.33984 19.6914 5.75781 19.4141 6.07812C19.2422 6.27734 19.0195 6.43359 18.7461 6.54688C19.1875 6.66797 19.5312 6.90234 19.7773 7.25C20.0273 7.59375 20.1523 8.01562 20.1523 8.51562C20.1523 9.31641 19.8887 9.96875 19.3613 10.4727C18.834 10.9766 18.0859 11.2285 17.1172 11.2285ZM23.9258 2.60938C25.0117 2.60938 25.7969 3.05664 26.2812 3.95117C26.6562 4.64258 26.8438 5.58984 26.8438 6.79297C26.8438 7.93359 26.6738 8.87695 26.334 9.62305C25.8418 10.6934 25.0371 11.2285 23.9199 11.2285C22.9121 11.2285 22.1621 10.791 21.6699 9.91602C21.2598 9.18555 21.0547 8.20508 21.0547 6.97461C21.0547 6.02148 21.1777 5.20312 21.4238 4.51953C21.8848 3.24609 22.7188 2.60938 23.9258 2.60938ZM23.9141 10.2676C24.4609 10.2676 24.8965 10.0254 25.2207 9.54102C25.5449 9.05664 25.707 8.1543 25.707 6.83398C25.707 5.88086 25.5898 5.09766 25.3555 4.48438C25.1211 3.86719 24.666 3.55859 23.9902 3.55859C23.3691 3.55859 22.9141 3.85156 22.625 4.4375C22.3398 5.01953 22.1973 5.87891 22.1973 7.01563C22.1973 7.87109 22.2891 8.55859 22.4727 9.07812C22.7539 9.87109 23.2344 10.2676 23.9141 10.2676ZM30.6055 2.60938C31.6914 2.60938 32.4766 3.05664 32.9609 3.95117C33.3359 4.64258 33.5234 5.58984 33.5234 6.79297C33.5234 7.93359 33.3535 8.87695 33.0137 9.62305C32.5215 10.6934 31.7168 11.2285 30.5996 11.2285C29.5918 11.2285 28.8418 10.791 28.3496 9.91602C27.9395 9.18555 27.7344 8.20508 27.7344 6.97461C27.7344 6.02148 27.8574 5.20313 28.1035 4.51953C28.5645 3.24609 29.3984 2.60938 30.6055 2.60938ZM30.5938 10.2676C31.1406 10.2676 31.5762 10.0254 31.9004 9.54102C32.2246 9.05664 32.3867 8.1543 32.3867 6.83398C32.3867 5.88086 32.2695 5.09766 32.0352 4.48438C31.8008 3.86719 31.3457 3.55859 30.6699 3.55859C30.0488 3.55859 29.5938 3.85156 29.3047 4.4375C29.0195 5.01953 28.877 5.87891 28.877 7.01563C28.877 7.87109 28.9688 8.55859 29.1523 9.07812C29.4336 9.87109 29.9141 10.2676 30.5938 10.2676Z" fill="#FF8900"/>
    <path d="M84.5098 2.57422C85.4473 2.57422 86.0996 2.81836 86.4668 3.30664C86.8379 3.79102 87.0234 4.29102 87.0234 4.80664H85.9805C85.918 4.47461 85.8184 4.21484 85.6816 4.02734C85.4277 3.67578 85.043 3.5 84.5273 3.5C83.9375 3.5 83.4688 3.77344 83.1211 4.32031C82.7734 4.86328 82.5801 5.64258 82.541 6.6582C82.7832 6.30273 83.0879 6.03711 83.4551 5.86133C83.791 5.70508 84.166 5.62695 84.5801 5.62695C85.2832 5.62695 85.8965 5.85156 86.4199 6.30078C86.9434 6.75 87.2051 7.41992 87.2051 8.31055C87.2051 9.07227 86.957 9.74805 86.4609 10.3379C85.9648 10.9238 85.2578 11.2168 84.3398 11.2168C83.5547 11.2168 82.877 10.9199 82.3066 10.3262C81.7363 9.72852 81.4512 8.72461 81.4512 7.31445C81.4512 6.27148 81.5781 5.38672 81.832 4.66016C82.3203 3.26953 83.2129 2.57422 84.5098 2.57422ZM84.4336 10.2793C84.9883 10.2793 85.4023 10.0938 85.6758 9.72266C85.9531 9.34766 86.0918 8.90625 86.0918 8.39844C86.0918 7.96875 85.9688 7.56055 85.7227 7.17383C85.4766 6.7832 85.0293 6.58789 84.3809 6.58789C83.9277 6.58789 83.5293 6.73828 83.1855 7.03906C82.8457 7.33984 82.6758 7.79297 82.6758 8.39844C82.6758 8.92969 82.8301 9.37695 83.1387 9.74023C83.4512 10.0996 83.8828 10.2793 84.4336 10.2793ZM90.9258 2.60938C92.0117 2.60938 92.7969 3.05664 93.2812 3.95117C93.6562 4.64258 93.8438 5.58984 93.8438 6.79297C93.8438 7.93359 93.6738 8.87695 93.334 9.62305C92.8418 10.6934 92.0371 11.2285 90.9199 11.2285C89.9121 11.2285 89.1621 10.791 88.6699 9.91602C88.2598 9.18555 88.0547 8.20508 88.0547 6.97461C88.0547 6.02148 88.1777 5.20312 88.4238 4.51953C88.8848 3.24609 89.7188 2.60938 90.9258 2.60938ZM90.9141 10.2676C91.4609 10.2676 91.8965 10.0254 92.2207 9.54102C92.5449 9.05664 92.707 8.1543 92.707 6.83398C92.707 5.88086 92.5898 5.09766 92.3555 4.48438C92.1211 3.86719 91.666 3.55859 90.9902 3.55859C90.3691 3.55859 89.9141 3.85156 89.625 4.4375C89.3398 5.01953 89.1973 5.87891 89.1973 7.01563C89.1973 7.87109 89.2891 8.55859 89.4727 9.07812C89.7539 9.87109 90.2344 10.2676 90.9141 10.2676ZM97.6055 2.60938C98.6914 2.60938 99.4766 3.05664 99.9609 3.95117C100.336 4.64258 100.523 5.58984 100.523 6.79297C100.523 7.93359 100.354 8.87695 100.014 9.62305C99.5215 10.6934 98.7168 11.2285 97.5996 11.2285C96.5918 11.2285 95.8418 10.791 95.3496 9.91602C94.9395 9.18555 94.7344 8.20508 94.7344 6.97461C94.7344 6.02148 94.8574 5.20313 95.1035 4.51953C95.5645 3.24609 96.3984 2.60938 97.6055 2.60938ZM97.5938 10.2676C98.1406 10.2676 98.5762 10.0254 98.9004 9.54102C99.2246 9.05664 99.3867 8.1543 99.3867 6.83398C99.3867 5.88086 99.2695 5.09766 99.0352 4.48438C98.8008 3.86719 98.3457 3.55859 97.6699 3.55859C97.0488 3.55859 96.5938 3.85156 96.3047 4.4375C96.0195 5.01953 95.877 5.87891 95.877 7.01563C95.877 7.87109 95.9688 8.55859 96.1523 9.07812C96.4336 9.87109 96.9141 10.2676 97.5938 10.2676Z" fill="#ABDC82"/>
    <path fill-rule="evenodd" clip-rule="evenodd" d="M99.0106 50.1053C96.7373 29.2523 79.0698 13.0239 57.612 13.0239C36.1541 13.0239 18.4866 29.2523 16.2133 50.1053H12.1914C14.4816 27.0389 33.943 9.02393 57.612 9.02393C81.281 9.02393 100.742 27.0389 103.033 50.1053H99.0106Z" fill="url(#paint0_linear)"/>
    <circle cx="14" cy="49" r="3.5" fill="#DD0A19" stroke="white"/>
    <circle cx="33" cy="18" r="3.5" fill="#FF9101" stroke="white"/>
    <circle cx="101" cy="49" r="3.5" fill="#20A980" stroke="white"/>
    <circle cx="82" cy="18" r="3.5" fill="#ABDC82" stroke="white"/>
    <defs>
    <linearGradient id="paint0_linear" x1="103.033" y1="50.1053" x2="12.1914" y2="50.1053" gradientUnits="userSpaceOnUse">
    <stop stop-color="#20A980"/>
    <stop offset="0.201559" stop-color="#ADDC82"/>
    <stop offset="0.375" stop-color="#FFE600"/>
    <stop offset="0.760417" stop-color="#FF8900"/>
    <stop offset="0.973958" stop-color="#DD0A19"/>
    </linearGradient>
    </defs>
</svg>