<svg xmlns="http://www.w3.org/2000/svg" viewBox="0 0 20 20">
  <path d="M19.85 8.5c-.09-.13-.21 0-.31 0s-.22-.16-.37-.19-.28.07-.43 0-.11-.06-.17-.06-.13.09-.22.08a.32.32 0 000-.13c0-.06-.14-.05-.21 0a1.18 1.18 0 00-.59.12c-.28.16-.28.56-.58.69a.62.62 0 01-.76-.28v-.37c0-.09-.2.08-.23.17a1.39 1.39 0 01-.65.87 1.08 1.08 0 01-1.33 0 6.68 6.68 0 01-1.6-1.87 5.24 5.24 0 01-.77-1.36 1.08 1.08 0 00-.24-.52c-.18-.18-.41-.08-.64-.11h.13c-.21 0-.34-.21-.51-.31s-.47 0-.71 0c-.45.12-.55-.28-.86-.47a1.27 1.27 0 00-.64-.1 1.42 1.42 0 01-.71-.25A5.08 5.08 0 007 4.1a2.64 2.64 0 00-.83-.29c-.34-.05-.94-.05-.85.45 0 .25.11.49.14.74a1 1 0 010 .35c0 .05-.1.2-.05.25s.15 0 .2 0a.33.33 0 01.26 0c.07 0 .19 0 .2.14s-.13.12-.21.16-.1.07-.13.19 0 .15-.13.15-.2-.14-.28-.14a.41.41 0 00-.24.11 2.08 2.08 0 01-.59.21c-.24.08-.37.32-.56.48s-.35.2-.53.06-.29-.25-.18 0 0 .17-.1.24-.29.08-.43.14a2.18 2.18 0 00-1 .63c-.09.13-.1.32-.25.4a1.29 1.29 0 01-.21.05 1.56 1.56 0 00-.37.17C.57 8.76 0 9 0 9.46s.54.68.9.47a1.18 1.18 0 01.62-.23 1.35 1.35 0 01.65.15 9.71 9.71 0 011.14.89c.18.12.37.28.59.24s.41-.17.67-.09a1.46 1.46 0 01.82 1c.14.41.37.84 0 1.17a.55.55 0 00-.23.5c0 .12.06.23.07.35a1.21 1.21 0 010 .42.2.2 0 000 .2s.13.08.1.15-.46.08-.58.12c-.36.1-.29.31 0 .47a2.64 2.64 0 00.38.18 2.26 2.26 0 01.37.11c.17.09.24.28.38.41a1 1 0 00.65.21A2.57 2.57 0 008 15.9c.17-.13.28-.31.45-.44a.78.78 0 00.24-.2A.44.44 0 019 15c.37-.1.39-.62.54-.91a1 1 0 01.42-.46c.22-.13.47-.17.69-.3a1.65 1.65 0 01.63-.26h.35a1.63 1.63 0 00.39-.13c.24-.08.32.06.49.18s.31 0 .37-.17a1.24 1.24 0 01.25-.53 1.75 1.75 0 01.46-.44c.13-.05.38.15.43 0s-.05-.12 0-.2.17 0 .21-.1-.15-.22-.11-.38.31-.32.47-.39a1.29 1.29 0 011.29.21c.14.13.23.34.4.42a.91.91 0 00.65 0c.14-.06.23-.21.38-.26s.43.11.65.12.36-.19.56-.25.42 0 .56-.15 0-.38-.08-.55a1.35 1.35 0 010-.63.66.66 0 01.09-.27c.05-.06.13-.09.18-.16s0-.32.17-.37.41.2.55 0-.06-.4-.14-.52z" fill="#3876e8"/>
</svg>
