<svg xmlns="http://www.w3.org/2000/svg" viewBox="0 0 20 20">
  <path d="M15.1 18.22a.27.27 0 00-.4-.1 9.33 9.33 0 01-10.22-.53l.59-.06a.36.36 0 00.28-.34.37.37 0 00-.35-.32L3.66 17a.37.37 0 00-.28.34l.16 1.35a.33.33 0 00.34.28.36.36 0 00.28-.34l-.06-.6A10 10 0 0010 20a10.17 10.17 0 005-1.34.33.33 0 00.1-.44zM3.26 3.31A.34.34 0 002.91 3l-1.34.12a.32.32 0 00-.28.35.31.31 0 00.34.28h.56a10.08 10.08 0 00-1 11 .32.32 0 00.57-.28 9.43 9.43 0 011-10.41l.06.63a.34.34 0 00.31.31.32.32 0 00.28-.35zm13.65-1.66a.31.31 0 00-.34-.28.32.32 0 00-.28.35l.06.56A10 10 0 005.54 1.06a.32.32 0 00-.13.44.31.31 0 00.41.12A9.35 9.35 0 0116 2.78l-.66.06a.32.32 0 00-.28.35.34.34 0 00.31.28l1.38-.13A.34.34 0 0017 3zM19 15.44l-.69.06a9.94 9.94 0 00.5-10.19.31.31 0 00-.44-.12.32.32 0 00-.12.4 9.34 9.34 0 01-.33 9.41l-.07-.5a.33.33 0 00-.34-.28.31.31 0 00-.28.34l.12 1.34a.32.32 0 00.13.22.44.44 0 00.19.07L19 16a.31.31 0 00.28-.34c.01-.16-.08-.22-.28-.22zm-2.37-6.69l-1.9-.25a6.06 6.06 0 00-.32-.78l1.19-1.53a.29.29 0 000-.41l-1.37-1.31a.29.29 0 00-.41 0l-1.53 1.15a3.53 3.53 0 00-.78-.31l-.25-1.94a.34.34 0 00-.26-.28H9.07a.33.33 0 00-.31.28l-.25 1.91a6 6 0 00-.78.31L6.2 4.4a.3.3 0 00-.41 0L4.48 5.75a.29.29 0 000 .4l1.15 1.54a3.53 3.53 0 00-.31.78l-1.94.28a.34.34 0 00-.28.31v1.88a.34.34 0 00.28.31l1.91.25a6 6 0 00.31.78l-1.19 1.53a.31.31 0 000 .41l1.32 1.31a.28.28 0 00.4 0l1.57-1.16a3.55 3.55 0 00.78.32l.25 1.9a.32.32 0 00.31.28h1.87a.33.33 0 00.32-.28l.25-1.9a6.06 6.06 0 00.78-.32l1.53 1.19a.29.29 0 00.41 0l1.34-1.31a.31.31 0 000-.41l-1.19-1.53a3.55 3.55 0 00.32-.78l1.9-.25a.33.33 0 00.28-.31V9.06a.3.3 0 00-.22-.31zM7.7 9.84a2.31 2.31 0 112.3 2.28 2.3 2.3 0 01-2.3-2.28z" fill="#3876e8"/>
</svg>
