<svg xmlns="http://www.w3.org/2000/svg" viewBox="0 0 71.95 18.9"><title>Монтажная область 1</title><path d="M2.41 2.78v7H0V.12h3.73L5.27 6 6.69.12h3.62v9.74H7.9V2.67L6.25 9.86H4.17zm15.36 5.34h-3.29L14 9.86h-3L14.7.12h3l3.51 9.74h-3l-.44-1.74zm-1.65-5.45l-1.21 3.59h2.42l-1.21-3.59zM36.08 8h-3.29l-.44 1.74h-3L33 0h3l3.51 9.74h-3L36.08 8zm-1.64-5.33l-1.21 3.59h2.41zM22.05 0h5.15a2.38 2.38 0 0 1 2.3 2.44v1.15A2.39 2.39 0 0 1 27.2 6h-2.41v3.74h-2.74V0zm2.63 1.86v2.32h1.42c.33 0 .66-.47.66-.93V2.9c0-.58-.33-.93-.66-.93zm18.86-1H44V.12h2.5v.69h.44a3.81 3.81 0 0 1 3.73 3.94 3.81 3.81 0 0 1-3.73 3.95h-.44v1H44v-1h-.44a3.81 3.81 0 0 1-3.73-3.95A3.74 3.74 0 0 1 43.35.82zm3 1.86V7a2.09 2.09 0 0 0 1.65-2.09 2.13 2.13 0 0 0-1.69-2.24zM44 6.84V2.55a2.09 2.09 0 0 0-1.75 2.09A2.11 2.11 0 0 0 44 6.84zm12.18-7h1.2a4.24 4.24 0 0 1 4.06 4.29v1.55A4.24 4.24 0 0 1 57.36 10h-1.2a4.24 4.24 0 0 1-4.06-4.32V4.17a4.17 4.17 0 0 1 4.06-4.29zm.32 2.32a1.78 1.78 0 0 0-1.75 1.86v1.66a1.79 1.79 0 0 0 1.75 1.86h.5a1.79 1.79 0 0 0 1.76-1.86V4.06A1.79 1.79 0 0 0 57 2.2zm9.55 1h3V.12h3v9.74H69V5.68h-3v4.18h-3V.12h3v3.13z" fill="#ca2026"/><path d="M28.63 14.73h1.53a1.62 1.62 0 0 1 0 3.24h-3.07v-5.33h4.28v.93h-2.74zm-.11 2v.11h1.09a.58.58 0 0 0 0-1.16h-1.09v1zm5.7 1h4v-.93h-2.79v-1.15H38v-.92h-2.57v-1.05h2.63v-1.16h-3.84v5.22zm6.14-5.1H45v1.17h-1.68v3.94H41.9V13.8h-1.54v-1.16z" fill="#081528"/><path d="M51.11 14.73a4.92 4.92 0 0 0 2.08.69 24.77 24.77 0 0 0 7.13-.35 22.79 22.79 0 0 0 3-.92c-2.08 1.62-9.76 2.66-12.5 1a1.52 1.52 0 0 1 .29-.42zm-30.11 0a4.91 4.91 0 0 1-2.09.69 24.8 24.8 0 0 1-7.13-.35 23.79 23.79 0 0 1-3-.92c2.09 1.62 9.76 2.66 12.51 1zm35.86-1.86c-.33 1.28-1.42 2-3.07 2.32l-.27-.19 1.76-1.16-1.87 1-.22-.35a4.06 4.06 0 0 1 3.62-1.62zM15.25 13c.33 1.27 1.42 2 3.07 2.32l.22-.24-1.76-1.16L18.65 15l.22-.35c-.99-1.2-2.09-2.01-3.62-1.65zm45-.81a3.9 3.9 0 0 1-2.52 2.66l-.22-.11 1.43-1.4-1.54 1.28-.22-.23a4.75 4.75 0 0 1 3.03-2.21zm-48.36 0a3.9 3.9 0 0 0 2.52 2.66l.22-.11-1.43-1.4 1.54 1.28.22-.23a4.75 4.75 0 0 0-3.11-2.21zm51.54-.82a3.68 3.68 0 0 1-2.19 2.9l-.24-.12 1.21-1.51-1.32 1.51-.22-.24a5.1 5.1 0 0 1 2.74-2.55zm-54.72.12a3.68 3.68 0 0 0 2.19 2.9l.22-.12-1.21-1.5 1.32 1.5.22-.23a4.41 4.41 0 0 0-2.74-2.55zm47.34 7.41c-1.1-.12-2-.81-2.86-2.32l.11-.23 1.54 1.27-1.43-1.39.22-.23a4.8 4.8 0 0 1 2.42 2.9zm-40 0c1.1-.12 2-.81 2.86-2.32l-.11-.23-1.43 1.39 1.43-1.39-.22-.23A4.16 4.16 0 0 0 16 18.9zm44.86-.7c-1 .24-2.08-.23-3.29-1.39v-.23l1.76.81-1.76-.92.11-.24a3.77 3.77 0 0 1 3.14 1.97zm-49.68 0c1 .24 2.08-.23 3.29-1.39v-.23l-1.76.81 1.76-.92-.11-.24a3.77 3.77 0 0 0-3.18 2zm53.41-2c-.88.58-2 .47-3.29-.23l-.11-.23L63 16l-1.87-.35v-.23a3.89 3.89 0 0 1 3.47.81zm-57.14 0c.88.58 2 .47 3.29-.23l.11-.23-1.8.26 1.9-.35v-.23a3.89 3.89 0 0 0-3.54.81zm59.77-4.29a3.82 3.82 0 0 1-3 2.09l-.11-.12 1.65-1-1.76 1-.11-.23a3.5 3.5 0 0 1 3.29-1.74zm-62.4 0a3.82 3.82 0 0 0 3 2.09l.11-.12-1.54-1 1.76 1 .11-.23a4.37 4.37 0 0 0-3.4-1.74z" fill="#231f20"/></svg>