<svg xmlns="http://www.w3.org/2000/svg" viewBox="0 0 90.04 14.4"><path d="M32 .64l-.57 3.69a10.1 10.1 0 0 0-2.9-.79 3.88 3.88 0 0 0-4 3.8c0 2.82 1.64 3.46 3.5 3.4a5.36 5.36 0 0 0 2-.53l1.24-.44.53 3.43-1 .4a8.17 8.17 0 0 1-3.95.79c-4.65-.11-6.73-3.68-6.43-7.31a8.31 8.31 0 0 1 2.98-5.69A7.49 7.49 0 0 1 28 0a13.74 13.74 0 0 1 4 .65zm37-.33l-2.53 13.87h3.83l1-5.45 2.51 5.45H81L85.45 5l.55 5.23-1.55-.67-1.19 2.55 3.2 2.07H90L88.18.32h-4.12L77.52 13l-2.8-5.93L80.8.32h-4.52L72 4.85l.82-4.53zm-13 0l4.74-.15c2.13 0 4.53.53 5.25 2.91A3.51 3.51 0 0 1 64.64 7c2 1.52 1.51 4.68-.28 6.09-1.51 1.15-2.88 1.17-4.6 1.15l-6-.07L56 .31zm2.86 3.12l-.35 2.2h2.38c.68 0 1.39 0 1.67-.81a1.08 1.08 0 0 0-.13-1 1 1 0 0 0-.9-.38zm-1.24 7.34h2.54c.79 0 1.79-.15 2-1.17a1.14 1.14 0 0 0-.26-.88 1 1 0 0 0-.8-.34H58l-.39 2.41zM46.92.31l-7.16 13.87h2.05c1.73-.08 2.13-.6 2.44-1 1.56-2.73 2.69-5.33 4.08-8.17l.47 5.34-1.55-.67-1.19 2.57 3.64 2h3.21L51 .34h-4.13zm-13.55 0h9.82l-.64 3.85h-2.88l-1.8 10h-3.81l1.79-10h-3.12l.64-3.85z" fill="#0085ca"/><path d="M17.92 14.15h3.24l-4.67-7.51 6-6.32h-5.36L5.23 13 7.43.32H4.49L0 3.45V7l2.71-1.35-.37 1.18c-.41 2.44-.84 4.88-1.24 7.32h8.71l3.61-4.08 1.49 2.38a3.68 3.68 0 0 0 3 1.71zm-7-8.65L7.75.32h3.59A3.68 3.68 0 0 1 14 1.68l.2.32-3.32 3.5z" fill="#002d72"/></svg>