<svg xmlns="http://www.w3.org/2000/svg" viewBox="0 0 60.76 10.26" fill="#fff"><path d="M6.58 7.09l.91-4.2c1.99.18 1.27 3.72-.91 4.2zm45.66-4.56h2.48l-.36 1.8c-.12.66-.31 1.2-.43 1.8L53.15 10h2.66l1.81-7.56h2.6l.54-2.31h-8zm-9.36 5.64c0 1.26.85 1.86 2.06 1.86h4.83l.48-2.34h-4c-.72 0-.24-1.5-.18-1.56.12-.3.06-.18.49-.24h3.56l.48-2.16h-3.97a3 3 0 0 1 .18-.73c.12-.3.24-.3.48-.48h3.44a.81.81 0 0 0 .61-.18 11.07 11.07 0 0 0 .48-2.27h-4.71A3.25 3.25 0 0 0 44 3c-.24 1.32-1.09 4.26-1.09 5.16zM22.65 10H25l1-4h3.08l-.84 3.66c-.06.6.66.36 2.47.36h.18l2.3-10H30.5l-.91 3.66h-3L27.3.07h-2.05c-.37 0-.55.06-.61.24l-2.29 9.48c0 .18.12.24.3.24zm-5.8-2.34c-.84 0-1.39-.12-1.39-1.38a6.32 6.32 0 0 1 .61-2.52c.48-1 1.69-2 2.53-1 1.03 1.09-.3 4.93-1.75 4.93zM12.5 6.55c0 1.56.06 3 2.12 3.54A5.64 5.64 0 0 0 20 8.65c1.51-1.5 3.51-7.2-.06-8.4A5.46 5.46 0 0 0 14.13 2 7.8 7.8 0 0 0 13 4a7.89 7.89 0 0 0-.5 2.55zm24.89 1.14H36l.42-1.86h1.69c1.21 0 .79 1.86-.72 1.86zm-4.47 1.8c0 .42.06.6.6.6 1.75 0 4.35.18 5.68-.36 3-1.2 3.86-6.12.12-6.12H37l.18-1.08h4.71l.39-2.34c0-.06-.06-.06-.18-.06h-6.53c-.48 0-.6.3-.72.72l-1.93 8.64zM3.75 7.21c-.67-.36-1-.48-1-1.44A3 3 0 0 1 4.77 3l-1 4.26zM5.32.73C3.08.73 0 3 0 5.89 0 7 0 7.75 1 8.47a4.16 4.16 0 0 0 2.29.78l-.12.66c0 .24.48.12 2.66.12L6 9.37a7.21 7.21 0 0 0 3.72-1.62C11.11 6.43 12 4 11.11 2.41a2.53 2.53 0 0 0-.72-.84 4.47 4.47 0 0 0-2.3-.84V.07H5.44l-.12.66z"/></svg>