<svg width="89" height="21" viewBox="0 0 89 21" xmlns="http://www.w3.org/2000/svg" xmlns:xlink="http://www.w3.org/1999/xlink"><defs><path id="a" d="M0 .148h34.94V21H0z"/><path id="c" d="M.567.23H18.89v20.565H.567z"/></defs><g fill="none" fill-rule="evenodd"><mask id="b" fill="#fff"><use xlink:href="#a"/></mask><path d="M34.94.254c-2.805 2.659-5.2 5.036-7.715 7.268-1.134 1.009-1.423 1.738-.522 3.186 1.806 2.9 3.331 5.99 5.018 8.975.585 1.034.412 1.372-.746 1.291-1.793-.127-3.588.048-5.392-.14-2.292-.238-3.864-1.335-4.804-3.514-.309-.714-.754-1.366-1.216-2.188-1.71 1.604-3.37 3.072-4.92 4.652-.888.903-1.822 1.236-3.053 1.206-3.22-.08-6.445-.111-9.664.005-1.553.056-1.69-.459-1.308-1.848.732-2.67 1.31-5.387 1.936-8.086.121-.525.439-1.23-.125-1.53-.507-.27-.752.497-1.114.798-.365.305-.688.666-1.304 1.272 0-1.86.022-3.37-.01-4.877-.014-.626.418-.89.762-1.227.992-.973 2.127-1.821 2.983-2.909C5.313.596 7.216-.066 9.63.207c1.061.119 1.263.308 1.003 1.387-1.327 5.5-2.579 11.017-3.854 16.53-.1.43-.177.865-.28 1.369.698-.15.983-.66 1.36-1.028A12161.86 12161.86 0 0025.651 1.07c.487-.477.947-.85 1.696-.834 2.346.05 4.694.018 7.594.018" fill="#FAFAFB" mask="url(#b)"/><path d="M43.296 5.732l-.002.056c-.766 0-1.536-.045-2.298.011-1.104.08-.876 1.094-1.117 1.76-.127.353-.236.917.284.935 1.843.068 3.727.43 5.512-.317.573-.24.936-.808.833-1.476-.102-.67-.69-.805-1.248-.862-.651-.067-1.309-.074-1.964-.107zm-2.34 10.602l.001.038c.988-.043 1.996.014 2.96-.16 1.004-.185 1.7-.872 1.633-1.98-.066-1.103-.98-1.239-1.815-1.269-1.429-.052-2.861-.014-4.291-.022-.557-.003-.877.207-1.092.777-.872 2.315-.685 2.616 1.779 2.616h.825zm.941-15.315c1.735.072 3.834-.18 5.91.26 1.822.39 3.373 1.157 3.959 3.087.577 1.908.06 3.652-1.256 5.066-.734.79-.87 1.259-.149 2.19 1.16 1.5.618 4.21-1.034 6.111-1.801 2.075-4.133 3.12-6.834 3.222-2.476.092-4.958.005-7.437.045-.813.012-1.29-.313-1.74-.984-1.148-1.718-1.692-3.352-1.03-5.547 1.198-3.964 2.02-8.045 2.95-12.089.223-.967.65-1.42 1.68-1.377 1.541.062 3.085.016 4.981.016zm17.269 19.965c-2.31 0-4.62-.028-6.931.013-1.097.019-1.416-.363-1.143-1.493a1543.864 1543.864 0 004.026-17.1c.244-1.061.771-1.416 1.805-1.404 3.868.047 7.737.052 11.605 0 1.223-.016 1.715.377 1.359 1.649-.163.584-.328 1.175-.412 1.776-.132.95-.62 1.268-1.536 1.247-2.202-.052-4.406-.029-6.609-.008-1.107.01-2.128 1.423-1.833 2.492.168.61.681.439 1.072.443 2.15.02 4.3.054 6.447-.006 1.19-.032 1.507.371 1.209 1.57-.925 3.718-.225 3.023-3.65 3.091-1.718.034-3.44.057-5.157-.004-1.688-.06-1.506 1.315-1.66 2.3-.21 1.35.907.952 1.548.965 2.47.046 4.945.068 7.414.001 1.328-.037 1.985.28 1.425 1.778-.174.46-.278.958-.341 1.45-.124.96-.638 1.27-1.545 1.255-2.364-.043-4.728-.015-7.093-.015" fill="#185381"/><g transform="translate(70)"><mask id="d" fill="#fff"><use xlink:href="#c"/></mask><path d="M10.243.257c2.444-.001 4.89.055 7.332-.025 1.3-.042 1.485.446 1.196 1.615-.775 3.143-.741 3.121-3.99 3.16-3.412.04-2.79-.577-3.659 2.915-.93 3.744-1.84 7.496-2.667 11.264-.274 1.25-.853 1.63-2.06 1.608-5.024-.089-4.128.428-3.142-4.115C4 13.241 4.863 9.83 5.72 6.419c.27-1.077-.055-1.473-1.114-1.427-.999.043-2 .02-3-.009-.32-.01-.864-.06-.917-.222-.412-1.271.348-2.411.503-3.629.105-.834.746-.874 1.385-.874C5.132.26 7.687.26 10.243.257" fill="#185583" mask="url(#d)"/></g><path d="M11 .006c2.37 0 4.4-.022 6.427.016.508.01 1.034.144 1.517.324 2.502.936 2.674 1.794.769 3.705-1.177 1.182-2.364 2.35-3.535 3.54-.383.388-.72.686-1.092-.007C13.773 5.14 12.454 2.7 11 .006" fill="#FAFAFB"/></g></svg>