<svg xmlns="http://www.w3.org/2000/svg" viewBox="0 0 112 26">
    <defs>
        <radialGradient id="a" cx="-238.131" cy="393.572" r=".603" gradientTransform="matrix(24.019 0 0 -24.0189 5731.731 9465.749)" gradientUnits="userSpaceOnUse">
            <stop offset="0" stop-color="#e94e1b"/>
            <stop offset=".46" stop-color="#e9491a"/>
            <stop offset=".6" stop-color="#e73c19"/>
            <stop offset=".75" stop-color="#e62516"/>
            <stop offset="1" stop-color="#e30613"/>
        </radialGradient>
        <linearGradient id="b" x1="-234.752" y1="390.862" x2="-234.846" y2="389.959" gradientTransform="matrix(18.10415 0 0 -20.12835 4261.822 7876.4)" gradientUnits="userSpaceOnUse">
            <stop offset=".31" stop-color="#fff"/>
            <stop offset=".47" stop-color="#fafafa"/>
            <stop offset=".64" stop-color="#ededed"/>
            <stop offset=".83" stop-color="#dadada"/>
            <stop offset="1" stop-color="#c6c6c6"/>
        </linearGradient>
    </defs>
    <path d="M70.206 18.064H73V4.242h-2.795zm9.012-2.21a3.579 3.579 0 0 0 1.155-.184 2.637 2.637 0 0 0 .949-.56 2.68 2.68 0 0 0 .634-.907 3.099 3.099 0 0 0 .235-1.241 2.66 2.66 0 0 0-.675-1.955 2.319 2.319 0 0 0-1.73-.685 3.236 3.236 0 0 0-2.328.88v4.4a5.888 5.888 0 0 0 1.76.252zM77.46 8.68a4.602 4.602 0 0 1 2.699-.82 5.609 5.609 0 0 1 1.926.322 4.195 4.195 0 0 1 1.534.959 4.48 4.48 0 0 1 1.017 1.592 6.208 6.208 0 0 1 .371 2.25 5.236 5.236 0 0 1-.46 2.238 4.878 4.878 0 0 1-1.26 1.673 5.7 5.7 0 0 1-1.867 1.046 7.056 7.056 0 0 1-2.279.36 14.272 14.272 0 0 1-2.268-.177 11.684 11.684 0 0 1-2.208-.586V4.242h2.795zm15.353 2.036a2.104 2.104 0 0 0-1.507-.47 2.661 2.661 0 0 0-1.633.449 2.47 2.47 0 0 0-.849 1.231h4.516a1.731 1.731 0 0 0-.527-1.21m-3.217 4.611a3.145 3.145 0 0 0 1.945.528 5.676 5.676 0 0 0 3.246-.937l1.194 2.033a6.887 6.887 0 0 1-2.13 1.036 9.029 9.029 0 0 1-2.467.315 6.762 6.762 0 0 1-2.324-.374 4.437 4.437 0 0 1-2.75-2.7 5.984 5.984 0 0 1-.36-2.13 5.495 5.495 0 0 1 .383-2.052 4.747 4.747 0 0 1 1.094-1.662 5.254 5.254 0 0 1 1.721-1.114 5.895 5.895 0 0 1 2.236-.41 5.379 5.379 0 0 1 1.946.342 4.396 4.396 0 0 1 1.526.968 4.316 4.316 0 0 1 .987 1.495 5.121 5.121 0 0 1 .353 1.945 5.037 5.037 0 0 1-.05.704 6.086 6.086 0 0 1-.128.665h-7.273a2.158 2.158 0 0 0 .85 1.348m13.68-.077a3.19 3.19 0 0 1-.772.371 2.961 2.961 0 0 1-.928.136 1.398 1.398 0 0 1-.987-.33 1.24 1.24 0 0 1-.36-.96v-3.89h3.303V8.092h-3.304v-2.62H97.43v2.62h-1.633V8.4a4.638 4.638 0 0 1 1.633 3.561c0 .558.006 2.683.006 2.683a3.871 3.871 0 0 0 .933 2.697 3.546 3.546 0 0 0 2.658.96 6.295 6.295 0 0 0 1.702-.216 5.484 5.484 0 0 0 1.484-.683zm-60.041-4.363a2.05 2.05 0 0 0-1.468-.457 2.582 2.582 0 0 0-1.591.438 2.376 2.376 0 0 0-.83 1.2h4.404a1.698 1.698 0 0 0-.515-1.18m-3.136 4.497a3.073 3.073 0 0 0 1.897.515 5.513 5.513 0 0 0 3.165-.915l1.162 1.982a6.677 6.677 0 0 1-2.078 1.01 8.86 8.86 0 0 1-2.401.306 6.595 6.595 0 0 1-2.268-.361 4.326 4.326 0 0 1-2.678-2.632 5.822 5.822 0 0 1-.354-2.077 5.378 5.378 0 0 1 .371-2.002 4.69 4.69 0 0 1 1.069-1.62 5.088 5.088 0 0 1 1.677-1.087 5.748 5.748 0 0 1 2.183-.4 5.26 5.26 0 0 1 1.897.333 4.292 4.292 0 0 1 1.485.944 4.247 4.247 0 0 1 .963 1.458 5.02 5.02 0 0 1 .344 1.897 5.09 5.09 0 0 1-.048.686 5.902 5.902 0 0 1-.124.648h-7.09a2.09 2.09 0 0 0 .828 1.314m25.134-1.123a1.49 1.49 0 0 1-.61 1.172 2.713 2.713 0 0 1-1.772.505 1.649 1.649 0 0 1-1.058-.277.975.975 0 0 1 .095-1.543 2.541 2.541 0 0 1 1.4-.295 8.371 8.371 0 0 1 1.945.21zm3.564 1.64a.742.742 0 0 1-.323.056c-.382 0-.572-.253-.572-.762v-2.936a5.278 5.278 0 0 0-.257-1.696 3.312 3.312 0 0 0-.801-1.306 3.713 3.713 0 0 0-1.391-.849 5.967 5.967 0 0 0-2.011-.305 8.73 8.73 0 0 0-2.164.267 7.936 7.936 0 0 0-2.068.878l1.067 1.982a7.166 7.166 0 0 1 3.146-.724 2.145 2.145 0 0 1 1.353.352 1.193 1.193 0 0 1 .438.984v.304a9.297 9.297 0 0 0-.924-.19 6.957 6.957 0 0 0-1.077-.077 7.865 7.865 0 0 0-1.858.2 4.431 4.431 0 0 0-1.43.6 2.788 2.788 0 0 0-.924.99 2.818 2.818 0 0 0-.325 1.373 2.953 2.953 0 0 0 1.001 2.412 4.1 4.1 0 0 0 2.697.829 4.923 4.923 0 0 0 1.963-.361 3.222 3.222 0 0 0 1.392-1.164 1.637 1.637 0 0 0 .704 1.163 2.525 2.525 0 0 0 1.355.343 3.737 3.737 0 0 0 .686-.057c.114-.021.215-.057.323-.087zm-13.932-1.334a2.4 2.4 0 0 1-2.248 1.238 2.053 2.053 0 0 1-1.62-.666 2.85 2.85 0 0 1-.592-1.946 2.587 2.587 0 0 1 .781-1.964 2.918 2.918 0 0 1 2.097-.743 6.315 6.315 0 0 1 .849.057 2.532 2.532 0 0 1 .733.21zm2.714-5.629a9.354 9.354 0 0 0-1.97-.615 11.572 11.572 0 0 0-2.308-.22 6.686 6.686 0 0 0-2.229.361 5.446 5.446 0 0 0-1.801 1.04 4.815 4.815 0 0 0-1.212 1.631 5.06 5.06 0 0 0-.438 2.134 6.18 6.18 0 0 0 .363 2.22 4.442 4.442 0 0 0 .98 1.564 3.981 3.981 0 0 0 1.44.925 5.363 5.363 0 0 0 3.297.085 3.434 3.434 0 0 0 1.163-.638v.961a1.853 1.853 0 0 1-.81 1.473 3.07 3.07 0 0 1-1.897.514 5.905 5.905 0 0 1-1.933-.318l-.657 2.283a15.98 15.98 0 0 0 2.743.418 6.603 6.603 0 0 0 2.269-.361 4.48 4.48 0 0 0 1.659-1.03 4.37 4.37 0 0 0 1.372-3.532V8.937h-.03zm-25.04 9.117h2.726V4.576h-2.726z" fill="#1d1d1b"/>
    <path d="M22.18 22.717a2.57 2.57 0 0 0 .524-.521 1.948 1.948 0 0 0 .285-.488.6.6 0 0 0 .034-.08c.635-1.536 1.083-5.239 1.083-9.57 0-4.33-.444-7.992-1.074-9.548a1.323 1.323 0 0 0-.054-.13l-.055-.112a1.991 1.991 0 0 0-.2-.324 2.58 2.58 0 0 0-.55-.553l-.083-.064a2.512 2.512 0 0 0-.66-.313A33.19 33.19 0 0 0 12.046 0a33.292 33.292 0 0 0-9.363 1.005 2.657 2.657 0 0 0-.66.318h-.017l-.075.054a2.533 2.533 0 0 0-.534.548 1.959 1.959 0 0 0-.286.485l-.03.07C.449 4.01 0 7.733 0 12.058s.457 8.083 1.092 9.593v.02a2.01 2.01 0 0 0 .306.535 2.635 2.635 0 0 0 .507.507 1.941 1.941 0 0 0 .492.29l.088.038a11.577 11.577 0 0 0 2.387.59c.47.075 1.37-.53 1.927-.472.781.088 1.46.885 2.368.93.976.053 3.376 0 4.454 0a16.739 16.739 0 0 0 1.993-.087 22.737 22.737 0 0 0 5.982-.956l.116-.05a1.911 1.911 0 0 0 .469-.28z" fill="url(#a)"/>
    <path d="M13.338 17.76c.622-1.231 6.713-9.87 6.713-9.87a1.675 1.675 0 0 0-1.238-1.87 1.565 1.565 0 0 0-1.75 1.312c-.123.676-.87 7.618-4.752 7.589l-1.679.213c-.018-.062-5.743-8.45-5.743-8.45a1.455 1.455 0 0 0-1.91-.769l-.007.003a1.658 1.658 0 0 0-.685 2.54 36.515 36.515 0 0 1 4.34 6.513c1.857 3.497 1.32 7.994-1.859 8.68.525.088 1.073.138 1.706.207.29.032 1.235.045 1.548.073 2.055.144 1.339-.88 1.339-.88 1.103-.095 3.293-3.904 3.978-5.291zM10.84 5.813a3.757 3.757 0 1 0 .001 0zM4.153 23.507a4.88 4.88 0 0 0 .052 1.14.608.608 0 0 0 .717.458 1.564 1.564 0 0 0 .953-.642 8.551 8.551 0 0 0 .936-1.409 12.058 12.058 0 0 1-2.146.53c-.155-.02-.325-.046-.512-.077z" fill="#640c00"/>
    <path d="M12.372 12.618a3.41 3.41 0 1 0-3.405-3.414 3.41 3.41 0 0 0 3.405 3.414zm7.69-6.502a1.445 1.445 0 0 0-1.908 1.008s-1.495 3.635-2.454 5.645a3.865 3.865 0 0 1-3.536 2.331 2.969 2.969 0 0 1-2.42-1.242L5.788 7.029c-.373-.757-1.002-1.255-1.767-1.003a1.563 1.563 0 0 0-.973 2.093l3.321 5.962a9.69 9.69 0 0 1 1.455 4.695 7.765 7.765 0 0 1-1.636 5.253c-1.328 1.736-1.925.886-2.005.524a1.356 1.356 0 0 0 1.26 1.39 7.437 7.437 0 0 0 1.968-.017 9.252 9.252 0 0 0 5.971-3.426c3.972-5.095 7.552-14.442 7.552-14.442a1.397 1.397 0 0 0-.874-1.942z" fill="url(#b)"/>
</svg>