<svg xmlns="http://www.w3.org/2000/svg" viewBox="0 0 34 34"><title>google</title><path d="M5.67,0H28.33A5.67,5.67,0,0,1,34,5.67V28.33A5.67,5.67,0,0,1,28.33,34H5.67A5.67,5.67,0,0,1,0,28.33V5.67A5.67,5.67,0,0,1,5.67,0Z" fill="#e9e9e9" fill-rule="evenodd"/><path d="M9,9H26V26H9Z" fill="none"/><path d="M12.66,17.5a5.18,5.18,0,0,1,.26-1.58l-2.87-2.19a8.58,8.58,0,0,0,0,7.53l2.87-2.19a4.79,4.79,0,0,1-.26-1.57" fill="#fbbc05" fill-rule="evenodd"/><path d="M17.69,12.48a4.91,4.91,0,0,1,3.14,1.12l2.47-2.47a8.5,8.5,0,0,0-13.25,2.6l2.87,2.19a5,5,0,0,1,4.77-3.44" fill="#ea4335" fill-rule="evenodd"/><path d="M17.69,22.52a5,5,0,0,1-4.77-3.44l-2.87,2.19A8.5,8.5,0,0,0,17.69,26a8.13,8.13,0,0,0,5.55-2.12l-2.72-2.1a5.3,5.3,0,0,1-2.83.74" fill="#34a853" fill-rule="evenodd"/><path d="M25.82,17.5A7.55,7.55,0,0,0,25.63,16H17.69v3.29h4.57a3.83,3.83,0,0,1-1.74,2.54l2.72,2.1a8.46,8.46,0,0,0,2.58-6.38" fill="#4285f4" fill-rule="evenodd"/></svg>