<svg xmlns="http://www.w3.org/2000/svg" viewBox="0 0 34 34"><title>ok</title><path d="M5.67,0H28.33A5.67,5.67,0,0,1,34,5.67V28.33A5.67,5.67,0,0,1,28.33,34H5.67A5.67,5.67,0,0,1,0,28.33V5.67A5.67,5.67,0,0,1,5.67,0Z" fill="#f5a623" fill-rule="evenodd"/><path d="M17.4,17.34a5.05,5.05,0,1,0-5-5.05A5,5,0,0,0,17.4,17.34Zm0-7.53a2.48,2.48,0,1,1-2.48,2.48A2.48,2.48,0,0,1,17.4,9.81Z" fill="#fff"/><path d="M21,17.79a6.32,6.32,0,0,1-7.24,0c-1-.84-1.8-.36-2.08.23-.49,1,.06,1.51,1.3,2.34a8.06,8.06,0,0,0,3.46,1.07l-.79.82-2.91,3a1.22,1.22,0,0,0,0,1.67l.13.14a1.11,1.11,0,0,0,1.61,0l2.91-3,2.92,3a1.1,1.1,0,0,0,1.6,0l.14-.14a1.22,1.22,0,0,0,0-1.67l-2.92-3-.79-.82a8.08,8.08,0,0,0,3.44-1.07C23,19.53,23.59,19,23.1,18,22.82,17.44,22.05,17,21,17.79Z" fill="#fff" fill-rule="evenodd"/></svg>