<svg xmlns="http://www.w3.org/2000/svg" viewBox="0 0 34 34">
  <path d="M5.67 0h22.66A5.67 5.67 0 0134 5.67v22.66A5.67 5.67 0 0128.33 34H5.67A5.67 5.67 0 010 28.33V5.67A5.67 5.67 0 015.67 0z" fill="#f5a623"/>
  <path d="M17.4 17.34a5.05 5.05 0 10-5-5.05 5 5 0 005 5.05zm0-7.53a2.48 2.48 0 11-2.48 2.48 2.48 2.48 0 012.48-2.48z" fill="#fff"/>
  <path d="M21 17.79a6.32 6.32 0 01-7.24 0c-1-.84-1.8-.36-2.08.23-.49 1 .06 1.51 1.3 2.34a8.06 8.06 0 003.46 1.07l-.79.82-2.91 3a1.22 1.22 0 000 1.67l.13.14a1.11 1.11 0 001.61 0l2.91-3 2.92 3a1.1 1.1 0 001.6 0l.14-.14a1.22 1.22 0 000-1.67l-2.92-3-.79-.82a8.08 8.08 0 003.44-1.07C23 19.53 23.59 19 23.1 18c-.28-.56-1.05-1-2.1-.21z" fill="#fff"/>
</svg>