<svg xmlns="http://www.w3.org/2000/svg" viewBox="0 0 30 30">
    <path d="M5 0h20a5 5 0 015 5v20a5 5 0 01-5 5H5a5 5 0 01-5-5V5a5 5 0 015-5z" fill="#a37ade"/>
    <path d="M15 7.31a8.46 8.46 0 108.46 8.46A8.46 8.46 0 0015 7.31zm-.85 15.17a6.76 6.76 0 01-5.92-6.71 7 7 0 01.18-1.52l4.05 4.06v.84a1.7 1.7 0 001.69 1.7zM20 20.33a1.67 1.67 0 00-1.61-1.18h-.84v-2.53a.85.85 0 00-.85-.85h-5.08v-1.69h1.69a.85.85 0 00.84-.85v-1.69h1.7a1.69 1.69 0 001.69-1.69V9.5A6.75 6.75 0 0120 20.33z" fill="#fff"/>
</svg>