<svg xmlns="http://www.w3.org/2000/svg" viewBox="0 0 30 30">
    <path d="M5 0h20a5 5 0 015 5v20a5 5 0 01-5 5H5a5 5 0 01-5-5V5a5 5 0 015-5z" fill="#3ea8db"/>
    <path d="M21.59 11.86c-.68 3.09-1.35 6.18-2 9.27 0 .09 0 .2-.06.3a1.06 1.06 0 01-1.67.56l-3.94-2.85c-.28-.2-.57-.4-.85-.62a.68.68 0 01-.07-1.18l4.75-4.57a.39.39 0 01.1-.08c.13-.13.26-.27.11-.45s-.29-.07-.44 0c-2.19 1.4-4.4 2.78-6.58 4.18a1.85 1.85 0 01-1.76.21c-.88-.32-1.75-.61-2.63-.92a.67.67 0 010-1.29l.18-.07 6-2.27 8-3A1 1 0 0122 10c-.13.56-.27 1.21-.41 1.86z" fill="#fff"/>
</svg>