<svg xmlns="http://www.w3.org/2000/svg" viewBox="0 0 34 34"><title>tw</title><path d="M5.67,0H28.33A5.67,5.67,0,0,1,34,5.67V28.33A5.67,5.67,0,0,1,28.33,34H5.67A5.67,5.67,0,0,1,0,28.33V5.67A5.67,5.67,0,0,1,5.67,0Z" fill="#00acee" fill-rule="evenodd"/><path d="M25.94,11a7,7,0,0,1-2.09.62,3.91,3.91,0,0,0,1.6-2.19,6.82,6.82,0,0,1-2.31,1,3.52,3.52,0,0,0-2.65-1.24,3.8,3.8,0,0,0-3.64,3.94,4.43,4.43,0,0,0,.09.9,10.11,10.11,0,0,1-7.5-4.12,4.21,4.21,0,0,0-.49,2,4,4,0,0,0,1.62,3.28,3.35,3.35,0,0,1-1.65-.49v.05a3.88,3.88,0,0,0,2.92,3.87,3.43,3.43,0,0,1-1,.14,3.82,3.82,0,0,1-.68-.07,3.68,3.68,0,0,0,3.39,2.73A6.92,6.92,0,0,1,9.08,23,8.14,8.14,0,0,1,8.21,23a9.71,9.71,0,0,0,5.57,1.77c6.7,0,10.36-6,10.36-11.22,0-.17,0-.34,0-.51A7.87,7.87,0,0,0,25.94,11Z" fill="#fff" fill-rule="evenodd"/></svg>