<svg xmlns="http://www.w3.org/2000/svg" viewBox="0 0 34 34">
  <path d="M5.67 0h22.66A5.67 5.67 0 0134 5.67v22.66A5.67 5.67 0 0128.33 34H5.67A5.67 5.67 0 010 28.33V5.67A5.67 5.67 0 015.67 0z" fill="#00acee"/>
  <path d="M25.94 11a7 7 0 01-2.09.62 3.91 3.91 0 001.6-2.19 6.82 6.82 0 01-2.31 1 3.52 3.52 0 00-2.65-1.24 3.8 3.8 0 00-3.64 3.94 4.43 4.43 0 00.09.9 10.11 10.11 0 01-7.5-4.12 4.21 4.21 0 00-.49 2 4 4 0 001.62 3.28 3.35 3.35 0 01-1.65-.49v.05a3.88 3.88 0 002.92 3.87 3.43 3.43 0 01-1 .14 3.82 3.82 0 01-.68-.07 3.68 3.68 0 003.39 2.73A6.92 6.92 0 019.08 23a8.14 8.14 0 01-.87 0 9.71 9.71 0 005.57 1.77c6.7 0 10.36-6 10.36-11.22v-.51a7.87 7.87 0 001.8-2.04z" fill="#fff"/>
</svg>