<svg xmlns="http://www.w3.org/2000/svg" viewBox="0 0 34 34">
  <path d="M5.67 0h22.66A5.67 5.67 0 0134 5.67v22.66A5.67 5.67 0 0128.33 34H5.67A5.67 5.67 0 010 28.33V5.67A5.67 5.67 0 015.67 0z" fill="#4a90e2"/>
  <path d="M25.13 22h-2.67a2 2 0 01-1.12-.4c-.89-.62-1.74-2.18-2.41-2.18h-.13c-.58.19-.76.78-.76 1.5 0 .26-.18.37-.65.37h-1.31a5.1 5.1 0 01-4.48-1.8 36.66 36.66 0 01-4.55-7.24s-.12-.27 0-.42a.73.73 0 01.52-.16h2.75a1.27 1.27 0 01.43.18.84.84 0 01.24.33s.46.91 1 1.94c1 1.69 1.49 2.25 1.87 2.25a.31.31 0 00.18-.05c.56-.31.39-2.81.39-2.81a2.84 2.84 0 00-.28-1.31 1.31 1.31 0 00-.84-.43c-.15 0 .09-.38.42-.54a4.92 4.92 0 012-.25h.41a3 3 0 011.12.17c.94.23.62 1.12.62 3.24 0 .68-.12 1.64.36 2a.26.26 0 00.14 0c.31 0 1-.4 2.06-2.24.6-1 1.06-2.08 1.06-2.08a.78.78 0 01.26-.28.44.44 0 01.34-.09H25c.45 0 .87 0 .94.29s-.33 1.19-1.49 2.77c-1.92 2.59-2.13 2.4-.55 3.9a8.56 8.56 0 011.89 2.21c.67 1.05-.66 1.13-.66 1.13z" fill="#fff"/>
</svg>