<svg xmlns="http://www.w3.org/2000/svg" viewBox="0 0 34 34"><title>vk</title><path d="M5.67,0H28.33A5.67,5.67,0,0,1,34,5.67V28.33A5.67,5.67,0,0,1,28.33,34H5.67A5.67,5.67,0,0,1,0,28.33V5.67A5.67,5.67,0,0,1,5.67,0Z" fill="#4a90e2" fill-rule="evenodd"/><path d="M25.13,22H22.46a2,2,0,0,1-1.12-.4c-.89-.62-1.74-2.18-2.41-2.18l-.13,0c-.58.19-.76.78-.76,1.5,0,.26-.18.37-.65.37H16.08a5.1,5.1,0,0,1-4.48-1.8,36.66,36.66,0,0,1-4.55-7.24s-.12-.27,0-.42a.73.73,0,0,1,.52-.16h2.75a1.27,1.27,0,0,1,.43.18.84.84,0,0,1,.24.33s.46.91,1,1.94c1,1.69,1.49,2.25,1.87,2.25a.31.31,0,0,0,.18-.05c.56-.31.39-2.81.39-2.81a2.84,2.84,0,0,0-.28-1.31,1.31,1.31,0,0,0-.84-.43c-.15,0,.09-.38.42-.54a4.92,4.92,0,0,1,2-.25h.41a3,3,0,0,1,1.12.17c.94.23.62,1.12.62,3.24,0,.68-.12,1.64.36,2a.26.26,0,0,0,.14,0c.31,0,1-.4,2.06-2.24.6-1,1.06-2.08,1.06-2.08a.78.78,0,0,1,.26-.28.44.44,0,0,1,.34-.09h0l2.85,0H25c.45,0,.87,0,.94.29s-.33,1.19-1.49,2.77c-1.92,2.59-2.13,2.4-.55,3.9a8.56,8.56,0,0,1,1.89,2.21C26.46,21.92,25.13,22,25.13,22Z" fill="#fff"/></svg>