<svg xmlns="http://www.w3.org/2000/svg" viewBox="0 0 34 34"><title>yad</title><path d="M5.67,0H28.33A5.67,5.67,0,0,1,34,5.67V28.33A5.67,5.67,0,0,1,28.33,34H5.67A5.67,5.67,0,0,1,0,28.33V5.67A5.67,5.67,0,0,1,5.67,0Z" fill="#d0021b" fill-rule="evenodd"/><path d="M18.86,18.42h-1a34.8,34.8,0,0,0-3.47,5.92l-.35.66H10a25.1,25.1,0,0,0,1.71-2.43l.45-.73.28-.44.68-1.14a7.52,7.52,0,0,1,2.34-2.46,5.19,5.19,0,0,1-2.85-1.51,4.11,4.11,0,0,1-.94-2.8A4.42,4.42,0,0,1,13.18,10a3.67,3.67,0,0,1,1.63-.83A18.65,18.65,0,0,1,18,9h4V25H18.86Zm0-7.35h-.78a3.8,3.8,0,0,0-2.42.64,2.35,2.35,0,0,0-.81,1.95,2.41,2.41,0,0,0,.86,2,4.12,4.12,0,0,0,2.58.67h.57Z" fill="#fff" fill-rule="evenodd"/></svg>