<svg xmlns="http://www.w3.org/2000/svg" viewBox="0 0 34 34">
    <path d="M5.67 0h22.66A5.67 5.67 0 0134 5.67v22.66A5.67 5.67 0 0128.33 34H5.67A5.67 5.67 0 010 28.33V5.67A5.67 5.67 0 015.67 0z" fill="#d0021b"/>
    <path d="M18.86 18.42h-1a34.8 34.8 0 00-3.47 5.92l-.35.66H10a25.1 25.1 0 001.71-2.43l.45-.73.28-.44.68-1.14a7.52 7.52 0 012.34-2.46 5.19 5.19 0 01-2.85-1.51 4.11 4.11 0 01-.94-2.8A4.42 4.42 0 0113.18 10a3.67 3.67 0 011.63-.83A18.65 18.65 0 0118 9h4v16h-3.14zm0-7.35h-.78a3.8 3.8 0 00-2.42.64 2.35 2.35 0 00-.81 1.95 2.41 2.41 0 00.86 2 4.12 4.12 0 002.58.67h.57z" fill="#fff"/>
</svg>