<svg xmlns="http://www.w3.org/2000/svg" viewBox="0 0 30 30">
    <path d="M5 0h20a5 5 0 015 5v20a5 5 0 01-5 5H5a5 5 0 01-5-5V5a5 5 0 015-5z" fill="#f80101"/>
    <path d="M23.5 10.28a2.37 2.37 0 00-1.88-1.78 37.42 37.42 0 00-6.68-.5 38 38 0 00-6.73.5 2.33 2.33 0 00-1.88 1.78A28.16 28.16 0 006 14.64 22.32 22.32 0 006.38 19a2.36 2.36 0 001.87 1.79 38.75 38.75 0 006.73.5 38.53 38.53 0 006.72-.5A2.32 2.32 0 0023.58 19a30.67 30.67 0 00.42-4.36 28.19 28.19 0 00-.5-4.36zm-10.82 7.27v-5.81l5.1 2.9z" fill="#fff"/>
</svg>