<svg xmlns="http://www.w3.org/2000/svg" viewBox="0 0 22 26"><path d="M21.15 20.25a13.79 13.79 0 01-1.38 2.51A12.58 12.58 0 0118 24.93a3.44 3.44 0 01-2.29 1 5.72 5.72 0 01-2.11-.51 5.94 5.94 0 00-2.27-.51 6.18 6.18 0 00-2.33.53A6.29 6.29 0 017 26a3.19 3.19 0 01-2.33-1.05 12.44 12.44 0 01-1.86-2.25 15.34 15.34 0 01-2-3.95A14.63 14.63 0 010 14a8.61 8.61 0 011.12-4.5 6.62 6.62 0 012.33-2.4 6.32 6.32 0 013.16-.9 7.16 7.16 0 012.44.58 7.85 7.85 0 001.95.59 11 11 0 002.15-.68 7 7 0 012.92-.52 6.17 6.17 0 014.86 2.59 5.48 5.48 0 00-2.87 5 5.5 5.5 0 001.78 4.13A5.71 5.71 0 0021.6 19c-.14.46-.29.86-.45 1.25zM16.2.52a5.58 5.58 0 01-1.4 3.63 4.76 4.76 0 01-4 2 3.91 3.91 0 010-.49A5.93 5.93 0 0114.1.59 5.26 5.26 0 0116.18 0v.52z"/></svg>