<svg xmlns="http://www.w3.org/2000/svg" viewBox="0 0 32.04 32.04"><path d="M5.12 24.09a1 1 0 0 0-1.41 1.41l2.83 2.83a1 1 0 0 0 1.41 0 1 1 0 0 0 0-1.39l-2.83-2.85m6.6-7.54a1 1 0 0 0-1.42 0 1 1 0 0 0 0 1.41l3.78 3.78a1 1 0 0 0 1.41-1.42l-3.77-3.77"/><path d="M29.17 7.11l-.26.24L6.58 26.87a1 1 0 0 0-.34.72 1 1 0 0 0 .3.74 1 1 0 0 1 0 1.42 1 1 0 0 1-.71.29 1 1 0 0 1-.71-.29l-2.83-2.83a1 1 0 0 1-.29-.71 1 1 0 0 1 .29-.71 1 1 0 0 1 1.42 0 1 1 0 0 0 1.41 0 .12.12 0 0 1 0-.05L24.69 3.14l.24-.27a3 3 0 0 1 4.24 4.24zm1.41-5.65a5 5 0 0 0-7.07 0l-.27.3-19 21.68A2.88 2.88 0 0 0 3 23.21a3 3 0 0 0-2.12 5.12l2.83 2.83a3 3 0 0 0 4.23 0H8A3 3 0 0 0 8.83 29a3 3 0 0 0-.28-1.23l21.68-19 .3-.27A5 5 0 0 0 32 5a5 5 0 0 0-1.42-3.54zM6.16 4.31a2.06 2.06 0 0 1-2 2 2.08 2.08 0 0 1-2-2 2 2 0 1 1 4 0zm-6 0a4.15 4.15 0 0 0 4 4 4.14 4.14 0 0 0 4-4 4 4 0 1 0-8 0z"/></svg>