<svg xmlns="http://www.w3.org/2000/svg" viewBox="0 0 32 32"><path d="M30.87 16a15.92 15.92 0 0 0-9.47 4l-4-4 9.89-9.9a1 1 0 1 0-1.41-1.41L16 14.59l-4-4a15.92 15.92 0 0 0 4-9.47A1 1 0 0 0 15 0a1 1 0 0 0-1.06 1 13.92 13.92 0 0 1-3.4 8.19l-4.46-4.5a1 1 0 0 0-1.42 0 1 1 0 0 0 0 1.38l4.47 4.47A14 14 0 0 1 .94 14 1 1 0 1 0 1 16a15.87 15.87 0 0 0 9.46-4l4 4-9.9 9.9a1 1 0 0 0 0 1.41 1 1 0 0 0 1.42 0L16 17.41l4 4a15.87 15.87 0 0 0-4 9.47 1 1 0 1 0 2 .17 13.91 13.91 0 0 1 3.39-8.19l4.47 4.47a1 1 0 0 0 1.41-1.42l-4.46-4.46A13.93 13.93 0 0 1 31 18a1 1 0 0 0-.1-2"/><path d="M25.88 25.9A13.7 13.7 0 0 1 16 30a13.77 13.77 0 0 1-9.91-4.1 14 14 0 1 1 19.79 0zM16 0a16 16 0 1 0 16 16A16 16 0 0 0 16 0z"/></svg>