<svg xmlns="http://www.w3.org/2000/svg" viewBox="0 0 32 32"><path d="M24 27.47l-4.45-1.21L18.4 22l3.36-3.36 4.34 1.17 1.21 4.44A14.06 14.06 0 0 1 24 27.47zm-19.16-3l2 .55.58 2.09a13.94 13.94 0 0 1-2.56-2.66zM3.07 10.64l.57 2.06-1.51 1.51a13.71 13.71 0 0 1 .94-3.57zm4.63-5.9L12 5.92l1.17 4.29-3.28 3.31-4.27-1.15L4.44 8.1A14.45 14.45 0 0 1 7.7 4.74zM27.33 7.8l-2.54-.69-.69-2.51a14 14 0 0 1 3.23 3.2zM24.27 9l4.49 1.22a13.9 13.9 0 0 1 1.17 4.43l-3.2 3.2-4.56-1.23-1.17-4.3zM12.54 4l-2.45-.67a14.14 14.14 0 0 1 4.35-1.23zm7 6.92l-4.41-1.23L14 5.4l3.3-3.33a13.82 13.82 0 0 1 4.35 1.13l1.21 4.42zm-2.5 9.57l-4.42-1.19-1.23-4.47 3.19-3.19 4.45 1.21 1.21 4.44zm-9.69 2.56l-4-1.05a13.9 13.9 0 0 1-1.29-4.86l2.86-2.86 4.61 1.22 1.16 4.21zm11.8 5.17l2.38.64a13.63 13.63 0 0 1-4.08 1.06zm-4.53 1.71A13.75 13.75 0 0 1 10 28.62l-1.15-4.2L12 21.19l4.4 1.19 1.22 4.5zm13.44-10.54l1.85-1.85a13.58 13.58 0 0 1-1.19 4.28zM16 0A16 16 0 0 0 0 16v.32l-.08.08.08.09a15.92 15.92 0 0 0 1.91 7.13H2A16 16 0 1 0 16 0z"/></svg>