<svg xmlns="http://www.w3.org/2000/svg" viewBox="0 0 20 20">
    <path d="M17.46,8a1,1,0,0,0-.07,1,7.65,7.65,0,0,1,.52,1.81,8,8,0,0,1-.69,4.73,1,1,0,0,1-.89.53H3.68a1,1,0,0,1-.89-.54A8,8,0,0,1,11,4.06a7.65,7.65,0,0,1,2.11.56,1,1,0,0,0,1-.07,1,1,0,0,0-.17-1.76A10,10,0,0,0,1.35,17a2,2,0,0,0,1.72,1H16.92a2,2,0,0,0,1.74-1,10,10,0,0,0,.55-8.89,1,1,0,0,0-.84-.57,1,1,0,0,0-.91.46Z" fill="#7ed321" fill-rule="evenodd"/>
    <path d="M8.59,10.59a2,2,0,0,0-.52,1.93,2,2,0,0,0,1.42,1.42,2,2,0,0,0,1.93-.52l5.66-8.49Z" fill="#7ed321" fill-rule="evenodd"/>
</svg>