<?xml version="1.0" encoding="UTF-8"?>
<svg width="25px" height="27px" viewBox="0 0 25 27" version="1.1" xmlns="http://www.w3.org/2000/svg" xmlns:xlink="http://www.w3.org/1999/xlink">
    <!-- Generator: Sketch 63 (92445) - https://sketch.com -->
    <title>Combined Shape</title>
    <desc>Created with Sketch.</desc>
    <g id="список-турниров" stroke="none" stroke-width="1" fill="none" fill-rule="evenodd">
        <g id="1440-казино-турниры" transform="translate(-402.000000, -298.000000)" fill="#979797" fill-rule="nonzero">
            <path d="M408.142857,312.964286 C411.397392,312.964286 414.035714,315.602608 414.035714,318.857143 C414.035714,322.111678 411.397392,324.75 408.142857,324.75 C404.888322,324.75 402.25,322.111678 402.25,318.857143 C402.25,315.602608 404.888322,312.964286 408.142857,312.964286 Z M427,313.714286 L427,324 L416.714286,324 L416.714286,313.714286 L427,313.714286 Z M408.142857,314.464286 C405.716749,314.464286 403.75,316.431035 403.75,318.857143 C403.75,321.283251 405.716749,323.25 408.142857,323.25 C410.568965,323.25 412.535714,321.283251 412.535714,318.857143 C412.535714,316.431035 410.568965,314.464286 408.142857,314.464286 Z M425.5,315.214 L418.214,315.214 L418.214,322.5 L425.5,322.5 L425.5,315.214 Z M415,298.322949 L421.356383,311.035714 L408.643617,311.035714 L415,298.322949 Z M415,301.676 L411.07,309.535 L418.929,309.535 L415,301.676 Z" id="Combined-Shape"></path>
        </g>
    </g>
</svg>