<?xml version="1.0" encoding="UTF-8"?>
<svg width="25px" height="15px" viewBox="0 0 25 15" version="1.1" xmlns="http://www.w3.org/2000/svg" xmlns:xlink="http://www.w3.org/1999/xlink">
    <!-- Generator: Sketch 63 (92445) - https://sketch.com -->
    <title>аркады</title>
    <desc>Created with Sketch.</desc>
    <g id="иконки" stroke="none" stroke-width="1" fill="none" fill-rule="evenodd">
        <g id="Artboard" transform="translate(-425.000000, -392.000000)" fill="#999999" fill-rule="nonzero">
            <g id="аркады" transform="translate(425.842108, 392.026223)">
                <path d="M19.8863583,1.59145091 C18.0904962,0.00248539562 15.7484273,-0.394755984 13.0008411,0.416278499 L12.9263583,0.416278499 C12.0982624,0.751259781 11.1723852,0.751259781 10.3442893,0.416278499 C7.57187555,-0.411307708 5.25463417,0.00248539562 3.4587721,1.59145091 C0.0160134799,4.64524402 -0.207434796,11.0424854 0.0987721006,12.8962785 C0.240963175,13.7691869 0.836772495,14.5005507 1.66291003,14.8162785 C1.95159444,14.9238231 2.25691939,14.979846 2.564979,14.9817957 C3.12784216,14.9804168 3.67353231,14.7878202 4.1125652,14.4355888 L5.84222038,13.0535199 C6.84418536,12.2489652 8.09100739,11.8109715 9.37601348,11.8121406 L13.9442893,11.8121406 C15.2315715,11.8123949 16.4805518,12.2501216 17.4863583,13.0535199 L19.2077376,14.4355888 C19.8968194,14.9932984 20.8309865,15.1412807 21.6587003,14.8238482 C22.4864142,14.5064156 23.0820759,13.7717361 23.2215307,12.8962785 C23.5525652,11.0424854 23.3291169,4.64524402 19.8863583,1.59145091 Z M21.6160135,12.6231751 C21.5743734,12.9205818 21.3748899,13.1720935 21.0947766,13.2803581 C20.8146634,13.3886227 20.4978819,13.336649 20.267048,13.1445544 L18.5456687,11.7624854 C17.2448285,10.7265778 15.6320285,10.1607854 13.9691169,10.1569682 L9.37601348,10.1569682 C7.71538203,10.1593919 6.10475412,10.7254459 4.80773762,11.7624854 L3.07808245,13.1445544 C2.84724853,13.336649 2.53046702,13.3886227 2.25035377,13.2803581 C1.97024053,13.1720935 1.77075705,12.9205818 1.72911693,12.6231751 C1.43118589,10.8190371 1.82842727,5.24938195 4.55946176,2.83283022 C5.42609908,2.05437808 6.5561511,1.63430639 7.72084107,1.65765781 C8.42503155,1.6664998 9.12440929,1.77516806 9.79808245,1.98041643 C10.9896805,2.44819496 12.3140706,2.44819496 13.5056687,1.98041643 C15.707048,1.34317505 17.4367031,1.6162785 18.7856687,2.80800264 C21.5167031,5.24938195 21.9139445,10.7942095 21.6160135,12.6231751 Z" id="Shape"></path>
                <path d="M9.10291003,5.18317505 L7.86153072,5.18317505 L7.86153072,3.94179574 C7.86153072,3.4847325 7.49100776,3.11420953 7.03394451,3.11420953 C6.57688127,3.11420953 6.20635831,3.4847325 6.20635831,3.94179574 L6.20635831,5.18317505 L4.964979,5.18317505 C4.50791576,5.18317505 4.13739279,5.55369802 4.13739279,6.01076126 C4.13739279,6.4678245 4.50791576,6.83834746 4.964979,6.83834746 L6.20635831,6.83834746 L6.20635831,8.07972677 C6.20635831,8.53679002 6.57688127,8.90731298 7.03394451,8.90731298 C7.49100776,8.90731298 7.86153072,8.53679002 7.86153072,8.07972677 L7.86153072,6.83834746 L9.10291003,6.83834746 C9.55997327,6.83834746 9.93049624,6.4678245 9.93049624,6.01076126 C9.93049624,5.55369802 9.55997327,5.18317505 9.10291003,5.18317505 Z" id="Path"></path>
                <circle id="Oval" cx="16.5511859" cy="4.14869229" r="1"></circle>
                <circle id="Oval" cx="16.5511859" cy="7.25214057" r="1"></circle>
                <circle id="Oval" cx="14.9953238" cy="5.6962785" r="1"></circle>
                <circle id="Oval" cx="18.0987721" cy="5.6962785" r="1"></circle>
            </g>
        </g>
    </g>
</svg>