<?xml version="1.0" encoding="UTF-8"?>
<svg width="25px" height="18px" viewBox="0 0 25 18" version="1.1" xmlns="http://www.w3.org/2000/svg" xmlns:xlink="http://www.w3.org/1999/xlink">
    <!-- Generator: Sketch 63 (92445) - https://sketch.com -->
    <title>баккара</title>
    <desc>Created with Sketch.</desc>
    <g id="иконки" stroke="none" stroke-width="1" fill="none" fill-rule="evenodd">
        <g id="Artboard" transform="translate(-427.000000, -129.000000)" fill="#999999" fill-rule="nonzero">
            <g id="баккара" transform="translate(427.401458, 129.389226)">
                <path d="M22.504,0.016 L18.152,0.016 C17.755784,0.0178423256 17.3763005,0.175960472 17.096,0.456 L15.384,2.144 L8.832,2.24 L6.872,0.4 C6.59211366,0.144241999 6.22713813,0.00167343127 5.848,4.26325641e-15 L1.504,4.26325641e-15 C0.676477927,4.26325641e-15 0.00440171307,0.668489634 0,1.496 L0,15.744 C0.00440171307,16.5715104 0.676477927,17.24 1.504,17.24 L22.504,17.24 C23.330218,17.24 24,16.570218 24,15.744 L24,1.512 C24,0.685782014 23.330218,0.016 22.504,0.016 L22.504,0.016 Z M22.504,15.768 L1.504,15.768 L1.504,1.512 L5.832,1.512 L8.232,3.744 L16,3.632 L18.136,1.488 L22.488,1.488 L22.504,15.768 Z" id="Shape"></path>
                <path d="M11.992,7.632 C12.4042139,7.632 12.7396147,7.30019057 12.744,6.888 L12.744,5.44 C12.744,5.02468187 12.4073181,4.688 11.992,4.688 C11.5766819,4.688 11.24,5.02468187 11.24,5.44 L11.24,6.888 C11.2443853,7.30019057 11.5797861,7.632 11.992,7.632 L11.992,7.632 Z" id="Path"></path>
                <path d="M15.56,5.896 C15.44,7.376 13.872,8.536 12,8.536 C10.128,8.536 8.56,7.376 8.44,5.896 C8.3620126,5.12828604 7.71566491,4.54415363 6.944,4.54397928 L3.608,4.54397928 C3.19519297,4.54181167 2.8004377,4.7130658 2.52,5.016 C2.23595528,5.31147611 2.08557911,5.71055133 2.104,6.12 C2.336,10.768 6.68,14.416 12,14.416 C17.32,14.416 21.664,10.768 21.896,6.12 C21.9144209,5.71055133 21.7640447,5.31147611 21.48,5.016 C21.2020303,4.71430085 20.81023,4.54306965 20.4,4.54397928 L17.032,4.54397928 C16.269538,4.55633048 15.6369677,5.13733252 15.56,5.896 Z M4.296,8.544 C3.8873017,7.75212976 3.65272018,6.881996 3.608,5.992 L6.944,5.992 C6.98525191,6.48121018 7.12397502,6.95722083 7.352,7.392 L4.296,8.544 Z M5.144,9.824 L8.304,8.64 C8.5374563,8.84872963 8.78912711,9.03614407 9.056,9.2 L7.432,11.744 C6.55643351,11.2621737 5.78007753,10.6188298 5.144,9.848 L5.144,9.824 Z M11.248,12.824 C10.4298715,12.7634738 9.62309755,12.5967405 8.848,12.328 L10.448,9.8 C10.7109322,9.87055105 10.9781583,9.92399628 11.248,9.96 L11.248,12.824 Z M12.752,12.824 L12.752,9.984 C13.0218417,9.94799628 13.2890678,9.89455105 13.552,9.824 L15.152,12.352 C14.3766871,12.6199578 13.570016,12.7866698 12.752,12.848 L12.752,12.824 Z M16.552,11.744 L14.952,9.24 C15.2229293,9.0754283 15.4774305,8.88522215 15.712,8.672 L18.872,9.864 C18.2244583,10.631685 17.4372197,11.2696198 16.552,11.744 L16.552,11.744 Z M19.704,8.544 L16.648,7.4 C16.8750591,6.96198026 17.0136934,6.48355598 17.056,5.992 L20.4,5.992 C20.3482455,6.88185253 20.1111828,7.75108247 19.704,8.544 L19.704,8.544 Z" id="Shape"></path>
            </g>
        </g>
    </g>
</svg>