<?xml version="1.0" encoding="UTF-8"?>
<svg width="18px" height="24px" viewBox="0 0 18 24" version="1.1" xmlns="http://www.w3.org/2000/svg" xmlns:xlink="http://www.w3.org/1999/xlink">
    <!-- Generator: Sketch 63 (92445) - https://sketch.com -->
    <title>блэкджек</title>
    <desc>Created with Sketch.</desc>
    <g id="иконки" stroke="none" stroke-width="1" fill="none" fill-rule="evenodd">
        <g id="Artboard" transform="translate(-133.000000, -227.000000)" fill="#999999" fill-rule="nonzero">
            <g id="блэкджек" transform="translate(133.011458, 227.669226)">
                <path d="M10.3822222,8.42663341 C9.69655736,8.42232251 9.08016228,8.84388006 8.83555556,9.48444444 C8.54399534,8.74370971 7.76819873,8.31367224 6.98551485,8.4589349 C6.20283096,8.60419756 5.63301117,9.28397547 5.62666667,10.08 C5.62666667,11.68 6.51555556,12.5955556 8.75555556,14.8088889 C8.77412823,14.8314992 8.80185074,14.8446034 8.83111111,14.8446034 C8.86037148,14.8446034 8.88809399,14.8314992 8.90666667,14.8088889 L8.90666667,14.8088889 C11.12,12.5955556 12.0355556,11.68 12.0355556,10.08 C12.0355556,9.16688921 11.295333,8.42663341 10.3822222,8.42663341 Z" id="Path"></path>
                <path d="M14.4088889,0 L3.37777778,0 C1.51228262,0 0,1.51228262 0,3.37777778 L0,19.9111111 C0,21.7766063 1.51228262,23.2888889 3.37777778,23.2888889 L14.4088889,23.2888889 C16.2709118,23.2839888 17.7777778,21.7731404 17.7777778,19.9111111 L17.7777778,3.37777778 C17.7777778,1.51574844 16.2709118,0.00490007718 14.4088889,0 L14.4088889,0 Z M16.0088889,19.9111111 C16.0040313,20.7927468 15.2905246,21.5062535 14.4088889,21.5111111 L3.37777778,21.5111111 C2.95343139,21.5111111 2.54646513,21.3425402 2.24640693,21.042482 C1.94634872,20.7424238 1.77775277,20.3354575 1.77775277,19.9111111 L1.77775277,3.37777778 C1.77539637,2.95270582 1.94320248,2.54435445 2.24377846,2.24377846 C2.54435445,1.94320248 2.95270582,1.77539637 3.37777778,1.77775277 L14.4088889,1.77775277 C14.8332353,1.77775277 15.2402015,1.94634872 15.5402597,2.24640693 C15.8403179,2.54646513 16.0088889,2.95343139 16.0088889,3.37777778 L16.0088889,19.9111111 Z" id="Shape"></path>
                <path d="M3.55555556,2.72888889 C3.06463578,2.72888889 2.66666667,3.126858 2.66666667,3.61777778 L2.66666667,5.74222222 C2.66666667,6.233142 3.06463578,6.63111111 3.55555556,6.63111111 C4.04647533,6.63111111 4.44444444,6.233142 4.44444444,5.74222222 L4.44444444,3.61777778 C4.44444444,3.126858 4.04647533,2.72888889 3.55555556,2.72888889 Z" id="Path"></path>
                <path d="M14.2311111,16.6311111 C13.7401913,16.6311111 13.3422222,17.0290802 13.3422222,17.52 L13.3422222,19.6444444 C13.3422222,20.1353642 13.7401913,20.5333333 14.2311111,20.5333333 C14.7220309,20.5333333 15.12,20.1353642 15.12,19.6444444 L15.12,17.52 C15.12,17.0290802 14.7220309,16.6311111 14.2311111,16.6311111 Z" id="Path"></path>
            </g>
        </g>
    </g>
</svg>