<?xml version="1.0" encoding="UTF-8"?>
<svg width="24px" height="24px" viewBox="0 0 24 24" version="1.1" xmlns="http://www.w3.org/2000/svg" xmlns:xlink="http://www.w3.org/1999/xlink">
    <!-- Generator: Sketch 63 (92445) - https://sketch.com -->
    <title>настольные</title>
    <desc>Created with Sketch.</desc>
    <g id="иконки" stroke="none" stroke-width="1" fill="none" fill-rule="evenodd">
        <g id="Artboard" transform="translate(-427.000000, -322.000000)" fill="#999999" fill-rule="nonzero">
            <g id="настольные" transform="translate(427.191458, 322.789226)">
                <circle id="Oval" cx="7.38461538" cy="15.4615385" r="1.38461538"></circle>
                <circle id="Oval" cx="3.87692308" cy="12" r="1.38461538"></circle>
                <circle id="Oval" cx="10.8923077" cy="12" r="1.38461538"></circle>
                <circle id="Oval" cx="3.87692308" cy="18.9230769" r="1.38461538"></circle>
                <circle id="Oval" cx="10.8923077" cy="18.9230769" r="1.38461538"></circle>
                <circle id="Oval" cx="16.1630769" cy="7.38461538" r="1.38461538"></circle>
                <circle id="Oval" cx="12.6646154" cy="3.92307692" r="1.38461538"></circle>
                <circle id="Oval" cx="19.6707692" cy="3.92307692" r="1.38461538"></circle>
                <circle id="Oval" cx="19.6707692" cy="10.8461538" r="1.38461538"></circle>
                <path d="M21.6923077,-1.3117712e-14 L10.6153846,-1.3117712e-14 C9.595782,-1.3117712e-14 8.76923077,0.826551231 8.76923077,1.84615385 L8.76923077,8.07692308 L1.84615385,8.07692308 C0.826551231,8.07692308 0,8.90347431 0,9.92307692 L0,21 C0,22.0196026 0.826551231,22.8461538 1.84615385,22.8461538 L12.9230769,22.8461538 C13.9426795,22.8461538 14.7692308,22.0196026 14.7692308,21 L14.7692308,14.7692308 L21.6923077,14.7692308 C22.7119103,14.7692308 23.5384615,13.9426795 23.5384615,12.9230769 L23.5384615,1.84615385 C23.5384615,0.826551231 22.7119103,-1.3117712e-14 21.6923077,-1.3117712e-14 L21.6923077,-1.3117712e-14 Z M12.9138462,21 L1.83692308,21 L1.83692308,9.92307692 L12.9138462,9.92307692 L12.9138462,21 Z M21.6923077,12.9230769 L14.7692308,12.9230769 L14.7692308,9.92307692 C14.7692308,8.90347431 13.9426795,8.07692308 12.9230769,8.07692308 L10.6153846,8.07692308 L10.6153846,1.84615385 L21.6923077,1.84615385 L21.6923077,12.9230769 Z" id="Shape"></path>
            </g>
        </g>
    </g>
</svg>