<?xml version="1.0" encoding="UTF-8"?>
<svg width="22px" height="25px" viewBox="0 0 22 25" version="1.1" xmlns="http://www.w3.org/2000/svg" xmlns:xlink="http://www.w3.org/1999/xlink">
    <!-- Generator: Sketch 63 (92445) - https://sketch.com -->
    <title>джекпоты</title>
    <desc>Created with Sketch.</desc>
    <g id="иконки" stroke="none" stroke-width="1" fill="none" fill-rule="evenodd">
        <g id="Artboard" transform="translate(-330.000000, -325.000000)" fill="#999999" fill-rule="nonzero">
            <g id="джекпоты" transform="translate(330.971458, 325.922126)">
                <path d="M16.2336,10.0580156 C15.7523138,8.85911754 15.590236,7.55587987 15.7632,6.27561563 C16.0401573,4.25360684 17.354772,2.52385068 19.2288,1.71561563 C19.2658933,1.68921056 19.3011726,1.6603457 19.3344,1.62921563 C19.3998141,1.59548465 19.458405,1.54991402 19.5072,1.49481563 C19.5446581,1.4506874 19.5768732,1.40236473 19.6032,1.35081563 L19.6992,1.18761563 C19.7037575,1.12049291 19.7037575,1.05313836 19.6992,0.986015634 C19.7036913,0.941328197 19.7036913,0.89630307 19.6992,0.851615634 C19.6992,0.851615634 19.6992,0.851615634 19.6992,0.851615634 C19.7082592,0.787936219 19.7082592,0.723295049 19.6992,0.659615634 C19.6922498,0.596787307 19.6760759,0.535326678 19.6512,0.477215634 C19.6512,0.477215634 19.6512,0.477215634 19.6512,0.477215634 C19.6313018,0.435305932 19.6054327,0.396502364 19.5744,0.362015634 C19.5378745,0.301298708 19.4925864,0.246305992 19.44,0.198815634 C19.3958718,0.161357544 19.3475491,0.12914243 19.296,0.102815634 C19.2460631,0.063771062 19.1911888,0.0314920224 19.1328,0.00681563359 C19.0659072,-0.00227187786 18.9980928,-0.00227187786 18.9312,0.00681563359 C18.8865126,0.00232437724 18.8414874,0.00232437724 18.7968,0.00681563359 L18.7296,0.00681563359 C12.8928,0.00681563359 9.3792,3.70281563 8.5728,6.29481563 C7.97109647,6.11769366 7.34723039,6.02718459 6.72,6.02601563 C3.00864648,6.02601563 1.70530257e-15,9.03466211 1.70530257e-15,12.7460156 C1.70530257e-15,16.4573692 3.00864648,19.4660156 6.72,19.4660156 C7.14944209,19.4624229 7.57734529,19.4141631 7.9968,19.3220156 C9.26356209,22.1264033 12.273304,23.7120493 15.3025808,23.1709776 C18.3318576,22.6299059 20.6065717,20.1003813 20.8241716,17.0308656 C21.0417714,13.9613498 19.1466517,11.1362232 16.224,10.1732156 L16.2336,10.0580156 Z M15.408,2.37801563 C14.5728608,3.43680627 14.0359283,4.69959204 13.8528,6.03561563 C13.7084605,7.27726759 13.8029585,8.53506846 14.1312,9.74121563 C13.7090104,9.74321794 13.2879489,9.78500267 12.8736,9.86601563 C12.3340811,8.69003937 11.4718727,7.6913424 10.3872,6.98601563 C10.5696,5.84361563 12.2112,3.42441563 15.408,2.34921563 L15.408,2.37801563 Z M6.768,17.4596772 C4.39848285,17.4715266 2.37480099,15.7525668 2.00324859,13.4123313 C1.63169619,11.0720958 3.02345652,8.81087621 5.28014311,8.08829818 C7.53682971,7.36572015 9.98315206,8.3980078 11.04,10.5188156 C8.81851972,11.6696666 7.42029842,13.9593464 7.4112,16.4612156 C7.41048535,16.7827781 7.43617163,17.1038566 7.488,17.4212156 C7.23581932,17.4462408 6.98178068,17.4462408 6.7296,17.4212156 L6.768,17.4596772 Z M14.16,21.2996156 C11.5090332,21.2996156 9.36,19.1505824 9.36,16.4996156 C9.36,13.8486488 11.5090332,11.6996156 14.16,11.6996156 C16.8109668,11.6996156 18.96,13.8486488 18.96,16.4996156 C18.9388697,19.1468435 16.7784641,21.2771838 14.1312,21.2612156 L14.16,21.2996156 Z" id="Shape"></path>
                <path d="M14.1312,12.2084156 C11.8005393,12.2136946 9.91247898,14.101755 9.9072,16.4324156 C9.9072,16.962609 10.3370066,17.3924156 10.8672,17.3924156 C11.3973934,17.3924156 11.8272,16.962609 11.8272,16.4324156 C11.83246,15.1621367 12.8609211,14.1336757 14.1312,14.1284156 C14.6613934,14.1284156 15.0912,13.698609 15.0912,13.1684156 C15.0912,12.6382223 14.6613934,12.2084156 14.1312,12.2084156 Z" id="Path"></path>
                <path d="M7.6896,9.36681563 C7.6896,8.83662227 7.25979336,8.40681563 6.7296,8.40681563 C4.39893934,8.41209461 2.51087898,10.300155 2.5056,12.6308156 C2.5056,13.161009 2.93540664,13.5908156 3.4656,13.5908156 C3.99579336,13.5908156 4.4256,13.161009 4.4256,12.6308156 C4.43086002,11.3605367 5.45932109,10.3320757 6.7296,10.3268156 C7.25979336,10.3268156 7.6896,9.89700899 7.6896,9.36681563 Z" id="Path"></path>
            </g>
        </g>
    </g>
</svg>