<?xml version="1.0" encoding="UTF-8"?>
<svg width="24px" height="24px" viewBox="0 0 24 24" version="1.1" xmlns="http://www.w3.org/2000/svg" xmlns:xlink="http://www.w3.org/1999/xlink">
    <!-- Generator: Sketch 63 (92445) - https://sketch.com -->
    <title>live</title>
    <desc>Created with Sketch.</desc>
    <g id="иконки" stroke="none" stroke-width="1" fill="none" fill-rule="evenodd">
        <g id="Artboard" transform="translate(-228.000000, -124.000000)" fill="#999999" fill-rule="nonzero">
            <g id="live" transform="translate(228.341458, 124.229226)">
                <circle id="Oval" cx="11.3806452" cy="19.1070968" r="1"></circle>
                <path d="M20.8877419,17.76 L16.4516129,15.0890323 L16.4516129,14.3690323 C16.4534431,13.7998894 16.1865649,13.2632634 15.7316129,12.9212903 C16.2385714,12.3388172 16.6418403,11.6736854 16.923871,10.9548387 C17.8916129,11.2335484 18.4722581,11.4735484 18.4722581,11.4735484 C18.5634485,11.50959 18.6606555,11.5279805 18.7587097,11.5277419 C19.1422396,11.5326782 19.4715651,11.2560447 19.5329032,10.8774194 C19.5329032,10.6606452 20.2451613,5.66709677 17.4890323,2.49290323 C16.0567742,0.843870968 13.9819355,0 11.2954839,0 C8.60903226,0 6.56516129,0.843870968 5.10193548,2.49290323 C2.34580645,5.66709677 3.02709677,10.6606452 3.05806452,10.8774194 C3.0931642,11.1071304 3.22958997,11.3089268 3.42967742,11.4270968 C3.64277826,11.5626945 3.90862792,11.5858119 4.14193548,11.4890323 C4.14193548,11.4890323 4.74580645,11.2490323 5.69032258,10.9703226 C5.97018521,11.6942926 6.37650493,12.3627541 6.89032258,12.9445161 C6.83307192,12.9787566 6.77869932,13.0175941 6.72774194,13.0606452 C6.36744864,13.4062718 6.16576583,13.8852684 6.17032258,14.3845161 L6.17032258,15.1587097 L1.81935484,17.7832258 C0.689887066,18.4891414 0.0026623643,19.7261459 -9.62670803e-15,21.0580645 L-9.62670803e-15,22.4825806 C-9.62670803e-15,22.9101559 0.346618258,23.2567742 0.774193548,23.2567742 L21.9483871,23.2567742 C22.3759624,23.2567742 22.7225806,22.9101559 22.7225806,22.4825806 L22.7225806,21.0348387 C22.7165855,19.6998646 22.0231366,18.46219 20.8877419,17.76 Z M5.98451613,7.0916129 C5.54835978,7.80465951 5.34037345,8.63390372 5.3883871,9.4683871 C5.07870968,9.55354839 4.80774194,9.63870968 4.56774194,9.71612903 C4.52129032,8.25290323 4.6683871,5.40387097 6.32516129,3.52258065 C7.45548387,2.21419355 9.14322581,1.55612903 11.3341935,1.55612903 C13.5251613,1.55612903 15.2051613,2.21419355 16.3432258,3.51483871 C18,5.4116129 18.1470968,8.2683871 18.1006452,9.7083871 C17.876129,9.63096774 17.6129032,9.55354839 17.3264516,9.4683871 C17.3791857,9.11472244 17.4050661,8.75757258 17.403871,8.4 C17.4051448,7.90298509 17.3532364,7.40726042 17.2490323,6.92129032 C17.2089516,6.73049418 17.0983614,6.56184417 16.9393548,6.44903226 C16.6683871,6.26322581 16.2967742,6.02322581 15.8787097,5.76774194 C15.0425806,5.24129032 12.8283871,3.86322581 12.7122581,3.28258065 C12.6441543,2.91012192 12.3166481,2.64156677 11.9380645,2.64774194 L11.9380645,2.64774194 C11.5643142,2.64020462 11.2385602,2.90080783 11.163871,3.26709677 C11.163871,3.42193548 10.3896774,7.06064516 6.67354839,6.71225806 C6.39195742,6.70392875 6.12806717,6.84921664 5.98451613,7.0916129 L5.98451613,7.0916129 Z M7.09935484,8.27612903 C9.30031377,8.35326864 11.3242636,7.07563112 12.2012903,5.05548387 C13.0956929,5.80501645 14.0512897,6.47833668 15.0580645,7.0683871 L15.8322581,7.54064516 L15.8322581,7.54064516 C15.878219,7.82219621 15.9015196,8.1069806 15.9019355,8.39225806 C15.9019355,8.61757255 15.8863602,8.84261757 15.8554839,9.06580645 C15.8587328,9.10186244 15.8587328,9.13813756 15.8554839,9.17419355 C15.8254221,9.39295657 15.7840766,9.61002014 15.7316129,9.82451613 L15.7316129,9.82451613 C15.3480178,11.9477044 13.4877802,13.4838238 11.330362,13.4589157 C9.17294384,13.4340077 7.34866729,11.8553496 7.01419355,9.72387097 C6.89753527,9.24359911 6.92719337,8.73941149 7.09935484,8.27612903 Z M12.1393548,15.4374194 C12.1601453,15.7866418 11.9441563,16.1064145 11.6124313,16.2175319 C11.2807064,16.3286494 10.9156817,16.2034981 10.7219228,15.9122147 C10.5281639,15.6209314 10.5538212,15.2359021 10.7845161,14.9729032 C10.9703226,14.9729032 11.1483871,15.0193548 11.3341935,15.0193548 C11.5440826,15.0131657 11.7534513,14.9950721 11.9612903,14.9651613 C12.0717318,15.0982706 12.1344194,15.2645291 12.1393548,15.4374194 L12.1393548,15.4374194 Z M4.51354839,21.7006452 L1.5870961,21.7006452 L1.5870961,21.0348387 C1.58648911,20.2366584 1.99578256,19.4940832 2.67096774,19.0683871 L3.54580645,18.5419355 L4.55225806,21.7006452 L4.51354839,21.7006452 Z M6.15483871,21.7006452 L4.91612903,17.7290323 L6.27096774,16.9083871 C6.42261284,17.5917901 6.9469454,18.1311036 7.62580645,18.3019355 L8.18322581,21.7083871 L6.15483871,21.7006452 Z M8.19096774,16.8077419 L8.08258065,16.8077419 C7.9059795,16.807792 7.76162414,16.6668737 7.75741934,16.4903226 L7.75741934,14.3690323 C7.75739391,14.2834887 7.79189686,14.201556 7.85310962,14.1418007 C7.91432238,14.0820454 7.99706254,14.0495265 8.08258065,14.0516129 L8.19096774,14.0516129 L8.32258065,14.1058065 C8.62087106,14.291713 8.93422726,14.4522757 9.25935484,14.5858065 C9.14567437,14.8501205 9.08516796,15.1342375 9.08129032,15.4219355 C9.08318781,15.7572036 9.15989115,16.0878214 9.30580645,16.3896774 L8.19096774,16.8077419 Z M13.0451613,21.7006452 L12.0851613,21.7006452 C12.118739,21.6060821 12.1370329,21.5067723 12.1393548,21.4064516 C12.1393548,20.9788763 11.7927366,20.6322581 11.3651613,20.6322581 C10.937586,20.6322581 10.5909677,20.9788763 10.5909677,21.4064516 C10.5932897,21.5067723 10.6115836,21.6060821 10.6451613,21.7006452 L9.7083871,21.7006452 L9.12,18.0929032 L10.1806452,17.6825806 C10.5357673,17.8714395 10.9319762,17.9698269 11.3341935,17.9690323 C11.7388761,17.9698292 12.1375928,17.8714791 12.4954839,17.6825806 L13.6258065,18.0929032 L13.0451613,21.7006452 Z M13.44,16.4283871 C13.5897358,16.1192998 13.6690596,15.7808514 13.6722581,15.4374194 C13.6678544,15.1381764 13.6019745,14.8430341 13.4787097,14.5703226 C13.774814,14.448143 14.0597543,14.3004921 14.3303226,14.1290323 L14.5006452,14.0670968 L14.6090323,14.0670968 C14.7843381,14.0670968 14.9264516,14.2092103 14.9264516,14.3845161 L14.9264516,16.5290323 C14.9264516,16.7043381 14.7843381,16.8464516 14.6090323,16.8464516 C14.5733461,16.8544517 14.5363313,16.8544517 14.5006452,16.8464516 L13.44,16.4283871 Z M16.5987097,21.7006452 L14.5935484,21.7006452 L15.1509677,18.2709677 C15.8031572,18.0691106 16.2912027,17.5245234 16.4206452,16.8541935 L17.8606452,17.7212903 L16.5987097,21.7006452 Z M21.1819362,21.7006452 L18.2012903,21.7006452 L19.2077419,18.5341935 L20.0980645,19.0683871 C20.7732497,19.4940832 21.1825432,20.2366584 21.1819362,21.0348387 L21.1819362,21.7006452 Z" id="Shape"></path>
            </g>
        </g>
    </g>
</svg>