<?xml version="1.0" encoding="UTF-8"?>
<svg width="22px" height="25px" viewBox="0 0 22 25" version="1.1" xmlns="http://www.w3.org/2000/svg" xmlns:xlink="http://www.w3.org/1999/xlink">
    <!-- Generator: Sketch 63 (92445) - https://sketch.com -->
    <title>лотерея</title>
    <desc>Created with Sketch.</desc>
    <g id="иконки" stroke="none" stroke-width="1" fill="none" fill-rule="evenodd">
        <g id="Artboard" transform="translate(-232.000000, -322.000000)" fill="#999999" fill-rule="nonzero">
            <g id="лотерея" transform="translate(232.191458, 322.289226)">
                <path d="M20.1428571,22.2857143 L16.44,22.2857143 L15.4714286,19.86 L20.2885714,15.0514286 L20.7857143,14.5457143 L20.7857143,6.02571429 L20.2885714,5.52 L15.2657143,0.497142857 L14.76,0 L6.24,0 L5.74285714,0.497142857 L0.72,5.52 L0.214285714,6.02571429 L0.214285714,14.5457143 L0.72,15.0514286 L5.53714286,19.86 L4.56857143,22.2857143 L0.857142857,22.2857143 C0.383755929,22.2857143 0,22.6694702 0,23.1428571 C0,23.6162441 0.383755929,24 0.857142857,24 L5.14285714,24 C5.49411758,24.00034 5.81003374,23.7863323 5.94,23.46 L7.09714286,20.5714286 L13.9114286,20.5714286 L15.0685714,23.46 C15.1973706,23.783443 15.5090126,23.99685 15.8571429,24 L20.1428571,24 C20.6162441,24 21,23.6162441 21,23.1428571 C21,22.6694702 20.6162441,22.2857143 20.1428571,22.2857143 L20.1428571,22.2857143 Z M13.8771429,15.8742857 C14.7398663,15.3541265 15.4703852,14.6412105 16.0114286,13.7914286 L18.1885714,14.7257143 L14.76,18.1542857 L13.8771429,15.8742857 Z M5.68284949,10.2857143 C5.67939063,8.33233938 6.85386574,6.56953859 8.65788768,5.82041217 C10.4619096,5.07128575 12.5396123,5.48360834 13.9208591,6.86485516 C15.3021059,8.24610198 15.7144285,10.3238047 14.9653021,12.1278266 C14.2161757,13.9318485 12.4533749,15.1063237 10.5,15.1028648 C7.84152209,15.0981393 5.68757495,12.9441922 5.68284949,10.2857143 Z M1.92857143,7.98857143 L4.13142857,8.84571429 C4.02508292,9.31258486 3.97046811,9.78974585 3.96857143,10.2685714 C3.96719674,10.9315725 4.06839335,11.5907962 4.26857143,12.2228571 L1.92857143,13.2171429 L1.92857143,7.98857143 Z M10.5,3.74571429 C9.8373232,3.74855853 9.17873136,3.84965815 8.54571429,4.04571429 L7.54285714,1.71428571 L12.7971429,1.71428571 L11.94,3.90857143 C11.4677349,3.79981931 10.9846247,3.74518185 10.5,3.74571429 L10.5,3.74571429 Z M19.0714286,13.2342857 L16.7142857,12.24 C16.9144638,11.607939 17.0156604,10.9487154 17.0142857,10.2857143 C17.012389,9.8068887 16.9577742,9.32972772 16.8514286,8.86285714 L19.0457143,8.00571429 L19.0714286,13.2342857 Z M18.6514286,6.30857143 L16.2857143,7.25142857 C15.6675915,6.07445973 14.7046,5.11445889 13.5257143,4.5 L14.4771429,2.13428571 L18.6514286,6.30857143 Z M6.06,2.60571429 L6.99428571,4.78285714 C6.03326913,5.39430651 5.24760358,6.24495192 4.71428571,7.25142857 L2.35714286,6.30857143 L6.06,2.60571429 Z M2.82,14.7257143 L4.99714286,13.7914286 C5.53818625,14.6412105 6.26870514,15.3541265 7.13142857,15.8742857 L6.27428571,18.1285714 L2.82,14.7257143 Z M7.78285714,18.8571429 L8.7,16.56 C9.87845897,16.9026223 11.1301125,16.9026223 12.3085714,16.56 L13.2257143,18.8571429 L7.78285714,18.8571429 Z" id="Shape"></path>
            </g>
        </g>
    </g>
</svg>