<?xml version="1.0" encoding="UTF-8"?>
<svg width="25px" height="19px" viewBox="0 0 25 19" version="1.1" xmlns="http://www.w3.org/2000/svg" xmlns:xlink="http://www.w3.org/1999/xlink">
    <!-- Generator: Sketch 63 (92445) - https://sketch.com -->
    <title>другие</title>
    <desc>Created with Sketch.</desc>
    <g id="иконки" stroke="none" stroke-width="1" fill="none" fill-rule="evenodd">
        <g id="Artboard" transform="translate(-328.000000, -393.000000)" fill="#999999" fill-rule="nonzero">
            <g id="другие" transform="translate(328.835718, 393.589226)">
                <path d="M23.617606,5.82461538 L19.7406829,0.729230769 C19.3920663,0.270424185 18.8492167,0.000706477757 18.2729906,1.63971401e-15 L5.71914446,1.63971401e-15 C5.14291834,0.000706477757 4.60006878,0.270424185 4.25145215,0.729230769 L0.374529072,5.82461538 C-0.196951146,6.57911205 -0.105255306,7.64358115 0.586836764,8.28923077 L10.7406829,17.7415385 C11.4487811,18.3982471 12.543354,18.3982471 13.2514521,17.7415385 L23.4052983,8.28923077 C24.0973904,7.64358115 24.1890862,6.57911205 23.617606,5.82461538 Z M21.0422214,5.49230769 L17.7099137,5.49230769 L15.5222214,1.8 L18.2914521,1.8 L21.0422214,5.49230769 Z M8.43299061,5.49230769 L10.6206829,1.8 L13.3899137,1.8 L15.577606,5.49230769 L8.43299061,5.49230769 Z M15.817606,7.33846154 L12.0422214,15.8215385 L8.26683676,7.33846154 L15.817606,7.33846154 Z M5.7652983,1.8 L8.53452907,1.8 L6.34683676,5.49230769 L3.01452907,5.49230769 L5.7652983,1.8 Z M6.25452907,7.33846154 L9.02375984,13.5784615 L2.31299061,7.33846154 L6.25452907,7.33846154 Z M15.0606829,13.5784615 L17.8299137,7.33846154 L21.7622214,7.33846154 L15.0606829,13.5784615 Z" id="Shape"></path>
            </g>
        </g>
    </g>
</svg>