<?xml version="1.0" encoding="UTF-8"?>
<svg width="25px" height="25px" viewBox="0 0 25 25" version="1.1" xmlns="http://www.w3.org/2000/svg" xmlns:xlink="http://www.w3.org/1999/xlink">
    <!-- Generator: Sketch 63 (92445) - https://sketch.com -->
    <title>покер</title>
    <desc>Created with Sketch.</desc>
    <g id="иконки" stroke="none" stroke-width="1" fill="none" fill-rule="evenodd">
        <g id="Artboard" transform="translate(-328.000000, -124.000000)" fill="#999999" fill-rule="nonzero">
            <g id="покер" transform="translate(328.311458, 124.669226)">
                <path d="M12,0 C5.372583,0 0,5.372583 0,12 C0,18.627417 5.372583,24 12,24 C18.627417,24 24,18.627417 24,12 C24,5.372583 18.627417,0 12,0 L12,0 Z M16.56,6.344 C15.495129,5.47146388 14.2057863,4.91690787 12.84,4.744 L12.84,1.64 C15.0319719,1.82079007 17.1101958,2.69185157 18.776,4.128 L16.56,6.344 Z M11.24,4.744 C9.87024732,4.89826957 8.57356503,5.44248741 7.504,6.312 L5.28,4.088 C6.96073333,2.65563811 9.05377154,1.79544704 11.256,1.632 L11.24,4.744 Z M12,6.344 C14.2915994,6.34076327 16.3593533,7.71869853 17.2385541,9.83493202 C18.1177549,11.9511655 17.6351437,14.3886639 16.0158822,16.0102157 C14.3966207,17.6317676 11.9598069,18.1178235 9.84233285,17.2416147 C7.72485878,16.3654059 6.344,14.2996017 6.344,12.008 C6.344,8.88167866 8.8736911,6.34481896 12,6.336 L12,6.344 Z M7.504,17.68 C8.58172247,18.5408171 9.88402506,19.0739559 11.256,19.216 L11.256,22.36 C9.05377154,22.196553 6.96073333,21.3363619 5.28,19.904 L7.504,17.68 Z M12.856,19.208 C14.2228296,19.0389311 15.5131983,18.4839338 16.576,17.608 L18.792,19.824 C17.1294564,21.2654087 15.0494364,22.1372231 12.856,22.312 L12.856,19.208 Z M17.696,16.512 C18.5512025,15.4432174 19.084021,14.1527975 19.232,12.792 L22.376,12.792 C22.2029742,14.9805058 21.3370902,17.0569462 19.904,18.72 L17.696,16.512 Z M19.232,11.192 C19.0705855,9.84632258 18.5326296,8.57352986 17.68,7.52 L19.904,5.296 C21.3328633,6.96327911 22.19316,9.04256297 22.36,11.232 L19.232,11.192 Z M4.144,5.216 L6.368,7.44 C5.48765204,8.5124189 4.93247654,9.81430544 4.768,11.192 L1.624,11.192 C1.79769837,8.98337792 2.6753719,6.88873854 4.128,5.216 L4.144,5.216 Z M1.656,12.792 L4.8,12.792 C4.96256027,14.1726133 5.51786832,15.4775873 6.4,16.552 L4.176,18.776 C2.7102038,17.1052922 1.82103321,15.0071862 1.64,12.792 L1.656,12.792 Z" id="Shape"></path>
                <path d="M11.08,13.856 C10.9686523,13.6033605 10.9062163,13.3318997 10.896,13.056 L9.632,13.056 C9.55451371,13.76765 9.85870805,14.467297 10.432,14.896 C10.7356552,15.071076 11.0694047,15.1877527 11.416,15.24 L11.416,15.768 C11.416,16.0993708 11.6846292,16.368 12.016,16.368 C12.3473708,16.368 12.616,16.0993708 12.616,15.768 L12.616,15.224 C12.9343867,15.1735917 13.2408051,15.0651251 13.52,14.904 C14.1076987,14.5372475 14.4435305,13.8748268 14.392,13.184 C14.4155936,12.6479858 14.1805224,12.1332098 13.76,11.8 C13.4060793,11.5638927 13.0210635,11.3781158 12.616,11.248 L12.616,9.44 C12.7381027,9.49441881 12.8391889,9.58708122 12.904,9.704 C12.9843293,9.89722087 13.0303519,10.1029689 13.04,10.312 L14.272,10.312 C14.3015416,9.67587346 13.9986262,9.07004264 13.472,8.712 C13.2174284,8.54933749 12.9310319,8.44296162 12.632,8.4 L12.632,8 C12.632,7.66862915 12.3633708,7.4 12.032,7.4 C11.7006292,7.4 11.432,7.66862915 11.432,8 L11.432,8.32 C11.3177401,8.33186857 11.2050906,8.35600775 11.096,8.392 C10.8163807,8.48003153 10.5633202,8.63681899 10.36,8.848 C10.1853843,9.02336685 10.0491645,9.23314534 9.96,9.464 C9.860652,9.7188269 9.81174638,9.9905248 9.816,10.264 C9.80373824,10.6713569 9.93387205,11.0702454 10.184,11.392 C10.5153473,11.7570958 10.951098,12.0112837 11.432,12.12 L11.432,14.104 C11.2909003,14.0616456 11.1673714,13.9746139 11.08,13.856 L11.08,13.856 Z M12.8,12.696 C12.9834943,12.8567107 13.0836435,13.0923558 13.072,13.336 C13.1017281,13.6159499 12.9944712,13.8930304 12.784,14.08 C12.7266725,14.1170637 12.6648367,14.1466373 12.6,14.168 L12.6,12.568 C12.6694475,12.6061572 12.7362635,12.6489194 12.8,12.696 L12.8,12.696 Z M11.288,10.76 C11.0918088,10.6140798 10.9808917,10.3802546 10.992,10.136 C10.9821442,9.92784441 11.0538998,9.7240584 11.192,9.568 C11.2538258,9.51210868 11.3240057,9.46622181 11.4,9.432 L11.4,10.824 L11.288,10.76 Z" id="Shape"></path>
            </g>
        </g>
    </g>
</svg>