<?xml version="1.0" encoding="UTF-8"?>
<svg width="25px" height="25px" viewBox="0 0 25 25" version="1.1" xmlns="http://www.w3.org/2000/svg" xmlns:xlink="http://www.w3.org/1999/xlink">
    <!-- Generator: Sketch 63 (92445) - https://sketch.com -->
    <title>рулетка</title>
    <desc>Created with Sketch.</desc>
    <g id="иконки" stroke="none" stroke-width="1" fill="none" fill-rule="evenodd">
        <g id="Artboard" transform="translate(-128.000000, -124.000000)" fill="#999999" fill-rule="nonzero">
            <g id="рулетка" transform="translate(128.261458, 124.669226)">
                <path d="M12,0 C5.372583,0 4.26325641e-15,5.372583 4.26325641e-15,12 C4.26325641e-15,18.627417 5.372583,24 12,24 C18.627417,24 24,18.627417 24,12 C24,5.372583 18.627417,0 12,0 L12,0 Z M16.56,6.344 C15.4960427,5.46996234 14.2062479,4.91521191 12.84,4.744 L12.84,1.64 C15.0347684,1.81913598 17.1160337,2.69029816 18.784,4.128 L16.56,6.344 Z M11.24,4.744 C9.86879439,4.88910254 8.56731868,5.42190283 7.488,6.28 L5.264,4.056 C6.94473333,2.62363811 9.03777154,1.76344704 11.24,1.6 L11.24,4.744 Z M12.04,6.344 C15.1649547,6.36165844 17.6851707,8.90690657 17.6719956,12.0318832 C17.6587168,15.1568597 15.1170451,17.6806826 11.9920529,17.6719101 C8.86706068,17.6630917 6.33963604,15.1250015 6.34399436,12 C6.34399436,8.87498071 8.87498383,6.34041387 12,6.336 L12.04,6.344 Z M7.488,17.68 C8.56731868,18.5380972 9.86879439,19.0708975 11.24,19.216 L11.24,22.36 C9.03777154,22.196553 6.94473333,21.3363619 5.264,19.904 L7.488,17.68 Z M12.84,19.208 C14.2075344,19.041537 15.4986053,18.4862377 16.56,17.608 L18.784,19.824 C17.119301,21.2669763 15.0362326,22.1388932 12.84,22.312 L12.84,19.208 Z M17.688,16.512 C18.5365219,15.4400705 19.0660624,14.1508749 19.216,12.792 L22.36,12.792 C22.194306,14.9778444 21.336886,17.0541458 19.912,18.72 L17.688,16.512 Z M19.216,11.192 C19.0573707,9.84989943 18.528291,8.57844613 17.688,7.52 L19.912,5.296 C21.3384502,6.96401586 22.1959707,9.04336311 22.36,11.232 L19.216,11.192 Z M4.128,5.216 L6.352,7.44 C5.48255292,8.51495033 4.94098266,9.81749623 4.792,11.192 L1.64,11.192 C1.81249548,8.98604947 2.684062,6.89260833 4.128,5.216 L4.128,5.216 Z M1.64,12.792 L4.792,12.792 C4.93948939,14.1693004 5.4811415,15.4748208 6.352,16.552 L4.128,18.776 C2.68249733,17.0972328 1.81082932,15.0007451 1.64,12.792 L1.64,12.792 Z" id="Shape"></path>
                <circle id="Oval" cx="15.408" cy="3.856" r="1.2"></circle>
                <path d="M8.744,13.2 C9.08493726,13.1981966 9.40854952,13.0495099 9.632,12.792 L10.624,12.792 C10.7619909,13.0334113 10.9605149,13.2346926 11.2,13.376 L11.2,14.368 C10.7884123,14.7361494 10.6812008,15.3376583 10.9402473,15.8253399 C11.1992938,16.3130215 11.7577144,16.5609602 12.2931927,16.4260476 C12.828671,16.291135 13.2029506,15.8082044 13.2,15.256 C13.2012613,14.9161031 13.0553973,14.5922849 12.8,14.368 L12.8,13.376 C13.0424202,13.2357959 13.2437959,13.0344202 13.384,12.792 L14.376,12.792 C14.5994505,13.0495099 14.9230627,13.1981966 15.264,13.2 C15.81398,13.1996364 16.293314,12.8254436 16.4271395,12.2919937 C16.560965,11.7585438 16.315022,11.2024023 15.8303405,10.9424753 C15.3456591,10.6825483 14.7463201,10.7853784 14.376,11.192 L13.384,11.192 C13.2399157,10.9546961 13.0392686,10.7567976 12.8,10.616 L12.8,9.624 C13.0553973,9.39971511 13.2012613,9.07589686 13.2,8.736 C13.2029506,8.18379559 12.828671,7.70086502 12.2931927,7.5659524 C11.7577144,7.43103979 11.1992938,7.67897853 10.9402473,8.16666014 C10.6812008,8.65434175 10.7884123,9.25585059 11.2,9.624 L11.2,10.616 C10.964842,10.7593551 10.7673551,10.956842 10.624,11.192 L9.632,11.192 C9.26167995,10.7853784 8.66234087,10.6825483 8.17765945,10.9424753 C7.69297804,11.2024023 7.44703499,11.7585438 7.58086047,12.2919937 C7.71468595,12.8254436 8.19402002,13.1996364 8.744,13.2 L8.744,13.2 Z" id="Path"></path>
            </g>
        </g>
    </g>
</svg>