<?xml version="1.0" encoding="UTF-8"?>
<svg width="25px" height="17px" viewBox="0 0 25 17" version="1.1" xmlns="http://www.w3.org/2000/svg" xmlns:xlink="http://www.w3.org/1999/xlink">
    <!-- Generator: Sketch 63 (92445) - https://sketch.com -->
    <title>скретч</title>
    <desc>Created with Sketch.</desc>
    <g id="иконки" stroke="none" stroke-width="1" fill="none" fill-rule="evenodd">
        <g id="Artboard" transform="translate(-328.000000, -230.000000)" fill="#999999" fill-rule="nonzero">
            <g id="скретч" transform="translate(328.311458, 230.729226)">
                <path d="M22.472,1.13686838e-14 L1.528,1.13686838e-14 C0.684108902,1.13686838e-14 -1.13686838e-14,0.684108902 -1.13686838e-14,1.528 L-1.13686838e-14,14.448 C-1.13686838e-14,15.2918911 0.684108902,15.976 1.528,15.976 L22.472,15.976 C23.3158911,15.976 24,15.2918911 24,14.448 L24,1.528 C24,0.684108902 23.3158911,1.13686838e-14 22.472,1.13686838e-14 Z M22.472,14.448 L1.528,14.448 L1.528,1.528 L22.472,1.528 L22.472,14.448 Z" id="Shape"></path>
                <path d="M3.992,11.416 L19.992,11.416 C20.1214256,11.416 20.2455504,11.3645859 20.3370681,11.2730681 C20.4285859,11.1815504 20.48,11.0574256 20.48,10.928 L20.48,4.784 C20.48,4.65457435 20.4285859,4.53044964 20.3370681,4.43893189 C20.2455504,4.34741414 20.1214256,4.296 19.992,4.296 L3.992,4.296 C3.72248504,4.296 3.504,4.51448504 3.504,4.784 L3.504,10.928 C3.504,11.0574256 3.55541414,11.1815504 3.64693189,11.2730681 C3.73844964,11.3645859 3.86257435,11.416 3.992,11.416 L3.992,11.416 Z M7.48,6.072 C8.936,5.808 9.08,6.72 9.152,7.672 C9.33504404,6.79159751 10.0407799,6.11447254 10.928,5.968 C12.152,5.776 12.656,6.72 13.104,7.704 C13.28,7.344 13.456,6.992 13.616,6.624 C13.776,6.256 15.376,5.824 15.64,6.224 L16.616,7.72 C16.6960536,7.56921153 16.7681524,7.41433261 16.832,7.256 C17.032,6.784 18.984,6.6 18.848,6.944 C18.5122375,7.74380439 18.05335,8.48612246 17.488,9.144 C17.224,9.448 15.768,10.008 15.456,9.536 L14.656,8.304 C14.456,8.68 14.256,9.048 14.04,9.416 C13.824,9.784 12.4,10.216 12.072,9.88 C11.6283962,9.30781537 11.2749718,8.67111172 11.024,7.992 C10.8610589,8.5567673 10.6186321,9.09549364 10.304,9.592 C9.79725942,10.0276794 9.12294745,10.215314 8.464,10.104 C8.05200238,10.014191 7.721189,9.70788231 7.6,9.304 C7.52,9.784 5.592,10.104 5.568,9.744 C5.448,8.272 5.56,6.424 7.504,6.072 L7.48,6.072 Z" id="Shape"></path>
            </g>
        </g>
    </g>
</svg>