<?xml version="1.0" encoding="UTF-8"?>
<svg width="24px" height="17px" viewBox="0 0 24 17" version="1.1" xmlns="http://www.w3.org/2000/svg" xmlns:xlink="http://www.w3.org/1999/xlink">
    <!-- Generator: Sketch 63 (92445) - https://sketch.com -->
    <title>игровые автоматы</title>
    <desc>Created with Sketch.</desc>
    <g id="иконки" stroke="none" stroke-width="1" fill="none" fill-rule="evenodd">
        <g id="Artboard" transform="translate(-132.000000, -326.000000)" fill="#999999" fill-rule="nonzero">
            <g id="игровые-автоматы" transform="translate(132.581458, 326.187080)">
                <path d="M23.2137931,2.19487936 C23.1402846,0.962103192 22.1191038,-1.17607074e-14 20.8841379,-1.17607074e-14 C19.6491721,-1.17607074e-14 18.6279913,0.962103192 18.5544828,2.19487936 C18.5556247,3.16593643 19.1642101,4.032509 20.0772414,4.36315522 L20.0772414,9.56867247 C20.0772414,9.65143109 19.9282759,9.77556902 19.7131034,9.77556902 L19.4648276,9.77556902 L19.4648276,6.73832764 C19.4423724,5.84040064 18.7078629,5.1242538 17.8096552,5.12453454 L1.65517241,5.12453454 C0.756964729,5.1242538 0.0224551493,5.84040064 4.41026526e-15,6.73832764 L4.41026526e-15,14.7990173 C4.41026526e-15,15.7131438 0.741045931,16.4541897 1.65517241,16.4541897 L17.8510345,16.4541897 C18.765161,16.4541897 19.5062069,15.7131438 19.5062069,14.7990173 L19.5062069,11.3728104 L19.7544828,11.3728104 C20.802927,11.4148254 21.6876342,10.6004505 21.7324138,9.55212074 L21.7324138,4.3466035 C22.6234854,4.00449446 23.2122085,3.14936593 23.2137931,2.19487936 Z M17.8510345,14.7990173 L1.65517241,14.7990173 L1.65517241,6.72177591 L17.8510345,6.72177591 L17.8510345,14.7990173 Z M20.88,1.47487936 C21.1693445,1.47153401 21.431912,1.64370169 21.5441902,1.91039441 C21.6564685,2.17708713 21.5961044,2.48520979 21.3914933,2.6898209 C21.1868821,2.89443201 20.8787595,2.95479614 20.6120668,2.84251787 C20.3453741,2.7302396 20.1732064,2.46767211 20.1765517,2.17832764 C20.185543,1.79630278 20.4978694,1.49132529 20.88,1.49143109 L20.88,1.47487936 Z" id="Shape"></path>
                <path d="M6.10758621,7.88867247 L3.68275862,7.88867247 C3.22569538,7.88867247 2.85517241,8.25919543 2.85517241,8.71625867 L2.85517241,12.8128104 C2.85517241,13.2698736 3.22569538,13.6403966 3.68275862,13.6403966 L6.10758621,13.6403966 C6.56464945,13.6403966 6.93517241,13.2698736 6.93517241,12.8128104 L6.93517241,8.71625867 C6.93517241,8.25919543 6.56464945,7.88867247 6.10758621,7.88867247 Z M5.28,12.0266035 L4.45241379,12.0266035 L4.45241379,9.54384488 L5.28,9.54384488 L5.28,12.0266035 Z" id="Shape"></path>
                <path d="M10.9655172,7.92177591 L8.54068966,7.92177591 C8.08362641,7.92177591 7.71310345,8.29229888 7.71310345,8.74936212 L7.71310345,12.8872932 C7.71310345,13.3443564 8.08362641,13.7148794 8.54068966,13.7148794 L10.9655172,13.7148794 C11.4225805,13.7148794 11.7931034,13.3443564 11.7931034,12.8872932 L11.7931034,8.74936212 C11.7931034,8.29229888 11.4225805,7.92177591 10.9655172,7.92177591 Z M10.137931,12.0183276 L9.31034483,12.0183276 L9.31034483,9.53556902 L10.137931,9.53556902 L10.137931,12.0183276 Z" id="Shape"></path>
                <path d="M15.8151724,7.88867247 L13.3986207,7.88867247 C12.9415574,7.88867247 12.5710345,8.25919543 12.5710345,8.71625867 L12.5710345,12.8128104 C12.5710345,13.2698736 12.9415574,13.6403966 13.3986207,13.6403966 L15.8151724,13.6403966 C16.2722357,13.6403966 16.6427586,13.2698736 16.6427586,12.8128104 L16.6427586,8.71625867 C16.6427586,8.25919543 16.2722357,7.88867247 15.8151724,7.88867247 Z M14.9875862,12.0266035 L14.16,12.0266035 L14.16,9.54384488 L14.9875862,9.54384488 L14.9875862,12.0266035 Z" id="Shape"></path>
            </g>
        </g>
    </g>
</svg>