<?xml version="1.0" encoding="UTF-8"?>
<svg width="25px" height="22px" viewBox="0 0 25 22" version="1.1" xmlns="http://www.w3.org/2000/svg" xmlns:xlink="http://www.w3.org/1999/xlink">
    <!-- Generator: Sketch 63 (92445) - https://sketch.com -->
    <title>видеопокер</title>
    <desc>Created with Sketch.</desc>
    <g id="иконки" stroke="none" stroke-width="1" fill="none" fill-rule="evenodd">
        <g id="Artboard" transform="translate(-228.000000, -228.000000)" fill="#999999" fill-rule="nonzero">
            <g id="видеопокер" transform="translate(228.600837, 228.289226)">
                <line x1="11.7684973" y1="17.24" x2="11.7684973" y2="20.84" id="Path"></line>
                <path d="M16.3204973,11.5440011 L20.6804973,11.5440011 C20.9500122,11.5440011 21.1684973,11.325515 21.1684973,11.056 L21.1684973,4.92 C21.1684973,4.79057435 21.1170831,4.66644964 21.0255654,4.57493189 C20.9340476,4.48341414 20.8099229,4.432 20.6804973,4.432 L16.3204973,4.432 C16.0509823,4.432 15.8324973,4.65048504 15.8324973,4.92 L15.8324973,11.024 C15.8236336,11.158875 15.8711075,11.2913852 15.9636035,11.3899465 C16.0560995,11.4885078 16.1853316,11.5442909 16.3204973,11.5440011 Z M17.4324973,6.288 C17.6335793,6.20204248 17.8610842,6.2021479 18.0620865,6.28829175 C18.2630888,6.3744356 18.4200651,6.5391078 18.4964973,6.744 C18.6220369,6.41636902 18.9464077,6.20877168 19.2964973,6.232 C19.7383251,6.232 20.0964973,6.5901722 20.0964973,7.032 C20.0964973,7.792 19.6404973,8.232 18.5364973,9.288 L18.5364973,9.288 C18.5273853,9.29833202 18.5142733,9.30425098 18.5004973,9.30425098 C18.4867212,9.30425098 18.4736093,9.29833202 18.4644973,9.288 C17.3604973,8.232 16.8644973,7.792 16.8644973,7.032 C16.8738483,6.68755671 17.102696,6.38779845 17.4324973,6.288 L17.4324973,6.288 Z" id="Shape"></path>
                <path d="M9.80849726,11.5440011 L14.1684973,11.5440011 C14.4380122,11.5440011 14.6564973,11.325515 14.6564973,11.056 L14.6564973,4.92 C14.6564973,4.79057435 14.6050831,4.66644964 14.5135654,4.57493189 C14.4220476,4.48341414 14.2979229,4.432 14.1684973,4.432 L9.80849726,4.432 C9.53898231,4.432 9.32049726,4.65048504 9.32049726,4.92 L9.32049726,11.024 C9.31163361,11.158875 9.35910749,11.2913852 9.45160349,11.3899465 C9.54409949,11.4885078 9.6733316,11.5442909 9.80849726,11.5440011 Z M11.9684973,5.768 L13.4964973,7.768 L11.9684973,9.76 L10.4484973,7.768 L11.9684973,5.768 Z" id="Shape"></path>
                <path d="M3.27249726,11.544 L7.64049726,11.544 C7.90821751,11.5397157 8.12421292,11.3237202 8.12849726,11.056 L8.12849726,4.92 C8.12849726,4.79057435 8.07708313,4.66644964 7.98556537,4.57493189 C7.89404762,4.48341414 7.76992291,4.432 7.64049726,4.432 L3.27249726,4.432 C3.14307162,4.432 3.01894691,4.48341414 2.92742916,4.57493189 C2.8359114,4.66644964 2.78449726,4.79057435 2.78449726,4.92 L2.78449726,11.024 C2.77797735,11.1582761 2.8262414,11.2894475 2.91823671,11.3874753 C3.01023201,11.4855031 3.13807799,11.5419899 3.27249726,11.544 L3.27249726,11.544 Z M5.41649726,6.024 L5.41649726,6.024 C5.44071024,6.00782202 5.47228429,6.00782202 5.49649726,6.024 C6.59249726,7.088 7.04849726,7.52 7.04849726,8.288 C7.04171108,8.61894127 6.83181342,8.91152588 6.52049726,9.024 C6.21977498,9.13283368 5.88346415,9.06495443 5.64849726,8.848 L5.64849726,9.544 C5.64849726,9.544 5.64849726,9.544 5.64849726,9.544 L5.96049726,9.544 C6.03690726,9.5281542 6.1153069,9.56013164 6.15883692,9.62489824 C6.20236695,9.68966485 6.20236695,9.77433515 6.15883692,9.83910176 C6.1153069,9.90386836 6.03690726,9.9358458 5.96049726,9.92 L4.96849726,9.92 C4.89208727,9.9358458 4.81368763,9.90386836 4.77015761,9.83910176 C4.72662758,9.77433515 4.72662758,9.68966485 4.77015761,9.62489824 C4.81368763,9.56013164 4.89208727,9.5281542 4.96849726,9.544 L5.28049726,9.544 C5.28049726,9.544 5.28049726,9.544 5.28049726,9.544 L5.28049726,8.84 C5.12889863,8.99466893 4.92106832,9.08126489 4.70449726,9.08 C4.26266946,9.08 3.90449726,8.7218278 3.90449726,8.28 C3.88849726,7.52 4.34449726,7.088 5.44049726,6.024 L5.41649726,6.024 Z" id="Shape"></path>
                <path d="M22.4724973,9.9475983e-15 L1.52849726,9.9475983e-15 C0.684606167,9.9475983e-15 0.000497264432,0.684108902 0.000497264432,1.528 L0.000497264432,13.632 C0.000497264432,13.632 0.000497264432,13.696 0.000497264432,13.728 L0.000497264432,16.072 C-0.0123525577,16.6971872 0.224286959,17.3017558 0.658120969,17.7521025 C1.09195498,18.2024492 1.68726626,18.4614974 2.31249726,18.472 L11.0324973,18.472 L11.0324973,19.616 L7.57649726,19.616 C7.24795507,19.5139607 6.89096564,19.6333899 6.68996392,19.9125857 C6.48896219,20.1917815 6.48896219,20.5682185 6.68996392,20.8474143 C6.89096564,21.1266101 7.24795507,21.2460393 7.57649726,21.144 L16.0084973,21.144 C16.3431526,21.0400621 16.5712126,20.7304244 16.5712126,20.38 C16.5712126,20.0295756 16.3431526,19.7199379 16.0084973,19.616 L12.5524973,19.616 L12.5524973,18.472 L21.6724973,18.472 C22.2977283,18.4614974 22.8930395,18.2024492 23.3268736,17.7521025 C23.7607076,17.3017558 23.9973471,16.6971872 23.9844973,16.072 L23.9844973,14.536 C23.9883512,14.504116 23.9883512,14.471884 23.9844973,14.44 L23.9844973,1.528 C23.9802454,0.692091296 23.3083149,0.0130504289 22.4724973,9.9475983e-15 Z M22.4724973,16.072 C22.4880549,16.2936974 22.4106889,16.5118754 22.2589406,16.6742461 C22.1071923,16.8366168 21.8947392,16.9285452 21.6724973,16.9280024 L2.31249726,16.9280024 C2.0902553,16.9285452 1.87780221,16.8366168 1.7260539,16.6742461 C1.57430559,16.5118754 1.49693961,16.2936974 1.51249726,16.072 L1.51249726,15.968 L22.4724973,15.968 L22.4724973,16.072 Z M22.4724973,12.2 L22.4724973,14.44 L1.52849726,14.44 L1.52849726,13.776 L1.52849726,13.776 L1.52849726,12.176 L1.52849726,12.176 L1.52849726,1.528 L22.4724973,1.528 L22.4724973,12.2 Z" id="Shape"></path>
            </g>
        </g>
    </g>
</svg>