<svg xmlns="http://www.w3.org/2000/svg" viewBox="0 0 68.72 68.72"><path d="M68.63 36.61a34.34 34.34 0 0 1-29.32 31.75L39 66.14a33.51 33.51 0 0 0 4.42-1l-.27-.1 3.76-11.53 1.8-1.3h12.17v.26a31.87 31.87 0 0 0 5.54-16z"/><path d="M68.71 34.36a22.19 22.19 0 0 1-.08 2.29l-2.22-.15v-1.14l-.17.23-9.78-7.24-10.94 3.55-.67-2.11 10.9-3.55 3.79-11.63.24.08a32.25 32.25 0 0 0-14.4-10.51l.79-2.08a34.38 34.38 0 0 1 22.55 32.26z"/><path d="M42 42.93l6.74 9.28-1.8 1.31-6.73-9.29H28.55l-6.74 9.28-1.81-1.3 6.74-9.28-3.59-11-10.89-3.58.67-2.11 10.93 3.54L33.25 23h2.22l9.39 6.82.69 2.11zM46.17 2.1l-.79 2.08-.22-.1.17.23-9.85 7.16v11.45h-2.23V11.47L23.4 4.3l.17-.23-.22.09-.79-2.07a34.35 34.35 0 0 1 23.61 0zM34.36 68.72a34.37 34.37 0 0 1-33.31-26l2.1-.52a31.83 31.83 0 0 0 4.64 10.3v-.26H20l1.79 1.28 3.77 11.57-.28.09a32.25 32.25 0 0 0 13.74 1l.31 2.19a34.68 34.68 0 0 1-5 .35z"/><path d="M0 34.36A34.37 34.37 0 0 1 22.56 2.1l.79 2.08A32.25 32.25 0 0 0 8.94 14.73l.24-.12 3.75 11.58-.61 2.16-9.85 7.16-.22-.29a33.07 33.07 0 0 0 .9 7L1 42.73a34.23 34.23 0 0 1-1-8.37z"/></svg>