<svg xmlns="http://www.w3.org/2000/svg" viewBox="0 0 85 85"><path d="M42.43 77.87a28.28 28.28 0 1 0-28.38-28.28 28.4 28.4 0 0 0 28.38 28.28M7 49.57A35.42 35.42 0 1 1 42.45 85 35.41 35.41 0 0 1 7 49.57" fill="#666"/><path d="M42.35 10.83h-9.44c-1.08 0-1.51-.42-1.51-1.49V1.51c0-1 .46-1.5 1.46-1.5h18.87a1.27 1.27 0 0 1 1.43 1.45v8c0 1-.44 1.38-1.45 1.39h-9.36"/><path d="M68.74 18.55a5.59 5.59 0 1 1 5.58-5.62 5.54 5.54 0 0 1-5.49 5.6h-.09z" fill="#666"/><path d="M42.32 54.53a5.56 5.56 0 1 1 .15-11.11h.3a1.9 1.9 0 0 0 1-.3c3.29-2.08 6.56-4.19 9.84-6.29a.94.94 0 0 1 1.46.31c.27.43.06.74-.19 1.08-2.18 3.06-4.35 6.13-6.55 9.19a2.54 2.54 0 0 0-.49 1.59 5.56 5.56 0 0 1-5.52 5.52m-12.26 9.35l-3.76 3.74-2-2 3.74-3.74 2 2m30.66 1.74l-2 2-3.91-3.91 2-2 3.93 3.91M40.94 30.61h3v-5.54h-3zm-16.83 2.65l2-1.94L30 35.15l-2 1.92-3.83-3.81m34.58-2l2 1.93-3.93 3.89-1.91-2 3.87-3.86M18 50.93h5.54v-3H18zm43.3 0h5.54v-3h-5.53zM40.93 73.79h3v-5.53h-3z"/></svg>