<svg width="146" height="146" viewBox="0 0 146 146" fill="none" xmlns="http://www.w3.org/2000/svg">
    <path d="M91.6972 83.1242L141.436 125.811C146.223 129.954 146.759 137.187 142.636 141.991C138.512 146.795 131.281 147.361 126.459 143.258C126.017 142.877 125.603 142.463 125.221 142.021L82.5315 92.2854C80.3338 89.7053 80.4875 85.8696 82.8846 83.4736C85.2818 81.0777 89.1178 80.9255 91.6972 83.1242Z" fill="#122D66"/>
    <path d="M93.3926 92.2104L134.178 130.04" stroke="#4C84EA" stroke-width="16" stroke-linecap="round"/>
    <path d="M75.8469 89.254L86.7397 100.114C88.0295 101.398 90.1111 101.398 91.4009 100.114L100.526 90.9688C101.806 89.6773 101.806 87.5922 100.526 86.3008L89.633 75.4405C88.3431 74.1569 86.2616 74.1569 84.9717 75.4405L75.8469 84.586C74.5666 85.8774 74.5666 87.9625 75.8469 89.254Z" fill="#C0C0C0"/>
    <path d="M62.6558 93.5855C62.6544 94.3631 62.9815 95.1051 63.5564 95.6288C64.1313 96.1526 64.9006 96.4094 65.675 96.336C81.6528 94.8841 94.3081 82.2212 95.7464 66.2466C95.8142 65.4756 95.5548 64.7115 95.0315 64.1411C94.5083 63.5706 93.7693 63.2462 92.9951 63.2471H62.6558V93.5855Z" fill="#122D66"/>
    <path d="M80.9849 77.8085C81.238 77.5682 81.5826 77.4331 81.9421 77.4331C82.3016 77.4331 82.6463 77.5682 82.8994 77.8085L86.2995 81.0003C85.4648 81.9609 84.5714 82.8808 83.6192 83.7598C82.6671 84.6388 81.6766 85.4853 80.6479 86.2995L77.2363 83.1113C76.7106 82.6127 76.7106 81.8087 77.2363 81.3101L80.9849 77.8085Z" fill="#706E6E"/>
    <path d="M79.8115 80.1591C94.478 65.4713 94.478 41.6576 79.8115 26.9698C65.145 12.282 41.3659 12.282 26.6994 26.9698C12.0329 41.6576 12.0329 65.4713 26.6994 80.1591C41.3659 94.8469 65.145 94.8469 79.8115 80.1591Z" fill="white"/>
    <path d="M92.2104 85.1174L95.757 88.664" stroke="white" stroke-width="4" stroke-linecap="round" stroke-linejoin="round"/>
    <path d="M74.4508 33.0929C75.6444 30.4156 71.9228 26.1485 66.1384 23.5621C60.3539 20.9756 54.697 21.0493 53.5034 23.7266C52.3097 26.404 56.0313 30.6711 61.8158 33.2575C67.6003 35.8439 73.2571 35.7703 74.4508 33.0929Z" fill="white"/>
    <path opacity="0.1" d="M34 75.7078C33.9962 79.5691 34.601 83.4068 35.7921 87.0796C48.9884 94.3234 65.2675 92.7721 76.8599 83.1662C88.4522 73.5603 93.0078 57.847 88.3524 43.5258C76.9839 37.2863 63.1682 37.5118 52.0092 44.1191C40.8502 50.7263 34.0041 62.7346 34 75.7078Z" fill="#B3B3B3"/>
    <g opacity="0.2">
    <path d="M42.5367 80H63.4342C63.7104 80 70.2335 79.9499 74.0699 75.6038C76.2758 73.1043 77.1355 69.7632 76.6246 65.6738C75.0861 53.3876 64.3221 43.1627 60.0587 40.0577L65.2951 33.3655C65.3865 33.249 65.4617 33.1194 65.5168 32.9829C66.2506 31.157 65.3615 29.0682 63.5306 28.325L61.2252 27.3989C61.0906 25.3821 59.4081 23.783 57.3581 23.783H48.6097C46.5622 23.783 44.881 25.3815 44.7464 27.3977L42.4353 28.3256C40.6057 29.067 39.7165 31.1564 40.4529 32.9835C40.508 33.1206 40.5825 33.249 40.6733 33.3648L45.9122 40.057C41.6501 43.1633 30.8823 53.392 29.3439 65.6726C28.8323 69.7632 29.6932 73.1043 31.8998 75.6038C35.7374 79.9499 42.2618 80 42.5367 80ZM43.613 31.2441L45.9392 30.3099L47.7237 33.6178C48.0086 34.1463 48.5502 34.4443 49.1093 34.4443C49.3623 34.4443 49.6184 34.3842 49.8551 34.2558C50.6196 33.8438 50.9057 32.8883 50.4925 32.1244L48.0637 27.6218C48.0242 27.5498 47.9766 27.486 47.929 27.424C48.0292 27.1403 48.2985 26.93 48.6103 26.93H57.3594C57.6906 26.93 57.978 27.1635 58.0625 27.4728L57.9717 27.7421L55.6068 32.1251C55.1948 32.8896 55.4797 33.8445 56.2455 34.2565C56.4828 34.3848 56.7382 34.4449 56.99 34.4449C57.5504 34.4449 58.092 34.1463 58.3756 33.6184L60.1376 30.3531L62.3522 31.2435C62.5269 31.3142 62.6346 31.4927 62.6271 31.6717L57.0419 38.8073C55.8335 38.662 54.2844 38.6226 52.9845 38.6226C51.6859 38.6226 50.1374 38.662 48.9277 38.8073L43.3413 31.6717C43.3344 31.4914 43.4402 31.3136 43.613 31.2441ZM32.4658 66.0645C34.1119 52.9243 47.4225 42.6061 48.5646 42.0526C48.9133 41.9342 50.515 41.7677 52.9845 41.7677C55.4547 41.7677 57.057 41.9342 57.3663 42.0357C58.5491 42.6067 71.8571 52.9186 73.5026 66.0639C73.8965 69.2153 73.296 71.7224 71.7168 73.515C68.8209 76.8035 63.4862 76.8536 63.433 76.8536H42.5367C42.4828 76.8536 37.1494 76.8035 34.2528 73.515C32.6737 71.7217 32.072 69.2153 32.4658 66.0645Z" fill="#3876E8"/>
    <path d="M51.6058 70.8195V72.1913C51.6058 73.0598 52.3102 73.7642 53.1787 73.7642C54.0484 73.7642 54.7528 73.0598 54.7528 72.1913V70.7994C57.1522 70.5571 59.0318 68.5234 59.0318 66.0595V63.8837C59.0318 62.8712 58.5816 61.3778 56.4415 60.0191C56.3532 59.9628 56.2605 59.9164 56.1641 59.8782L55.8204 59.7461C55.7934 59.7336 55.7715 59.7179 55.7433 59.7067L54.7528 59.3278V53.1165C55.4058 53.3231 55.8855 53.9311 55.8855 54.6537V55.6687C55.8855 56.5384 56.5899 57.2428 57.4583 57.2428C58.3281 57.2428 59.0325 56.5384 59.0325 55.6687V54.6537C59.0325 52.1879 57.1528 50.1542 54.7534 49.9113V48.6421C54.7534 47.7724 54.049 47.068 53.1793 47.068C52.3108 47.068 51.6064 47.7724 51.6064 48.6421V49.8919C49.0261 49.9445 46.9423 52.0577 46.9423 54.6537V56.8233C46.9423 57.832 47.3812 59.3147 49.475 60.6427C49.5633 60.6991 49.6572 60.7467 49.7549 60.7849L51.2288 61.3484L51.607 61.4937V67.6668C50.7617 67.6155 50.0893 66.9173 50.0893 66.0589V65.0439C50.0893 64.1754 49.3849 63.471 48.5151 63.471C47.6467 63.471 46.9423 64.1754 46.9423 65.0439V66.0589C46.9416 68.6536 49.0254 70.7669 51.6058 70.8195ZM50.0886 54.6549C50.0886 53.7952 50.7611 53.0958 51.6064 53.0445V58.1219L51.5206 58.0887C51.5119 58.0862 51.5037 58.085 51.495 58.0824L51.0366 57.9065C50.4487 57.5114 50.0886 57.1032 50.0886 56.8239V54.6549ZM54.8774 62.7554C55.5686 63.2199 55.8848 63.6601 55.8848 63.8843V66.0601C55.8848 66.7827 55.4052 67.3894 54.7522 67.5961V62.7078L54.8774 62.7554Z" fill="#3876E8"/>
    </g>
    <path fill-rule="evenodd" clip-rule="evenodd" d="M77.3749 17.6225C86.9717 23.8719 93.6846 33.6853 96.0301 44.8939L96.015 44.9052C97.7667 53.2482 97.0174 61.9225 93.8612 69.8416C92.8121 72.474 91.5033 74.9952 89.954 77.3679C81.9862 89.5908 68.3765 96.9551 53.7849 96.9392C36.5126 96.9463 20.9015 86.6501 14.1091 70.7711C10.6955 62.7553 9.77389 53.8978 11.4641 45.3511C12.5302 39.9549 14.621 34.8131 17.6233 30.2041C22.2852 23.0599 28.9614 17.4586 36.8074 14.1088C44.8241 10.6955 53.6825 9.77398 62.2301 11.464C67.626 12.5292 72.7672 14.6198 77.3749 17.6225ZM61.4102 89.9759C73.5135 87.4441 83.5446 79.0199 88.129 67.5369H88.1214C94.6451 51.1654 88.7379 32.4646 73.9931 22.8101C71.9599 21.4821 69.7991 20.3607 67.5429 19.4625C58.4354 15.836 48.2634 15.9569 39.2447 19.7988C37.1519 20.6864 35.1467 21.7679 33.2555 23.0292C20.8072 31.3316 14.5893 46.3164 17.503 60.9919C20.4167 75.6673 31.8878 87.1409 46.5639 90.059C51.4671 91.0383 56.5183 91.01 61.4102 89.9759Z" fill="#4C84EA"/>
</svg>