<svg xmlns="http://www.w3.org/2000/svg" viewBox="0 0 136 136"><path d="M81.7 73.13l49.74 42.68a11.5 11.5 0 0 1-15 17.45 12.1 12.1 0 0 1-1.24-1.24L72.52 82.3a6.51 6.51 0 0 1 9.17-9.17z" fill="#290261"/><path d="M83.4 82.2l40.8 37.8" fill="none" stroke="#601dc0" stroke-linecap="round" stroke-width="16"/><path d="M65.85 79.25l10.9 10.86a3.29 3.29 0 0 0 4.66 0l9.13-9.1a3.34 3.34 0 0 0 0-4.67l-10.9-10.9a3.31 3.31 0 0 0-4.66 0l-9.12 9.15a3.31 3.31 0 0 0 0 4.66z" fill="silver"/><path d="M52.66 83.6a2.71 2.71 0 0 0 .9 2 2.78 2.78 0 0 0 2.12.71 33.23 33.23 0 0 0 30.07-30.05 2.78 2.78 0 0 0-.75-2.11 2.75 2.75 0 0 0-2-.89H52.66V83.6z" fill="#3b0c7e"/><circle cx="43.26" cy="43.56" r="37.58" fill="#efefef"/><path d="M82.2 75.12l3.55 3.54" fill="none" stroke="#fff" stroke-linecap="round" stroke-linejoin="round" stroke-width="4"/><g fill="#601dc0"><path d="M86 34.9a43.13 43.13 0 1 0-6 32.48 42.3 42.3 0 0 0 3.9-7.53A43.19 43.19 0 0 0 86 34.91h0zm-7.9 22.65A37 37 0 1 1 23.26 13a36.37 36.37 0 0 1 6-3.23 37.16 37.16 0 0 1 28.29-.34A36.2 36.2 0 0 1 64 12.81a37.06 37.06 0 0 1 14.12 44.73z"/><path d="M62.35 9.6a39.14 39.14 0 1 0 2.05 1.18 13.45 13.45 0 0 0-2.05-1.18zM56 28.05L43.2 36 25 28.63V19c2.77-2.7 8.26-7.52 14.22-10a62.93 62.93 0 0 1 16 4.4c.42 4.93.7 11.9.78 14.65zM82 50.2a37.17 37.17 0 0 1-7.58 17l-6.9.8c-1-3.26-2.88-9.16-4.5-13.24L69.68 40l9.24-2A84.34 84.34 0 0 1 82 50.2zM36.5 76.6A23.53 23.53 0 0 1 32 68.7c2.63-2.28 8.86-7.83 14.42-13.7l14 1.2c1.66 4.17 3.6 10.33 4.54 13.4a85.71 85.71 0 0 1-8.8 7.8c-3.47.5-12.34 1.4-19.7-.77zM45 53.68C39.67 59.3 33.68 64.6 30.93 67 29.1 66.62 23 65.17 19 62.08c-1.67-2.94-4.4-9.6-5-22.3L22.9 31l18.87 7.33zM28.9 9.53L34 9a57 57 0 0 0-12.45 9A31 31 0 0 0 13 22 36.65 36.65 0 0 1 28.9 9.53zM7.63 33l4.6 5.72c.57 12.42 2.95 19.52 4.77 23.22L14.22 68a38.77 38.77 0 0 1-6.59-35zM26 78l8.26.07a43.09 43.09 0 0 0 14.9 1.75c1.4 0 2.7-.14 3.83-.24l-2.8 1.85A40 40 0 0 1 26 78zm48.42-54.84A60.71 60.71 0 0 1 77 37l-9 2-11.2-10.5c-.1-2.56-.36-9.8-.8-15l8.5-.5a38.55 38.55 0 0 1 9.93 10.16z" opacity=".2"/></g><ellipse cx="53.98" cy="18.41" rx="5.31" ry="11.47" transform="matrix(.407693 -.913119 .913119 .407693 15.16 60.19)" fill="#fff"/><path d="M23.7 64.54a36.59 36.59 0 0 0 1.8 11.37A36.7 36.7 0 0 0 78 32.36a36.69 36.69 0 0 0-54.3 32.19z" fill="#9c9c9c" opacity=".1"/></svg>