<svg xmlns="http://www.w3.org/2000/svg" viewBox="0 0 136 136"><path d="M81.88 73l49.85 42.4a11.35 11.35 0 0 1 1.2 16.07 11.6 11.6 0 0 1-16.21 1.26 13.09 13.09 0 0 1-1.24-1.23L72.7 82.07a6.42 6.42 0 0 1 .35-8.75 6.57 6.57 0 0 1 8.83-.32z" fill="#290261"/><path d="M83.36 81.9l40.72 37.8" fill="none" stroke="#601dc0" stroke-linecap="round" stroke-width="16"/><path d="M76.83 89.68a3.23 3.23 0 0 0 4.58 0l9-9a3.26 3.26 0 0 0 0-4.59L79.67 65.4a3.25 3.25 0 0 0-4.58 0l-9 9a3.26 3.26 0 0 0 0 4.59l10.74 10.7z" fill="silver"/><path d="M53.1 83.2a2.76 2.76 0 0 0 3 2.76 33.27 33.27 0 0 0 30.15-30.14 2.8 2.8 0 0 0-.72-2.11 2.73 2.73 0 0 0-2-.9H53.1v30.4z" fill="#3b0c7e"/><path d="M70.82 67.18a1.45 1.45 0 0 1 2 0l3.56 3.35a36.3 36.3 0 0 1-2.8 2.89l-3.1 2.67-3.57-3.35a1.28 1.28 0 0 1-.06-1.82l.06-.07z" fill="#706e6e"/><circle cx="43.26" cy="43.35" r="37.51" fill="#525253"/><path d="M23.45,63.76a35.92,35.92,0,0,0,1.8,11.31,37.14,37.14,0,0,0,41.26-3.89A36.34,36.34,0,0,0,78.06,31.73a37.16,37.16,0,0,0-36.52.59A36.48,36.48,0,0,0,23.45,63.76Z" fill="#9c9c9c" opacity=".43"/><path d="M82.2 74.34l3.5 3.5" fill="none" stroke="#fff" stroke-linecap="round" stroke-linejoin="round" stroke-width="4"/><ellipse cx="53.98" cy="18.3" rx="5.29" ry="11.47" transform="matrix(.407693 -.913119 .913119 .407693 15.27 60.13)" fill="#e0e5e8" opacity=".7"/><path d="M85.94,34.64A43,43,0,0,0,67.2,7.44,43.52,43.52,0,0,0,52,1.29,44,44,0,0,0,26.46,3.93,43.22,43.22,0,0,0,7.19,20,42.94,42.94,0,0,0,3.66,60.45,43.5,43.5,0,0,0,79.83,67a42.51,42.51,0,0,0,3.93-7.5,42.94,42.94,0,0,0,2.16-24.88ZM78,57.23A37.23,37.23,0,0,1,7.07,50.7,36.79,36.79,0,0,1,22.89,12.83a36.26,36.26,0,0,1,6-3.22,37.31,37.31,0,0,1,34.89,3A36.84,36.84,0,0,1,78,57.23Z" fill="#601dc0"/><path d="M43.8 81.54v3.27a45.55 45.55 0 0 0 8.72-.81l-.7-3.2a40.78 40.78 0 0 1-8 .8zM82.2 27a40.91 40.91 0 0 0-4-6.79l-3 1.9a37.21 37.21 0 0 1 3.64 6.24L82.2 27zm-4.07 38.75l-2.74-1.88a38.86 38.86 0 0 1-4.83 6.3l2.3 2.43a43 43 0 0 0 5.26-6.85zM7.74 29.08L4.66 27.8a44 44 0 0 0-2.16 7.47l3.25.72a40.26 40.26 0 0 1 2-6.87zM6 51.54a40.8 40.8 0 0 1-.8-8H1.92a44.81 44.81 0 0 0 .89 8.73zm2.8 15.24l3-1.9a37.85 37.85 0 0 1-3.63-6.24L4.83 60a41.8 41.8 0 0 0 3.96 6.78zm5.35 6.38A42 42 0 0 0 21 78.41l1.87-2.73a39 39 0 0 1-6.28-4.83l-2.44 2.3zM43.8 4.9V1.63a44.05 44.05 0 0 0-8.73.89l.7 3.2a40.64 40.64 0 0 1 8-.82zm-15.7 3l-1.34-3.35a41 41 0 0 0-6.8 4l1.9 3a37.74 37.74 0 0 1 6.24-3.65zm-11.63 8.4l-2.3-2.44A42.5 42.5 0 0 0 8.9 20.7l2.73 1.87a38.46 38.46 0 0 1 4.84-6.28zM81.83 43.5h3.27a44.76 44.76 0 0 0-.86-8.72l-3.2.7a40.78 40.78 0 0 1 .8 8zM72.9 13.87A43 43 0 0 0 66 8.61l-1.88 2.73a39.12 39.12 0 0 1 6.3 4.83l2.43-2.3zm8.4 36.62a39.77 39.77 0 0 1-2 6.87l3.07 1.28a42.22 42.22 0 0 0 2.16-7.49zM28.1 82.07a43 43 0 0 0 7.48 2.16l.66-3.23a40.8 40.8 0 0 1-6.86-2l-1.28 3.07zm30.83-77.7a44 44 0 0 0-7.47-2.16l-.67 3.25a39.89 39.89 0 0 1 6.86 2l1.28-3.08zm-.58 74.2l1.34 3.34a41.54 41.54 0 0 0 6.8-4l-1.9-3a37.79 37.79 0 0 1-6.24 3.64z" fill="#fff"/></svg>