<svg width="108" height="25" viewBox="0 0 108 25" xmlns="http://www.w3.org/2000/svg" xmlns:xlink="http://www.w3.org/1999/xlink"><defs><path id="a" d="M0 0h47v25H0z"/></defs><g fill="none" fill-rule="evenodd"><g><mask id="b" fill="#fff"><use xlink:href="#a"/></mask><path d="M1.128 25C.505 25 0 24.512 0 23.91V1.09C0 .488.505 0 1.128 0H41.45C44.515 0 47 2.401 47 5.363V23.91c0 .602-.505 1.09-1.128 1.09H1.128z" fill="#C3C3C3" mask="url(#b)"/></g><path fill="#FFF" d="M34.587 5.52v2.16h-2.52v11.84h-2.222V7.68h-2.541V5.52zM37.88 13.8h2.422L39.1 8.08l-1.22 5.72zm3.482 5.72l-.8-3.48H37.64l-.82 3.48h-2.221l3.081-14h2.821l3.082 14h-2.221z"/><path fill="#FFF" fill-rule="nonzero" d="M17.195 5.52h8.063v2.084H20.68l2.628 4.893-2.643 4.984 4.598.025-.011 2.083-8.042-.044 3.736-7.042zM9.693 11.823l3.421-6.302 2.07-.003.03 13.968-2.082.004-.018-9.643-3.42 5.831-3.44-5.831v9.64H4.171V5.522h2.083z"/><path d="M50 5.176h3.228c.554 0 1.075.062 1.564.185.488.124.95.32 1.386.586.435.267.782.65 1.04 1.152.257.501.386 1.097.386 1.787v.742c0 1.458-.66 2.466-1.98 3.026l2.197 6.19h-2.316l-1.842-5.526h-1.465v5.526H50V5.176zm5.445 4.159v-.156c0-.69-.178-1.182-.534-1.475-.357-.293-.806-.439-1.347-.439h-1.366v3.964h1.366c.528 0 .974-.147 1.337-.44.363-.292.544-.777.544-1.454zm10.172 9.509l-.792-3.398h-2.891l-.812 3.398h-2.198l3.05-13.668h2.791l3.05 13.668h-2.198zm-3.446-5.585h2.396L63.38 7.675l-1.208 5.584zM74.74 5.176v2.109h-2.495v11.559h-2.198V7.284h-2.515V5.177h7.208zm1.598 13.668V5.176h2.277v13.668h-2.277zM86.489 5.176h2.118v13.668H86.45l-3.94-8.709v8.709H80.37V5.176h2.178l3.94 8.708V5.176zm3.874 9.099v-4.55c0-.872.113-1.624.337-2.255.225-.631.531-1.12.92-1.464.39-.345.813-.6 1.268-.762A4.353 4.353 0 0194.363 5c.515 0 .994.078 1.436.234.442.157.858.404 1.247.742.39.339.697.82.921 1.445.224.625.343 1.367.356 2.226v.195h-2.138v-.136c-.026-.898-.205-1.556-.535-1.972a1.566 1.566 0 00-1.287-.625c-1.201 0-1.802.917-1.802 2.753v4.257c0 1.848.601 2.772 1.802 2.772.541 0 .98-.211 1.317-.634.337-.423.505-1.11.505-2.06v-.879h-1.762v-2.109h3.9v3.066c0 .872-.112 1.627-.336 2.265-.225.638-.532 1.129-.92 1.474a3.75 3.75 0 01-1.258.752c-.45.156-.93.234-1.446.234-.528 0-1.02-.081-1.475-.244a3.865 3.865 0 01-1.267-.762c-.39-.345-.696-.833-.92-1.464-.225-.631-.338-1.383-.338-2.255zm9.479.332h2.119c0 .768.185 1.34.554 1.718.37.377.825.566 1.366.566.62 0 1.096-.169 1.426-.507.33-.339.495-.814.495-1.426 0-.65-.181-1.123-.544-1.415-.363-.293-.967-.537-1.812-.733-.317-.065-.6-.14-.852-.224a4.5 4.5 0 01-.861-.42 3.437 3.437 0 01-.812-.664c-.218-.247-.402-.582-.554-1.005a4.169 4.169 0 01-.228-1.416c0-.742.109-1.386.327-1.933.218-.547.515-.97.89-1.27.377-.299.783-.52 1.219-.663A4.476 4.476 0 01103.98 5c.502 0 .967.075 1.396.225.43.15.832.387 1.208.712.376.326.677.785.901 1.377.225.592.337 1.292.337 2.099h-2.119c0-.755-.162-1.328-.485-1.718a1.526 1.526 0 00-1.228-.586c-.495 0-.894.162-1.198.488-.303.325-.455.774-.455 1.347 0 .26.046.495.139.703.092.208.198.371.316.488.12.117.287.222.505.313.218.09.393.153.525.185.132.033.31.075.535.127.066.013.112.02.138.02 2.337.494 3.505 1.816 3.505 3.963 0 .781-.109 1.455-.327 2.021-.218.567-.524 1.01-.92 1.328-.396.319-.829.55-1.297.693a5.377 5.377 0 01-1.575.215c-.514 0-1-.075-1.455-.225a3.942 3.942 0 01-1.277-.712c-.396-.326-.713-.785-.95-1.377-.238-.592-.357-1.285-.357-2.08z" fill="#C3C3C3"/></g></svg>