<svg xmlns="http://www.w3.org/2000/svg" viewBox="0 0 91 15"><path fill="#0085CA" d="M32.825 1.17l-.573 3.686c-1.046-.336-1.96-.79-2.891-.79-2.076 0-3.992 1.552-3.992 3.797 0 2.822 1.64 3.467 3.494 3.408a5.614 5.614 0 0 0 2.046-.533l1.237-.443.528 3.43-.97.4a8.122 8.122 0 0 1-3.947.789c-4.65-.102-6.726-3.675-6.43-7.306.202-2.248 1.27-4.307 2.951-5.69C25.53.897 27.265.562 28.843.53c1.579-.032 2.388.277 3.977.65l.005-.01zM69.86.84l-2.514 13.866h3.826l.97-5.45 2.514 5.45h7.19l4.483-9.189.503 5.242-1.543-.672-1.192 2.555 3.203 2.064h3.62L89.06.846h-4.128L78.397 13.51l-2.8-5.93L81.68.845h-4.524l-4.274 4.528.815-4.528L69.86.84zm-13.026 0L61.62.685c2.127-.048 4.525.534 5.244 2.912.442 1.477-.112 3.083-1.348 3.91 2.011 1.524 1.509 4.676-.281 6.09-1.508 1.151-2.876 1.167-4.6 1.146l-6.033-.07L56.845.84h-.01zM59.7 3.96l-.352 2.202h2.383c.679 0 1.382.027 1.669-.81a1.075 1.075 0 0 0-.138-1.01.94.94 0 0 0-.893-.382H59.7zm-1.247 7.333h2.544c.794 0 1.79-.15 1.976-1.163a1.11 1.11 0 0 0-.256-.88.977.977 0 0 0-.805-.341h-3.047l-.387 2.41-.025-.026zM47.791.84l-7.159 13.866h2.056c1.725-.075 2.132-.598 2.439-1.03 1.558-2.73 2.694-5.333 4.082-8.164l.462 5.333-1.543-.672-1.197 2.57 3.64 1.968h3.213L51.919.872 47.79.84zm-13.548 0h9.818l-.634 3.85h-2.885l-1.795 9.989h-3.81L36.73 4.69h-3.127l.639-3.85z"/><path fill="#002D72" d="M18.799 14.679h3.237L17.361 7.17 23.358.845H18.01L6.11 13.538 8.303.845H5.37L.876 3.975V7.55l2.715-1.37-.372 1.173c-.417 2.442-.84 4.885-1.247 7.327h8.718l3.61-4.08 1.482 2.379c.692 1.063 1.829 1.702 3.047 1.712l-.03-.011zm-7.039-8.65L8.623.845h3.595a3.653 3.653 0 0 1 2.664 1.366l.207.314L11.76 6.03z"/></svg>