<svg viewBox="0 0 1737 400" xmlns="http://www.w3.org/2000/svg" xmlns:xlink="http://www.w3.org/1999/xlink"><defs><path id="a" d="M0 0h752v400H0z"/></defs><g transform="translate(-1)" fill="none" fill-rule="evenodd"><mask id="b" fill="#fff"><use xlink:href="#a"/></mask><path d="M18.048 400C8.078 400 0 392.193 0 382.56V17.44C0 7.807 8.079 0 18.048 0h645.15c49.052 0 88.805 38.42 88.805 85.813v296.75c0 9.633-8.079 17.44-18.048 17.44h-715.9z" fill="#3876E8" mask="url(#b)"/><path fill="#fff" d="M553.4 88.333v34.557h-40.34v189.44h-35.53V122.89h-40.67V88.333zM606.08 220.81h38.744l-19.215-91.527-19.529 91.527zm55.705 91.52l-12.806-55.68h-46.741l-13.126 55.68h-35.536l49.302-224h45.14l49.302 224h-35.536z"/><path fill="#fff" fill-rule="nonzero" d="M275.12 88.333h129v33.337h-73.24l42.05 78.28-42.3 79.74 73.58.4-.18 33.33-128.66-.7 59.76-112.67zM155.09 189.17l54.74-100.841 33.13-.051.48 223.482-33.33.08-.28-154.3-54.73 93.3-55.03-93.3V311.8H66.74V88.329h33.33z"/><path d="M805 314V88h97v30.472h-64.454v68.562h56.158v30.472h-56.158V314H805zm138 0V88h32v226h-32zm72 0V88h31.107l48.882 136.17h.635V88H1128v226h-30.472l-49.517-135.85h-.635V314H1015zm216-79l-15.686-82h-.627L1199 235h32zm-80 79l50.501-226h26.998L1279 314h-32.397l-9.528-48.565h-44.15L1183.398 314H1151zm162 0V88h31.107l48.882 136.17h.635V88H1426v226h-30.472l-49.517-135.85h-.635V314H1313zm258-64.395v13.978c0 6.989-1.326 13.607-3.977 19.855-2.652 6.248-6.31 11.807-10.977 16.678s-10.13 8.736-16.386 11.595-12.992 4.289-20.205 4.289c-6.152 0-12.41-.847-18.773-2.542-6.364-1.694-12.091-4.659-17.182-8.895s-9.28-9.689-12.568-16.36c-3.288-6.671-4.932-15.196-4.932-25.573V138.1c0-7.412 1.273-14.296 3.818-20.649s6.152-11.86 10.818-16.519c4.667-4.659 10.235-8.312 16.705-10.96s13.63-3.97 21.477-3.97c15.273 0 27.682 4.976 37.227 14.93 4.667 4.871 8.326 10.642 10.977 17.314s3.977 13.925 3.977 21.761v12.707h-32.455v-10.8c0-6.354-1.803-11.86-5.409-16.52-3.606-4.659-8.484-6.989-14.636-6.989-8.06 0-13.417 2.489-16.068 7.466-2.651 4.977-3.977 11.278-3.977 18.902v115.64c0 6.565 1.432 12.072 4.295 16.519s8.008 6.671 15.432 6.671c2.122 0 4.402-.37 6.841-1.112 2.44-.741 4.72-1.959 6.841-3.653 1.91-1.694 3.5-4.024 4.773-6.99 1.273-2.964 1.909-6.67 1.909-11.118v-11.12H1571zM1606 314V88h97v30.472h-64.454v66.34h56.158v30.472h-56.158v66.34H1703V314h-97z" fill="#ffffff"/></g></svg>