<svg width="74" height="56" xmlns="http://www.w3.org/2000/svg">
  <g fill="#FFF" fill-rule="nonzero">
    <path d="M9.1829 46.7376c-.1995-.7325-.5952-2.1519-2.6756-2.1519-1.2092 0-3.0367.8697-3.0367 4.2924 0 2.1734.9134 4.1874 3.0367 4.1874 1.3972 0 2.3774-.8482 2.6756-2.3347h2.5114c-.4977 2.6409-2.21 4.4765-5.233 4.4765-3.2046 0-5.499-2.1911-5.499-6.364 0-4.243 2.4271-6.395 5.5305-6.395 3.608 0 5.0643 2.5036 5.2015 4.2893H9.1829zM14.7683 49.3132l2.9524-3.4088h2.8757l-3.1387 3.472 3.223 5.5145H17.871l-2.1296-3.8597-.9732 1.0215v2.8382h-2.3434v-8.9865h2.3434v3.4088z"/>
    <path d="M29.2537 50.3799c0 3.2392-2.161 4.7466-4.5535 4.7466-2.3888 0-4.5674-1.4852-4.5674-4.7257 0-3.243 2.1786-4.7302 4.5674-4.7302 2.3925 0 4.5535 1.4694 4.5535 4.7093m-6.7114 0c0 1.1512.3473 2.7534 2.1579 2.7534 1.8112 0 2.1433-1.5845 2.1433-2.7325 0-1.155-.3321-2.7402-2.1433-2.7402-1.8106 0-2.1579 1.5674-2.1579 2.7193M38.0594 45.9037v8.987H35.716V47.795h-2.5076v2.7711c0 3.4372-1.0293 4.5214-2.6756 4.5214-.4096 0-1.079-.0664-1.4256-.1967v-1.7572c.0484.0348.3466.067.6933.067.704 0 1.0682-.3491 1.0682-3.0855v-4.2114h7.1907zM41.5996 49.3132l2.9524-3.4088h2.8757l-3.1418 3.472 3.226 5.5145h-2.8095l-2.1258-3.8597-.977 1.0215v2.8382h-2.3434v-8.9865h2.3434v3.4088z"/>
    <path d="M56.0849 50.3799c0 3.2392-2.1573 4.7466-4.5498 4.7466s-4.5673-1.4852-4.5673-4.7257c0-3.243 2.1748-4.7302 4.5673-4.7302 2.3925 0 4.5498 1.4694 4.5498 4.7093m-6.707 0c0 1.1512.3467 2.7534 2.1572 2.7534 1.803 0 2.1472-1.5845 2.1472-2.7325 0-1.155-.3441-2.7402-2.1472-2.7402-1.8105 0-2.1572 1.5674-2.1572 2.7193M56.8444 45.9043h4.0351c1.9962 0 3.4563.821 3.4563 2.3214 0 1.0348-.7316 1.7003-1.664 1.9362.9141.2195 1.9295.8065 1.9295 2.2759 0 1.6648-1.2532 2.4543-3.2777 2.4543h-4.4792v-8.9878zm2.339 3.6384h1.5275c.7776 0 1.328-.3131 1.328-1.0178 0-.7331-.5297-1-1.3104-1h-1.545v2.0178zm0 3.7294h1.7231c.8657 0 1.4017-.2675 1.4017-1.1556 0-.785-.5643-1.148-1.4287-1.148h-1.696v2.3036zM73.9808 50.3799c0 3.2392-2.1541 4.7466-4.5498 4.7466-2.3893 0-4.571-1.4852-4.571-4.7257 0-3.243 2.1817-4.7302 4.571-4.7302 2.3957 0 4.5498 1.4694 4.5498 4.7093m-6.7107 0c0 1.1512.3529 2.7534 2.161 2.7534 1.8105 0 2.1402-1.5845 2.1402-2.7325 0-1.155-.3297-2.7402-2.1403-2.7402-1.808 0-2.161 1.5674-2.161 2.7193M17.9964 40.4168c1.9968 0 6.9139-.3517 10.5885-3.0495v2.0463h7.414l.0076-8.9979 3.0959-3.2222 6.739 12.2201h8.8956L44.5278 21.953l9.9437-11.005h-9.1064l-9.3586 10.7975V1.0032H28.585v3.2816C26.3252 1.8451 22.662 0 16.9495 0 4.585 0 2.2636 7.5633 2.2636 11.7969c0 5.8175 3.1103 9.0504 8.5282 10.3711l7.6814 1.9014c4.0515 1.007 6.9486 1.7465 6.9486 4.7618 0 4.0217-4.2132 4.9724-8.003 4.9724-6.946 0-8.1016-4.0717-8.1016-6.24H1.6855c0 4.7605 2.4201 12.8532 16.3109 12.8532m5.0542-22.9043l-9.3095-2.279c-1.5829-.3694-4.0565-1.007-4.0565-4.018 0-3.4403 3.6325-4.6055 6.6836-4.6055 6.9454 0 7.5796 4.0774 7.7859 5.8207h4.4308v7.1597c-1.6256-.9545-3.5444-1.5744-5.5343-2.0779"/>
  </g>
</svg>